{"accessors":[{"bufferView":0,"componentType":5123,"count":24576,"max":[24575],"min":[0],"type":"SCALAR"},{"bufferView":1,"componentType":5126,"count":24576,"max":[63.377044677734375,13.932271003723145,63.31388854980469],"min":[-63.14134216308594,-13.59893798828125,-63.31388854980469],"type":"VEC3"},{"bufferView":2,"componentType":5126,"count":24576,"max":[0.471409410238266,0.3333476781845093,0.8165010213851929],"min":[-0.9428099989891052,-1.0,-0.8165019750595093],"type":"VEC3"},{"bufferView":3,"componentType":5126,"count":24576,"max":[310.8503723144531,1.0],"min":[4.85703706741333,-80.7600326538086],"type":"VEC2"},{"bufferView":4,"componentType":5123,"count":31776,"max":[31775],"min":[0],"type":"SCALAR"},{"bufferView":5,"componentType":5126,"count":31776,"max":[30.722558975219727,30.606168746948242,30.48949432373047],"min":[-30.12596893310547,-30.193830490112305,-30.49030303955078],"type":"VEC3"},{"bufferView":6,"componentType":5126,"count":31776,"max":[0.4714086949825287,0.33333954215049744,0.8164983987808228],"min":[-0.9428099989891052,-1.0,-0.8164983987808228],"type":"VEC3"},{"bufferView":7,"componentType":5126,"count":31776,"max":[60.0,1.0],"min":[-59.0,-59.0],"type":"VEC2"},{"bufferView":8,"componentType":5123,"count":12096,"max":[12095],"min":[0],"type":"SCALAR"},{"bufferView":9,"componentType":5126,"count":12096,"max":[35.75101089477539,35.93663024902344,35.663387298583984],"min":[-35.71311569213867,-35.809837341308594,-35.663387298583984],"type":"VEC3"},{"bufferView":10,"componentType":5126,"count":12096,"max":[0.7749038934707642,0.6947638988494873,0.9825236201286316],"min":[-0.942811906337738,-1.0,-0.9825219511985779],"type":"VEC3"},{"bufferView":11,"componentType":5126,"count":12096,"max":[219.28054809570312,1.0],"min":[-22.39116096496582,-110.95578002929688],"type":"VEC2"},{"bufferView":12,"componentType":5126,"count":151,"max":[5.0],"min":[0.0],"type":"SCALAR"},{"bufferView":13,"componentType":5126,"count":151,"max":[0.42507266998291016,0.42507266998291016,0.42507266998291016],"min":[0.02539999969303608,0.02539999969303608,0.02539999969303608],"type":"VEC3"},{"bufferView":14,"componentType":5126,"count":151,"max":[5.0],"min":[0.0],"type":"SCALAR"},{"bufferView":15,"componentType":5126,"count":151,"max":[0.7173030376434326,0.7173030376434326,0.7173030376434326],"min":[0.038615889847278595,0.038615889847278595,0.038615889847278595],"type":"VEC3"},{"bufferView":16,"componentType":5126,"count":151,"max":[5.0],"min":[0.0],"type":"SCALAR"},{"bufferView":17,"componentType":5126,"count":151,"max":[0.329033762216568,0.3290337324142456,0.329033762216568],"min":[0.02539999969303608,0.02539999969303608,0.02539999969303608],"type":"VEC3"}],"animations":[{"channels":[{"sampler":0,"target":{"node":1,"path":"scale"}}],"extensions":{"S8S_v3d_animation_data":{"auto":false,"loop":"REPEAT","offset":0.0,"repeatCount":1.0,"repeatInfinite":true}},"name":"Torus001","samplers":[{"input":12,"interpolation":"LINEAR","output":13}]},{"channels":[{"sampler":0,"target":{"node":3,"path":"scale"}}],"extensions":{"S8S_v3d_animation_data":{"auto":false,"loop":"REPEAT","offset":0.0,"repeatCount":1.0,"repeatInfinite":true}},"name":"GeoSphere001","samplers":[{"input":14,"interpolation":"LINEAR","output":15}]},{"channels":[{"sampler":0,"target":{"node":4,"path":"scale"}}],"extensions":{"S8S_v3d_animation_data":{"auto":false,"loop":"REPEAT","offset":0.0,"repeatCount":1.0,"repeatInfinite":true}},"name":"Box001.001","samplers":[{"input":16,"interpolation":"LINEAR","output":17}]}],"asset":{"generator":"Soft8Soft Verge3D for Blender add-on","version":"2.0"},"bufferViews":[{"buffer":0,"byteLength":49152,"byteOffset":0,"target":34963},{"buffer":0,"byteLength":294912,"byteOffset":49152,"target":34962},{"buffer":0,"byteLength":294912,"byteOffset":344064,"target":34962},{"buffer":0,"byteLength":196608,"byteOffset":638976,"target":34962},{"buffer":0,"byteLength":63552,"byteOffset":835584,"target":34963},{"buffer":0,"byteLength":381312,"byteOffset":899136,"target":34962},{"buffer":0,"byteLength":381312,"byteOffset":1280448,"target":34962},{"buffer":0,"byteLength":254208,"byteOffset":1661760,"target":34962},{"buffer":0,"byteLength":24192,"byteOffset":1915968,"target":34963},{"buffer":0,"byteLength":145152,"byteOffset":1940160,"target":34962},{"buffer":0,"byteLength":145152,"byteOffset":2085312,"target":34962},{"buffer":0,"byteLength":96768,"byteOffset":2230464,"target":34962},{"buffer":0,"byteLength":604,"byteOffset":2327232},{"buffer":0,"byteLength":1812,"byteOffset":2327836},{"buffer":0,"byteLength":604,"byteOffset":2329648},{"buffer":0,"byteLength":1812,"byteOffset":2330252},{"buffer":0,"byteLength":604,"byteOffset":2332064},{"buffer":0,"byteLength":1812,"byteOffset":2332668}],"buffers":[{"byteLength":2334480,"uri":"Drone.bin"}],"cameras":[{"extensions":{"S8S_v3d_camera_data":{"controls":"NONE","enablePan":false,"moveSpeed":0.0,"rotateSpeed":1.0,"viewportFitInitialAspect":1.7777777777777777,"viewportFitType":"AUTO"}},"name":"Camera","perspective":{"aspectRatio":1.7777777777777777,"yfov":0.5033799372418416,"zfar":15.0,"znear":0.10000000149011612},"type":"perspective"}],"extensions":{"S8S_v3d_data":{"lights":[{"color":[1.0,1.0,1.0],"decay":2,"distance":10.00000011175871,"intensity":100.0,"name":"Lamp","profile":"blender","shadow":{"bias":-0.0018,"cameraFar":10.00000011175871,"cameraFov":0,"cameraNear":1.0007989406585693,"enabled":false,"expBias":2.5,"mapSize":512,"radius":1.0,"slopeScaledBias":2.5},"type":"point"}]}},"extensionsUsed":["S8S_v3d_material_data","S8S_v3d_camera_data","S8S_v3d_data","S8S_v3d_mesh_data","S8S_v3d_node_data","S8S_v3d_animation_data","S8S_v3d_scene_data"],"materials":[{"extensions":{"S8S_v3d_material_data":{"nodeGraph":{"edges":[{"fromNode":0,"fromOutput":0,"toInput":0,"toNode":1}],"nodes":[{"inputs":[[0.1169707179069519,0.017641957849264145,0.4910208284854889,1.0],1.0,[1.0,0.20000000298023224,0.10000000149011612],[0.800000011920929,0.800000011920929,0.800000011920929,1.0],0.0,1.0,0.0,0.0,0.0,0.0,0.0,0.5,0.0,0.029999999329447746,1.4500000476837158,0.0,0.0,[0.1169707179069519,0.017641957849264145,0.4910208284854889,1.0],1.0,[0.0,0.0,0.0],[0.0,0.0,0.0],[0.0,0.0,0.0]],"is_active_output":false,"name":"Principled BSDF","outputs":[[0,0,0,0]],"type":"BSDF_PRINCIPLED_BL"},{"inputs":[[0,0,0,0],[0,0,0,0],[0.0,0.0,0.0]],"is_active_output":true,"name":"Material Output","outputs":[],"type":"OUTPUT_MATERIAL_BL"}]}}},"name":"Material"},{"extensions":{"S8S_v3d_material_data":{"nodeGraph":{"edges":[],"nodes":[{"inputs":[[0,0,0,0],[0,0,0,0]],"is_active_output":true,"name":"World Output","outputs":[],"type":"OUTPUT_WORLD_BL"}]}}},"name":"Verge3D_Environment_World"}],"meshes":[{"extensions":{"S8S_v3d_mesh_data":{"colorLayers":{},"uvLayers":{"UVChannel_1":"TEXCOORD_0"}}},"name":"Mesh.003","primitives":[{"attributes":{"NORMAL":2,"POSITION":1,"TEXCOORD_0":3},"indices":0,"material":0,"mode":4}]},{"extensions":{"S8S_v3d_mesh_data":{"colorLayers":{},"uvLayers":{"UVChannel_1":"TEXCOORD_0"}}},"name":"Mesh.005","primitives":[{"attributes":{"NORMAL":6,"POSITION":5,"TEXCOORD_0":7},"indices":4,"material":0,"mode":4}]},{"extensions":{"S8S_v3d_mesh_data":{"colorLayers":{},"uvLayers":{"UVChannel_1":"TEXCOORD_0"}}},"name":"Mesh.011","primitives":[{"attributes":{"NORMAL":10,"POSITION":9,"TEXCOORD_0":11},"indices":8,"material":0,"mode":4}]}],"nodes":[{"camera":0,"extensions":{"S8S_v3d_node_data":{"frustumCulling":true,"groupNames":["Collection 1"],"hidden":false,"renderOrder":0}},"name":"Camera","rotation":[5.424847770996166e-08,0.7071068286895752,-5.4248470604534305e-08,0.7071067094802856],"scale":[1.0,0.9999999403953552,0.9999999403953552],"translation":[7.940030574798584,0.0,0.0]},{"extensions":{"S8S_v3d_node_data":{"frustumCulling":true,"groupNames":[],"hidden":false,"renderOrder":0}},"mesh":0,"name":"Torus001","rotation":[0.1785794198513031,0.0,-0.0,0.9839255809783936],"scale":[0.02539999969303608,0.02539999969303608,0.02539999969303608]},{"extensions":{"S8S_v3d_node_data":{"frustumCulling":true,"groupNames":["Collection 1"],"hidden":false,"light":0,"renderOrder":0}},"name":"Lamp","rotation":[-0.2841663062572479,0.7269423604011536,0.34203389286994934,0.5232754945755005],"scale":[0.9999999403953552,0.9999997615814209,0.9999998807907104],"translation":[4.076245307922363,5.903861999511719,-1.0054539442062378]},{"extensions":{"S8S_v3d_node_data":{"frustumCulling":true,"groupNames":[],"hidden":false,"renderOrder":0}},"mesh":2,"name":"GeoSphere001","rotation":[-2.1855694143368964e-08,0.0,-0.0,1.0],"scale":[0.038615889847278595,0.038615889847278595,0.038615889847278595]},{"extensions":{"S8S_v3d_node_data":{"frustumCulling":true,"groupNames":[],"hidden":false,"renderOrder":0}},"mesh":1,"name":"Box001.001","rotation":[0.18459439277648926,0.02199847251176834,0.11627187579870224,0.9756647944450378],"scale":[0.02540000155568123,0.02539999969303608,0.02540000155568123]}],"scene":0,"scenes":[{"extensions":{"S8S_v3d_scene_data":{"aaMethod":"AUTO","iblEnvironmentMode":"PMREM","physicallyCorrectLights":true,"pmremMaxTileSize":256,"worldMaterial":1}},"extras":{"animFrameRate":30,"coordSystem":"Z_UP_RIGHT"},"name":"Scene","nodes":[1,4,3,2,0]}]}
