<svg width="1863" height="171" viewBox="0 0 1863 171" fill="none" xmlns="http://www.w3.org/2000/svg">
	<g opacity="0.7">
		<path fill-rule="evenodd" clip-rule="evenodd" d="M0.050293 4.73595H81.4023C105.056 4.73595 125.452 12.2078 142.539 27.1574C159.667 41.9512 168.226 61.3377 168.226 85.224C168.226 109.115 159.568 128.596 142.25 143.579C125.165 158.527 104.866 166 81.4023 166H0.050293V4.73595ZM141.594 142.824C158.682 128.04 167.226 108.84 167.226 85.224C167.226 61.608 158.778 42.504 141.882 27.9119C124.986 13.1279 104.826 5.73595 81.4023 5.73595H1.05029V165H81.4023C104.634 165 124.698 157.608 141.594 142.824ZM121.324 122.801L121.33 122.795C131.666 113.211 136.85 100.719 136.85 85.224C136.85 69.7293 131.666 57.2372 121.33 47.6532L121.324 47.647C111.177 38.064 97.7127 33.2319 80.8263 33.2319H31.4263V137.216H80.8263C97.7127 137.216 111.177 132.384 121.324 122.801ZM30.4263 138.216V32.2319H80.8263C97.9143 32.2319 111.642 37.1279 122.01 46.9199C132.57 56.7119 137.85 69.4799 137.85 85.224C137.85 100.968 132.57 113.736 122.01 123.528C111.642 133.32 97.9143 138.216 80.8263 138.216H30.4263ZM305.308 4.73595H399.908C418.755 4.73595 434.463 10.5727 446.956 22.2833C459.468 33.8188 465.708 48.8785 465.708 67.368C465.708 79.8249 462.688 90.8623 456.625 100.447L456.62 100.454C450.755 109.536 442.87 116.511 432.986 121.372L458.363 166H424.083L403.923 129.136H336.684V166H305.308V4.73595ZM335.684 128.136H404.516L424.676 165H456.644L431.588 120.936C431.891 120.793 432.192 120.648 432.491 120.501C442.242 115.717 450.005 108.854 455.78 99.912C461.732 90.504 464.708 79.6559 464.708 67.368C464.708 49.128 458.564 34.3439 446.276 23.0159C433.988 11.4959 418.532 5.73595 399.908 5.73595H306.308V165H335.684V128.136ZM424.859 42.7568L424.854 42.7515C418.356 36.6252 409.692 33.52 398.756 33.52H336.684V100.352H398.756C409.705 100.352 418.375 97.4309 424.87 91.681C431.346 85.7578 434.62 77.6936 434.62 67.368C434.62 56.8413 431.34 48.6821 424.865 42.762L424.859 42.7568ZM425.54 92.424C418.82 98.3759 409.892 101.352 398.756 101.352H335.684V32.52H398.756C409.892 32.52 418.82 35.688 425.54 42.0239C432.26 48.168 435.62 56.616 435.62 67.368C435.62 77.9279 432.26 86.28 425.54 92.424ZM645.589 43.9078C634.692 54.0536 629.204 67.881 629.204 85.5119C629.204 103.139 634.69 117.065 645.59 127.405C656.709 137.578 670.76 142.688 687.82 142.688C704.882 142.688 718.934 137.577 730.053 127.402C741.145 117.061 746.724 103.135 746.724 85.5119C746.724 67.8865 741.144 54.0608 730.057 43.9136L730.05 43.9074C718.929 33.5405 704.879 28.336 687.82 28.336C670.761 28.336 656.71 33.5409 645.589 43.9078ZM644.908 128.136C633.772 117.576 628.204 103.368 628.204 85.5119C628.204 67.6559 633.772 53.544 644.908 43.1759C656.236 32.616 670.54 27.336 687.82 27.336C705.1 27.336 719.404 32.616 730.732 43.1759C742.06 53.544 747.724 67.6559 747.724 85.5119C747.724 103.368 742.06 117.576 730.732 128.136C719.404 138.504 705.1 143.688 687.82 143.688C670.54 143.688 656.236 138.504 644.908 128.136ZM751.853 24.5804C769.167 40.1455 777.812 60.4873 777.812 85.5119C777.812 110.539 769.166 130.975 751.853 146.732L751.849 146.736C734.559 162.277 713.194 170.032 687.82 170.032C662.447 170.032 641.081 162.277 623.792 146.736L623.787 146.732C606.474 130.975 597.828 110.539 597.828 85.5119C597.828 60.4861 606.474 40.1435 623.79 24.578C641.078 8.8445 662.444 0.991943 687.82 0.991943C713.197 0.991943 734.564 8.84536 751.853 24.5804ZM751.18 25.3199C768.268 40.6799 776.812 60.7439 776.812 85.5119C776.812 110.28 768.268 130.44 751.18 145.992C734.092 161.352 712.972 169.032 687.82 169.032C662.668 169.032 641.548 161.352 624.46 145.992C607.372 130.44 598.828 110.28 598.828 85.5119C598.828 60.7439 607.372 40.6799 624.46 25.3199C641.548 9.76794 662.668 1.99194 687.82 1.99194C712.972 1.99194 734.092 9.76794 751.18 25.3199ZM915.542 4.73595H946.365L1050.61 121.483V4.73595H1081.7V166H1050.59L946.342 48.6868V166H915.542V4.73595ZM945.342 46.0559L1051.04 165H1080.7V5.73595H1051.61V124.104L945.918 5.73595H916.542V165H945.342V46.0559ZM1222.49 4.73595H1253.86V166H1222.49V4.73595ZM1560.7 42.3659L1536.27 56.5887L1535.74 55.8637C1522.7 38.1001 1504.1 29.2 1479.81 29.2C1462.16 29.2 1448.12 34.3164 1437.59 44.4677C1427.26 54.6137 1422.06 68.2574 1422.06 85.5119C1422.06 102.171 1427.35 115.728 1437.88 126.269C1448.61 136.619 1462.56 141.824 1479.81 141.824C1503.51 141.824 1522.12 132.837 1535.75 114.86L1536.28 114.151L1561 128.669L1560.42 129.548C1542.74 156.552 1516.01 170.032 1480.38 170.032C1454.45 170.032 1432.98 162.379 1416.06 147.02L1416.06 147.016C1399.31 131.633 1390.97 111.096 1390.97 85.5119C1390.97 59.9246 1399.41 39.3856 1416.35 24.0036C1433.27 8.64629 1454.64 0.991943 1480.38 0.991943C1516.39 0.991943 1543.04 14.4694 1560.14 41.489L1560.7 42.3659ZM1437.18 126.984C1426.43 116.232 1421.06 102.408 1421.06 85.5119C1421.06 68.0399 1426.34 54.1199 1436.9 43.7519C1447.65 33.3839 1461.95 28.2 1479.81 28.2C1504.38 28.2 1523.3 37.2239 1536.54 55.2719L1559.3 42.0239C1559.12 41.7415 1558.94 41.4605 1558.76 41.181C1541.84 15.055 1515.72 1.99194 1480.38 1.99194C1454.85 1.99194 1433.73 9.57594 1417.02 24.7439C1400.32 39.9119 1391.97 60.1679 1391.97 85.5119C1391.97 110.856 1400.22 131.112 1416.74 146.28C1433.44 161.448 1454.66 169.032 1480.38 169.032C1515.34 169.032 1541.56 155.966 1559.03 129.835C1559.22 129.558 1559.4 129.28 1559.58 129L1536.54 115.464C1522.72 133.704 1503.81 142.824 1479.81 142.824C1462.34 142.824 1448.13 137.544 1437.18 126.984ZM1816.46 43.5884L1816.46 43.5816C1806.7 33.4501 1793.25 28.336 1775.99 28.336C1758.73 28.336 1745.18 33.45 1735.23 43.5883C1725.48 53.529 1720.54 67.4574 1720.54 85.5119C1720.54 103.561 1725.48 117.588 1735.23 127.722C1745.18 137.668 1758.73 142.688 1775.99 142.688C1793.26 142.688 1806.71 137.666 1816.46 127.723C1826.41 117.587 1831.44 103.56 1831.44 85.5119C1831.44 67.4626 1826.41 53.5367 1816.47 43.5951L1816.46 43.5884ZM1714.65 24.7439C1698.52 39.7199 1690.46 59.976 1690.46 85.5119C1690.46 111.048 1698.52 131.4 1714.65 146.568C1730.97 161.544 1751.42 169.032 1775.99 169.032C1800.57 169.032 1820.92 161.544 1837.05 146.568C1853.18 131.4 1861.24 111.048 1861.24 85.5119C1861.24 59.976 1853.18 39.7199 1837.05 24.7439C1820.92 9.57594 1800.57 1.99194 1775.99 1.99194C1751.42 1.99194 1730.97 9.57594 1714.65 24.7439ZM1837.73 24.0127C1821.4 8.65229 1800.79 0.991943 1775.99 0.991943C1751.19 0.991943 1730.49 8.6532 1713.97 24.0112C1697.6 39.2072 1689.46 59.7467 1689.46 85.5119C1689.46 111.278 1697.6 131.91 1713.96 147.296L1713.97 147.305C1730.5 162.469 1751.2 170.032 1775.99 170.032C1800.79 170.032 1821.39 162.469 1837.73 147.301L1837.73 147.296C1854.09 131.91 1862.24 111.278 1862.24 85.5119C1862.24 59.7476 1854.09 39.2086 1837.73 24.0127ZM1223.49 5.73595V165H1252.86V5.73595H1223.49ZM1719.54 85.5119C1719.54 67.2719 1724.54 53.0639 1734.52 42.8879C1744.7 32.52 1758.52 27.336 1775.99 27.336C1793.46 27.336 1807.19 32.52 1817.18 42.8879C1827.35 53.0639 1832.44 67.2719 1832.44 85.5119C1832.44 103.752 1827.35 118.056 1817.18 128.424C1807.19 138.6 1793.46 143.688 1775.99 143.688C1758.52 143.688 1744.7 138.6 1734.52 128.424C1724.54 118.056 1719.54 103.752 1719.54 85.5119Z" fill="white" />
		<path fill-rule="evenodd" clip-rule="evenodd" d="M0.050293 4.73595H81.4023C105.056 4.73595 125.452 12.2078 142.539 27.1574C159.667 41.9512 168.226 61.3377 168.226 85.224C168.226 109.115 159.568 128.596 142.25 143.579C125.165 158.527 104.866 166 81.4023 166H0.050293V4.73595ZM141.594 142.824C158.682 128.04 167.226 108.84 167.226 85.224C167.226 61.608 158.778 42.504 141.882 27.9119C124.986 13.1279 104.826 5.73595 81.4023 5.73595H1.05029V165H81.4023C104.634 165 124.698 157.608 141.594 142.824ZM121.324 122.801L121.33 122.795C131.666 113.211 136.85 100.719 136.85 85.224C136.85 69.7293 131.666 57.2372 121.33 47.6532L121.324 47.647C111.177 38.064 97.7127 33.2319 80.8263 33.2319H31.4263V137.216H80.8263C97.7127 137.216 111.177 132.384 121.324 122.801ZM30.4263 138.216V32.2319H80.8263C97.9143 32.2319 111.642 37.1279 122.01 46.9199C132.57 56.7119 137.85 69.4799 137.85 85.224C137.85 100.968 132.57 113.736 122.01 123.528C111.642 133.32 97.9143 138.216 80.8263 138.216H30.4263ZM305.308 4.73595H399.908C418.755 4.73595 434.463 10.5727 446.956 22.2833C459.468 33.8188 465.708 48.8785 465.708 67.368C465.708 79.8249 462.688 90.8623 456.625 100.447L456.62 100.454C450.755 109.536 442.87 116.511 432.986 121.372L458.363 166H424.083L403.923 129.136H336.684V166H305.308V4.73595ZM335.684 128.136H404.516L424.676 165H456.644L431.588 120.936C431.891 120.793 432.192 120.648 432.491 120.501C442.242 115.717 450.005 108.854 455.78 99.912C461.732 90.504 464.708 79.6559 464.708 67.368C464.708 49.128 458.564 34.3439 446.276 23.0159C433.988 11.4959 418.532 5.73595 399.908 5.73595H306.308V165H335.684V128.136ZM424.859 42.7568L424.854 42.7515C418.356 36.6252 409.692 33.52 398.756 33.52H336.684V100.352H398.756C409.705 100.352 418.375 97.4309 424.87 91.681C431.346 85.7578 434.62 77.6936 434.62 67.368C434.62 56.8413 431.34 48.6821 424.865 42.762L424.859 42.7568ZM425.54 92.424C418.82 98.3759 409.892 101.352 398.756 101.352H335.684V32.52H398.756C409.892 32.52 418.82 35.688 425.54 42.0239C432.26 48.168 435.62 56.616 435.62 67.368C435.62 77.9279 432.26 86.28 425.54 92.424ZM645.589 43.9078C634.692 54.0536 629.204 67.881 629.204 85.5119C629.204 103.139 634.69 117.065 645.59 127.405C656.709 137.578 670.76 142.688 687.82 142.688C704.882 142.688 718.934 137.577 730.053 127.402C741.145 117.061 746.724 103.135 746.724 85.5119C746.724 67.8865 741.144 54.0608 730.057 43.9136L730.05 43.9074C718.929 33.5405 704.879 28.336 687.82 28.336C670.761 28.336 656.71 33.5409 645.589 43.9078ZM644.908 128.136C633.772 117.576 628.204 103.368 628.204 85.5119C628.204 67.6559 633.772 53.544 644.908 43.1759C656.236 32.616 670.54 27.336 687.82 27.336C705.1 27.336 719.404 32.616 730.732 43.1759C742.06 53.544 747.724 67.6559 747.724 85.5119C747.724 103.368 742.06 117.576 730.732 128.136C719.404 138.504 705.1 143.688 687.82 143.688C670.54 143.688 656.236 138.504 644.908 128.136ZM751.853 24.5804C769.167 40.1455 777.812 60.4873 777.812 85.5119C777.812 110.539 769.166 130.975 751.853 146.732L751.849 146.736C734.559 162.277 713.194 170.032 687.82 170.032C662.447 170.032 641.081 162.277 623.792 146.736L623.787 146.732C606.474 130.975 597.828 110.539 597.828 85.5119C597.828 60.4861 606.474 40.1435 623.79 24.578C641.078 8.8445 662.444 0.991943 687.82 0.991943C713.197 0.991943 734.564 8.84536 751.853 24.5804ZM751.18 25.3199C768.268 40.6799 776.812 60.7439 776.812 85.5119C776.812 110.28 768.268 130.44 751.18 145.992C734.092 161.352 712.972 169.032 687.82 169.032C662.668 169.032 641.548 161.352 624.46 145.992C607.372 130.44 598.828 110.28 598.828 85.5119C598.828 60.7439 607.372 40.6799 624.46 25.3199C641.548 9.76794 662.668 1.99194 687.82 1.99194C712.972 1.99194 734.092 9.76794 751.18 25.3199ZM915.542 4.73595H946.365L1050.61 121.483V4.73595H1081.7V166H1050.59L946.342 48.6868V166H915.542V4.73595ZM945.342 46.0559L1051.04 165H1080.7V5.73595H1051.61V124.104L945.918 5.73595H916.542V165H945.342V46.0559ZM1222.49 4.73595H1253.86V166H1222.49V4.73595ZM1560.7 42.3659L1536.27 56.5887L1535.74 55.8637C1522.7 38.1001 1504.1 29.2 1479.81 29.2C1462.16 29.2 1448.12 34.3164 1437.59 44.4677C1427.26 54.6137 1422.06 68.2574 1422.06 85.5119C1422.06 102.171 1427.35 115.728 1437.88 126.269C1448.61 136.619 1462.56 141.824 1479.81 141.824C1503.51 141.824 1522.12 132.837 1535.75 114.86L1536.28 114.151L1561 128.669L1560.42 129.548C1542.74 156.552 1516.01 170.032 1480.38 170.032C1454.45 170.032 1432.98 162.379 1416.06 147.02L1416.06 147.016C1399.31 131.633 1390.97 111.096 1390.97 85.5119C1390.97 59.9246 1399.41 39.3856 1416.35 24.0036C1433.27 8.64629 1454.64 0.991943 1480.38 0.991943C1516.39 0.991943 1543.04 14.4694 1560.14 41.489L1560.7 42.3659ZM1437.18 126.984C1426.43 116.232 1421.06 102.408 1421.06 85.5119C1421.06 68.0399 1426.34 54.1199 1436.9 43.7519C1447.65 33.3839 1461.95 28.2 1479.81 28.2C1504.38 28.2 1523.3 37.2239 1536.54 55.2719L1559.3 42.0239C1559.12 41.7415 1558.94 41.4605 1558.76 41.181C1541.84 15.055 1515.72 1.99194 1480.38 1.99194C1454.85 1.99194 1433.73 9.57594 1417.02 24.7439C1400.32 39.9119 1391.97 60.1679 1391.97 85.5119C1391.97 110.856 1400.22 131.112 1416.74 146.28C1433.44 161.448 1454.66 169.032 1480.38 169.032C1515.34 169.032 1541.56 155.966 1559.03 129.835C1559.22 129.558 1559.4 129.28 1559.58 129L1536.54 115.464C1522.72 133.704 1503.81 142.824 1479.81 142.824C1462.34 142.824 1448.13 137.544 1437.18 126.984ZM1816.46 43.5884L1816.46 43.5816C1806.7 33.4501 1793.25 28.336 1775.99 28.336C1758.73 28.336 1745.18 33.45 1735.23 43.5883C1725.48 53.529 1720.54 67.4574 1720.54 85.5119C1720.54 103.561 1725.48 117.588 1735.23 127.722C1745.18 137.668 1758.73 142.688 1775.99 142.688C1793.26 142.688 1806.71 137.666 1816.46 127.723C1826.41 117.587 1831.44 103.56 1831.44 85.5119C1831.44 67.4626 1826.41 53.5367 1816.47 43.5951L1816.46 43.5884ZM1714.65 24.7439C1698.52 39.7199 1690.46 59.976 1690.46 85.5119C1690.46 111.048 1698.52 131.4 1714.65 146.568C1730.97 161.544 1751.42 169.032 1775.99 169.032C1800.57 169.032 1820.92 161.544 1837.05 146.568C1853.18 131.4 1861.24 111.048 1861.24 85.5119C1861.24 59.976 1853.18 39.7199 1837.05 24.7439C1820.92 9.57594 1800.57 1.99194 1775.99 1.99194C1751.42 1.99194 1730.97 9.57594 1714.65 24.7439ZM1837.73 24.0127C1821.4 8.65229 1800.79 0.991943 1775.99 0.991943C1751.19 0.991943 1730.49 8.6532 1713.97 24.0112C1697.6 39.2072 1689.46 59.7467 1689.46 85.5119C1689.46 111.278 1697.6 131.91 1713.96 147.296L1713.97 147.305C1730.5 162.469 1751.2 170.032 1775.99 170.032C1800.79 170.032 1821.39 162.469 1837.73 147.301L1837.73 147.296C1854.09 131.91 1862.24 111.278 1862.24 85.5119C1862.24 59.7476 1854.09 39.2086 1837.73 24.0127ZM1223.49 5.73595V165H1252.86V5.73595H1223.49ZM1719.54 85.5119C1719.54 67.2719 1724.54 53.0639 1734.52 42.8879C1744.7 32.52 1758.52 27.336 1775.99 27.336C1793.46 27.336 1807.19 32.52 1817.18 42.8879C1827.35 53.0639 1832.44 67.2719 1832.44 85.5119C1832.44 103.752 1827.35 118.056 1817.18 128.424C1807.19 138.6 1793.46 143.688 1775.99 143.688C1758.52 143.688 1744.7 138.6 1734.52 128.424C1724.54 118.056 1719.54 103.752 1719.54 85.5119Z" fill="url(#paint0_linear)" />
	</g>
	<defs>
		<linearGradient id="paint0_linear" x1="-182.183" y1="-267.798" x2="1401.82" y2="534.202" gradientUnits="userSpaceOnUse">
			<stop stop-color="white" />
			<stop offset="1" stop-color="#9A45E6" />
		</linearGradient>
	</defs>
</svg>
