<svg width="1882" height="170" viewBox="0 0 1882 170" fill="none" xmlns="http://www.w3.org/2000/svg">
<g opacity="0.7">
<path fill-rule="evenodd" clip-rule="evenodd" d="M0.729736 3.96739H158.25V165.231H127.162V32.1754H31.8177V165.231H0.729736V3.96739ZM30.8177 31.1754H128.162V164.231H157.25V4.96739H1.72974V164.231H30.8177V31.1754ZM280.798 3.96739H375.398C394.246 3.96739 409.954 9.8041 422.447 21.5148C434.959 33.0503 441.198 48.1099 441.198 66.5994C441.198 85.0902 434.957 100.059 422.438 111.404C409.943 122.728 394.238 128.367 375.398 128.367H312.174V165.231H280.798V3.96739ZM311.174 127.367H375.398C394.022 127.367 409.478 121.799 421.767 110.663C434.055 99.5274 440.198 84.8394 440.198 66.5994C440.198 48.3594 434.055 33.5754 421.767 22.2474C409.478 10.7274 394.022 4.96739 375.398 4.96739H281.798V164.231H311.174V127.367ZM400.35 41.9883L400.344 41.983C393.847 35.8567 385.183 32.7514 374.246 32.7514H312.174V99.5834H374.246C385.196 99.5834 393.866 96.6624 400.361 90.9125C406.837 84.9892 410.111 76.925 410.111 66.5994C410.111 56.0727 406.831 47.9136 400.356 41.9934L400.35 41.9883ZM401.03 91.6554C394.31 97.6074 385.382 100.583 374.246 100.583H311.174V31.7514H374.246C385.382 31.7514 394.31 34.9194 401.03 41.2554C407.75 47.3994 411.111 55.8474 411.111 66.5994C411.111 77.1594 407.75 85.5114 401.03 91.6554ZM602.36 43.1393C591.463 53.2851 585.975 67.1125 585.975 84.7434C585.975 102.371 591.461 116.297 602.361 126.636C613.48 136.81 627.531 141.919 644.591 141.919C661.653 141.919 675.704 136.809 686.824 126.633C697.915 116.292 703.495 102.367 703.495 84.7434C703.495 67.1179 697.914 53.2923 686.828 43.1451L686.821 43.1389C675.7 32.7719 661.649 27.5674 644.591 27.5674C627.532 27.5674 613.481 32.7723 602.36 43.1393ZM601.679 127.367C590.543 116.807 584.975 102.599 584.975 84.7434C584.975 66.8874 590.543 52.7754 601.679 42.4074C613.007 31.8474 627.311 26.5674 644.591 26.5674C661.871 26.5674 676.175 31.8474 687.503 42.4074C698.831 52.7754 704.495 66.8874 704.495 84.7434C704.495 102.599 698.831 116.807 687.503 127.367C676.175 137.735 661.871 142.919 644.591 142.919C627.311 142.919 613.007 137.735 601.679 127.367ZM708.624 23.8118C725.938 39.377 734.583 59.7188 734.583 84.7434C734.583 109.77 725.936 130.207 708.624 145.963L708.619 145.967C691.33 161.508 669.964 169.263 644.591 169.263C619.217 169.263 597.852 161.508 580.562 145.967L580.558 145.963C563.245 130.207 554.599 109.77 554.599 84.7434C554.599 59.7175 563.245 39.3749 580.56 23.8095C597.849 8.07594 619.215 0.223389 644.591 0.223389C669.968 0.223389 691.335 8.0768 708.624 23.8118ZM707.951 24.5514C725.039 39.9114 733.583 59.9754 733.583 84.7434C733.583 109.511 725.039 129.671 707.951 145.223C690.863 160.583 669.743 168.263 644.591 168.263C619.439 168.263 598.319 160.583 581.231 145.223C564.143 129.671 555.599 109.511 555.599 84.7434C555.599 59.9754 564.143 39.9114 581.231 24.5514C598.319 8.99939 619.439 1.22339 644.591 1.22339C669.743 1.22339 690.863 8.99939 707.951 24.5514ZM853.592 3.96739H998.152V32.4634H884.968V68.7674H986.92V96.9754H884.968V136.447H1002.47V165.231H853.592V3.96739ZM883.968 137.447V95.9754H985.92V69.7674H883.968V31.4634H997.152V4.96739H854.592V164.231H1001.47V137.447H883.968ZM1122.41 3.96739H1153.5V65.5994H1207.55L1249.6 3.96739H1285.73L1234.34 78.7153L1289.69 165.231H1252.74L1208.39 94.0954H1153.5V165.231H1122.41V3.96739ZM1152.5 93.0954H1208.95L1253.3 164.231H1287.86L1233.14 78.6954L1283.83 4.96739H1250.13L1208.08 66.5994H1152.5V4.96739H1123.41V164.231H1152.5V93.0954ZM1395.86 3.96739H1562.59V32.4634H1494.91V165.231H1463.54V32.4634H1395.86V3.96739ZM1464.54 31.4634V164.231H1493.91V31.4634H1561.59V4.96739H1396.86V31.4634H1464.54ZM1849.98 3.96739H1881.36V165.231H1849.98V3.96739ZM1678.05 3.96739H1709.42V42.2714H1768.9C1787.74 42.2714 1803.35 47.8105 1815.65 58.9415C1828.18 69.9063 1834.42 84.6885 1834.42 103.175C1834.42 121.666 1828.18 136.727 1815.66 148.263C1803.36 159.591 1787.74 165.231 1768.9 165.231H1678.05V3.96739ZM1814.98 59.6874C1802.89 48.7434 1787.53 43.2714 1768.9 43.2714H1708.42V4.96739H1679.05V164.231H1768.9C1787.53 164.231 1802.89 158.663 1814.98 147.527C1827.27 136.199 1833.42 121.415 1833.42 103.175C1833.42 84.9354 1827.27 70.4394 1814.98 59.6874ZM1793.59 78.8748L1793.59 78.8692C1787.3 73.3214 1778.35 70.4794 1766.6 70.4794H1709.42V136.447H1766.6C1778.34 136.447 1787.29 133.513 1793.57 127.78C1799.85 122.062 1803.04 113.91 1803.04 103.175C1803.04 92.2388 1799.84 84.205 1793.6 78.8802L1793.59 78.8748ZM1708.42 137.447V69.4794H1766.6C1778.5 69.4794 1787.72 72.3594 1794.25 78.1194C1800.78 83.6874 1804.04 92.0394 1804.04 103.175C1804.04 114.119 1800.78 122.567 1794.25 128.519C1787.72 134.471 1778.5 137.447 1766.6 137.447H1708.42ZM1850.98 4.96739V164.231H1880.36V4.96739H1850.98Z" fill="white"/>
<path fill-rule="evenodd" clip-rule="evenodd" d="M0.729736 3.96739H158.25V165.231H127.162V32.1754H31.8177V165.231H0.729736V3.96739ZM30.8177 31.1754H128.162V164.231H157.25V4.96739H1.72974V164.231H30.8177V31.1754ZM280.798 3.96739H375.398C394.246 3.96739 409.954 9.8041 422.447 21.5148C434.959 33.0503 441.198 48.1099 441.198 66.5994C441.198 85.0902 434.957 100.059 422.438 111.404C409.943 122.728 394.238 128.367 375.398 128.367H312.174V165.231H280.798V3.96739ZM311.174 127.367H375.398C394.022 127.367 409.478 121.799 421.767 110.663C434.055 99.5274 440.198 84.8394 440.198 66.5994C440.198 48.3594 434.055 33.5754 421.767 22.2474C409.478 10.7274 394.022 4.96739 375.398 4.96739H281.798V164.231H311.174V127.367ZM400.35 41.9883L400.344 41.983C393.847 35.8567 385.183 32.7514 374.246 32.7514H312.174V99.5834H374.246C385.196 99.5834 393.866 96.6624 400.361 90.9125C406.837 84.9892 410.111 76.925 410.111 66.5994C410.111 56.0727 406.831 47.9136 400.356 41.9934L400.35 41.9883ZM401.03 91.6554C394.31 97.6074 385.382 100.583 374.246 100.583H311.174V31.7514H374.246C385.382 31.7514 394.31 34.9194 401.03 41.2554C407.75 47.3994 411.111 55.8474 411.111 66.5994C411.111 77.1594 407.75 85.5114 401.03 91.6554ZM602.36 43.1393C591.463 53.2851 585.975 67.1125 585.975 84.7434C585.975 102.371 591.461 116.297 602.361 126.636C613.48 136.81 627.531 141.919 644.591 141.919C661.653 141.919 675.704 136.809 686.824 126.633C697.915 116.292 703.495 102.367 703.495 84.7434C703.495 67.1179 697.914 53.2923 686.828 43.1451L686.821 43.1389C675.7 32.7719 661.649 27.5674 644.591 27.5674C627.532 27.5674 613.481 32.7723 602.36 43.1393ZM601.679 127.367C590.543 116.807 584.975 102.599 584.975 84.7434C584.975 66.8874 590.543 52.7754 601.679 42.4074C613.007 31.8474 627.311 26.5674 644.591 26.5674C661.871 26.5674 676.175 31.8474 687.503 42.4074C698.831 52.7754 704.495 66.8874 704.495 84.7434C704.495 102.599 698.831 116.807 687.503 127.367C676.175 137.735 661.871 142.919 644.591 142.919C627.311 142.919 613.007 137.735 601.679 127.367ZM708.624 23.8118C725.938 39.377 734.583 59.7188 734.583 84.7434C734.583 109.77 725.936 130.207 708.624 145.963L708.619 145.967C691.33 161.508 669.964 169.263 644.591 169.263C619.217 169.263 597.852 161.508 580.562 145.967L580.558 145.963C563.245 130.207 554.599 109.77 554.599 84.7434C554.599 59.7175 563.245 39.3749 580.56 23.8095C597.849 8.07594 619.215 0.223389 644.591 0.223389C669.968 0.223389 691.335 8.0768 708.624 23.8118ZM707.951 24.5514C725.039 39.9114 733.583 59.9754 733.583 84.7434C733.583 109.511 725.039 129.671 707.951 145.223C690.863 160.583 669.743 168.263 644.591 168.263C619.439 168.263 598.319 160.583 581.231 145.223C564.143 129.671 555.599 109.511 555.599 84.7434C555.599 59.9754 564.143 39.9114 581.231 24.5514C598.319 8.99939 619.439 1.22339 644.591 1.22339C669.743 1.22339 690.863 8.99939 707.951 24.5514ZM853.592 3.96739H998.152V32.4634H884.968V68.7674H986.92V96.9754H884.968V136.447H1002.47V165.231H853.592V3.96739ZM883.968 137.447V95.9754H985.92V69.7674H883.968V31.4634H997.152V4.96739H854.592V164.231H1001.47V137.447H883.968ZM1122.41 3.96739H1153.5V65.5994H1207.55L1249.6 3.96739H1285.73L1234.34 78.7153L1289.69 165.231H1252.74L1208.39 94.0954H1153.5V165.231H1122.41V3.96739ZM1152.5 93.0954H1208.95L1253.3 164.231H1287.86L1233.14 78.6954L1283.83 4.96739H1250.13L1208.08 66.5994H1152.5V4.96739H1123.41V164.231H1152.5V93.0954ZM1395.86 3.96739H1562.59V32.4634H1494.91V165.231H1463.54V32.4634H1395.86V3.96739ZM1464.54 31.4634V164.231H1493.91V31.4634H1561.59V4.96739H1396.86V31.4634H1464.54ZM1849.98 3.96739H1881.36V165.231H1849.98V3.96739ZM1678.05 3.96739H1709.42V42.2714H1768.9C1787.74 42.2714 1803.35 47.8105 1815.65 58.9415C1828.18 69.9063 1834.42 84.6885 1834.42 103.175C1834.42 121.666 1828.18 136.727 1815.66 148.263C1803.36 159.591 1787.74 165.231 1768.9 165.231H1678.05V3.96739ZM1814.98 59.6874C1802.89 48.7434 1787.53 43.2714 1768.9 43.2714H1708.42V4.96739H1679.05V164.231H1768.9C1787.53 164.231 1802.89 158.663 1814.98 147.527C1827.27 136.199 1833.42 121.415 1833.42 103.175C1833.42 84.9354 1827.27 70.4394 1814.98 59.6874ZM1793.59 78.8748L1793.59 78.8692C1787.3 73.3214 1778.35 70.4794 1766.6 70.4794H1709.42V136.447H1766.6C1778.34 136.447 1787.29 133.513 1793.57 127.78C1799.85 122.062 1803.04 113.91 1803.04 103.175C1803.04 92.2388 1799.84 84.205 1793.6 78.8802L1793.59 78.8748ZM1708.42 137.447V69.4794H1766.6C1778.5 69.4794 1787.72 72.3594 1794.25 78.1194C1800.78 83.6874 1804.04 92.0394 1804.04 103.175C1804.04 114.119 1800.78 122.567 1794.25 128.519C1787.72 134.471 1778.5 137.447 1766.6 137.447H1708.42ZM1850.98 4.96739V164.231H1880.36V4.96739H1850.98Z" fill="url(#paint0_linear)"/>
</g>
<defs>
<linearGradient id="paint0_linear" x1="-209" y1="-375.024" x2="1221" y2="468.976" gradientUnits="userSpaceOnUse">
<stop stop-color="white"/>
<stop offset="1" stop-color="#7A22FF"/>
</linearGradient>
</defs>
</svg>
