<svg width="150" height="150" viewBox="0 0 150 150" fill="none" xmlns="http://www.w3.org/2000/svg">
<path d="M74.9993 0L56.8906 75L74.9993 150C116.421 150 149.999 116.421 149.999 75C149.999 33.5786 116.421 0 74.9993 0Z" fill="white"/>
<path d="M0 75C0 116.421 33.5786 150 75 150V0C33.5786 0 0 33.5786 0 75Z" fill="white"/>
<path d="M117.314 24.4224L102.38 40.1335L95.6172 12.3457C103.64 14.9842 110.982 19.1194 117.314 24.4224Z" fill="white"/>
<path d="M117.313 24.4225C131.757 36.5194 140.945 54.6855 140.945 75L103.445 84.0542L105.397 31.079C109.587 29.2198 113.571 26.9848 117.313 24.4225Z" fill="white"/>
<path d="M112.5 75H140.946C140.946 95.3142 131.758 113.481 117.314 125.578L96.3438 121.939L112.5 75Z" fill="white"/>
<path d="M105.398 118.921C109.587 120.78 113.571 123.015 117.314 125.578C110.982 130.881 103.64 135.016 95.6172 137.654L105.398 118.921Z" fill="white"/>
<path d="M112.5 75C112.5 91.4039 109.865 106.575 105.398 118.921L75.0005 112.5L65.9463 65.9458L112.5 75Z" fill="white"/>
<path d="M105.398 118.921C102.734 126.284 99.4171 132.642 95.6176 137.654C89.1307 139.787 82.2014 140.946 75.0005 140.946L65.9463 126.723L75.0005 112.5C85.8219 112.5 96.1063 114.796 105.398 118.921Z" fill="white"/>
<path d="M105.398 31.0793L65.9463 28.4458L75.0005 75H112.5C112.5 58.5961 109.865 43.4247 105.398 31.0793Z" fill="white"/>
<path d="M75 37.5V9.05418C82.2009 9.05418 89.1302 10.2126 95.6171 12.3457C99.4166 17.3578 102.733 23.7155 105.398 31.079C96.1058 35.204 85.8214 37.5 75 37.5Z" fill="white"/>
<path d="M32.6865 24.4224L47.6203 40.1335L54.3829 12.3457C46.3605 14.9842 39.0185 19.1194 32.6865 24.4224Z" fill="white"/>
<path d="M32.686 24.4225C18.2418 36.5194 9.05371 54.6858 9.05371 75L46.5537 84.0542L44.6017 31.079C40.4128 29.2198 36.4284 26.9848 32.686 24.4225Z" fill="white"/>
<path d="M37.4995 75H9.05371C9.05371 95.3142 18.2418 113.481 32.6857 125.578L53.6559 121.939L37.4995 75Z" fill="white"/>
<path d="M44.6024 118.921C40.4136 120.78 36.4292 123.015 32.6865 125.577C39.0185 130.881 46.3605 135.016 54.3832 137.654L44.6024 118.921Z" fill="white"/>
<path d="M56.25 68.9637L37.5 75C37.5 91.4039 40.1353 106.575 44.6021 118.921L75 112.5V75L56.25 68.9637Z" fill="white"/>
<path d="M44.6025 118.921C47.2668 126.284 50.5838 132.642 54.3833 137.654C60.8702 139.787 67.7995 140.946 75.0004 140.946V112.5C64.179 112.5 53.8946 114.796 44.6025 118.921Z" fill="white"/>
<path d="M44.6021 31.0793C40.1353 43.4247 37.5 58.5958 37.5 75H75V37.5L44.6021 31.0793Z" fill="white"/>
<path d="M75.0004 37.5V9.05418C67.7995 9.05418 60.8702 10.2126 54.3833 12.3457C50.5838 17.3578 47.2671 23.7155 44.6025 31.079C53.8946 35.204 64.179 37.5 75.0004 37.5Z" fill="white"/>
<mask id="path-19-inside-1" fill="white">
<path d="M123.231 26.7688C110.348 13.8858 93.2197 6.79071 75.0003 6.79071C56.7809 6.79071 39.6522 13.8858 26.7691 26.7688C13.8861 39.6518 6.79102 56.7808 6.79102 75C6.79102 93.2191 13.8858 110.348 26.7691 123.231C39.6524 136.114 56.7809 143.209 75.0003 143.209C93.2197 143.209 110.348 136.114 123.231 123.231C136.114 110.348 143.21 93.2191 143.21 75C143.21 56.7808 136.114 39.6518 123.231 26.7688ZM138.638 72.7365H114.746C114.53 58.0948 112.22 44.1269 108.21 32.2743C111.27 30.8136 114.243 29.1457 117.113 27.2751C129.803 38.4858 138.003 54.6641 138.638 72.7365ZM94.2331 135.711C88.8489 137.42 83.1568 138.43 77.2638 138.637V114.801C86.0142 115.069 94.544 116.888 102.529 120.158C100.218 126.103 97.432 131.364 94.2331 135.711ZM106.653 121.999C108.969 123.121 111.229 124.372 113.429 125.745C109.729 128.554 105.715 130.968 101.448 132.925C103.373 129.602 105.113 125.939 106.653 121.999ZM55.7675 135.711C52.5686 131.364 49.783 126.103 47.4715 120.158C55.4561 116.888 63.9861 115.069 72.7362 114.801V138.637C66.8435 138.431 61.1517 137.421 55.7675 135.711ZM48.5525 132.924C44.2855 130.968 40.2712 128.553 36.5713 125.745C38.7712 124.371 41.032 123.121 43.3474 121.998C44.8881 125.939 46.6274 129.602 48.5525 132.924ZM55.7675 14.289C61.1517 12.5795 66.8438 11.5696 72.7368 11.3625V35.199C63.9864 34.9312 55.4566 33.1122 47.4721 29.8415C49.7827 23.8966 52.5686 18.6363 55.7675 14.289ZM43.3474 28.0011C41.032 26.879 38.7712 25.6283 36.5713 24.2549C40.2712 21.4462 44.2852 19.0315 48.5525 17.0754C46.6274 20.3976 44.8881 24.0606 43.3474 28.0011ZM94.2331 14.289C97.432 18.6363 100.218 23.8966 102.529 29.8415C94.5445 33.1122 86.0148 34.9312 77.2644 35.199V11.3625C83.1571 11.5693 88.8489 12.5792 94.2331 14.289ZM101.448 17.076C105.715 19.0321 109.729 21.4465 113.429 24.2552C111.229 25.6283 108.969 26.8787 106.653 28.0014C105.113 24.0606 103.373 20.3976 101.448 17.076ZM72.7368 39.7277V72.7365H39.7813C39.9929 58.7171 42.1658 45.3864 45.9322 34.103C54.4075 37.5501 63.4565 39.4602 72.7368 39.7277ZM72.7368 77.2635V110.272C63.4565 110.54 54.4075 112.45 45.9325 115.897C42.1658 104.614 39.9929 91.2829 39.7813 77.2635H72.7368ZM77.2638 110.272V77.2635H110.219C110.008 91.2829 107.835 104.614 104.068 115.897C95.5931 112.45 86.5442 110.54 77.2638 110.272ZM77.2638 72.7365V39.7277C86.5442 39.4602 95.5931 37.5501 104.068 34.103C107.835 45.3864 110.008 58.7171 110.219 72.7365H77.2638ZM32.8872 27.2748C35.7571 29.1454 38.7305 30.8133 41.7902 32.274C37.781 44.1266 35.4706 58.0945 35.2544 72.7362H11.3628C11.9977 54.6641 20.1973 38.4858 32.8872 27.2748ZM11.3628 77.2635H35.2544C35.4706 91.9052 37.781 105.873 41.7902 117.726C38.7305 119.186 35.7571 120.854 32.8872 122.725C20.1973 111.514 11.9977 95.3358 11.3628 77.2635ZM117.113 122.725C114.243 120.854 111.27 119.186 108.21 117.726C112.22 105.873 114.53 91.9052 114.746 77.2635H138.638C138.003 95.3358 129.803 111.514 117.113 122.725Z"/>
</mask>
<path d="M123.231 26.7688C110.348 13.8858 93.2197 6.79071 75.0003 6.79071C56.7809 6.79071 39.6522 13.8858 26.7691 26.7688C13.8861 39.6518 6.79102 56.7808 6.79102 75C6.79102 93.2191 13.8858 110.348 26.7691 123.231C39.6524 136.114 56.7809 143.209 75.0003 143.209C93.2197 143.209 110.348 136.114 123.231 123.231C136.114 110.348 143.21 93.2191 143.21 75C143.21 56.7808 136.114 39.6518 123.231 26.7688ZM138.638 72.7365H114.746C114.53 58.0948 112.22 44.1269 108.21 32.2743C111.27 30.8136 114.243 29.1457 117.113 27.2751C129.803 38.4858 138.003 54.6641 138.638 72.7365ZM94.2331 135.711C88.8489 137.42 83.1568 138.43 77.2638 138.637V114.801C86.0142 115.069 94.544 116.888 102.529 120.158C100.218 126.103 97.432 131.364 94.2331 135.711ZM106.653 121.999C108.969 123.121 111.229 124.372 113.429 125.745C109.729 128.554 105.715 130.968 101.448 132.925C103.373 129.602 105.113 125.939 106.653 121.999ZM55.7675 135.711C52.5686 131.364 49.783 126.103 47.4715 120.158C55.4561 116.888 63.9861 115.069 72.7362 114.801V138.637C66.8435 138.431 61.1517 137.421 55.7675 135.711ZM48.5525 132.924C44.2855 130.968 40.2712 128.553 36.5713 125.745C38.7712 124.371 41.032 123.121 43.3474 121.998C44.8881 125.939 46.6274 129.602 48.5525 132.924ZM55.7675 14.289C61.1517 12.5795 66.8438 11.5696 72.7368 11.3625V35.199C63.9864 34.9312 55.4566 33.1122 47.4721 29.8415C49.7827 23.8966 52.5686 18.6363 55.7675 14.289ZM43.3474 28.0011C41.032 26.879 38.7712 25.6283 36.5713 24.2549C40.2712 21.4462 44.2852 19.0315 48.5525 17.0754C46.6274 20.3976 44.8881 24.0606 43.3474 28.0011ZM94.2331 14.289C97.432 18.6363 100.218 23.8966 102.529 29.8415C94.5445 33.1122 86.0148 34.9312 77.2644 35.199V11.3625C83.1571 11.5693 88.8489 12.5792 94.2331 14.289ZM101.448 17.076C105.715 19.0321 109.729 21.4465 113.429 24.2552C111.229 25.6283 108.969 26.8787 106.653 28.0014C105.113 24.0606 103.373 20.3976 101.448 17.076ZM72.7368 39.7277V72.7365H39.7813C39.9929 58.7171 42.1658 45.3864 45.9322 34.103C54.4075 37.5501 63.4565 39.4602 72.7368 39.7277ZM72.7368 77.2635V110.272C63.4565 110.54 54.4075 112.45 45.9325 115.897C42.1658 104.614 39.9929 91.2829 39.7813 77.2635H72.7368ZM77.2638 110.272V77.2635H110.219C110.008 91.2829 107.835 104.614 104.068 115.897C95.5931 112.45 86.5442 110.54 77.2638 110.272ZM77.2638 72.7365V39.7277C86.5442 39.4602 95.5931 37.5501 104.068 34.103C107.835 45.3864 110.008 58.7171 110.219 72.7365H77.2638ZM32.8872 27.2748C35.7571 29.1454 38.7305 30.8133 41.7902 32.274C37.781 44.1266 35.4706 58.0945 35.2544 72.7362H11.3628C11.9977 54.6641 20.1973 38.4858 32.8872 27.2748ZM11.3628 77.2635H35.2544C35.4706 91.9052 37.781 105.873 41.7902 117.726C38.7305 119.186 35.7571 120.854 32.8872 122.725C20.1973 111.514 11.9977 95.3358 11.3628 77.2635ZM117.113 122.725C114.243 120.854 111.27 119.186 108.21 117.726C112.22 105.873 114.53 91.9052 114.746 77.2635H138.638C138.003 95.3358 129.803 111.514 117.113 122.725Z" fill="#131423"/>
<path d="M138.638 72.7365V84.7365H151.067L150.63 72.3152L138.638 72.7365ZM114.746 72.7365L102.748 72.9137L102.922 84.7365H114.746V72.7365ZM108.21 32.2743L103.04 21.4451L93.4311 26.0326L96.8431 36.1194L108.21 32.2743ZM117.113 27.2751L125.058 18.2819L118.213 12.2344L110.561 17.222L117.113 27.2751ZM94.2331 135.711L97.8645 147.148L101.585 145.967L103.898 142.823L94.2331 135.711ZM77.2638 138.637H65.2638V151.067L77.6853 150.63L77.2638 138.637ZM77.2638 114.801L77.6308 102.807L65.2638 102.428V114.801H77.2638ZM102.529 120.158L113.713 124.506L117.983 113.521L107.077 109.054L102.529 120.158ZM106.653 121.999L111.887 111.2L100.205 105.539L95.4772 117.629L106.653 121.999ZM113.429 125.745L120.685 135.303L134.545 124.781L119.784 115.566L113.429 125.745ZM101.448 132.925L91.0652 126.908L72.1469 159.557L106.448 143.833L101.448 132.925ZM55.7675 135.711L46.1022 142.823L48.4155 145.967L52.1356 147.148L55.7675 135.711ZM47.4715 120.158L42.9228 109.054L32.0158 113.522L36.2872 124.507L47.4715 120.158ZM72.7362 114.801H84.7362V102.428L72.3692 102.807L72.7362 114.801ZM72.7362 138.637L72.3153 150.63L84.7362 151.066V138.637H72.7362ZM48.5525 132.924L43.5518 143.832L77.8591 159.56L58.9349 126.907L48.5525 132.924ZM36.5713 125.745L30.2173 115.565L15.4548 124.779L29.3151 135.302L36.5713 125.745ZM43.3474 121.998L54.5236 117.629L49.7957 105.535L38.1118 111.201L43.3474 121.998ZM55.7675 14.289L52.1361 2.85159L48.4156 4.03284L46.1022 7.1769L55.7675 14.289ZM72.7368 11.3625H84.7368V-1.0667L72.3153 -0.630107L72.7368 11.3625ZM72.7368 35.199L72.3698 47.1934L84.7368 47.5718V35.199H72.7368ZM47.4721 29.8415L36.2872 25.4942L32.0178 36.4787L42.9234 40.946L47.4721 29.8415ZM43.3474 28.0011L38.114 38.7998L49.7961 44.4612L54.5234 32.3709L43.3474 28.0011ZM36.5713 24.2549L29.3156 14.6969L15.4554 25.2185L30.2163 34.434L36.5713 24.2549ZM48.5525 17.0754L58.9354 23.0917L77.8537 -9.55687L43.5521 6.16686L48.5525 17.0754ZM94.2331 14.289L103.898 7.1769L101.585 4.0331L97.865 2.85177L94.2331 14.289ZM102.529 29.8415L107.078 40.946L117.985 36.4782L113.713 25.4928L102.529 29.8415ZM77.2644 35.199H65.2644V47.5718L77.6314 47.1934L77.2644 35.199ZM77.2644 11.3625L77.6853 -0.630127L65.2644 -1.0661V11.3625H77.2644ZM101.448 17.076L106.449 6.16758L72.1415 -9.55984L91.0657 23.0931L101.448 17.076ZM113.429 24.2552L119.783 34.4349L134.547 25.2199L120.685 14.6972L113.429 24.2552ZM106.653 28.0014L95.4771 32.371L100.205 44.4641L111.889 38.799L106.653 28.0014ZM72.7368 39.7277H84.7368V28.0686L73.0825 27.7327L72.7368 39.7277ZM72.7368 72.7365V84.7365H84.7368V72.7365H72.7368ZM39.7813 72.7365L27.7827 72.5555L27.5989 84.7365H39.7813V72.7365ZM45.9322 34.103L50.4532 22.9872L38.6009 18.1667L34.5496 30.3035L45.9322 34.103ZM72.7368 77.2635H84.7368V65.2635H72.7368V77.2635ZM72.7368 110.272L73.0825 122.267L84.7368 121.931V110.272H72.7368ZM45.9325 115.897L34.55 119.697L38.6015 131.833L50.4537 127.013L45.9325 115.897ZM39.7813 77.2635V65.2635H27.5989L27.7827 77.4445L39.7813 77.2635ZM77.2638 110.272H65.2638V121.931L76.9181 122.267L77.2638 110.272ZM77.2638 77.2635V65.2635H65.2638V77.2635H77.2638ZM110.219 77.2635L122.218 77.4445L122.402 65.2635H110.219V77.2635ZM104.068 115.897L99.5474 127.013L111.4 131.833L115.451 119.696L104.068 115.897ZM77.2638 72.7365H65.2638V84.7365H77.2638V72.7365ZM77.2638 39.7277L76.9181 27.7327L65.2638 28.0686V39.7277H77.2638ZM104.068 34.103L115.451 30.3032L111.399 18.1666L99.5469 22.9873L104.068 34.103ZM110.219 72.7365V84.7365H122.401L122.218 72.5557L110.219 72.7365ZM32.8872 27.2748L39.4398 17.2217L31.7876 12.234L24.9422 18.2817L32.8872 27.2748ZM41.7902 32.274L53.1575 36.1191L56.5695 26.0323L46.9601 21.4448L41.7902 32.274ZM35.2544 72.7362V84.7362H47.0785L47.2531 72.9134L35.2544 72.7362ZM11.3628 72.7362L-0.629809 72.3149L-1.06616 84.7362H11.3628V72.7362ZM11.3628 77.2635V65.2635H-1.06616L-0.629809 77.6848L11.3628 77.2635ZM35.2544 77.2635L47.2531 77.0863L47.0785 65.2635H35.2544V77.2635ZM41.7902 117.726L46.9601 128.555L56.5695 123.967L53.1575 113.881L41.7902 117.726ZM32.8872 122.725L24.9423 131.718L31.7877 137.766L39.4398 132.778L32.8872 122.725ZM117.113 122.725L110.561 132.778L118.213 137.766L125.058 131.718L117.113 122.725ZM108.21 117.726L96.8431 113.881L93.4311 123.967L103.04 128.555L108.21 117.726ZM114.746 77.2635V65.2635H102.922L102.748 77.086L114.746 77.2635ZM138.638 77.2635L150.63 77.6848L151.067 65.2635H138.638V77.2635ZM131.717 18.2836C116.583 3.15016 96.4024 -5.20929 75.0003 -5.20929V18.7907C90.0371 18.7907 104.114 24.6215 114.746 35.2541L131.717 18.2836ZM75.0003 -5.20929C53.5982 -5.20929 33.4173 3.15016 18.2839 18.2836L35.2544 35.2541C45.887 24.6215 59.9635 18.7907 75.0003 18.7907V-5.20929ZM18.2839 18.2836C3.15045 33.417 -5.20898 53.5982 -5.20898 75H18.791C18.791 59.9635 24.6218 45.8867 35.2544 35.2541L18.2839 18.2836ZM-5.20898 75C-5.20898 96.4016 3.15007 116.583 18.284 131.717L35.2543 114.746C24.6216 104.113 18.791 90.0366 18.791 75H-5.20898ZM18.284 131.717C33.4176 146.85 53.5981 155.209 75.0003 155.209V131.209C59.9636 131.209 45.8873 125.379 35.2543 114.746L18.284 131.717ZM75.0003 155.209C96.4023 155.209 116.583 146.85 131.717 131.716L114.746 114.746C104.114 125.379 90.0372 131.209 75.0003 131.209V155.209ZM131.717 131.716C146.85 116.583 155.21 96.4018 155.21 75H131.21C131.21 90.0364 125.379 104.113 114.746 114.746L131.717 131.716ZM155.21 75C155.21 53.5982 146.85 33.417 131.717 18.2836L114.746 35.2541C125.379 45.8867 131.21 59.9635 131.21 75H155.21ZM138.638 60.7365H114.746V84.7365H138.638V60.7365ZM126.745 72.5593C126.513 56.8256 124.034 41.6035 119.578 28.4292L96.8431 36.1194C100.405 46.6504 102.547 59.364 102.748 72.9137L126.745 72.5593ZM113.38 43.1035C116.918 41.4148 120.353 39.4876 123.666 37.3281L110.561 17.222C108.134 18.8038 105.623 20.2124 103.04 21.4451L113.38 43.1035ZM109.168 36.2683C119.497 45.3933 126.131 58.5179 126.645 73.1578L150.63 72.3152C149.875 50.8104 140.109 31.5783 125.058 18.2819L109.168 36.2683ZM90.6018 124.274C86.2465 125.656 81.6338 126.476 76.8423 126.645L77.6853 150.63C84.6799 150.384 91.4514 149.185 97.8645 147.148L90.6018 124.274ZM89.2638 138.637V114.801H65.2638V138.637H89.2638ZM76.8967 126.795C84.2183 127.019 91.3312 128.539 97.9798 131.263L107.077 109.054C97.7567 105.236 87.8101 103.118 77.6308 102.807L76.8967 126.795ZM91.3437 115.811C89.3341 120.982 87.02 125.266 84.5678 128.599L103.898 142.823C107.844 137.461 111.102 131.225 113.713 124.506L91.3437 115.811ZM101.42 132.798C103.345 133.73 105.231 134.774 107.074 135.924L119.784 115.566C117.227 113.97 114.592 112.512 111.887 111.2L101.42 132.798ZM106.174 116.187C103.165 118.471 99.9056 120.431 96.4476 122.016L106.448 143.833C111.525 141.506 116.294 138.636 120.685 135.303L106.174 116.187ZM111.831 138.941C114.098 135.028 116.095 130.806 117.829 126.369L95.4772 117.629C94.1305 121.073 92.648 124.177 91.0652 126.908L111.831 138.941ZM65.4328 128.599C62.9808 125.267 60.6667 120.982 58.6558 115.81L36.2872 124.507C38.8993 131.225 42.1564 137.461 46.1022 142.823L65.4328 128.599ZM52.0202 131.263C58.6688 128.539 65.782 127.019 73.1033 126.795L72.3692 102.807C62.1903 103.118 52.2433 105.236 42.9228 109.054L52.0202 131.263ZM60.7362 114.801V138.637H84.7362V114.801H60.7362ZM73.1572 126.645C68.3664 126.477 63.7544 125.657 59.3994 124.274L52.1356 147.148C58.5489 149.185 65.3205 150.385 72.3153 150.63L73.1572 126.645ZM53.5533 122.016C50.0948 120.43 46.8357 118.471 43.8275 116.187L29.3151 135.302C33.7067 138.636 38.4761 141.506 43.5518 143.832L53.5533 122.016ZM42.9253 135.924C44.7681 134.774 46.6558 133.73 48.5829 132.796L38.1118 111.201C35.4082 112.512 32.7743 113.969 30.2173 115.565L42.9253 135.924ZM32.1711 126.368C33.906 130.805 35.9024 135.028 38.1702 138.941L58.9349 126.907C57.3525 124.176 55.8702 121.073 54.5236 117.629L32.1711 126.368ZM59.3988 25.7263C63.7541 24.3435 68.3668 23.5235 73.1583 23.3551L72.3153 -0.630107C65.3207 -0.384262 58.5492 0.815443 52.1361 2.85159L59.3988 25.7263ZM60.7368 11.3625V35.199H84.7368V11.3625H60.7368ZM73.1039 23.2046C65.7823 22.9806 58.6694 21.4605 52.0208 18.737L42.9234 40.946C52.2439 44.7639 62.1905 46.8819 72.3698 47.1934L73.1039 23.2046ZM58.6569 34.1888C60.6665 29.0184 62.9806 24.7336 65.4328 21.401L46.1022 7.1769C42.1565 12.5391 38.8989 18.7748 36.2872 25.4942L58.6569 34.1888ZM48.5807 17.2024C46.6559 16.2695 44.7692 15.2263 42.9263 14.0758L30.2163 34.434C32.7732 36.0303 35.4082 37.4885 38.114 38.7998L48.5807 17.2024ZM43.827 33.8128C46.8361 31.5286 50.095 29.569 53.553 27.9839L43.5521 6.16686C38.4753 8.49404 33.7063 11.3638 29.3156 14.6969L43.827 33.8128ZM38.1697 11.059C35.9023 14.972 33.9061 19.1945 32.1713 23.6312L54.5234 32.3709C55.8701 28.9268 57.3526 25.8233 58.9354 23.0917L38.1697 11.059ZM84.5678 21.401C87.0198 24.7334 89.3339 29.0184 91.3448 34.1902L113.713 25.4928C111.101 18.7747 107.844 12.5393 103.898 7.1769L84.5678 21.401ZM97.9804 18.737C91.3318 21.4605 84.2189 22.9806 76.8973 23.2046L77.6314 47.1934C87.8106 46.8819 97.7573 44.7639 107.078 40.946L97.9804 18.737ZM89.2644 35.199V11.3625H65.2644V35.199H89.2644ZM76.8434 23.3551C81.6342 23.5233 86.2462 24.3432 90.6012 25.7261L97.865 2.85177C91.4517 0.815189 84.6801 -0.384611 77.6853 -0.630127L76.8434 23.3551ZM96.4473 27.9844C99.9058 29.5698 103.165 31.5293 106.174 33.8131L120.685 14.6972C116.294 11.3637 111.524 8.49441 106.449 6.16758L96.4473 27.9844ZM107.075 14.0755C105.233 15.2257 103.345 16.2693 101.418 17.2037L111.889 38.799C114.592 37.4881 117.226 36.0309 119.783 34.4349L107.075 14.0755ZM117.829 23.6318C116.095 19.1947 114.098 14.9718 111.83 11.0588L91.0657 23.0931C92.6481 25.8235 94.1304 28.9266 95.4771 32.371L117.829 23.6318ZM60.7368 39.7277V72.7365H84.7368V39.7277H60.7368ZM72.7368 60.7365H39.7813V84.7365H72.7368V60.7365ZM51.78 72.9175C51.9754 59.9652 53.9867 47.8728 57.3148 37.9025L34.5496 30.3035C30.3449 42.9 28.0103 57.469 27.7827 72.5555L51.78 72.9175ZM41.4112 45.2188C51.2207 49.2085 61.6842 51.4141 72.3911 51.7227L73.0825 27.7327C65.2287 27.5063 57.5943 25.8917 50.4532 22.9872L41.4112 45.2188ZM60.7368 77.2635V110.272H84.7368V77.2635H60.7368ZM72.3911 98.2772C61.6843 98.5858 51.2207 100.791 41.4114 104.781L50.4537 127.013C57.5944 124.108 65.2286 122.494 73.0825 122.267L72.3911 98.2772ZM57.315 112.097C53.9867 102.127 51.9754 90.0348 51.78 77.0824L27.7827 77.4445C28.0103 92.531 30.3449 107.1 34.55 119.697L57.315 112.097ZM39.7813 89.2635H72.7368V65.2635H39.7813V89.2635ZM89.2638 110.272V77.2635H65.2638V110.272H89.2638ZM77.2638 89.2635H110.219V65.2635H77.2638V89.2635ZM98.2206 77.0824C98.0252 90.0348 96.0139 102.127 92.6858 112.097L115.451 119.696C119.656 107.1 121.99 92.531 122.218 77.4445L98.2206 77.0824ZM108.589 104.781C98.7799 100.791 88.3164 98.5858 77.6095 98.2772L76.9181 122.267C84.7719 122.494 92.4062 124.108 99.5474 127.013L108.589 104.781ZM89.2638 72.7365V39.7277H65.2638V72.7365H89.2638ZM77.6095 51.7227C88.3163 51.4141 98.7799 49.2085 108.589 45.2187L99.5469 22.9873C92.4062 25.8917 84.772 27.5063 76.9181 27.7327L77.6095 51.7227ZM92.6856 37.9028C96.0139 47.8729 98.0252 59.9651 98.2203 72.9173L122.218 72.5557C121.99 57.4691 119.656 42.8999 115.451 30.3032L92.6856 37.9028ZM110.219 60.7365H77.2638V84.7365H110.219V60.7365ZM26.3347 37.3279C29.6477 39.4873 33.0829 41.4145 36.6203 43.1032L46.9601 21.4448C44.378 20.2121 41.8666 18.8035 39.4398 17.2217L26.3347 37.3279ZM30.423 28.4289C25.9666 41.6032 23.488 56.8253 23.2557 72.559L47.2531 72.9134C47.4532 59.3637 49.5953 46.6501 53.1575 36.1191L30.423 28.4289ZM35.2544 60.7362H11.3628V84.7362H35.2544V60.7362ZM23.3554 73.1575C23.8697 58.5179 30.5031 45.3933 40.8323 36.2679L24.9422 18.2817C9.89146 31.5783 0.125636 50.8104 -0.629809 72.3149L23.3554 73.1575ZM11.3628 89.2635H35.2544V65.2635H11.3628V89.2635ZM23.2557 77.4407C23.488 93.1743 25.9666 108.397 30.423 121.571L53.1575 113.881C49.5953 103.35 47.4532 90.636 47.2531 77.0863L23.2557 77.4407ZM36.6203 106.896C33.0829 108.585 29.6477 110.512 26.3347 112.672L39.4398 132.778C41.8666 131.196 44.378 129.788 46.9601 128.555L36.6203 106.896ZM40.8321 113.732C30.5031 104.607 23.8697 91.4821 23.3554 76.8422L-0.629809 77.6848C0.125632 99.1896 9.89143 118.422 24.9423 131.718L40.8321 113.732ZM123.666 112.672C120.353 110.512 116.918 108.585 113.38 106.896L103.04 128.555C105.623 129.788 108.134 131.196 110.561 132.778L123.666 112.672ZM119.578 121.571C124.034 108.396 126.512 93.1742 126.745 77.4409L102.748 77.086C102.547 90.6361 100.405 103.35 96.8431 113.881L119.578 121.571ZM114.746 89.2635H138.638V65.2635H114.746V89.2635ZM126.645 76.8422C126.131 91.4821 119.497 104.607 109.168 113.732L125.058 131.718C140.109 118.422 149.875 99.1896 150.63 77.6848L126.645 76.8422Z" fill="black" mask="url(#path-19-inside-1)"/>
</svg>
