<svg width="156" height="156" viewBox="0 0 156 156" fill="none" xmlns="http://www.w3.org/2000/svg">
<path d="M73.4297 10.711C55.8121 11.7222 39.2907 18.5682 26.1035 30.3209L46.4981 50.7155C54.1732 44.3259 63.4923 40.4646 73.4297 39.5566V10.711Z" fill="white"/>
<path d="M40.0322 57.1766L19.6379 36.7824C7.87514 49.9659 1.02059 66.4885 0.00292969 84.1104H28.8498C29.7639 74.1712 33.6334 64.8511 40.0322 57.1766Z" fill="white"/>
<path d="M127.149 84.1104H155.996C154.978 66.4885 148.124 49.9659 136.361 36.7824L115.967 57.1766C122.366 64.8508 126.235 74.1712 127.149 84.1104V84.1104Z" fill="white"/>
<path d="M127.143 93.251C126.503 100.29 124.494 106.162 122.118 110.871C124.436 114.445 126.368 117.466 127.645 119.472C131.121 124.936 130.352 131.949 125.773 136.528C124.661 137.64 123.391 138.536 122.015 139.198L126.764 143.948C127.658 144.842 128.83 145.289 130.002 145.289C131.174 145.289 132.345 144.842 133.239 143.948C146.927 130.262 154.908 112.402 156 93.251H127.143Z" fill="white"/>
<path d="M28.857 93.251H0C1.0923 112.402 9.07359 130.262 22.7611 143.948C23.655 144.842 24.8265 145.289 25.9981 145.289C27.1696 145.289 28.3414 144.842 29.2354 143.948L43.1023 130.08C44.8899 128.293 44.8899 125.394 43.1023 123.606C39.4835 119.987 30.3682 109.856 28.857 93.251V93.251Z" fill="white"/>
<path d="M129.897 30.3209C116.709 18.5679 100.188 11.7222 82.5703 10.711V39.5566C92.5074 40.4646 101.827 44.3259 109.502 50.7155L129.897 30.3209Z" fill="white"/>
<path d="M88.1552 78.6023C82.5559 73.0031 73.4452 73.0031 67.8459 78.6023C62.2467 84.2016 62.2467 93.3123 67.8459 98.9116C74.9195 105.985 109.683 128.182 113.624 130.689C115.431 131.839 117.794 131.58 119.309 130.065C120.824 128.551 121.083 126.187 119.933 124.38C117.425 120.439 95.2288 85.6756 88.1552 78.6023V78.6023Z" fill="white"/>
</svg>
