<svg width="124" height="60" viewBox="0 0 124 60" fill="none" xmlns="http://www.w3.org/2000/svg">
	<path fill-rule="evenodd" clip-rule="evenodd" d="M44.2002 43.8086C47.4478 40.4998 49.1265 35.892 49.1265 29.8546C49.1265 23.8162 47.4475 19.2462 44.2067 16.0055L44.2001 15.9988L44.1935 15.992C41.0117 12.6878 36.6067 10.9873 30.8494 10.9873C25.0928 10.9873 20.6501 12.6877 17.4003 15.9988C14.2217 19.2387 12.5723 23.8111 12.5723 29.8546C12.5723 35.893 14.2191 40.501 17.4004 43.8086C20.6485 47.053 25.0913 48.7218 30.8494 48.7218C36.6122 48.7218 41.0195 47.0504 44.2002 43.8086ZM16.6866 44.5091C13.2771 40.9684 11.5723 36.0836 11.5723 29.8546C11.5723 23.6256 13.2771 18.7735 16.6866 15.2984C20.1618 11.7577 24.8827 9.98731 30.8494 9.98731C36.8161 9.98731 41.5043 11.7577 44.9139 15.2984C48.389 18.7735 50.1265 23.6256 50.1265 29.8546C50.1265 36.0836 48.389 40.9684 44.9139 44.5091C41.5043 47.9842 36.8161 49.7218 30.8494 49.7218C24.8827 49.7218 20.1618 47.9842 16.6866 44.5091ZM52.3853 51.4338L52.3806 51.4381C46.6658 56.7447 39.4627 59.3768 30.8494 59.3768C22.2359 59.3768 15.0027 56.7448 9.22418 51.4421L9.21515 51.4338C3.47504 46.0354 0.638672 38.8047 0.638672 29.8546C0.638672 20.9048 3.47503 13.704 9.21951 8.36965C14.9975 2.99949 22.2323 0.332275 30.8494 0.332275C39.4652 0.332275 46.669 2.99883 52.3829 8.37145C58.1261 13.7056 60.9618 20.9058 60.9618 29.8546C60.9618 38.8047 58.1254 46.0353 52.3853 51.4338ZM51.7002 9.10214C46.1924 3.92223 39.2422 1.33228 30.8494 1.33228C22.4567 1.33228 15.4736 3.92223 9.9003 9.10214C4.39255 14.2165 1.63867 21.134 1.63867 29.8546C1.63867 38.5752 4.39255 45.5254 9.9003 50.7053C15.4736 55.8197 22.4567 58.3768 30.8494 58.3768C39.2422 58.3768 46.1924 55.8197 51.7002 50.7053C57.2079 45.5254 59.9618 38.5752 59.9618 29.8546C59.9618 21.134 57.2079 14.2165 51.7002 9.10214ZM122.136 47.0498V57.9999H73.3205V46.291L106.674 27.1176C110.122 25.1474 111.678 22.6843 111.678 19.7242C111.678 16.9326 110.584 14.9292 108.389 13.5662C106.115 12.1542 102.575 11.3807 97.6301 11.3807C91.0103 11.3807 85.0817 13.7357 79.8103 18.4991L79.0822 19.1571L71.7482 11.3422L72.4332 10.6571C79.3183 3.77207 87.8713 0.332275 98.0235 0.332275C105.626 0.332275 111.785 1.93111 116.401 5.2355C121.165 8.53183 123.513 13.4846 123.513 19.9209C123.513 26.6621 119.892 31.9731 112.969 35.8418L92.9128 47.0498H122.136ZM89.0734 48.0498H121.136V56.9999H74.3205V46.8696L107.17 27.9859C110.842 25.8877 112.678 23.1338 112.678 19.7242C112.678 13.4952 107.662 10.3807 97.6301 10.3807C90.7454 10.3807 84.582 12.8395 79.1399 17.7571C79.1399 17.7571 79.1398 17.7571 79.1399 17.7571L73.1403 11.3643C79.8283 4.67627 88.1227 1.33228 98.0235 1.33228C105.498 1.33228 111.432 2.90592 115.825 6.05321C120.284 9.13492 122.513 13.7575 122.513 19.9209C122.513 26.2155 119.169 31.2315 112.481 34.9689L89.0734 48.0498Z" fill="#D71058" />
</svg>
