<svg width="126" height="60" viewBox="0 0 126 60" fill="none" xmlns="http://www.w3.org/2000/svg">
	<path fill-rule="evenodd" clip-rule="evenodd" d="M44.2002 43.8086C47.4478 40.4998 49.1265 35.892 49.1265 29.8546C49.1265 23.8162 47.4475 19.2462 44.2067 16.0055L44.2001 15.9988L44.1935 15.992C41.0117 12.6878 36.6067 10.9873 30.8494 10.9873C25.0928 10.9873 20.6501 12.6877 17.4003 15.9988C14.2217 19.2387 12.5723 23.8111 12.5723 29.8546C12.5723 35.893 14.2191 40.501 17.4004 43.8086C20.6485 47.053 25.0913 48.7218 30.8494 48.7218C36.6122 48.7218 41.0195 47.0504 44.2002 43.8086ZM16.6866 44.5091C13.2771 40.9684 11.5723 36.0836 11.5723 29.8546C11.5723 23.6256 13.2771 18.7735 16.6866 15.2984C20.1618 11.7577 24.8827 9.98731 30.8494 9.98731C36.8161 9.98731 41.5043 11.7577 44.9139 15.2984C48.389 18.7735 50.1265 23.6256 50.1265 29.8546C50.1265 36.0836 48.389 40.9684 44.9139 44.5091C41.5043 47.9842 36.8161 49.7218 30.8494 49.7218C24.8827 49.7218 20.1618 47.9842 16.6866 44.5091ZM52.3853 51.4338L52.3806 51.4381C46.6658 56.7447 39.4627 59.3768 30.8494 59.3768C22.2359 59.3768 15.0027 56.7448 9.22418 51.4421L9.21515 51.4338C3.47504 46.0354 0.638672 38.8047 0.638672 29.8546C0.638672 20.9048 3.47503 13.704 9.21951 8.36965C14.9975 2.99949 22.2323 0.332275 30.8494 0.332275C39.4652 0.332275 46.669 2.99883 52.3829 8.37145C58.1261 13.7056 60.9618 20.9058 60.9618 29.8546C60.9618 38.8047 58.1254 46.0353 52.3853 51.4338ZM51.7002 9.10214C46.1924 3.92223 39.2422 1.33228 30.8494 1.33228C22.4567 1.33228 15.4736 3.92223 9.9003 9.10214C4.39255 14.2165 1.63867 21.134 1.63867 29.8546C1.63867 38.5752 4.39255 45.5254 9.9003 50.7053C15.4736 55.8197 22.4567 58.3768 30.8494 58.3768C39.2422 58.3768 46.1924 55.8197 51.7002 50.7053C57.2079 45.5254 59.9618 38.5752 59.9618 29.8546C59.9618 21.134 57.2079 14.2165 51.7002 9.10214ZM85.1117 33.6231L75.6332 32.946L77.2052 1.61086H121.841V12.561H88.337L87.7128 21.9231C91.8994 20.5713 96.6522 19.9045 101.958 19.9045C109.306 19.9045 115.191 21.5401 119.49 24.9361C123.827 28.2951 125.972 33.0281 125.972 39.0014C125.972 45.7213 123.411 50.8732 118.246 54.293C113.174 57.6516 106.368 59.2785 97.9252 59.2785C87.533 59.2785 78.5478 56.8115 71.0154 51.8347L70.2313 51.3166L75.7256 41.7614L76.5947 42.2684C80.4784 44.5338 84.0051 46.0997 87.1793 46.9885C90.3435 47.8744 94.2465 48.3284 98.9087 48.3284C104.273 48.3284 108.057 47.4172 110.431 45.7566C112.867 44.0325 114.039 41.8059 114.039 39.0014C114.039 36.1751 112.934 34.1472 110.723 32.7686C108.433 31.341 104.869 30.5595 99.8922 30.5595C94.8472 30.5595 89.9969 31.5485 85.3335 33.5289L85.1117 33.6231ZM111.006 46.5745C108.383 48.4104 104.351 49.3284 98.9087 49.3284C94.1878 49.3284 90.1881 48.8694 86.9097 47.9514C83.8462 47.0937 80.4966 45.6348 76.8606 43.5748C76.6055 43.4302 76.3489 43.2827 76.0909 43.1322L71.5667 51.0004C78.9103 55.8524 87.6965 58.2785 97.9252 58.2785C106.252 58.2785 112.842 56.6721 117.694 53.4592C122.546 50.2463 124.972 45.4271 124.972 39.0014C124.972 33.2969 122.94 28.871 118.874 25.7237C114.809 22.5109 109.17 20.9045 101.958 20.9045C96.5709 20.9045 91.7987 21.6028 87.6411 22.9996C87.2947 23.116 86.9525 23.2372 86.6146 23.3633L87.4014 11.561H120.841V2.61086H78.1563L76.681 32.0183L84.9426 32.6084C89.7291 30.5758 94.7123 29.5595 99.8922 29.5595C109.99 29.5595 115.039 32.7068 115.039 39.0014C115.039 42.1486 113.694 44.673 111.006 46.5745Z" fill="#D71058" />
</svg>
