<svg width="128" height="60" viewBox="0 0 128 60" fill="none" xmlns="http://www.w3.org/2000/svg">
	<path fill-rule="evenodd" clip-rule="evenodd" d="M44.2002 43.8086C47.4478 40.4998 49.1265 35.892 49.1265 29.8546C49.1265 23.8162 47.4475 19.2462 44.2067 16.0055L44.2001 15.9988L44.1935 15.992C41.0117 12.6878 36.6067 10.9873 30.8494 10.9873C25.0928 10.9873 20.6501 12.6877 17.4003 15.9988C14.2217 19.2387 12.5723 23.8111 12.5723 29.8546C12.5723 35.893 14.2191 40.501 17.4004 43.8086C20.6485 47.053 25.0913 48.7218 30.8494 48.7218C36.6122 48.7218 41.0195 47.0504 44.2002 43.8086ZM16.6866 44.5091C13.2771 40.9684 11.5723 36.0836 11.5723 29.8546C11.5723 23.6256 13.2771 18.7735 16.6866 15.2984C20.1618 11.7577 24.8827 9.98731 30.8494 9.98731C36.8161 9.98731 41.5043 11.7577 44.9139 15.2984C48.389 18.7735 50.1265 23.6256 50.1265 29.8546C50.1265 36.0836 48.389 40.9684 44.9139 44.5091C41.5043 47.9842 36.8161 49.7218 30.8494 49.7218C24.8827 49.7218 20.1618 47.9842 16.6866 44.5091ZM52.3853 51.4338L52.3806 51.4381C46.6658 56.7447 39.4627 59.3768 30.8494 59.3768C22.2359 59.3768 15.0027 56.7448 9.22418 51.4421L9.21515 51.4338C3.47504 46.0354 0.638672 38.8047 0.638672 29.8546C0.638672 20.9048 3.47503 13.704 9.21951 8.36965C14.9975 2.99949 22.2323 0.332275 30.8494 0.332275C39.4652 0.332275 46.669 2.99883 52.3829 8.37145C58.1261 13.7056 60.9618 20.9058 60.9618 29.8546C60.9618 38.8047 58.1254 46.0353 52.3853 51.4338ZM51.7002 9.10214C46.1924 3.92223 39.2422 1.33228 30.8494 1.33228C22.4567 1.33228 15.4736 3.92223 9.9003 9.10214C4.39255 14.2165 1.63867 21.134 1.63867 29.8546C1.63867 38.5752 4.39255 45.5254 9.9003 50.7053C15.4736 55.8197 22.4567 58.3768 30.8494 58.3768C39.2422 58.3768 46.1924 55.8197 51.7002 50.7053C57.2079 45.5254 59.9618 38.5752 59.9618 29.8546C59.9618 21.134 57.2079 14.2165 51.7002 9.10214ZM126.598 6.33728L121.769 15.7543L120.882 15.3056C115.327 12.496 109.221 11.0857 102.548 11.0857C97.3335 11.0857 93.2463 12.3555 90.1899 14.8006L90.1803 14.8083C87.5274 16.8776 85.762 19.8791 84.9432 23.9075C90.6799 21.6313 96.7473 20.4946 103.138 20.4946C110.226 20.4946 116.138 21.9995 120.803 25.0865C125.591 28.2552 127.939 33.1896 127.939 39.6898C127.939 45.7232 125.418 50.5786 120.443 54.1715L120.436 54.1769C115.496 57.6759 109.011 59.3768 101.072 59.3768C91.8979 59.3768 84.8027 56.7591 79.9692 51.3732C75.1717 46.0274 72.8288 38.7814 72.8288 29.7562C72.8288 21.1954 75.5684 14.1115 81.0882 8.59174C86.6127 3.0673 93.7976 0.332275 102.548 0.332275C111.344 0.332275 119.09 2.16598 125.753 5.86752L126.598 6.33728ZM84.7377 25.0693C90.5223 22.6861 96.6557 21.4946 103.138 21.4946C110.088 21.4946 115.793 22.9699 120.251 25.9204C124.71 28.871 126.939 33.4608 126.939 39.6898C126.939 45.3943 124.579 49.9513 119.858 53.3608C115.137 56.7048 108.875 58.3768 101.072 58.3768C92.0896 58.3768 85.3032 55.8197 80.7135 50.7053C76.1237 45.591 73.8288 38.6079 73.8288 29.7562C73.8288 21.429 76.4843 14.6099 81.7953 9.29885C87.1064 3.9878 94.0238 1.33228 102.548 1.33228C111.203 1.33228 118.776 3.13541 125.267 6.74167L121.333 14.4131C115.629 11.5281 109.367 10.0857 102.548 10.0857C97.1711 10.0857 92.8436 11.397 89.5652 14.0198C86.5408 16.3788 84.6325 19.8258 83.8401 24.361C83.7735 24.742 83.7148 25.1307 83.664 25.527C84.0206 25.3698 84.3785 25.2173 84.7377 25.0693ZM113.061 33.3748L113.052 33.3696C110.869 32.0714 107.132 31.3463 101.663 31.3463C96.2448 31.3463 90.5705 32.3213 84.6352 34.2865C85.1654 39.3041 86.7171 42.7916 89.1414 44.9363C91.7592 47.1944 96.0563 48.4267 102.253 48.4267C107.158 48.4267 110.663 47.6142 112.915 46.1325C115.094 44.699 116.202 42.5729 116.202 39.5915C116.202 36.5226 115.115 34.5408 113.07 33.3798L113.061 33.3748ZM88.4833 45.6893C85.6639 43.1977 84.0247 39.1653 83.5657 33.592C89.8603 31.4282 95.8925 30.3463 101.663 30.3463C107.17 30.3463 111.137 31.0676 113.563 32.5101C115.989 33.887 117.202 36.2475 117.202 39.5915C117.202 46.1483 112.219 49.4267 102.253 49.4267C95.9581 49.4267 91.3683 48.1809 88.4833 45.6893Z" fill="#D71058" />
</svg>
