<svg width="347" height="163" viewBox="0 0 347 163" fill="none" xmlns="http://www.w3.org/2000/svg">
<path fill-rule="evenodd" clip-rule="evenodd" d="M83.7112 1.39087C60.1367 1.39087 40.5545 8.6618 24.9275 23.1858C9.50156 37.5098 1.77051 56.8913 1.77051 81.3885C1.77051 105.885 9.50069 125.359 24.9274 139.869C40.5539 154.207 60.1361 161.386 83.7112 161.386C107.286 161.386 126.775 154.207 142.215 139.871C157.643 125.361 165.374 105.886 165.374 81.3885C165.374 56.8913 157.643 37.51 142.218 23.1859L142.215 23.1838C126.774 8.66176 107.286 1.39087 83.7112 1.39087ZM24.2467 22.4533C40.0785 7.73906 59.9124 0.390869 83.7112 0.390869C107.509 0.390869 127.251 7.73856 142.899 22.4537C158.561 36.9977 166.374 56.6622 166.374 81.3885C166.374 106.115 158.561 125.871 142.9 140.599L142.898 140.601C127.25 155.132 107.508 162.386 83.7112 162.386C59.9142 162.386 40.0811 155.132 24.249 140.603L24.2445 140.599C8.58397 125.871 0.770508 106.115 0.770508 81.3885C0.770508 56.662 8.58394 36.9974 24.2467 22.4533ZM265.169 1.39087C252.627 1.39087 241.297 2.95869 231.175 6.08741L231.167 6.0898C221.175 8.99657 210.807 14.1517 200.064 21.5684L212.3 40.7207C228.19 30.3034 245.91 25.0953 265.447 25.0953C280.446 25.0953 291.282 26.7577 297.872 30.1458C301.267 31.8439 303.841 34.0511 305.563 36.7784C307.287 39.5072 308.139 42.7258 308.139 46.4137C308.139 51.7807 306.629 55.893 303.53 58.6535C300.441 61.4042 295.859 62.7356 289.874 62.7356H238.189V85.8849H291.262C300.199 85.8849 306.995 87.6982 311.562 91.4096C316.15 95.1372 318.409 100.711 318.409 108.036C318.409 112.925 317.303 117.227 315.076 120.924C312.849 124.62 309.517 127.684 305.105 130.125C296.297 134.997 283.149 137.404 265.724 137.404C253.475 137.404 242.874 136.012 233.931 133.218L233.919 133.214C225.291 130.277 215.774 125.534 205.369 118.996L192.284 139.826C212.281 154.194 236.106 161.386 263.781 161.386C292.054 161.386 312.645 156.301 325.653 146.224L325.655 146.222C338.87 136.127 345.444 123.592 345.444 108.591C345.444 99.4145 343.357 91.8645 339.219 85.9069C335.082 79.9509 328.864 75.5429 320.524 72.7017L319.466 72.3415L320.439 71.7929C330.46 66.1446 335.452 57.6134 335.452 46.1361C335.452 31.6894 329.341 20.6537 317.088 12.9728L317.08 12.9672C305.354 5.27221 288.073 1.39087 265.169 1.39087ZM230.883 5.13077C241.116 1.96852 252.546 0.390869 265.169 0.390869C288.156 0.390869 305.663 4.28077 317.624 12.1283C330.165 19.9917 336.452 31.3463 336.452 46.1361C336.452 57.6101 331.58 66.2893 321.872 72.1163C329.863 75.0208 335.932 79.4219 340.04 85.3363C344.322 91.4996 346.444 99.2626 346.444 108.591C346.444 123.938 339.696 136.754 326.264 147.015C326.264 147.016 326.263 147.016 326.262 147.017L325.959 146.619L326.265 147.015C326.265 147.015 326.264 147.015 326.264 147.015C312.995 157.294 292.134 162.386 263.781 162.386C235.746 162.386 211.584 155.051 191.318 140.362L190.939 140.088L205.056 117.616L205.479 117.884C216.003 124.53 225.588 129.32 234.236 132.265C234.234 132.265 234.232 132.264 234.23 132.263L234.08 132.74L234.242 132.267C234.24 132.267 234.238 132.266 234.236 132.265C243.056 135.021 253.55 136.404 265.724 136.404C283.09 136.404 296.034 134 304.621 129.25C308.907 126.879 312.098 123.929 314.219 120.408C316.34 116.888 317.409 112.77 317.409 108.036C317.409 100.927 315.227 95.6753 310.932 92.1858C306.617 88.6801 300.089 86.8849 291.262 86.8849H237.189V61.7356H289.874C295.732 61.7356 300.032 60.4301 302.865 57.9068C305.687 55.3933 307.139 51.5946 307.139 46.4137C307.139 42.8845 306.325 39.8576 304.718 37.3124C303.11 34.7663 300.688 32.6716 297.422 31.0389L297.417 31.0364C291.053 27.7635 280.424 26.0953 265.447 26.0953C245.927 26.0953 228.258 31.3419 212.428 41.834L212.004 42.115L198.703 21.2955L199.098 21.0211C210.048 13.4115 220.644 8.11022 230.883 5.13077ZM230.883 5.13077C230.882 5.13118 230.881 5.13159 230.879 5.132L231.027 5.6097L230.887 5.1296C230.886 5.12999 230.885 5.13039 230.883 5.13077ZM43.3831 39.9567C53.3035 29.8491 66.7664 24.8177 83.7112 24.8177C100.654 24.8177 114.026 29.848 123.762 39.9569C133.685 49.8816 138.617 63.7153 138.617 81.3885C138.617 99.0643 133.683 112.989 123.762 123.098C114.025 133.022 100.653 137.959 83.7112 137.959C66.7691 137.959 53.3074 133.022 43.3864 123.101L43.3798 123.094C33.6451 112.985 28.8059 99.0617 28.8059 81.3885C28.8059 63.7159 33.645 49.8821 43.3831 39.9567ZM44.0969 40.6571C34.5896 50.3473 29.8059 63.9013 29.8059 81.3885C29.8059 98.8733 34.5883 112.521 44.0969 122.398C53.7912 132.09 66.9758 136.959 83.7112 136.959C100.449 136.959 113.54 132.089 123.048 122.397C132.742 112.521 137.617 98.8727 137.617 81.3885C137.617 63.9039 132.742 50.3511 123.051 40.6605L123.045 40.6538C113.536 30.7792 100.446 25.8177 83.7112 25.8177C66.9766 25.8177 53.792 30.7792 44.0969 40.6571Z" fill="url(#paint0_linear)"/>
<defs>
<linearGradient id="paint0_linear" x1="174.5" y1="-51" x2="174.5" y2="231" gradientUnits="userSpaceOnUse">
<stop stop-color="white"/>
<stop offset="1" stop-color="#8533FF"/>
</linearGradient>
</defs>
</svg>
