<svg width="96" height="45" viewBox="0 0 96 45" fill="none" xmlns="http://www.w3.org/2000/svg">
	<path fill-rule="evenodd" clip-rule="evenodd" d="M33.7647 33.0785C36.2093 30.5877 37.4727 27.1194 37.4727 22.5759C37.4727 18.0317 36.2091 14.5918 33.7696 12.1523L33.7596 12.1423C31.3645 9.65506 28.0488 8.37514 23.716 8.37514C19.3837 8.37514 16.0396 9.65485 13.5934 12.1472M39.9159 38.8082L39.9124 38.8115C35.6137 42.8031 30.1955 44.7831 23.716 44.7831C17.2364 44.7831 11.7954 42.8032 7.44874 38.8145L7.442 38.8083C3.12437 34.7476 0.990723 29.3088 0.990723 22.5759C0.990723 15.8432 3.12444 10.4267 7.4455 6.41432C11.7918 2.37497 17.2338 0.368652 23.716 0.368652C30.1972 0.368652 35.616 2.37452 39.914 6.41577C44.234 10.428 46.3672 15.844 46.3672 22.5759C46.3672 29.3088 44.2335 34.7476 39.9159 38.8082ZM13.5934 12.1472C11.2006 14.5861 9.95921 18.0279 9.95921 22.5759C9.95921 27.1202 11.1986 30.5887 13.5934 33.0786C16.0384 35.5207 19.3826 36.7767 23.716 36.7767C28.0529 36.7767 31.3704 35.5188 33.7647 33.0785M13.06 11.6239C10.4946 14.2386 9.21197 17.8892 9.21197 22.5759C9.21197 27.2626 10.4946 30.9379 13.06 33.6019C15.6746 36.2166 19.2266 37.5239 23.716 37.5239C28.2053 37.5239 31.7326 36.2166 34.298 33.6019C36.9126 30.9379 38.22 27.2626 38.22 22.5759C38.22 17.8892 36.9126 14.2386 34.298 11.6239C31.7326 8.9599 28.2053 7.6279 23.716 7.6279C19.2266 7.6279 15.6746 8.9599 13.06 11.6239ZM64.5417 25.4061L57.4164 24.8971L58.5987 1.33065H92.1726V9.55914H66.9645L66.494 16.6156C69.6451 15.5971 73.223 15.0947 77.2174 15.0947C82.7455 15.0947 87.172 16.3251 90.4055 18.8791C93.6669 21.4053 95.2806 24.9649 95.2806 29.4579C95.2806 34.5124 93.3541 38.387 89.4699 40.9589C85.6548 43.4852 80.5351 44.7091 74.1834 44.7091C66.3652 44.7091 59.6058 42.8532 53.9395 39.1094L53.3535 38.7222L57.4824 31.5416L58.1319 31.9204C61.0542 33.6251 63.7081 34.8035 66.0969 35.4723C68.4781 36.1391 71.4153 36.4807 74.9234 36.4807C78.9595 36.4807 81.8079 35.7951 83.5951 34.545C85.4297 33.2468 86.3121 31.5699 86.3121 29.4579C86.3121 27.3298 85.4806 25.8023 83.8151 24.764C82.0909 23.6892 79.4086 23.1011 75.6634 23.1011C71.8668 23.1011 68.2168 23.8454 64.7075 25.3357L64.5417 25.4061ZM66.4404 17.42C66.1816 17.5071 65.9259 17.5977 65.6734 17.6919L66.2654 8.8119H91.4254V2.0779H59.3094L58.1994 24.2039L64.4154 24.6479C68.0167 23.1186 71.7661 22.3539 75.6634 22.3539C83.2607 22.3539 87.0594 24.7219 87.0594 29.4579C87.0594 31.8259 86.0481 33.7252 84.0254 35.1559C82.0521 36.5372 79.0181 37.2279 74.9234 37.2279C71.3714 37.2279 68.3621 36.8826 65.8954 36.1919C63.5904 35.5465 61.0701 34.4488 58.3344 32.8988C58.1425 32.7901 57.9495 32.6791 57.7555 32.566C57.7555 32.5659 57.7555 32.566 57.7555 32.566L54.3514 38.4859C59.8767 42.1366 66.4874 43.9619 74.1834 43.9619C80.4487 43.9619 85.4067 42.7532 89.0574 40.3359C92.7081 37.9186 94.5334 34.2926 94.5334 29.4579C94.5334 25.1659 93.0041 21.8359 89.9454 19.4679C86.8867 17.0506 82.6441 15.8419 77.2174 15.8419C73.1621 15.8419 69.5698 16.3679 66.4404 17.42ZM45.62 22.5759C45.62 16.0146 43.548 10.8099 39.404 6.9619C35.26 3.06456 30.0306 1.1159 23.716 1.1159C17.4013 1.1159 12.1473 3.06456 7.95397 6.9619C3.80997 10.8099 1.73797 16.0146 1.73797 22.5759C1.73797 29.1372 3.80997 34.3666 7.95397 38.2639C12.1473 42.1119 17.4013 44.0359 23.716 44.0359C30.0306 44.0359 35.26 42.1119 39.404 38.2639C43.548 34.3666 45.62 29.1372 45.62 22.5759Z" fill="#7A22FF" />
</svg>
