<svg width="1264" height="6" viewBox="0 0 1264 6" fill="none" xmlns="http://www.w3.org/2000/svg">
<path fill-rule="evenodd" clip-rule="evenodd" d="M1.00311 5.125L0.00390581 5.125L0.00390625 0.125L1.00312 0.125L1.00311 5.125ZM4.99995 5.125L3.00153 5.125L3.00153 0.125L4.99995 0.125L4.99995 5.125ZM8.99679 5.125L6.99837 5.125L6.99837 0.125001L8.99679 0.125001L8.99679 5.125ZM12.9936 5.125L10.9952 5.125L10.9952 0.125001L12.9936 0.125001L12.9936 5.125ZM16.9905 5.125L14.992 5.125L14.992 0.125001L16.9905 0.125001L16.9905 5.125ZM20.9873 5.125L18.9889 5.125L18.9889 0.125002L20.9873 0.125002L20.9873 5.125ZM24.9841 5.125L22.9857 5.125L22.9857 0.125002L24.9841 0.125002L24.9841 5.125ZM28.981 5.125L26.9825 5.125L26.9825 0.125002L28.981 0.125003L28.981 5.125ZM32.9778 5.125L30.9794 5.125L30.9794 0.125003L32.9778 0.125003L32.9778 5.125ZM36.9746 5.125L34.9762 5.125L34.9762 0.125003L36.9746 0.125003L36.9746 5.125ZM40.9715 5.125L38.973 5.125L38.973 0.125003L40.9715 0.125004L40.9715 5.125ZM44.9683 5.125L42.9699 5.125L42.9699 0.125004L44.9683 0.125004L44.9683 5.125ZM48.9651 5.125L46.9667 5.125L46.9667 0.125004L48.9651 0.125004L48.9651 5.125ZM52.962 5.125L50.9636 5.125L50.9636 0.125004L52.962 0.125005L52.962 5.125ZM56.9588 5.125L54.9604 5.125L54.9604 0.125005L56.9588 0.125005L56.9588 5.125ZM60.9556 5.12501L58.9572 5.12501L58.9572 0.125005L60.9556 0.125005L60.9556 5.12501ZM64.9525 5.12501L62.954 5.12501L62.954 0.125006L64.9525 0.125006L64.9525 5.12501ZM68.9493 5.12501L66.9509 5.12501L66.9509 0.125006L68.9493 0.125006L68.9493 5.12501ZM72.9462 5.12501L70.9477 5.12501L70.9477 0.125006L72.9462 0.125006L72.9462 5.12501ZM76.943 5.12501L74.9446 5.12501L74.9446 0.125007L76.943 0.125007L76.943 5.12501ZM80.9398 5.12501L78.9414 5.12501L78.9414 0.125007L80.9398 0.125007L80.9398 5.12501ZM84.9367 5.12501L82.9383 5.12501L82.9383 0.125007L84.9367 0.125007L84.9367 5.12501ZM88.9335 5.12501L86.9351 5.12501L86.9351 0.125008L88.9335 0.125008L88.9335 5.12501ZM92.9304 5.12501L90.9319 5.12501L90.9319 0.125008L92.9304 0.125008L92.9304 5.12501ZM96.9272 5.12501L94.9288 5.12501L94.9288 0.125008L96.9272 0.125008L96.9272 5.12501ZM100.924 5.12501L98.9256 5.12501L98.9256 0.125009L100.924 0.125009L100.924 5.12501ZM104.921 5.12501L102.922 5.12501L102.922 0.125009L104.921 0.125009L104.921 5.12501ZM108.918 5.12501L106.919 5.12501L106.919 0.125009L108.918 0.12501L108.918 5.12501ZM112.915 5.12501L110.916 5.12501L110.916 0.12501L112.915 0.12501L112.915 5.12501ZM116.911 5.12501L114.913 5.12501L114.913 0.12501L116.911 0.12501L116.911 5.12501ZM120.908 5.12501L118.91 5.12501L118.91 0.12501L120.908 0.125011L120.908 5.12501ZM124.905 5.12501L122.907 5.12501L122.907 0.125011L124.905 0.125011L124.905 5.12501ZM128.902 5.12501L126.904 5.12501L126.904 0.125011L128.902 0.125011L128.902 5.12501ZM132.899 5.12501L130.9 5.12501L130.9 0.125011L132.899 0.125012L132.899 5.12501ZM136.896 5.12501L134.897 5.12501L134.897 0.125012L136.896 0.125012L136.896 5.12501ZM140.892 5.12501L138.894 5.12501L138.894 0.125012L140.892 0.125012L140.892 5.12501ZM144.889 5.12501L142.891 5.12501L142.891 0.125012L144.889 0.125013L144.889 5.12501ZM148.886 5.12501L146.888 5.12501L146.888 0.125013L148.886 0.125013L148.886 5.12501ZM152.883 5.12501L150.884 5.12501L150.884 0.125013L152.883 0.125013L152.883 5.12501ZM156.88 5.12501L154.881 5.12501L154.881 0.125014L156.88 0.125014L156.88 5.12501ZM160.877 5.12501L158.878 5.12501L158.878 0.125014L160.877 0.125014L160.877 5.12501ZM164.873 5.12501L162.875 5.12501L162.875 0.125014L164.873 0.125014L164.873 5.12501ZM168.87 5.12501L166.872 5.12501L166.872 0.125015L168.87 0.125015L168.87 5.12501ZM172.867 5.12502L170.869 5.12501L170.869 0.125015L172.867 0.125015L172.867 5.12502ZM176.864 5.12502L174.865 5.12502L174.865 0.125015L176.864 0.125015L176.864 5.12502ZM180.861 5.12502L178.862 5.12502L178.862 0.125016L180.861 0.125016L180.861 5.12502ZM184.857 5.12502L182.859 5.12502L182.859 0.125016L184.857 0.125016L184.857 5.12502ZM188.854 5.12502L186.856 5.12502L186.856 0.125016L188.854 0.125017L188.854 5.12502ZM192.851 5.12502L190.853 5.12502L190.853 0.125017L192.851 0.125017L192.851 5.12502ZM196.848 5.12502L194.85 5.12502L194.85 0.125017L196.848 0.125017L196.848 5.12502ZM200.845 5.12502L198.846 5.12502L198.846 0.125017L200.845 0.125018L200.845 5.12502ZM204.842 5.12502L202.843 5.12502L202.843 0.125018L204.842 0.125018L204.842 5.12502ZM208.838 5.12502L206.84 5.12502L206.84 0.125018L208.838 0.125018L208.838 5.12502ZM212.835 5.12502L210.837 5.12502L210.837 0.125018L212.835 0.125019L212.835 5.12502ZM216.832 5.12502L214.834 5.12502L214.834 0.125019L216.832 0.125019L216.832 5.12502ZM220.829 5.12502L218.831 5.12502L218.831 0.125019L220.829 0.125019L220.829 5.12502ZM224.826 5.12502L222.827 5.12502L222.827 0.125019L224.826 0.12502L224.826 5.12502ZM228.823 5.12502L226.824 5.12502L226.824 0.12502L228.823 0.12502L228.823 5.12502ZM232.819 5.12502L230.821 5.12502L230.821 0.12502L232.819 0.12502L232.819 5.12502ZM236.816 5.12502L234.818 5.12502L234.818 0.125021L236.816 0.125021L236.816 5.12502ZM240.813 5.12502L238.815 5.12502L238.815 0.125021L240.813 0.125021L240.813 5.12502ZM244.81 5.12502L242.811 5.12502L242.811 0.125021L244.81 0.125021L244.81 5.12502ZM248.807 5.12502L246.808 5.12502L246.808 0.125022L248.807 0.125022L248.807 5.12502ZM252.804 5.12502L250.805 5.12502L250.805 0.125022L252.804 0.125022L252.804 5.12502ZM256.8 5.12502L254.802 5.12502L254.802 0.125022L256.8 0.125022L256.8 5.12502ZM260.797 5.12502L258.799 5.12502L258.799 0.125023L260.797 0.125023L260.797 5.12502ZM264.794 5.12502L262.796 5.12502L262.796 0.125023L264.794 0.125023L264.794 5.12502ZM268.791 5.12502L266.792 5.12502L266.792 0.125023L268.791 0.125023L268.791 5.12502ZM272.788 5.12502L270.789 5.12502L270.789 0.125024L272.788 0.125024L272.788 5.12502ZM276.785 5.12502L274.786 5.12502L274.786 0.125024L276.785 0.125024L276.785 5.12502ZM280.781 5.12502L278.783 5.12502L278.783 0.125024L280.781 0.125025L280.781 5.12502ZM284.778 5.12502L282.78 5.12502L282.78 0.125025L284.778 0.125025L284.778 5.12502ZM288.775 5.12503L286.777 5.12503L286.777 0.125025L288.775 0.125025L288.775 5.12503ZM292.772 5.12503L290.773 5.12503L290.773 0.125025L292.772 0.125026L292.772 5.12503ZM296.769 5.12503L294.77 5.12503L294.77 0.125026L296.769 0.125026L296.769 5.12503ZM300.765 5.12503L298.767 5.12503L298.767 0.125026L300.765 0.125026L300.765 5.12503ZM304.762 5.12503L302.764 5.12503L302.764 0.125026L304.762 0.125027L304.762 5.12503ZM308.759 5.12503L306.761 5.12503L306.761 0.125027L308.759 0.125027L308.759 5.12503ZM312.756 5.12503L310.758 5.12503L310.758 0.125027L312.756 0.125027L312.756 5.12503ZM316.753 5.12503L314.754 5.12503L314.754 0.125028L316.753 0.125028L316.753 5.12503ZM320.75 5.12503L318.751 5.12503L318.751 0.125028L320.75 0.125028L320.75 5.12503ZM324.746 5.12503L322.748 5.12503L322.748 0.125028L324.746 0.125028L324.746 5.12503ZM328.743 5.12503L326.745 5.12503L326.745 0.125029L328.743 0.125029L328.743 5.12503ZM332.74 5.12503L330.742 5.12503L330.742 0.125029L332.74 0.125029L332.74 5.12503ZM336.737 5.12503L334.738 5.12503L334.738 0.125029L336.737 0.125029L336.737 5.12503ZM340.734 5.12503L338.735 5.12503L338.735 0.12503L340.734 0.12503L340.734 5.12503ZM344.731 5.12503L342.732 5.12503L342.732 0.12503L344.731 0.12503L344.731 5.12503ZM348.727 5.12503L346.729 5.12503L346.729 0.12503L348.727 0.12503L348.727 5.12503ZM352.724 5.12503L350.726 5.12503L350.726 0.125031L352.724 0.125031L352.724 5.12503ZM356.721 5.12503L354.723 5.12503L354.723 0.125031L356.721 0.125031L356.721 5.12503ZM360.718 5.12503L358.719 5.12503L358.719 0.125031L360.718 0.125032L360.718 5.12503ZM364.715 5.12503L362.716 5.12503L362.716 0.125032L364.715 0.125032L364.715 5.12503ZM368.712 5.12503L366.713 5.12503L366.713 0.125032L368.712 0.125032L368.712 5.12503ZM372.708 5.12503L370.71 5.12503L370.71 0.125032L372.708 0.125033L372.708 5.12503ZM376.705 5.12503L374.707 5.12503L374.707 0.125033L376.705 0.125033L376.705 5.12503ZM380.702 5.12503L378.704 5.12503L378.704 0.125033L380.702 0.125033L380.702 5.12503ZM384.699 5.12503L382.7 5.12503L382.7 0.125033L384.699 0.125034L384.699 5.12503ZM388.696 5.12503L386.697 5.12503L386.697 0.125034L388.696 0.125034L388.696 5.12503ZM392.692 5.12503L390.694 5.12503L390.694 0.125034L392.692 0.125034L392.692 5.12503ZM396.689 5.12503L394.691 5.12503L394.691 0.125035L396.689 0.125035L396.689 5.12503ZM400.686 5.12504L398.688 5.12503L398.688 0.125035L400.686 0.125035L400.686 5.12504ZM404.683 5.12504L402.685 5.12504L402.685 0.125035L404.683 0.125035L404.683 5.12504ZM408.68 5.12504L406.681 5.12504L406.681 0.125036L408.68 0.125036L408.68 5.12504ZM412.677 5.12504L410.678 5.12504L410.678 0.125036L412.677 0.125036L412.677 5.12504ZM416.673 5.12504L414.675 5.12504L414.675 0.125036L416.673 0.125036L416.673 5.12504ZM420.67 5.12504L418.672 5.12504L418.672 0.125037L420.67 0.125037L420.67 5.12504ZM424.667 5.12504L422.669 5.12504L422.669 0.125037L424.667 0.125037L424.667 5.12504ZM428.664 5.12504L426.666 5.12504L426.666 0.125037L428.664 0.125037L428.664 5.12504ZM432.661 5.12504L430.662 5.12504L430.662 0.125038L432.661 0.125038L432.661 5.12504ZM436.658 5.12504L434.659 5.12504L434.659 0.125038L436.658 0.125038L436.658 5.12504ZM440.654 5.12504L438.656 5.12504L438.656 0.125038L440.654 0.125039L440.654 5.12504ZM444.651 5.12504L442.653 5.12504L442.653 0.125039L444.651 0.125039L444.651 5.12504ZM448.648 5.12504L446.65 5.12504L446.65 0.125039L448.648 0.125039L448.648 5.12504ZM452.645 5.12504L450.646 5.12504L450.646 0.125039L452.645 0.12504L452.645 5.12504ZM456.642 5.12504L454.643 5.12504L454.643 0.12504L456.642 0.12504L456.642 5.12504ZM460.639 5.12504L458.64 5.12504L458.64 0.12504L460.639 0.12504L460.639 5.12504ZM464.635 5.12504L462.637 5.12504L462.637 0.12504L464.635 0.125041L464.635 5.12504ZM468.632 5.12504L466.634 5.12504L466.634 0.125041L468.632 0.125041L468.632 5.12504ZM472.629 5.12504L470.631 5.12504L470.631 0.125041L472.629 0.125041L472.629 5.12504ZM476.626 5.12504L474.627 5.12504L474.627 0.125041L476.626 0.125042L476.626 5.12504ZM480.623 5.12504L478.624 5.12504L478.624 0.125042L480.623 0.125042L480.623 5.12504ZM484.619 5.12504L482.621 5.12504L482.621 0.125042L484.619 0.125042L484.619 5.12504ZM488.616 5.12504L486.618 5.12504L486.618 0.125043L488.616 0.125043L488.616 5.12504ZM492.613 5.12504L490.615 5.12504L490.615 0.125043L492.613 0.125043L492.613 5.12504ZM496.61 5.12504L494.612 5.12504L494.612 0.125043L496.61 0.125043L496.61 5.12504ZM500.607 5.12504L498.608 5.12504L498.608 0.125044L500.607 0.125044L500.607 5.12504ZM504.604 5.12504L502.605 5.12504L502.605 0.125044L504.604 0.125044L504.604 5.12504ZM508.6 5.12504L506.602 5.12504L506.602 0.125044L508.6 0.125044L508.6 5.12504ZM512.597 5.12504L510.599 5.12504L510.599 0.125045L512.597 0.125045L512.597 5.12504ZM516.594 5.12505L514.596 5.12504L514.596 0.125045L516.594 0.125045L516.594 5.12505ZM520.591 5.12505L518.593 5.12505L518.593 0.125045L520.591 0.125046L520.591 5.12505ZM524.588 5.12505L522.589 5.12505L522.589 0.125046L524.588 0.125046L524.588 5.12505ZM528.585 5.12505L526.586 5.12505L526.586 0.125046L528.585 0.125046L528.585 5.12505ZM532.581 5.12505L530.583 5.12505L530.583 0.125046L532.581 0.125047L532.581 5.12505ZM536.578 5.12505L534.58 5.12505L534.58 0.125047L536.578 0.125047L536.578 5.12505ZM540.575 5.12505L538.577 5.12505L538.577 0.125047L540.575 0.125047L540.575 5.12505ZM544.572 5.12505L542.573 5.12505L542.573 0.125047L544.572 0.125048L544.572 5.12505ZM548.569 5.12505L546.57 5.12505L546.57 0.125048L548.569 0.125048L548.569 5.12505ZM552.566 5.12505L550.567 5.12505L550.567 0.125048L552.566 0.125048L552.566 5.12505ZM556.562 5.12505L554.564 5.12505L554.564 0.125048L556.562 0.125049L556.562 5.12505ZM560.559 5.12505L558.561 5.12505L558.561 0.125049L560.559 0.125049L560.559 5.12505ZM564.556 5.12505L562.558 5.12505L562.558 0.125049L564.556 0.125049L564.556 5.12505ZM568.553 5.12505L566.554 5.12505L566.554 0.12505L568.553 0.12505L568.553 5.12505ZM572.55 5.12505L570.551 5.12505L570.551 0.12505L572.55 0.12505L572.55 5.12505ZM576.547 5.12505L574.548 5.12505L574.548 0.12505L576.547 0.12505L576.547 5.12505ZM580.543 5.12505L578.545 5.12505L578.545 0.125051L580.543 0.125051L580.543 5.12505ZM584.54 5.12505L582.542 5.12505L582.542 0.125051L584.54 0.125051L584.54 5.12505ZM588.537 5.12505L586.539 5.12505L586.539 0.125051L588.537 0.125051L588.537 5.12505ZM592.534 5.12505L590.535 5.12505L590.535 0.125052L592.534 0.125052L592.534 5.12505ZM596.531 5.12505L594.532 5.12505L594.532 0.125052L596.531 0.125052L596.531 5.12505ZM600.527 5.12505L598.529 5.12505L598.529 0.125052L600.527 0.125052L600.527 5.12505ZM604.524 5.12505L602.526 5.12505L602.526 0.125053L604.524 0.125053L604.524 5.12505ZM608.521 5.12505L606.523 5.12505L606.523 0.125053L608.521 0.125053L608.521 5.12505ZM612.518 5.12505L610.52 5.12505L610.52 0.125053L612.518 0.125054L612.518 5.12505ZM616.515 5.12505L614.516 5.12505L614.516 0.125054L616.515 0.125054L616.515 5.12505ZM620.512 5.12505L618.513 5.12505L618.513 0.125054L620.512 0.125054L620.512 5.12505ZM624.508 5.12505L622.51 5.12505L622.51 0.125054L624.508 0.125055L624.508 5.12505ZM628.505 5.12505L626.507 5.12505L626.507 0.125055L628.505 0.125055L628.505 5.12505ZM632.502 5.12506L630.504 5.12506L630.504 0.125055L632.502 0.125055L632.502 5.12506ZM636.499 5.12506L634.5 5.12506L634.5 0.125055L636.499 0.125056L636.499 5.12506ZM640.496 5.12506L638.497 5.12506L638.497 0.125056L640.496 0.125056L640.496 5.12506ZM644.493 5.12506L642.494 5.12506L642.494 0.125056L644.493 0.125056L644.493 5.12506ZM648.489 5.12506L646.491 5.12506L646.491 0.125057L648.489 0.125057L648.489 5.12506ZM652.486 5.12506L650.488 5.12506L650.488 0.125057L652.486 0.125057L652.486 5.12506ZM656.483 5.12506L654.485 5.12506L654.485 0.125057L656.483 0.125057L656.483 5.12506ZM660.48 5.12506L658.481 5.12506L658.481 0.125058L660.48 0.125058L660.48 5.12506ZM664.477 5.12506L662.478 5.12506L662.478 0.125058L664.477 0.125058L664.477 5.12506ZM668.474 5.12506L666.475 5.12506L666.475 0.125058L668.474 0.125058L668.474 5.12506ZM672.47 5.12506L670.472 5.12506L670.472 0.125059L672.47 0.125059L672.47 5.12506ZM676.467 5.12506L674.469 5.12506L674.469 0.125059L676.467 0.125059L676.467 5.12506ZM680.464 5.12506L678.466 5.12506L678.466 0.125059L680.464 0.125059L680.464 5.12506ZM684.461 5.12506L682.462 5.12506L682.462 0.12506L684.461 0.12506L684.461 5.12506ZM688.458 5.12506L686.459 5.12506L686.459 0.12506L688.458 0.12506L688.458 5.12506ZM692.454 5.12506L690.456 5.12506L690.456 0.12506L692.454 0.125061L692.454 5.12506ZM696.451 5.12506L694.453 5.12506L694.453 0.125061L696.451 0.125061L696.451 5.12506ZM700.448 5.12506L698.45 5.12506L698.45 0.125061L700.448 0.125061L700.448 5.12506ZM704.445 5.12506L702.447 5.12506L702.447 0.125061L704.445 0.125062L704.445 5.12506ZM708.442 5.12506L706.443 5.12506L706.443 0.125062L708.442 0.125062L708.442 5.12506ZM712.439 5.12506L710.44 5.12506L710.44 0.125062L712.439 0.125062L712.439 5.12506ZM716.435 5.12506L714.437 5.12506L714.437 0.125062L716.435 0.125063L716.435 5.12506ZM720.432 5.12506L718.434 5.12506L718.434 0.125063L720.432 0.125063L720.432 5.12506ZM724.429 5.12506L722.431 5.12506L722.431 0.125063L724.429 0.125063L724.429 5.12506ZM728.426 5.12506L726.427 5.12506L726.427 0.125064L728.426 0.125064L728.426 5.12506ZM732.423 5.12506L730.424 5.12506L730.424 0.125064L732.423 0.125064L732.423 5.12506ZM736.42 5.12506L734.421 5.12506L734.421 0.125064L736.42 0.125064L736.42 5.12506ZM740.416 5.12506L738.418 5.12506L738.418 0.125065L740.416 0.125065L740.416 5.12506ZM744.413 5.12507L742.415 5.12506L742.415 0.125065L744.413 0.125065L744.413 5.12507ZM748.41 5.12507L746.412 5.12507L746.412 0.125065L748.41 0.125065L748.41 5.12507ZM752.407 5.12507L750.408 5.12507L750.408 0.125066L752.407 0.125066L752.407 5.12507ZM756.404 5.12507L754.405 5.12507L754.405 0.125066L756.404 0.125066L756.404 5.12507ZM760.401 5.12507L758.402 5.12507L758.402 0.125066L760.401 0.125066L760.401 5.12507ZM764.397 5.12507L762.399 5.12507L762.399 0.125067L764.397 0.125067L764.397 5.12507ZM768.394 5.12507L766.396 5.12507L766.396 0.125067L768.394 0.125067L768.394 5.12507ZM772.391 5.12507L770.393 5.12507L770.393 0.125067L772.391 0.125068L772.391 5.12507ZM776.388 5.12507L774.389 5.12507L774.389 0.125068L776.388 0.125068L776.388 5.12507ZM780.385 5.12507L778.386 5.12507L778.386 0.125068L780.385 0.125068L780.385 5.12507ZM784.381 5.12507L782.383 5.12507L782.383 0.125068L784.381 0.125069L784.381 5.12507ZM788.378 5.12507L786.38 5.12507L786.38 0.125069L788.378 0.125069L788.378 5.12507ZM792.375 5.12507L790.377 5.12507L790.377 0.125069L792.375 0.125069L792.375 5.12507ZM796.372 5.12507L794.374 5.12507L794.374 0.125069L796.372 0.12507L796.372 5.12507ZM800.369 5.12507L798.37 5.12507L798.37 0.12507L800.369 0.12507L800.369 5.12507ZM804.366 5.12507L802.367 5.12507L802.367 0.12507L804.366 0.12507L804.366 5.12507ZM808.362 5.12507L806.364 5.12507L806.364 0.12507L808.362 0.125071L808.362 5.12507ZM812.359 5.12507L810.361 5.12507L810.361 0.125071L812.359 0.125071L812.359 5.12507ZM816.356 5.12507L814.358 5.12507L814.358 0.125071L816.356 0.125071L816.356 5.12507ZM820.353 5.12507L818.354 5.12507L818.354 0.125072L820.353 0.125072L820.353 5.12507ZM824.35 5.12507L822.351 5.12507L822.351 0.125072L824.35 0.125072L824.35 5.12507ZM828.347 5.12507L826.348 5.12507L826.348 0.125072L828.347 0.125072L828.347 5.12507ZM832.343 5.12507L830.345 5.12507L830.345 0.125073L832.343 0.125073L832.343 5.12507ZM836.34 5.12507L834.342 5.12507L834.342 0.125073L836.34 0.125073L836.34 5.12507ZM840.337 5.12507L838.339 5.12507L838.339 0.125073L840.337 0.125073L840.337 5.12507ZM844.334 5.12507L842.335 5.12507L842.335 0.125074L844.334 0.125074L844.334 5.12507ZM848.331 5.12507L846.332 5.12507L846.332 0.125074L848.331 0.125074L848.331 5.12507ZM852.328 5.12507L850.329 5.12507L850.329 0.125074L852.328 0.125075L852.328 5.12507ZM856.324 5.12507L854.326 5.12507L854.326 0.125075L856.324 0.125075L856.324 5.12507ZM860.321 5.12508L858.323 5.12508L858.323 0.125075L860.321 0.125075L860.321 5.12508ZM864.318 5.12508L862.32 5.12508L862.32 0.125075L864.318 0.125076L864.318 5.12508ZM868.315 5.12508L866.316 5.12508L866.316 0.125076L868.315 0.125076L868.315 5.12508ZM872.312 5.12508L870.313 5.12508L870.313 0.125076L872.312 0.125076L872.312 5.12508ZM876.309 5.12508L874.31 5.12508L874.31 0.125076L876.309 0.125077L876.309 5.12508ZM880.305 5.12508L878.307 5.12508L878.307 0.125077L880.305 0.125077L880.305 5.12508ZM884.302 5.12508L882.304 5.12508L882.304 0.125077L884.302 0.125077L884.302 5.12508ZM888.299 5.12508L886.3 5.12508L886.3 0.125077L888.299 0.125078L888.299 5.12508ZM892.296 5.12508L890.297 5.12508L890.297 0.125078L892.296 0.125078L892.296 5.12508ZM896.293 5.12508L894.294 5.12508L894.294 0.125078L896.293 0.125078L896.293 5.12508ZM900.289 5.12508L898.291 5.12508L898.291 0.125079L900.289 0.125079L900.289 5.12508ZM904.286 5.12508L902.288 5.12508L902.288 0.125079L904.286 0.125079L904.286 5.12508ZM908.283 5.12508L906.285 5.12508L906.285 0.125079L908.283 0.125079L908.283 5.12508ZM912.28 5.12508L910.281 5.12508L910.281 0.12508L912.28 0.12508L912.28 5.12508ZM916.277 5.12508L914.278 5.12508L914.278 0.12508L916.277 0.12508L916.277 5.12508ZM920.274 5.12508L918.275 5.12508L918.275 0.12508L920.274 0.12508L920.274 5.12508ZM924.27 5.12508L922.272 5.12508L922.272 0.125081L924.27 0.125081L924.27 5.12508ZM928.267 5.12508L926.269 5.12508L926.269 0.125081L928.267 0.125081L928.267 5.12508ZM932.264 5.12508L930.266 5.12508L930.266 0.125081L932.264 0.125082L932.264 5.12508ZM936.261 5.12508L934.262 5.12508L934.262 0.125082L936.261 0.125082L936.261 5.12508ZM940.258 5.12508L938.259 5.12508L938.259 0.125082L940.258 0.125082L940.258 5.12508ZM944.255 5.12508L942.256 5.12508L942.256 0.125082L944.255 0.125083L944.255 5.12508ZM948.251 5.12508L946.253 5.12508L946.253 0.125083L948.251 0.125083L948.251 5.12508ZM952.248 5.12508L950.25 5.12508L950.25 0.125083L952.248 0.125083L952.248 5.12508ZM956.245 5.12508L954.247 5.12508L954.247 0.125083L956.245 0.125084L956.245 5.12508ZM960.242 5.12508L958.243 5.12508L958.243 0.125084L960.242 0.125084L960.242 5.12508ZM964.239 5.12508L962.24 5.12508L962.24 0.125084L964.239 0.125084L964.239 5.12508ZM968.235 5.12508L966.237 5.12508L966.237 0.125084L968.235 0.125085L968.235 5.12508ZM972.232 5.12508L970.234 5.12508L970.234 0.125085L972.232 0.125085L972.232 5.12508ZM976.229 5.12509L974.231 5.12509L974.231 0.125085L976.229 0.125085L976.229 5.12509ZM980.226 5.12509L978.228 5.12509L978.228 0.125086L980.226 0.125086L980.226 5.12509ZM984.223 5.12509L982.224 5.12509L982.224 0.125086L984.223 0.125086L984.223 5.12509ZM988.22 5.12509L986.221 5.12509L986.221 0.125086L988.22 0.125086L988.22 5.12509ZM992.216 5.12509L990.218 5.12509L990.218 0.125087L992.216 0.125087L992.216 5.12509ZM996.213 5.12509L994.215 5.12509L994.215 0.125087L996.213 0.125087L996.213 5.12509ZM1000.21 5.12509L998.212 5.12509L998.212 0.125087L1000.21 0.125087L1000.21 5.12509ZM1004.21 5.12509L1002.21 5.12509L1002.21 0.125088L1004.21 0.125088L1004.21 5.12509ZM1008.2 5.12509L1006.21 5.12509L1006.21 0.125088L1008.2 0.125088L1008.2 5.12509ZM1012.2 5.12509L1010.2 5.12509L1010.2 0.125088L1012.2 0.125088L1012.2 5.12509ZM1016.2 5.12509L1014.2 5.12509L1014.2 0.125089L1016.2 0.125089L1016.2 5.12509ZM1020.19 5.12509L1018.2 5.12509L1018.2 0.125089L1020.19 0.125089L1020.19 5.12509ZM1024.19 5.12509L1022.19 5.12509L1022.19 0.125089L1024.19 0.12509L1024.19 5.12509ZM1028.19 5.12509L1026.19 5.12509L1026.19 0.12509L1028.19 0.12509L1028.19 5.12509ZM1032.18 5.12509L1030.19 5.12509L1030.19 0.12509L1032.18 0.12509L1032.18 5.12509ZM1036.18 5.12509L1034.18 5.12509L1034.18 0.12509L1036.18 0.125091L1036.18 5.12509ZM1040.18 5.12509L1038.18 5.12509L1038.18 0.125091L1040.18 0.125091L1040.18 5.12509ZM1044.18 5.12509L1042.18 5.12509L1042.18 0.125091L1044.18 0.125091L1044.18 5.12509ZM1048.17 5.12509L1046.17 5.12509L1046.17 0.125091L1048.17 0.125092L1048.17 5.12509ZM1052.17 5.12509L1050.17 5.12509L1050.17 0.125092L1052.17 0.125092L1052.17 5.12509ZM1056.17 5.12509L1054.17 5.12509L1054.17 0.125092L1056.17 0.125092L1056.17 5.12509ZM1060.16 5.12509L1058.16 5.12509L1058.16 0.125093L1060.16 0.125093L1060.16 5.12509ZM1064.16 5.12509L1062.16 5.12509L1062.16 0.125093L1064.16 0.125093L1064.16 5.12509ZM1068.16 5.12509L1066.16 5.12509L1066.16 0.125093L1068.16 0.125093L1068.16 5.12509ZM1072.15 5.12509L1070.15 5.12509L1070.15 0.125094L1072.15 0.125094L1072.15 5.12509ZM1076.15 5.12509L1074.15 5.12509L1074.15 0.125094L1076.15 0.125094L1076.15 5.12509ZM1080.15 5.12509L1078.15 5.12509L1078.15 0.125094L1080.15 0.125094L1080.15 5.12509ZM1084.14 5.12509L1082.15 5.12509L1082.15 0.125095L1084.14 0.125095L1084.14 5.12509ZM1088.14 5.1251L1086.14 5.12509L1086.14 0.125095L1088.14 0.125095L1088.14 5.1251ZM1092.14 5.1251L1090.14 5.1251L1090.14 0.125095L1092.14 0.125095L1092.14 5.1251ZM1096.13 5.1251L1094.14 5.1251L1094.14 0.125096L1096.13 0.125096L1096.13 5.1251ZM1100.13 5.1251L1098.13 5.1251L1098.13 0.125096L1100.13 0.125096L1100.13 5.1251ZM1104.13 5.1251L1102.13 5.1251L1102.13 0.125096L1104.13 0.125097L1104.13 5.1251ZM1108.12 5.1251L1106.13 5.1251L1106.13 0.125097L1108.12 0.125097L1108.12 5.1251ZM1112.12 5.1251L1110.12 5.1251L1110.12 0.125097L1112.12 0.125097L1112.12 5.1251ZM1116.12 5.1251L1114.12 5.1251L1114.12 0.125097L1116.12 0.125098L1116.12 5.1251ZM1120.11 5.1251L1118.12 5.1251L1118.12 0.125098L1120.11 0.125098L1120.11 5.1251ZM1124.11 5.1251L1122.11 5.1251L1122.11 0.125098L1124.11 0.125098L1124.11 5.1251ZM1128.11 5.1251L1126.11 5.1251L1126.11 0.125098L1128.11 0.125099L1128.11 5.1251ZM1132.11 5.1251L1130.11 5.1251L1130.11 0.125099L1132.11 0.125099L1132.11 5.1251ZM1136.1 5.1251L1134.1 5.1251L1134.1 0.125099L1136.1 0.125099L1136.1 5.1251ZM1140.1 5.1251L1138.1 5.1251L1138.1 0.125099L1140.1 0.1251L1140.1 5.1251ZM1144.1 5.1251L1142.1 5.1251L1142.1 0.1251L1144.1 0.1251L1144.1 5.1251ZM1148.09 5.1251L1146.09 5.1251L1146.09 0.1251L1148.09 0.1251L1148.09 5.1251ZM1152.09 5.1251L1150.09 5.1251L1150.09 0.125101L1152.09 0.125101L1152.09 5.1251ZM1156.09 5.1251L1154.09 5.1251L1154.09 0.125101L1156.09 0.125101L1156.09 5.1251ZM1160.08 5.1251L1158.08 5.1251L1158.08 0.125101L1160.08 0.125101L1160.08 5.1251ZM1164.08 5.1251L1162.08 5.1251L1162.08 0.125102L1164.08 0.125102L1164.08 5.1251ZM1168.08 5.1251L1166.08 5.1251L1166.08 0.125102L1168.08 0.125102L1168.08 5.1251ZM1172.07 5.1251L1170.08 5.1251L1170.08 0.125102L1172.07 0.125102L1172.07 5.1251ZM1176.07 5.1251L1174.07 5.1251L1174.07 0.125103L1176.07 0.125103L1176.07 5.1251ZM1180.07 5.1251L1178.07 5.1251L1178.07 0.125103L1180.07 0.125103L1180.07 5.1251ZM1184.06 5.1251L1182.07 5.1251L1182.07 0.125103L1184.06 0.125104L1184.06 5.1251ZM1188.06 5.1251L1186.06 5.1251L1186.06 0.125104L1188.06 0.125104L1188.06 5.1251ZM1192.06 5.1251L1190.06 5.1251L1190.06 0.125104L1192.06 0.125104L1192.06 5.1251ZM1196.05 5.1251L1194.06 5.1251L1194.06 0.125104L1196.05 0.125105L1196.05 5.1251ZM1200.05 5.1251L1198.05 5.1251L1198.05 0.125105L1200.05 0.125105L1200.05 5.1251ZM1204.05 5.12511L1202.05 5.12511L1202.05 0.125105L1204.05 0.125105L1204.05 5.12511ZM1208.05 5.12511L1206.05 5.12511L1206.05 0.125105L1208.05 0.125106L1208.05 5.12511ZM1212.04 5.12511L1210.04 5.12511L1210.04 0.125106L1212.04 0.125106L1212.04 5.12511ZM1216.04 5.12511L1214.04 5.12511L1214.04 0.125106L1216.04 0.125106L1216.04 5.12511ZM1220.04 5.12511L1218.04 5.12511L1218.04 0.125106L1220.04 0.125107L1220.04 5.12511ZM1224.03 5.12511L1222.03 5.12511L1222.03 0.125107L1224.03 0.125107L1224.03 5.12511ZM1228.03 5.12511L1226.03 5.12511L1226.03 0.125107L1228.03 0.125107L1228.03 5.12511ZM1232.03 5.12511L1230.03 5.12511L1230.03 0.125108L1232.03 0.125108L1232.03 5.12511ZM1236.02 5.12511L1234.02 5.12511L1234.02 0.125108L1236.02 0.125108L1236.02 5.12511ZM1240.02 5.12511L1238.02 5.12511L1238.02 0.125108L1240.02 0.125108L1240.02 5.12511ZM1244.02 5.12511L1242.02 5.12511L1242.02 0.125109L1244.02 0.125109L1244.02 5.12511ZM1248.01 5.12511L1246.01 5.12511L1246.01 0.125109L1248.01 0.125109L1248.01 5.12511ZM1252.01 5.12511L1250.01 5.12511L1250.01 0.125109L1252.01 0.125109L1252.01 5.12511ZM1256.01 5.12511L1254.01 5.12511L1254.01 0.12511L1256.01 0.12511L1256.01 5.12511ZM1260 5.12511L1258.01 5.12511L1258.01 0.12511L1260 0.12511L1260 5.12511ZM1263 5.12511L1262 5.12511L1262 0.12511L1263 0.12511L1263 5.12511Z" fill="#6024BA"/>
</svg>
