<svg width="295" height="268" viewBox="0 0 295 268" fill="none" xmlns="http://www.w3.org/2000/svg">
<g opacity="0.5">
<mask id="path-1-outside-1" maskUnits="userSpaceOnUse" x="0.665039" y="0.208984" width="295" height="268" fill="black">
<rect fill="white" x="0.665039" y="0.208984" width="295" height="268"/>
<path fill-rule="evenodd" clip-rule="evenodd" d="M293.728 216.781V1.20898H62.5652L1.66504 62.1092V266.492H244.016L293.728 216.781Z"/>
</mask>
<path d="M293.728 216.781L294.435 217.488L294.728 217.195V216.781H293.728ZM293.728 1.20898H294.728V0.208984H293.728V1.20898ZM62.5652 1.20898V0.208984H62.151L61.8581 0.501878L62.5652 1.20898ZM1.66504 62.1092L0.957932 61.4021L0.665039 61.695V62.1092H1.66504ZM1.66504 266.492H0.665039V267.492H1.66504V266.492ZM244.016 266.492V267.492H244.43L244.723 267.199L244.016 266.492ZM294.728 216.781V1.20898H292.728V216.781H294.728ZM293.728 0.208984H62.5652V2.20898H293.728V0.208984ZM61.8581 0.501878L0.957932 61.4021L2.37215 62.8163L63.2724 1.91609L61.8581 0.501878ZM0.665039 62.1092V266.492H2.66504V62.1092H0.665039ZM1.66504 267.492H244.016V265.492H1.66504V267.492ZM244.723 267.199L294.435 217.488L293.02 216.074L243.309 265.785L244.723 267.199Z" fill="white" mask="url(#path-1-outside-1)"/>
<path d="M293.728 216.781L294.435 217.488L294.728 217.195V216.781H293.728ZM293.728 1.20898H294.728V0.208984H293.728V1.20898ZM62.5652 1.20898V0.208984H62.151L61.8581 0.501878L62.5652 1.20898ZM1.66504 62.1092L0.957932 61.4021L0.665039 61.695V62.1092H1.66504ZM1.66504 266.492H0.665039V267.492H1.66504V266.492ZM244.016 266.492V267.492H244.43L244.723 267.199L244.016 266.492ZM294.728 216.781V1.20898H292.728V216.781H294.728ZM293.728 0.208984H62.5652V2.20898H293.728V0.208984ZM61.8581 0.501878L0.957932 61.4021L2.37215 62.8163L63.2724 1.91609L61.8581 0.501878ZM0.665039 62.1092V266.492H2.66504V62.1092H0.665039ZM1.66504 267.492H244.016V265.492H1.66504V267.492ZM244.723 267.199L294.435 217.488L293.02 216.074L243.309 265.785L244.723 267.199Z" fill="url(#paint0_linear)" mask="url(#path-1-outside-1)"/>
</g>
<defs>
<linearGradient id="paint0_linear" x1="328.604" y1="580.752" x2="38.348" y2="466.165" gradientUnits="userSpaceOnUse">
<stop stop-color="white"/>
<stop offset="1" stop-color="#9A45E6"/>
</linearGradient>
</defs>
</svg>
