<svg width="123" height="59" viewBox="0 0 123 59" fill="none" xmlns="http://www.w3.org/2000/svg">
<path fill-rule="evenodd" clip-rule="evenodd" d="M43.5024 44.1051C46.8462 40.6981 48.5499 35.9732 48.5499 29.8547C48.5499 23.7357 46.8461 19.0465 43.5062 15.7066L43.4985 15.6989C40.2204 12.2947 35.6957 10.5646 29.8498 10.5646C24.0044 10.5646 19.4441 12.2945 16.099 15.7027C12.8226 19.0421 11.1498 23.7327 11.1498 29.8547C11.1498 35.9738 12.8212 40.6989 16.099 44.1051C19.4431 47.447 24.0035 49.1449 29.8498 49.1449C35.6989 49.1449 40.225 47.4455 43.5024 44.1051ZM15.6871 44.5093C12.2775 40.9686 10.5727 36.0837 10.5727 29.8547C10.5727 23.6257 12.2775 18.7737 15.6871 15.2985C19.1622 11.7578 23.8831 9.98749 29.8498 9.98749C35.8166 9.98749 40.5047 11.7578 43.9143 15.2985C47.3894 18.7737 49.127 23.6257 49.127 29.8547C49.127 36.0837 47.3894 40.9686 43.9143 44.5093C40.5047 47.9844 35.8166 49.722 29.8498 49.722C23.8831 49.722 19.1622 47.9844 15.6871 44.5093ZM51.096 51.1259L51.0933 51.1284C45.466 56.3537 38.3699 58.9541 29.8498 58.9541C21.3297 58.9541 14.2023 56.3537 8.51054 51.1307L8.50533 51.1259C2.86352 45.8199 0.0620117 38.7078 0.0620117 29.8547C0.0620117 21.0018 2.86355 13.9207 8.50804 8.67944C14.1995 3.38985 21.3277 0.755371 29.8498 0.755371C38.3712 0.755371 45.4678 3.38949 51.0945 8.68054C56.7382 13.9217 59.5393 21.0024 59.5393 29.8547C59.5393 38.7078 56.7378 45.8199 51.096 51.1259ZM8.90072 9.10232C3.39297 14.2167 0.639093 21.1341 0.639093 29.8547C0.639093 38.5753 3.39297 45.5256 8.90072 50.7055C14.474 55.8198 21.4571 58.377 29.8498 58.377C38.2426 58.377 45.1929 55.8198 50.7006 50.7055C56.2084 45.5256 58.9622 38.5753 58.9622 29.8547C58.9622 21.1341 56.2084 14.2167 50.7006 9.10232C45.1929 3.92241 38.2426 1.33245 29.8498 1.33245C21.4571 1.33245 14.474 3.92241 8.90072 9.10232ZM120.714 47.4729V57.5772H72.7439V46.5358L105.883 27.4857L105.884 27.485C109.427 25.4606 111.101 22.8746 111.101 19.7244C111.101 16.7962 109.94 14.6522 107.612 13.207C105.239 11.7336 101.606 10.958 96.6305 10.958C89.8987 10.958 83.8708 13.3569 78.5271 18.1855L78.107 18.5652L71.3373 11.3517L71.7327 10.9564C78.5344 4.15465 86.978 0.755371 97.0239 0.755371C104.572 0.755371 110.636 2.34356 115.158 5.58158C119.793 8.78714 122.091 13.6002 122.091 19.9211C122.091 26.4734 118.587 31.6596 111.763 35.4728L90.2895 47.4729H120.714ZM88.0739 48.05H120.137V57.0001H73.3209V46.8697L106.171 27.986C109.843 25.8878 111.678 23.134 111.678 19.7244C111.678 13.4954 106.663 10.3809 96.6305 10.3809C89.7459 10.3809 83.5825 12.8397 78.1403 17.7573C78.1403 17.7573 78.1403 17.7573 78.1403 17.7573L72.1407 11.3644C78.8287 4.67645 87.1231 1.33245 97.0239 1.33245C104.499 1.33245 110.433 2.9061 114.826 6.05338C119.284 9.1351 121.514 13.7577 121.514 19.9211C121.514 26.2157 118.17 31.2317 111.482 34.9691L88.0739 48.05Z" fill="white"/>
<path fill-rule="evenodd" clip-rule="evenodd" d="M43.5024 44.1051C46.8462 40.6981 48.5499 35.9732 48.5499 29.8547C48.5499 23.7357 46.8461 19.0465 43.5062 15.7066L43.4985 15.6989C40.2204 12.2947 35.6957 10.5646 29.8498 10.5646C24.0044 10.5646 19.4441 12.2945 16.099 15.7027C12.8226 19.0421 11.1498 23.7327 11.1498 29.8547C11.1498 35.9738 12.8212 40.6989 16.099 44.1051C19.4431 47.447 24.0035 49.1449 29.8498 49.1449C35.6989 49.1449 40.225 47.4455 43.5024 44.1051ZM15.6871 44.5093C12.2775 40.9686 10.5727 36.0837 10.5727 29.8547C10.5727 23.6257 12.2775 18.7737 15.6871 15.2985C19.1622 11.7578 23.8831 9.98749 29.8498 9.98749C35.8166 9.98749 40.5047 11.7578 43.9143 15.2985C47.3894 18.7737 49.127 23.6257 49.127 29.8547C49.127 36.0837 47.3894 40.9686 43.9143 44.5093C40.5047 47.9844 35.8166 49.722 29.8498 49.722C23.8831 49.722 19.1622 47.9844 15.6871 44.5093ZM51.096 51.1259L51.0933 51.1284C45.466 56.3537 38.3699 58.9541 29.8498 58.9541C21.3297 58.9541 14.2023 56.3537 8.51054 51.1307L8.50533 51.1259C2.86352 45.8199 0.0620117 38.7078 0.0620117 29.8547C0.0620117 21.0018 2.86355 13.9207 8.50804 8.67944C14.1995 3.38985 21.3277 0.755371 29.8498 0.755371C38.3712 0.755371 45.4678 3.38949 51.0945 8.68054C56.7382 13.9217 59.5393 21.0024 59.5393 29.8547C59.5393 38.7078 56.7378 45.8199 51.096 51.1259ZM8.90072 9.10232C3.39297 14.2167 0.639093 21.1341 0.639093 29.8547C0.639093 38.5753 3.39297 45.5256 8.90072 50.7055C14.474 55.8198 21.4571 58.377 29.8498 58.377C38.2426 58.377 45.1929 55.8198 50.7006 50.7055C56.2084 45.5256 58.9622 38.5753 58.9622 29.8547C58.9622 21.1341 56.2084 14.2167 50.7006 9.10232C45.1929 3.92241 38.2426 1.33245 29.8498 1.33245C21.4571 1.33245 14.474 3.92241 8.90072 9.10232ZM120.714 47.4729V57.5772H72.7439V46.5358L105.883 27.4857L105.884 27.485C109.427 25.4606 111.101 22.8746 111.101 19.7244C111.101 16.7962 109.94 14.6522 107.612 13.207C105.239 11.7336 101.606 10.958 96.6305 10.958C89.8987 10.958 83.8708 13.3569 78.5271 18.1855L78.107 18.5652L71.3373 11.3517L71.7327 10.9564C78.5344 4.15465 86.978 0.755371 97.0239 0.755371C104.572 0.755371 110.636 2.34356 115.158 5.58158C119.793 8.78714 122.091 13.6002 122.091 19.9211C122.091 26.4734 118.587 31.6596 111.763 35.4728L90.2895 47.4729H120.714ZM88.0739 48.05H120.137V57.0001H73.3209V46.8697L106.171 27.986C109.843 25.8878 111.678 23.134 111.678 19.7244C111.678 13.4954 106.663 10.3809 96.6305 10.3809C89.7459 10.3809 83.5825 12.8397 78.1403 17.7573C78.1403 17.7573 78.1403 17.7573 78.1403 17.7573L72.1407 11.3644C78.8287 4.67645 87.1231 1.33245 97.0239 1.33245C104.499 1.33245 110.433 2.9061 114.826 6.05338C119.284 9.1351 121.514 13.7577 121.514 19.9211C121.514 26.2157 118.17 31.2317 111.482 34.9691L88.0739 48.05Z" fill="white"/>
</svg>
