<?xml version="1.0" standalone="no"?>
<!DOCTYPE svg PUBLIC "-//W3C//DTD SVG 1.1//EN" "http://www.w3.org/Graphics/SVG/1.1/DTD/svg11.dtd" >
<svg>
<metadata>
Created by FontForge 20090914 at Thu Mar 11 11:46:22 2021
 By www-data
Copyright (c) 2011 by Glenjan. All rights reserved.
</metadata>
<defs>
<font id="RoadRadio-Thin" horiz-adv-x="694" >
  <font-face 
    font-family="RoadRadio"
    font-weight="100"
    font-stretch="normal"
    units-per-em="1000"
    panose-1="2 0 0 0 0 0 0 0 0 0"
    ascent="750"
    descent="-250"
    x-height="553"
    cap-height="553"
    bbox="-97.999 -258.002 1057 847"
    underline-thickness="50"
    underline-position="-150"
    unicode-range="U+0020-U+2212"
  />
<missing-glyph horiz-adv-x="329" 
d="M50 553h145c29.333 0 53.5 -9 72.5 -27s28.5 -41 28.5 -69c0 -38.667 -15.667 -66 -47 -82l37 -68h-59l-30 56h-91v-56h-56v246zM106 503v-90h87c31.333 0 47 14.667 47 44c0 14 -4.33301 25.167 -13 33.5s-20 12.5 -34 12.5h-87zM50 246h145c29.333 0 53.5 -9 72.5 -27
s28.5 -41 28.5 -69c0 -38.667 -15.667 -66 -47 -82l37 -68h-59l-30 56h-91v-56h-56v246zM106 196v-90h87c31.333 0 47 14.667 47 44c0 14 -4.33301 25.167 -13 33.5s-20 12.5 -34 12.5h-87z" />
    <glyph glyph-name=".notdef" horiz-adv-x="329" 
d="M50 553h145c29.333 0 53.5 -9 72.5 -27s28.5 -41 28.5 -69c0 -38.667 -15.667 -66 -47 -82l37 -68h-59l-30 56h-91v-56h-56v246zM106 503v-90h87c31.333 0 47 14.667 47 44c0 14 -4.33301 25.167 -13 33.5s-20 12.5 -34 12.5h-87zM50 246h145c29.333 0 53.5 -9 72.5 -27
s28.5 -41 28.5 -69c0 -38.667 -15.667 -66 -47 -82l37 -68h-59l-30 56h-91v-56h-56v246zM106 196v-90h87c31.333 0 47 14.667 47 44c0 14 -4.33301 25.167 -13 33.5s-20 12.5 -34 12.5h-87z" />
    <glyph glyph-name="space" unicode=" " horiz-adv-x="332" 
 />
    <glyph glyph-name="exclam" unicode="!" horiz-adv-x="194" 
d="M70 159v472h54v-472h-54zM97 103c16 0 29.5 -5.5 40.5 -16.5s16.5 -24.5 16.5 -40.5s-5.5 -29.333 -16.5 -40s-24.5 -16 -40.5 -16s-29.5 5.33301 -40.5 16s-16.5 24 -16.5 40s5.5 29.5 16.5 40.5s24.5 16.5 40.5 16.5z" />
    <glyph glyph-name="quotedbl" unicode="&#x22;" horiz-adv-x="228" 
d="M35 553h54v-77l-13 -109h-41v186zM139 553h54v-77l-13 -109h-41v186z" />
    <glyph glyph-name="numbersign" unicode="#" horiz-adv-x="395" 
d="M40 253h76l9 76h-85v51h91l10 81h51l-10 -81h76l10 81h51l-10 -81h76v-51h-82l-9 -76h91v-51h-97l-10 -86h-51l10 86h-76l-10 -86h-51l10 86h-70v51zM176 329l-9 -76h76l9 76h-76z" />
    <glyph glyph-name="dollar" unicode="$" horiz-adv-x="620" 
d="M291 -96l-6.00098 82.0029c-93.333 2.66699 -175 27 -245 73l29 46c74 -46 159.333 -69 256 -69c63.333 0 112.5 9.83301 147.5 29.5s52.5 48.5 52.5 86.5c0 59.333 -43.667 93.666 -131 102.999l-174 19c-111.333 12 -167 58 -167 138c0 49.333 21.833 87 65.5 113
s100.167 39.667 169.5 41l4 74h45l3 -75c82 -3.33301 153.333 -24.333 214 -63l-27 -39c-68 35.333 -143.667 53 -227 53c-128 0 -192 -34.333 -192 -103c0 -28 9.83301 -48 29.5 -60s49.167 -20.333 88.5 -25l181 -22c55.333 -6.66699 98 -22.834 128 -48.501
s45 -60.167 45 -103.5c0 -52.667 -20.667 -92.834 -62 -120.501s-99.666 -43.167 -174.999 -46.5l-7 -83h-45z" />
    <glyph glyph-name="uni0025" unicode="%" horiz-adv-x="710" 
d="M498 554l47 -21l-320 -556l-47 21zM533 -7c-40.667 0 -75.167 12.8291 -103.5 38.4961s-42.5 58.834 -42.5 99.501s14.167 73.834 42.5 99.501s62.833 38.5 103.5 38.5c42 0 77 -12.667 105 -38s42 -58.666 42 -99.999s-14 -74.666 -42 -99.999s-63 -38 -105 -38z
M533 39.9961c28 0 50.5 8.33301 67.5 25s25.5 38.667 25.5 66s-8.5 49.333 -25.5 66s-39.5 25 -67.5 25s-50.667 -8.33301 -68 -25s-26 -38.667 -26 -66c0 -26.667 8.83301 -48.5 26.5 -65.5s40.167 -25.5 67.5 -25.5zM176 259.996
c-40.667 0 -75.167 12.8291 -103.5 38.4961s-42.5 58.834 -42.5 99.501s14.167 73.834 42.5 99.501s62.833 38.5 103.5 38.5c42 0 77 -12.667 105 -38s42 -58.666 42 -99.999s-14 -74.666 -42 -99.999s-63 -38 -105 -38zM176 306.992c28 0 50.5 8.33301 67.5 25
s25.5 38.667 25.5 66s-8.5 49.333 -25.5 66s-39.5 25 -67.5 25s-50.667 -8.33301 -68 -25s-26 -38.667 -26 -66c0 -26.667 8.83301 -48.5 26.5 -65.5s40.167 -25.5 67.5 -25.5z" />
    <glyph glyph-name="ampersand" unicode="&#x26;" horiz-adv-x="695" 
d="M645 321v-33.999l-70 -17l64 -270h-30l-40 57c-75.333 -47.333 -159.666 -71 -252.999 -71c-82 0 -148.667 13 -200 39c-52 31.333 -78 77.666 -78 138.999c0 30 8.66699 57.667 26 83s41.666 44 72.999 56c-37.333 22.667 -56 58.667 -56 108c0 39.333 14.333 71 43 95
c45.333 40 118.666 60 219.999 60c88.667 0 168.334 -17.667 239.001 -53l-26 -45c-62 31.333 -133.667 47 -215 47c-136 0 -204 -35.667 -204 -107c0 -58 28.667 -87 86 -87h421zM310 37.001c84.667 0 167.333 23 248 69l-41 165h-296
c-37.333 0 -67.5 -9.83301 -90.5 -29.5s-34.5 -44.5 -34.5 -74.5c0 -44 18.833 -76.667 56.5 -98s90.167 -32 157.5 -32z" />
    <glyph glyph-name="quotesingle" unicode="'" horiz-adv-x="124" 
d="M35 553h54v-77l-13 -109h-41v186z" />
    <glyph glyph-name="parenleft" unicode="(" horiz-adv-x="201" 
d="M114 604l47 -12c-37.333 -108.667 -56 -213.667 -56 -315s18.667 -206.333 56 -315l-47 -12c-42 105.333 -63 214.333 -63 327s21 221.667 63 327z" />
    <glyph glyph-name="parenright" unicode=")" horiz-adv-x="201" 
d="M40 592l47 12c42 -105.333 63 -214.333 63 -327s-21 -221.667 -63 -327l-47 12c37.333 108.667 56 213.667 56 315s-18.667 206.333 -56 315z" />
    <glyph glyph-name="asterisk" unicode="*" horiz-adv-x="340" 
d="M145 486l6 104h37l5 -105l94 49l18 -33l-87 -57l87 -56l-19 -32l-93 48l-5 -104h-37l-6 103l-91 -47l-19 31l87 57l-87 57l18 32z" />
    <glyph glyph-name="plus" unicode="+" horiz-adv-x="405" 
d="M40 309h136v132h51v-132h138v-51h-138v-132h-51v132h-136v51z" />
    <glyph glyph-name="comma" unicode="," horiz-adv-x="193" 
d="M68 -96l16 87c-13.333 2.66699 -24 9 -32 19s-12 22 -12 36c0 16 5.33301 29.333 16 40s24 16 40 16s29.5 -5.33301 40.5 -16s16.5 -24 16.5 -40c0 -6 -1.33301 -13 -4 -21l-51 -129z" />
    <glyph glyph-name="hyphen" unicode="-" horiz-adv-x="395" 
d="M40 309h315v-51h-315v51z" />
    <glyph glyph-name="period" unicode="." horiz-adv-x="194" 
d="M97 103c16 0 29.5 -5.5 40.5 -16.5s16.5 -24.5 16.5 -40.5s-5.5 -29.333 -16.5 -40s-24.5 -16 -40.5 -16s-29.5 5.33301 -40.5 16s-16.5 24 -16.5 40s5.5 29.5 16.5 40.5s24.5 16.5 40.5 16.5z" />
    <glyph glyph-name="slash" unicode="/" horiz-adv-x="296" 
d="M224 593l52 -16l-204 -613l-52 16z" />
    <glyph glyph-name="zero" unicode="0" horiz-adv-x="654" 
d="M96 276c0 -73.333 22.167 -131.333 66.5 -174s99.166 -64 164.499 -64s120.166 21.333 164.499 64s66.5 100.667 66.5 174s-22.167 131.333 -66.5 174s-99.166 64 -164.499 64s-120.166 -21.333 -164.499 -64s-66.5 -100.667 -66.5 -174zM614 276
c0 -86.667 -27.167 -156.667 -81.5 -210s-122.833 -80 -205.5 -80s-151.167 26.667 -205.5 80s-81.5 123.333 -81.5 210s27.167 156.667 81.5 210s122.833 80 205.5 80s151.167 -26.667 205.5 -80s81.5 -123.333 81.5 -210z" />
    <glyph glyph-name="one" unicode="1" horiz-adv-x="258" 
d="M29 553h169v-553h-56v501h-113v52z" />
    <glyph glyph-name="two" unicode="2" horiz-adv-x="559" 
d="M514 53l-0.000976562 -53h-461v67l345 201c50.667 30 76 69.333 76 118c0 40 -15.5 71.333 -46.5 94s-77.833 34 -140.5 34c-81.333 0 -151.333 -25.667 -210 -77l-32 38c66.667 60.667 147.334 91 242.001 91c74 0 132.833 -15 176.5 -45s65.5 -75 65.5 -135
c0 -66.667 -33.333 -119.667 -100 -159l-300 -174h385z" />
    <glyph glyph-name="three" unicode="3" horiz-adv-x="624" 
d="M215 327h188.002c64 0 96 27.667 96 83c0 36 -15.667 62.833 -47 80.5s-81.333 26.5 -150 26.5c-76 0 -148.333 -20.333 -217 -61l-25 45c74 43.333 155 65 243 65c71.333 0 128 -10.667 170 -32c54 -27.333 81 -67 81 -119c0 -48 -22.333 -83 -67 -105
c33.333 -7.33301 59.166 -23.5 77.499 -48.5s27.5 -54.167 27.5 -87.5c0 -50.667 -22.667 -94 -68 -130c-49.333 -38.667 -125.333 -58 -228 -58c-98.667 0 -187.334 23 -266.001 69l26 47c42 -23.333 81.167 -40 117.5 -50s79.5 -15 129.5 -15c74 0 131.333 12 172 36
s61 57.667 61 101c0 34 -9 59.667 -27 77s-50 26 -96 26h-198v50z" />
    <glyph glyph-name="four" unicode="4" horiz-adv-x="621" 
d="M383 553h141v-404h66v-51h-66v-98h-55v98h-439v56zM406 504l-312 -355h375v355h-63z" />
    <glyph glyph-name="five" unicode="5" horiz-adv-x="592" 
d="M126 271l-49 4l17 278h413v-51h-365l-12 -180c52.667 24 115.667 36 189 36c72 0 128.833 -16 170.5 -48s62.5 -75.667 62.5 -131c0 -60.667 -24.5 -108 -73.5 -142s-114.833 -51 -197.5 -51c-99.333 0 -184.666 22 -255.999 66l27 46c40 -22.667 77 -38.5 111 -47.5
s77 -13.5 129 -13.5c68.667 0 120 13.5 154 40.5s51 60.833 51 101.5c0 86.667 -66 130 -198 130c-62.667 0 -120.334 -12.667 -173.001 -38z" />
    <glyph glyph-name="six" unicode="6" horiz-adv-x="630" 
d="M554 519l-25.002 -45.999c-34 16 -63.667 27 -89 33s-57 9 -95 9c-70 0 -126.667 -19.5 -170 -58.5s-67.333 -95.5 -72 -169.5c39.333 22.667 76 38.5 110 47.5s77.333 13.5 130 13.5c68 0 124.5 -14.5 169.5 -43.5s67.5 -73.5 67.5 -133.5
c0 -56.667 -23.167 -101.834 -69.5 -135.501s-109.166 -50.5 -188.499 -50.5c-89.333 0 -157 26 -203 78s-69 123.333 -69 214c0 84.667 27.667 154 83 208s126 81 212 81c72.667 0 142.334 -15.667 209.001 -47zM105.998 237.001
c5.33301 -70 26.834 -120.835 64.501 -152.502s92.5 -47.5 164.5 -47.5c61.333 0 108.166 12.333 140.499 37s48.5 57.334 48.5 98.001c0 44 -15.5 75.833 -46.5 95.5s-81.167 29.5 -150.5 29.5c-48 0 -88 -4.66699 -120 -14s-65.667 -24.666 -101 -45.999z" />
    <glyph glyph-name="seven" unicode="7" horiz-adv-x="555" 
d="M222 0h-63l301 502h-425v51h490v-47z" />
    <glyph glyph-name="eight" unicode="8" horiz-adv-x="643" 
d="M322 566c81.333 0 140.999 -14.168 178.999 -42.501s57 -63.833 57 -106.5c0 -53.333 -24 -91.666 -72 -114.999c78 -20 117 -67.333 117 -142c0 -54 -24.833 -96.5 -74.5 -127.5s-118.5 -46.5 -206.5 -46.5c-89.333 0 -158.666 15.5 -207.999 46.5s-74 75.167 -74 132.5
c0 32 10.333 61.667 31 89s48.667 47 84 59c-46 19.333 -69 55 -69 107c0 49.333 22.833 86 68.5 110s101.5 36 167.5 36zM442.999 260.999l-237.999 26c-34.667 -8 -61.334 -23.167 -80.001 -45.5s-28 -47.5 -28 -75.5c0 -40 18.167 -71.5 54.5 -94.5
s93.166 -34.5 170.499 -34.5c74.667 0 130.834 11.667 168.501 35s56.5 54.333 56.5 93c0 56.667 -34.667 88.667 -104 96zM242 334.999l195 -20.001c44 26 66 58 66 96c0 70 -60.333 105 -181 105s-181 -32.333 -181 -97c0 -26 8 -45.167 24 -57.5
s41.667 -21.166 77 -26.499z" />
    <glyph glyph-name="nine" unicode="9" horiz-adv-x="630" 
d="M76 32l23 47.998c33.333 -17.333 63 -29 89 -35s58.333 -9 97 -9c73.333 0 130.833 19.333 172.5 58s64.834 95.334 69.501 170.001c-40.667 -23.333 -78 -40 -112 -50s-76.667 -15 -128 -15c-71.333 0 -128.666 14.333 -171.999 43s-65 73.667 -65 135
c0 56.667 23.167 102.334 69.5 137.001s109.166 52 188.499 52c89.333 0 157 -26 203 -78s69 -123.333 69 -214c0 -85.333 -26.667 -154.833 -80 -208.5s-125 -80.5 -215 -80.5c-76.667 0 -146.334 15.667 -209.001 47zM524 313.998
c-5.33301 70 -26.499 121.167 -63.499 153.5s-91.167 48.5 -162.5 48.5c-60.667 0 -107.834 -13.167 -141.501 -39.5s-50.5 -59.833 -50.5 -100.5c0 -43.333 16 -75 48 -95s81.667 -30 149 -30c46.667 0 86.167 5 118.5 15s66.5 26 102.5 48z" />
    <glyph glyph-name="colon" unicode=":" horiz-adv-x="194" 
d="M97 408c16 0 29.5 -5.5 40.5 -16.5s16.5 -24.5 16.5 -40.5s-5.5 -29.333 -16.5 -40s-24.5 -16 -40.5 -16s-29.5 5.33301 -40.5 16s-16.5 24 -16.5 40s5.5 29.5 16.5 40.5s24.5 16.5 40.5 16.5zM97 103c16 0 29.5 -5.5 40.5 -16.5s16.5 -24.5 16.5 -40.5
s-5.5 -29.333 -16.5 -40s-24.5 -16 -40.5 -16s-29.5 5.33301 -40.5 16s-16.5 24 -16.5 40s5.5 29.5 16.5 40.5s24.5 16.5 40.5 16.5z" />
    <glyph glyph-name="semicolon" unicode=";" horiz-adv-x="193" 
d="M97 408c16 0 29.5 -5.5 40.5 -16.5s16.5 -24.5 16.5 -40.5s-5.5 -29.333 -16.5 -40s-24.5 -16 -40.5 -16s-29.5 5.33301 -40.5 16s-16.5 24 -16.5 40s5.5 29.5 16.5 40.5s24.5 16.5 40.5 16.5zM68 -96l16 87c-13.333 2.66699 -24 9 -32 19s-12 22 -12 36
c0 16 5.33301 29.333 16 40s24 16 40 16s29.5 -5.33301 40.5 -16s16.5 -24 16.5 -40c0 -6 -1.33301 -13 -4 -21l-51 -129z" />
    <glyph glyph-name="less" unicode="&#x3c;" horiz-adv-x="247" 
d="M182 442l35 -33l-119 -134l119 -134l-35 -33l-162 167z" />
    <glyph glyph-name="equal" unicode="=" horiz-adv-x="375" 
d="M40 366h295v-51h-295v51zM40 246h295v-51h-295v51z" />
    <glyph glyph-name="greater" unicode="&#x3e;" horiz-adv-x="247" 
d="M65 442l162 -167l-162 -167l-35 33l119 134l-119 134z" />
    <glyph glyph-name="question" unicode="?" horiz-adv-x="575" 
d="M298 103c16 0 29.5 -5.5 40.5 -16.5s16.5 -24.5 16.5 -40.5s-5.5 -29.333 -16.5 -40s-24.5 -16 -40.5 -16s-29.5 5.33301 -40.5 16s-16.5 24 -16.5 40s5.5 29.5 16.5 40.5s24.5 16.5 40.5 16.5zM270 159l0.00292969 65.001c0 20.667 6.83301 40.5 20.5 59.5
s33.167 32.167 58.5 39.5l44 13c39.333 11.333 67.166 27.833 83.499 49.5s24.5 49.167 24.5 82.5c0 90.667 -62 136 -186 136c-94 0 -170.333 -25 -229 -75l-28 42c65.333 56.667 150.666 85 255.999 85c75.333 0 134.666 -15.833 177.999 -47.5s65 -79.5 65 -143.5
c0 -39.333 -11 -74.333 -33 -105s-54.667 -52.334 -98 -65.001l-48 -13c-35.333 -10 -53 -31.333 -53 -64v-59h-55z" />
    <glyph glyph-name="at" unicode="@" horiz-adv-x="705" 
d="M455 288l0.000976562 73c-25.333 18.667 -58 28 -98 28c-32 0 -57 -8.66699 -75 -26s-27 -41.333 -27 -72c0 -30 9.16699 -53.167 27.5 -69.5s42.166 -24.5 71.499 -24.5c28 0 51.833 7.83301 71.5 23.5s29.5 38.167 29.5 67.5zM507.001 384l0.00195312 -113.001
c0 -48 17 -72 51 -72c20 0 35.5 8.66699 46.5 26s16.5 40.666 16.5 69.999c0 76.667 -22.167 137.834 -66.5 183.501s-109.833 68.5 -196.5 68.5c-76 0 -138.333 -23 -187 -69s-73 -107 -73 -183c0 -77.333 25 -139.833 75 -187.5s117.333 -71.5 202 -71.5
c59.333 0 113.333 12.333 162 37l22 -43c-52.667 -29.333 -114.334 -44 -185.001 -44c-102.667 0 -183.5 28.333 -242.5 85s-88.5 131.334 -88.5 224.001c0 90.667 30.5 163.667 91.5 219s135.5 83 223.5 83c96 0 172.667 -28.167 230 -84.5s86 -128.833 86 -217.5
c0 -42.667 -11.167 -77.667 -33.5 -105s-51.5 -41 -87.5 -41c-36.667 0 -63.334 19 -80.001 57c-28.667 -40.667 -69 -61 -121 -61c-44 0 -80.333 13.333 -109 40s-43 62 -43 106c0 43.333 14.667 78.833 44 106.5s66.333 41.5 111 41.5c58 0 108.667 -18.333 152 -55z" />
    <glyph glyph-name="A" unicode="A" horiz-adv-x="727" 
d="M314 502l-151 -356h401l-148 356h-102zM282 553h170l235 -553h-58l-40 93h-448l-41 -93h-60z" />
    <glyph glyph-name="B" unicode="B" horiz-adv-x="648" 
d="M60 553l347.002 -0.000976562c49.333 0 89.166 -12.167 119.499 -36.5s45.5 -56.5 45.5 -96.5c0 -51.333 -18.333 -89.666 -55 -114.999c30 -10.667 53.5 -28.5 70.5 -53.5s25.5 -53.5 25.5 -85.5c0 -46.667 -16.833 -86 -50.5 -118s-78.834 -48 -135.501 -48h-367v553z
M116.002 500.999v-182h308c30 0 53 8.5 69 25.5s24 38.167 24 63.5c0 62 -39 93 -117 93h-284zM116.002 267.999v-216h307c44 0 77.333 10.667 100 32s34 48 34 80c0 32.667 -10 58.167 -30 76.5s-47 27.5 -81 27.5h-330z" />
    <glyph glyph-name="C" unicode="C" horiz-adv-x="643" 
d="M606 445l-46 -28.001c-49.333 64 -122.333 96 -219 96c-74 0 -133.167 -21.5 -177.5 -64.5s-66.5 -100.167 -66.5 -171.5c0 -69.333 22.667 -126.5 68 -171.5s104 -67.5 176 -67.5c92 0 165.333 33 220 99l47 -29c-64 -81.333 -152 -122 -264 -122
c-89.333 0 -162.333 26.333 -219 79s-85 123.334 -85 212.001c0 88 28.5 158.167 85.5 210.5s129.833 78.5 218.5 78.5c114 0 201.333 -40.333 262 -121z" />
    <glyph glyph-name="D" unicode="D" horiz-adv-x="663" 
d="M60 553l267 -0.000976562c85.333 0 156 -24.667 212 -74s84 -116.666 84 -201.999c0 -84.667 -28.5 -152 -85.5 -202s-127.167 -75 -210.5 -75h-267v553zM116 501.999v-450.999h204c76 0 136.167 20.333 180.5 61s66.5 95.667 66.5 165s-22.167 124.166 -66.5 164.499
s-104.5 60.5 -180.5 60.5h-204z" />
    <glyph glyph-name="E" unicode="E" horiz-adv-x="607" 
d="M60 553h481v-51h-425v-192h382v-51h-382v-208h441v-51h-497v553z" />
    <glyph glyph-name="F" unicode="F" horiz-adv-x="590" 
d="M60 0v553h481v-51h-425v-208h382v-51h-382v-243h-56z" />
    <glyph glyph-name="G" unicode="G" horiz-adv-x="682" 
d="M414 301l210.001 -0.00195312v-301h-39l-12 68c-58 -54.667 -134 -82 -228 -82c-90.667 0 -164.167 26.333 -220.5 79s-84.5 123.334 -84.5 212.001c0 88 28.667 158.167 86 210.5s130.333 78.5 219 78.5c114 0 201.333 -39.667 262 -119l-45 -27
c-50 62.667 -123.333 94 -220 94c-74 0 -133.333 -21.667 -178 -65s-67 -100.666 -67 -171.999c0 -68.667 23.167 -125.667 69.5 -171s104.833 -68 175.5 -68c99.333 0 175.666 31.667 228.999 95v116l-157 6v46z" />
    <glyph glyph-name="H" unicode="H" horiz-adv-x="670" 
d="M60 553h56v-239h438v239h56v-553h-56v262h-438v-262h-56v553z" />
    <glyph glyph-name="I" unicode="I" horiz-adv-x="176" 
d="M60 553h56v-553h-56v553z" />
    <glyph glyph-name="J" unicode="J" horiz-adv-x="597" 
d="M480 553h55.998v-322c0 -76 -20.5 -135.833 -61.5 -179.5s-105.5 -65.5 -193.5 -65.5c-111.333 0 -191.666 41.667 -240.999 125l47 29c20.667 -34 48.167 -59.667 82.5 -77s70.833 -26 109.5 -26c74.667 0 126.834 17.167 156.501 51.5s44.5 85.5 44.5 153.5v311z" />
    <glyph glyph-name="K" unicode="K" horiz-adv-x="632" 
d="M60 553h56v-232h254l160 232h65l-174 -255l190 -298h-66l-173 270h-256v-270h-56v553z" />
    <glyph glyph-name="L" unicode="L" horiz-adv-x="576" 
d="M60 553h56v-501h430v-52h-486v553z" />
    <glyph glyph-name="M" unicode="M" horiz-adv-x="853" 
d="M60 553h112l257 -499h6l247 499h111v-553h-56v505h-20l-254 -505h-64l-264 505h-20v-505h-55v553z" />
    <glyph glyph-name="N" unicode="N" horiz-adv-x="682" 
d="M60 553h70l437 -488v488h55v-553h-71l-436 490v-490h-55v553z" />
    <glyph glyph-name="O" unicode="O" 
d="M96 276c0.666992 -74 24.5 -132.167 71.5 -174.5s106.833 -63.5 179.5 -63.5s132.667 21.167 180 63.5s71 100.5 71 174.5s-23.667 132.167 -71 174.5s-107.333 63.5 -180 63.5s-132.5 -21.167 -179.5 -63.5s-70.833 -100.5 -71.5 -174.5zM654 276
c0 -86.667 -28.833 -156.667 -86.5 -210s-131.167 -80 -220.5 -80s-162.833 26.667 -220.5 80s-86.5 123.333 -86.5 210s28.833 156.667 86.5 210s131.167 80 220.5 80s162.833 -26.667 220.5 -80s86.5 -123.333 86.5 -210z" />
    <glyph glyph-name="P" unicode="P" horiz-adv-x="636" 
d="M60 553l321 -0.000976562c62 0 114.167 -19.167 156.5 -57.5s63.5 -88.166 63.5 -149.499c0 -62 -21.167 -112 -63.5 -150s-94.5 -57 -156.5 -57h-265v-139h-56v553zM116 500.999v-310h265c49.333 0 89.166 14 119.499 42s45.5 65.667 45.5 113s-15.167 85 -45.5 113
s-70.166 42 -119.499 42h-265z" />
    <glyph glyph-name="Q" unicode="Q" 
d="M645 22l-36.001 -37l-63 62c-55.333 -40.667 -121.666 -61 -198.999 -61c-89.333 0 -162.833 26.667 -220.5 80s-86.5 123.333 -86.5 210s28.833 156.667 86.5 210s131.167 80 220.5 80s162.833 -26.667 220.5 -80s86.5 -123.333 86.5 -210
c0 -77.333 -23.333 -142 -70 -194zM479.999 187l66.001 -66.001c34.667 40.667 52 92.334 52 155.001c0 74 -23.667 132.167 -71 174.5s-107.333 63.5 -180 63.5s-132.667 -21.167 -180 -63.5s-71 -100.5 -71 -174.5s23.667 -132.167 71 -174.5s107.333 -63.5 180 -63.5
c63.333 0 116.666 15.667 159.999 47l-64 65z" />
    <glyph glyph-name="R" unicode="R" horiz-adv-x="641" 
d="M60 553l320.999 -0.000976562c62 0 114.167 -19.167 156.5 -57.5s63.5 -88.166 63.5 -149.499c0 -46 -11.667 -85.5 -35 -118.5s-54.666 -56.833 -93.999 -71.5l89 -156h-62l-79 139h-304v-139h-56v553zM115.999 500.999v-310h265c49.333 0 89.166 14 119.499 42
s45.5 65.667 45.5 113s-15.167 85 -45.5 113s-70.166 42 -119.499 42h-265z" />
    <glyph glyph-name="S" unicode="S" horiz-adv-x="620" 
d="M554 502l-27.001 -41.998c-68 37.333 -143.667 56 -227 56c-128 0 -192 -34.333 -192 -103c0 -28 9.83301 -48 29.5 -60s49.167 -20.333 88.5 -25l181 -22c55.333 -6.66699 98 -22.834 128 -48.501s45 -60.167 45 -103.5c0 -56.667 -23.667 -98.834 -71 -126.501
s-114 -41.5 -200 -41.5c-104.667 0 -194.334 24.333 -269.001 73l29 46c38.667 -25.333 77.334 -43.166 116.001 -53.499s85.334 -15.5 140.001 -15.5c63.333 0 112.5 9.83301 147.5 29.5s52.5 48.5 52.5 86.5c0 59.333 -43.667 93.666 -131 102.999l-174 19
c-111.333 12 -167 58 -167 138c0 50.667 23.167 89 69.5 115s105.5 39 177.5 39c52.667 0 98.5 -4.5 137.5 -13.5s77.833 -25.833 116.5 -50.5z" />
    <glyph glyph-name="T" unicode="T" horiz-adv-x="626" 
d="M30 553h566v-52h-255v-501h-56v501h-255v52z" />
    <glyph glyph-name="U" unicode="U" horiz-adv-x="664" 
d="M55 553h56v-284c0 -71.333 18.333 -127.666 55 -168.999s92 -62 166 -62c73.333 0 128.5 20.667 165.5 62s55.5 97.666 55.5 168.999v284h56v-283c0 -90.667 -24.833 -160.667 -74.5 -210s-117.167 -74 -202.5 -74c-86 0 -153.667 24.667 -203 74s-74 119.333 -74 210
v283z" />
    <glyph glyph-name="V" unicode="V" horiz-adv-x="689" 
d="M30 553h60l219 -499h66l221 499h63l-248 -553h-138z" />
    <glyph glyph-name="W" unicode="W" horiz-adv-x="1005" 
d="M30 553h61l170 -499h37l151 499h102l158 -499h39l169 499h58l-192 -553h-114l-156 499h-25l-151 -499h-114z" />
    <glyph glyph-name="X" unicode="X" horiz-adv-x="647" 
d="M54 553h67l167 -241h70l171 241h64l-189 -261l213 -292h-68l-186 258h-78l-189 -258h-66l213 289z" />
    <glyph glyph-name="Y" unicode="Y" horiz-adv-x="656" 
d="M30 553h65l225 -350h19l222 350h65l-270 -415v-138h-56v138z" />
    <glyph glyph-name="Z" unicode="Z" horiz-adv-x="602" 
d="M54 553h491v-54l-435 -450l243 4h209v-53h-522v54l438 449l-219 -3h-205v53z" />
    <glyph glyph-name="bracketleft" unicode="[" horiz-adv-x="161" 
d="M40 636h121v-50h-67v-621h67v-49h-121v720z" />
    <glyph glyph-name="backslash" unicode="\" horiz-adv-x="296" 
d="M20 577l52 16l204 -613l-52 -16z" />
    <glyph glyph-name="bracketright" unicode="]" horiz-adv-x="161" 
d="M0 636h121v-720h-121v50h67v621h-67v49z" />
    <glyph glyph-name="asciicircum" unicode="^" horiz-adv-x="350" 
d="M175 584l150 -150l-29 -32l-121 110l-121 -110l-29 32z" />
    <glyph glyph-name="underscore" unicode="_" horiz-adv-x="475" 
d="M10 -68h455v-51h-455v51z" />
    <glyph glyph-name="grave" unicode="`" horiz-adv-x="205" 
d="M103 818l48 -188l-46 -10l-54 186z" />
    <glyph glyph-name="a" unicode="a" horiz-adv-x="727" 
d="M314 502l-151 -356h401l-148 356h-102zM282 553h170l235 -553h-58l-40 93h-448l-41 -93h-60z" />
    <glyph glyph-name="b" unicode="b" horiz-adv-x="648" 
d="M60 553l347.002 -0.000976562c49.333 0 89.166 -12.167 119.499 -36.5s45.5 -56.5 45.5 -96.5c0 -51.333 -18.333 -89.666 -55 -114.999c30 -10.667 53.5 -28.5 70.5 -53.5s25.5 -53.5 25.5 -85.5c0 -46.667 -16.833 -86 -50.5 -118s-78.834 -48 -135.501 -48h-367v553z
M116.002 500.999v-182h308c30 0 53 8.5 69 25.5s24 38.167 24 63.5c0 62 -39 93 -117 93h-284zM116.002 267.999v-216h307c44 0 77.333 10.667 100 32s34 48 34 80c0 32.667 -10 58.167 -30 76.5s-47 27.5 -81 27.5h-330z" />
    <glyph glyph-name="c" unicode="c" horiz-adv-x="643" 
d="M606 445l-46 -28.001c-49.333 64 -122.333 96 -219 96c-74 0 -133.167 -21.5 -177.5 -64.5s-66.5 -100.167 -66.5 -171.5c0 -69.333 22.667 -126.5 68 -171.5s104 -67.5 176 -67.5c92 0 165.333 33 220 99l47 -29c-64 -81.333 -152 -122 -264 -122
c-89.333 0 -162.333 26.333 -219 79s-85 123.334 -85 212.001c0 88 28.5 158.167 85.5 210.5s129.833 78.5 218.5 78.5c114 0 201.333 -40.333 262 -121z" />
    <glyph glyph-name="d" unicode="d" horiz-adv-x="663" 
d="M60 553l267 -0.000976562c85.333 0 156 -24.667 212 -74s84 -116.666 84 -201.999c0 -84.667 -28.5 -152 -85.5 -202s-127.167 -75 -210.5 -75h-267v553zM116 501.999v-450.999h204c76 0 136.167 20.333 180.5 61s66.5 95.667 66.5 165s-22.167 124.166 -66.5 164.499
s-104.5 60.5 -180.5 60.5h-204z" />
    <glyph glyph-name="e" unicode="e" horiz-adv-x="607" 
d="M60 553h481v-51h-425v-192h382v-51h-382v-208h441v-51h-497v553z" />
    <glyph glyph-name="f" unicode="f" horiz-adv-x="590" 
d="M60 0v553h481v-51h-425v-208h382v-51h-382v-243h-56z" />
    <glyph glyph-name="g" unicode="g" horiz-adv-x="682" 
d="M414 301l210.001 -0.00195312v-301h-39l-12 68c-58 -54.667 -134 -82 -228 -82c-90.667 0 -164.167 26.333 -220.5 79s-84.5 123.334 -84.5 212.001c0 88 28.667 158.167 86 210.5s130.333 78.5 219 78.5c114 0 201.333 -39.667 262 -119l-45 -27
c-50 62.667 -123.333 94 -220 94c-74 0 -133.333 -21.667 -178 -65s-67 -100.666 -67 -171.999c0 -68.667 23.167 -125.667 69.5 -171s104.833 -68 175.5 -68c99.333 0 175.666 31.667 228.999 95v116l-157 6v46z" />
    <glyph glyph-name="h" unicode="h" horiz-adv-x="670" 
d="M60 553h56v-239h438v239h56v-553h-56v262h-438v-262h-56v553z" />
    <glyph glyph-name="i" unicode="i" horiz-adv-x="176" 
d="M60 553h56v-553h-56v553z" />
    <glyph glyph-name="j" unicode="j" horiz-adv-x="597" 
d="M480 553h55.998v-322c0 -76 -20.5 -135.833 -61.5 -179.5s-105.5 -65.5 -193.5 -65.5c-111.333 0 -191.666 41.667 -240.999 125l47 29c20.667 -34 48.167 -59.667 82.5 -77s70.833 -26 109.5 -26c74.667 0 126.834 17.167 156.501 51.5s44.5 85.5 44.5 153.5v311z" />
    <glyph glyph-name="k" unicode="k" horiz-adv-x="632" 
d="M60 553h56v-232h254l160 232h65l-174 -255l190 -298h-66l-173 270h-256v-270h-56v553z" />
    <glyph glyph-name="l" unicode="l" horiz-adv-x="576" 
d="M60 553h56v-501h430v-52h-486v553z" />
    <glyph glyph-name="m" unicode="m" horiz-adv-x="853" 
d="M60 553h112l257 -499h6l247 499h111v-553h-56v505h-20l-254 -505h-64l-264 505h-20v-505h-55v553z" />
    <glyph glyph-name="n" unicode="n" horiz-adv-x="682" 
d="M60 553h70l437 -488v488h55v-553h-71l-436 490v-490h-55v553z" />
    <glyph glyph-name="o" unicode="o" 
d="M96 276c0.666992 -74 24.5 -132.167 71.5 -174.5s106.833 -63.5 179.5 -63.5s132.667 21.167 180 63.5s71 100.5 71 174.5s-23.667 132.167 -71 174.5s-107.333 63.5 -180 63.5s-132.5 -21.167 -179.5 -63.5s-70.833 -100.5 -71.5 -174.5zM654 276
c0 -86.667 -28.833 -156.667 -86.5 -210s-131.167 -80 -220.5 -80s-162.833 26.667 -220.5 80s-86.5 123.333 -86.5 210s28.833 156.667 86.5 210s131.167 80 220.5 80s162.833 -26.667 220.5 -80s86.5 -123.333 86.5 -210z" />
    <glyph glyph-name="p" unicode="p" horiz-adv-x="636" 
d="M60 553l321 -0.000976562c62 0 114.167 -19.167 156.5 -57.5s63.5 -88.166 63.5 -149.499c0 -62 -21.167 -112 -63.5 -150s-94.5 -57 -156.5 -57h-265v-139h-56v553zM116 500.999v-310h265c49.333 0 89.166 14 119.499 42s45.5 65.667 45.5 113s-15.167 85 -45.5 113
s-70.166 42 -119.499 42h-265z" />
    <glyph glyph-name="q" unicode="q" 
d="M645 22l-36.001 -37l-63 62c-55.333 -40.667 -121.666 -61 -198.999 -61c-89.333 0 -162.833 26.667 -220.5 80s-86.5 123.333 -86.5 210s28.833 156.667 86.5 210s131.167 80 220.5 80s162.833 -26.667 220.5 -80s86.5 -123.333 86.5 -210
c0 -77.333 -23.333 -142 -70 -194zM479.999 187l66.001 -66.001c34.667 40.667 52 92.334 52 155.001c0 74 -23.667 132.167 -71 174.5s-107.333 63.5 -180 63.5s-132.667 -21.167 -180 -63.5s-71 -100.5 -71 -174.5s23.667 -132.167 71 -174.5s107.333 -63.5 180 -63.5
c63.333 0 116.666 15.667 159.999 47l-64 65z" />
    <glyph glyph-name="r" unicode="r" horiz-adv-x="641" 
d="M60 553l320.999 -0.000976562c62 0 114.167 -19.167 156.5 -57.5s63.5 -88.166 63.5 -149.499c0 -46 -11.667 -85.5 -35 -118.5s-54.666 -56.833 -93.999 -71.5l89 -156h-62l-79 139h-304v-139h-56v553zM115.999 500.999v-310h265c49.333 0 89.166 14 119.499 42
s45.5 65.667 45.5 113s-15.167 85 -45.5 113s-70.166 42 -119.499 42h-265z" />
    <glyph glyph-name="s" unicode="s" horiz-adv-x="620" 
d="M554 502l-27.001 -41.998c-68 37.333 -143.667 56 -227 56c-128 0 -192 -34.333 -192 -103c0 -28 9.83301 -48 29.5 -60s49.167 -20.333 88.5 -25l181 -22c55.333 -6.66699 98 -22.834 128 -48.501s45 -60.167 45 -103.5c0 -56.667 -23.667 -98.834 -71 -126.501
s-114 -41.5 -200 -41.5c-104.667 0 -194.334 24.333 -269.001 73l29 46c38.667 -25.333 77.334 -43.166 116.001 -53.499s85.334 -15.5 140.001 -15.5c63.333 0 112.5 9.83301 147.5 29.5s52.5 48.5 52.5 86.5c0 59.333 -43.667 93.666 -131 102.999l-174 19
c-111.333 12 -167 58 -167 138c0 50.667 23.167 89 69.5 115s105.5 39 177.5 39c52.667 0 98.5 -4.5 137.5 -13.5s77.833 -25.833 116.5 -50.5z" />
    <glyph glyph-name="t" unicode="t" horiz-adv-x="626" 
d="M30 553h566v-52h-255v-501h-56v501h-255v52z" />
    <glyph glyph-name="u" unicode="u" horiz-adv-x="664" 
d="M55 553h56v-284c0 -71.333 18.333 -127.666 55 -168.999s92 -62 166 -62c73.333 0 128.5 20.667 165.5 62s55.5 97.666 55.5 168.999v284h56v-283c0 -90.667 -24.833 -160.667 -74.5 -210s-117.167 -74 -202.5 -74c-86 0 -153.667 24.667 -203 74s-74 119.333 -74 210
v283z" />
    <glyph glyph-name="v" unicode="v" horiz-adv-x="689" 
d="M30 553h60l219 -499h66l221 499h63l-248 -553h-138z" />
    <glyph glyph-name="w" unicode="w" horiz-adv-x="1005" 
d="M30 553h61l170 -499h37l151 499h102l158 -499h39l169 499h58l-192 -553h-114l-156 499h-25l-151 -499h-114z" />
    <glyph glyph-name="x" unicode="x" horiz-adv-x="647" 
d="M54 553h67l167 -241h70l171 241h64l-189 -261l213 -292h-68l-186 258h-78l-189 -258h-66l213 289z" />
    <glyph glyph-name="y" unicode="y" horiz-adv-x="656" 
d="M30 553h65l225 -350h19l222 350h65l-270 -415v-138h-56v138z" />
    <glyph glyph-name="z" unicode="z" horiz-adv-x="602" 
d="M54 553h491v-54l-435 -450l243 4h209v-53h-522v54l438 449l-219 -3h-205v53z" />
    <glyph glyph-name="braceleft" unicode="{" horiz-adv-x="231" 
d="M231 -34v-50h-39c-25.333 0 -47.666 9.5 -66.999 28.5s-29 43.167 -29 72.5v173c0 16.667 -4.66699 31 -14 43s-21.666 18 -36.999 18h-25v50h25c15.333 0 27.666 6 36.999 18s14 26.333 14 43v173c0 29.333 9.66699 53.5 29 72.5s41.666 28.5 66.999 28.5h39v-50h-29
c-33.333 0 -50 -17 -50 -51v-172c0 -41.333 -15 -70.333 -45 -87c30 -16.667 45 -45.667 45 -87v-172c0 -34 16.667 -51 50 -51h29z" />
    <glyph glyph-name="bar" unicode="|" horiz-adv-x="177" 
d="M117 586v-620h-57v620h57z" />
    <glyph glyph-name="braceright" unicode="}" horiz-adv-x="231" 
d="M0 -84v50h29c33.333 0 50 17 50 51v172c0 41.333 15 70.333 45 87c-30 16.667 -45 45.667 -45 87v172c0 34 -16.667 51 -50 51h-29v50h39c25.333 0 47.666 -9.5 66.999 -28.5s29 -43.167 29 -72.5v-173c0 -16.667 4.66699 -31 14 -43s21.666 -18 36.999 -18h25v-50h-25
c-15.333 0 -27.666 -6 -36.999 -18s-14 -26.333 -14 -43v-173c0 -29.333 -9.66699 -53.5 -29 -72.5s-41.666 -28.5 -66.999 -28.5h-39z" />
    <glyph glyph-name="asciitilde" unicode="~" horiz-adv-x="435" 
d="M370 321l26.001 -32.001c-26 -33.333 -63 -50 -111 -50c-17.333 0 -40.666 6.33301 -69.999 19s-52.333 19 -69 19c-38.667 0 -69.334 -14.333 -92.001 -43l-30 31c30.667 39.333 71 59 121 59c25.333 0 51.666 -6 78.999 -18s48 -18 62 -18c20 0 36 2.33301 48 7
s24 13.334 36 26.001z" />
    <glyph glyph-name="exclamdown" unicode="&#xa1;" horiz-adv-x="194" 
d="M124 394v-472h-54v472h54zM97 450c-16 0 -29.5 5.5 -40.5 16.5s-16.5 24.5 -16.5 40.5s5.5 29.333 16.5 40s24.5 16 40.5 16s29.5 -5.33301 40.5 -16s16.5 -24 16.5 -40s-5.5 -29.5 -16.5 -40.5s-24.5 -16.5 -40.5 -16.5z" />
    <glyph glyph-name="cent" unicode="&#xa2;" horiz-adv-x="622" 
d="M313 612l45.001 0.000976562l4 -68c95.333 -6.66699 169.666 -45.334 222.999 -116.001l-44 -27c-48 61.333 -118 92 -210 92c-72 0 -129.333 -20.667 -172 -62s-64 -96.333 -64 -165c0 -66.667 22 -121.5 66 -164.5s100.667 -64.5 170 -64.5c88.667 0 159 31.333 211 94
l45 -28c-55.333 -70 -130 -108.333 -224 -115l-3 -81h-46l-5 80c-80 5.33301 -144.833 33.166 -194.5 83.499s-74.5 115.5 -74.5 195.5c0 80.667 25 145.834 75 195.501s114.333 77.167 193 82.5z" />
    <glyph glyph-name="brokenbar" unicode="&#xa6;" horiz-adv-x="177" 
d="M117 299h-57v287h57v-287zM117 -34h-57v287h57v-287z" />
    <glyph glyph-name="section" unicode="&#xa7;" horiz-adv-x="573" 
d="M480 642l-24 -45c-50.667 26 -103 39 -157 39c-106.667 0 -160 -29.333 -160 -88c0 -23.333 7.83301 -41.333 23.5 -54s39.834 -21.667 72.501 -27l110 -17c58 -8.66699 103.833 -27.334 137.5 -56.001s50.5 -66.667 50.5 -114c0 -62.667 -35.333 -111 -106 -145
c25.333 -12 43.666 -27.167 54.999 -45.5s17 -42.5 17 -72.5c0 -46.667 -20.833 -81.667 -62.5 -105s-96.5 -35 -164.5 -35c-82.667 0 -152.667 15.667 -210 47l23 48c57.333 -30.667 120.333 -46 189 -46c56.667 0 99.5 8.66699 128.5 26s43.5 40.333 43.5 69
c0 25.333 -7.33301 43.833 -22 55.5s-39 20.5 -73 26.5l-121 20c-126.667 20.667 -190 77.667 -190 171c0 32 9.5 61.333 28.5 88s45.167 47.334 78.5 62.001c-41.333 24.667 -62 60.334 -62 107.001c0 43.333 21.333 76.666 64 99.999s91.667 35 147 35
c70.667 0 132 -14.667 184 -44zM357 393l-165 25.001c-62.667 -24.667 -94 -64 -94 -118c0 -68 39 -108 117 -120l152 -25c72.667 25.333 109 65.666 109 120.999c0 66.667 -39.667 105.667 -119 117z" />
    <glyph glyph-name="dieresis" unicode="&#xa8;" horiz-adv-x="444" 
d="M103 735c15.333 0 28.166 -5.16699 38.499 -15.5s15.5 -22.5 15.5 -36.5s-5.16699 -26.167 -15.5 -36.5s-23.166 -15.5 -38.499 -15.5c-14.667 0 -27.167 5.16699 -37.5 15.5s-15.5 22.5 -15.5 36.5s5.16699 26.167 15.5 36.5s22.833 15.5 37.5 15.5zM340 735
c15.333 0 28.166 -5.16699 38.499 -15.5s15.5 -22.5 15.5 -36.5s-5.16699 -26.167 -15.5 -36.5s-23.166 -15.5 -38.499 -15.5c-14.667 0 -27.167 5.16699 -37.5 15.5s-15.5 22.5 -15.5 36.5s5.16699 26.167 15.5 36.5s22.833 15.5 37.5 15.5z" />
    <glyph glyph-name="copyright" unicode="&#xa9;" horiz-adv-x="724" 
d="M25 291c0 94.667 32.5 172.334 97.5 233.001s144.833 91 239.5 91s174.5 -30.333 239.5 -91s97.5 -138.334 97.5 -233.001s-32.5 -172.334 -97.5 -233.001s-144.833 -91 -239.5 -91s-174.5 30.333 -239.5 91s-97.5 138.334 -97.5 233.001zM515 397l-33.999 -35.001
c-29.333 32 -67.333 48 -114 48c-39.333 0 -70 -10.167 -92 -30.5s-33 -49.5 -33 -87.5c0 -36 11.167 -64.5 33.5 -85.5s52.833 -31.5 91.5 -31.5c47.333 0 85.666 16 114.999 48l33 -36c-40 -42 -89.333 -63 -148 -63c-51.333 0 -94.333 15.333 -129 46
s-52 71.334 -52 122.001c0 51.333 17.333 92.333 52 123s77.667 46 129 46c62 0 111.333 -21.333 148 -64zM644.001 290.999c0 80 -26.5 145.167 -79.5 195.5s-120.5 75.5 -202.5 75.5s-149.333 -25.167 -202 -75.5s-79 -115.5 -79 -195.5s26.333 -145.167 79 -195.5
s120 -75.5 202 -75.5s149.5 25.167 202.5 75.5s79.5 115.5 79.5 195.5z" />
    <glyph glyph-name="guillemotleft" unicode="&#xab;" horiz-adv-x="358" 
d="M183 448l31 -30l-115 -134l115 -134l-31 -30l-162 164zM303 438l31 -30l-105 -124l105 -124l-31 -30l-152 154z" />
    <glyph glyph-name="uni00AD" unicode="&#xad;" horiz-adv-x="395" 
d="M40 309h315v-51h-315v51z" />
    <glyph glyph-name="registered" unicode="&#xae;" horiz-adv-x="465" 
d="M77 415c0 -42.667 14.832 -78.334 44.499 -107.001s66.5 -43 110.5 -43s81 14.333 111 43s45 64.334 45 107.001s-15.167 78.334 -45.5 107.001s-67.166 43 -110.499 43c-44 0 -80.833 -14.333 -110.5 -43s-44.5 -64.334 -44.5 -107.001zM147.999 509
l106.999 0.000976562c22.667 0 41.334 -6.5 56.001 -19.5s22 -28.833 22 -47.5c0 -26.667 -13 -46.334 -39 -59.001l35 -54h-48l-27 46h-63v-46h-43v180zM190.998 471.001v-58h69c20 0 30 10 30 30c0 18.667 -10 28 -30 28h-69zM29.998 415.001
c0 56 19.5 102.668 58.5 140.001s86.833 56 143.5 56c56 0 103.833 -18.667 143.5 -56s59.5 -84 59.5 -140s-19.5 -102.5 -58.5 -139.5s-87.167 -55.5 -144.5 -55.5c-56.667 0 -104.5 18.667 -143.5 56s-58.5 83.666 -58.5 138.999z" />
    <glyph glyph-name="macron" unicode="&#xaf;" horiz-adv-x="415" 
d="M40 696h335v-50h-335v50z" />
    <glyph glyph-name="degree" unicode="&#xb0;" horiz-adv-x="340" 
d="M170 299c-39.333 0 -72.5 12.167 -99.5 36.5s-40.5 56.166 -40.5 95.499s13.5 71.166 40.5 95.499s60.167 36.5 99.5 36.5c40 0 73.333 -12.167 100 -36.5s40 -56.166 40 -95.499s-13.333 -71.166 -40 -95.499s-60 -36.5 -100 -36.5zM170 345
c26.667 0 47.834 7.83301 63.501 23.5s23.5 36.5 23.5 62.5s-7.83301 46.833 -23.5 62.5s-36.834 23.5 -63.501 23.5s-48.167 -7.83301 -64.5 -23.5s-24.5 -36.5 -24.5 -62.5s8.16699 -46.833 24.5 -62.5s37.833 -23.5 64.5 -23.5z" />
    <glyph glyph-name="plusminus" unicode="&#xb1;" horiz-adv-x="405" 
d="M40 381h136v132h51v-132h138v-51h-138v-132h-51v132h-136v51zM45 148h315v-51h-315v51z" />
    <glyph glyph-name="acute" unicode="&#xb4;" horiz-adv-x="205" 
d="M51 630l48 188l52 -12l-54 -186z" />
    <glyph glyph-name="paragraph" unicode="&#xb6;" horiz-adv-x="501" 
d="M472 651l2 -38l-96 -24v-589h-56v594h-64v-594h-56v356c-42.667 0 -79.5 14 -110.5 42s-46.5 63.333 -46.5 106c0 42 15.5 77 46.5 105s67.833 42 110.5 42h270z" />
    <glyph glyph-name="periodcentered" unicode="&#xb7;" horiz-adv-x="194" 
d="M97 356c16 0 29.5 -5.5 40.5 -16.5s16.5 -24.5 16.5 -40.5s-5.5 -29.333 -16.5 -40s-24.5 -16 -40.5 -16s-29.5 5.33301 -40.5 16s-16.5 24 -16.5 40s5.5 29.5 16.5 40.5s24.5 16.5 40.5 16.5z" />
    <glyph glyph-name="cedilla" unicode="&#xb8;" horiz-adv-x="238" 
d="M72 9l52.001 -5.00098v-52c69.333 -3.33301 104 -31.333 104 -84c0 -31.333 -12.333 -55.166 -37 -71.499s-55.334 -24.5 -92.001 -24.5c-32 0 -60.333 6.66699 -85 20l15 43c22 -10 46.333 -15 73 -15c48 0 72 16 72 48c0 25.333 -20.333 38 -61 38h-45l-6 6z" />
    <glyph glyph-name="guillemotright" unicode="&#xbb;" horiz-adv-x="358" 
d="M144 418l31 30l162 -164l-162 -164l-31 30l115 134zM24 408l31 30l152 -154l-152 -154l-31 30l105 124z" />
    <glyph glyph-name="questiondown" unicode="&#xbf;" horiz-adv-x="575" 
d="M327 450c-16 0 -29.5 5.5 -40.5 16.5s-16.5 24.5 -16.5 40.5s5.5 29.333 16.5 40s24.5 16 40.5 16s29.5 -5.33301 40.5 -16s16.5 -24 16.5 -40s-5.5 -29.5 -16.5 -40.5s-24.5 -16.5 -40.5 -16.5zM355 394l-0.00292969 -65.001c0 -20.667 -6.83301 -40.5 -20.5 -59.5
s-33.167 -32.167 -58.5 -39.5l-44 -13c-39.333 -11.333 -67.166 -27.833 -83.499 -49.5s-24.5 -49.167 -24.5 -82.5c0 -90.667 62 -136 186 -136c94 0 170.333 25 229 75l28 -42c-65.333 -56.667 -150.666 -85 -255.999 -85c-75.333 0 -134.666 15.833 -177.999 47.5
s-65 79.5 -65 143.5c0 39.333 11 74.333 33 105s54.667 52.334 98 65.001l48 13c35.333 10 53 31.333 53 64v59h55z" />
    <glyph glyph-name="Agrave" unicode="&#xc0;" horiz-adv-x="727" 
d="M314 502l-151 -356h401l-148 356h-102zM282 553h170l235 -553h-58l-40 93h-448l-41 -93h-60zM345 818l48 -188l-46 -10l-54 186z" />
    <glyph glyph-name="Aacute" unicode="&#xc1;" horiz-adv-x="727" 
d="M314 502l-151 -356h401l-148 356h-102zM282 553h170l235 -553h-58l-40 93h-448l-41 -93h-60zM348 631l48 188l52 -12l-54 -186z" />
    <glyph glyph-name="Acircumflex" unicode="&#xc2;" horiz-adv-x="727" 
d="M314 502l-151 -356h401l-148 356h-102zM282 553h170l235 -553h-58l-40 93h-448l-41 -93h-60zM489 608l-126 78l-126 -78l-24 30l150 110l150 -110z" />
    <glyph glyph-name="Atilde" unicode="&#xc3;" horiz-adv-x="727" 
d="M314 502l-151 -356h401l-148 356h-102zM282 553h170l235 -553h-58l-40 93h-448l-41 -93h-60zM523 700l26.001 -32.001c-26 -33.333 -63 -50 -111 -50c-17.333 0 -40.666 6.33301 -69.999 19s-52.333 19 -69 19c-38.667 0 -69.334 -14.333 -92.001 -43l-30 31
c30.667 39.333 71 59 121 59c25.333 0 51.666 -6 78.999 -18s48 -18 62 -18c20 0 36 2.33301 48 7s24 13.334 36 26.001z" />
    <glyph glyph-name="Adieresis" unicode="&#xc4;" horiz-adv-x="727" 
d="M314 502l-151 -356h401l-148 356h-102zM282 553h170l235 -553h-58l-40 93h-448l-41 -93h-60zM244 735c15.333 0 28.166 -5.16699 38.499 -15.5s15.5 -22.5 15.5 -36.5s-5.16699 -26.167 -15.5 -36.5s-23.166 -15.5 -38.499 -15.5c-14.667 0 -27.167 5.16699 -37.5 15.5
s-15.5 22.5 -15.5 36.5s5.16699 26.167 15.5 36.5s22.833 15.5 37.5 15.5zM481 735c15.333 0 28.166 -5.16699 38.499 -15.5s15.5 -22.5 15.5 -36.5s-5.16699 -26.167 -15.5 -36.5s-23.166 -15.5 -38.499 -15.5c-14.667 0 -27.167 5.16699 -37.5 15.5s-15.5 22.5 -15.5 36.5
s5.16699 26.167 15.5 36.5s22.833 15.5 37.5 15.5z" />
    <glyph glyph-name="Aring" unicode="&#xc5;" horiz-adv-x="727" 
d="M314 502l-151 -356h401l-148 356h-102zM282 553h170l235 -553h-58l-40 93h-448l-41 -93h-60zM494 726c0 -36.667 -12.667 -66 -38 -88s-56.333 -33 -93 -33s-67.667 11 -93 33s-38 51.333 -38 88s12.667 66 38 88s56.333 33 93 33s67.667 -11 93 -33s38 -51.333 38 -88z
M283 726c0 -22.667 7.5 -41 22.5 -55s34.167 -21 57.5 -21s42.5 7 57.5 21s22.5 32.333 22.5 55s-7.5 41 -22.5 55s-34.167 21 -57.5 21s-42.5 -7 -57.5 -21s-22.5 -32.333 -22.5 -55z" />
    <glyph glyph-name="AE" unicode="&#xc6;" horiz-adv-x="1107" 
d="M382 553h654v-51h-427v-192h384v-51h-384v-208h448v-51h-504v109h-402l-76 -109h-66zM409 502l-218 -338h362v338h-144z" />
    <glyph glyph-name="Ccedilla" unicode="&#xc7;" horiz-adv-x="643" 
d="M606 445l-45.998 -28.0029c-49.333 64 -122.333 96 -219 96c-74 0 -133.167 -21.5 -177.5 -64.5s-66.5 -100.167 -66.5 -171.5c0 -69.333 22.667 -126.5 68 -171.5s104 -67.5 176 -67.5c92 0 165.333 33 220 99l47 -29c-60 -76 -141.333 -116.333 -244 -121v-35
c69.333 -3.33301 104 -31.333 104 -84c0 -31.333 -12.333 -55.166 -37 -71.499s-55.334 -24.5 -92.001 -24.5c-32 0 -60.333 6.66699 -85 20l15 43c22 -10 46.333 -15 73 -15c48 0 72 16 72 48c0 25.333 -20.333 38 -61 38h-45l-6 6l8 76
c-80.667 6.66699 -145.834 35.834 -195.501 87.501s-74.5 118.834 -74.5 201.501c0 88 28.5 158.167 85.5 210.5s129.833 78.5 218.5 78.5c114 0 201.333 -40.333 262 -121z" />
    <glyph glyph-name="Egrave" unicode="&#xc8;" horiz-adv-x="607" 
d="M60 553h481v-51h-425v-192h382v-51h-382v-208h441v-51h-497v553zM301 818l48 -188l-46 -10l-54 186z" />
    <glyph glyph-name="Eacute" unicode="&#xc9;" horiz-adv-x="607" 
d="M60 553h481v-51h-425v-192h382v-51h-382v-208h441v-51h-497v553zM288 630l48 188l52 -12l-54 -186z" />
    <glyph glyph-name="Ecircumflex" unicode="&#xca;" horiz-adv-x="607" 
d="M60 553h481v-51h-425v-192h382v-51h-382v-208h441v-51h-497v553zM438 608l-126 78l-126 -78l-24 30l150 110l150 -110z" />
    <glyph glyph-name="Edieresis" unicode="&#xcb;" horiz-adv-x="607" 
d="M60 553h481v-51h-425v-192h382v-51h-382v-208h441v-51h-497v553zM181 735c15.333 0 28.166 -5.16699 38.499 -15.5s15.5 -22.5 15.5 -36.5s-5.16699 -26.167 -15.5 -36.5s-23.166 -15.5 -38.499 -15.5c-14.667 0 -27.167 5.16699 -37.5 15.5s-15.5 22.5 -15.5 36.5
s5.16699 26.167 15.5 36.5s22.833 15.5 37.5 15.5zM418 735c15.333 0 28.166 -5.16699 38.499 -15.5s15.5 -22.5 15.5 -36.5s-5.16699 -26.167 -15.5 -36.5s-23.166 -15.5 -38.499 -15.5c-14.667 0 -27.167 5.16699 -37.5 15.5s-15.5 22.5 -15.5 36.5
s5.16699 26.167 15.5 36.5s22.833 15.5 37.5 15.5z" />
    <glyph glyph-name="Igrave" unicode="&#xcc;" horiz-adv-x="176" 
d="M60 553h56v-553h-56v553zM65 818l48 -188l-46 -10l-54 186z" />
    <glyph glyph-name="Iacute" unicode="&#xcd;" horiz-adv-x="176" 
d="M60 553h56v-553h-56v553zM64 630l48 188l52 -12l-54 -186z" />
    <glyph glyph-name="Icircumflex" unicode="&#xce;" horiz-adv-x="176" 
d="M60 553h56v-553h-56v553zM214 608l-126 78l-126 -78l-24 30l150 110l150 -110z" />
    <glyph glyph-name="Idieresis" unicode="&#xcf;" horiz-adv-x="176" 
d="M60 553h56v-553h-56v553zM-31 735c15.333 0 28.166 -5.16699 38.499 -15.5s15.5 -22.5 15.5 -36.5s-5.16699 -26.167 -15.5 -36.5s-23.166 -15.5 -38.499 -15.5c-14.667 0 -27.167 5.16699 -37.5 15.5s-15.5 22.5 -15.5 36.5s5.16699 26.167 15.5 36.5
s22.833 15.5 37.5 15.5zM206 735c15.333 0 28.166 -5.16699 38.499 -15.5s15.5 -22.5 15.5 -36.5s-5.16699 -26.167 -15.5 -36.5s-23.166 -15.5 -38.499 -15.5c-14.667 0 -27.167 5.16699 -37.5 15.5s-15.5 22.5 -15.5 36.5s5.16699 26.167 15.5 36.5s22.833 15.5 37.5 15.5
z" />
    <glyph glyph-name="Eth" unicode="&#xd0;" horiz-adv-x="674" 
d="M71 553l267 -0.000976562c85.333 0 156 -24.667 212 -74s84 -116.666 84 -201.999c0 -84.667 -28.5 -152 -85.5 -202s-127.167 -75 -210.5 -75h-267v265h-61v51h61v237zM127 501.999v-185.999h174v-51h-174v-214h204c76 0 136.167 20.333 180.5 61s66.5 95.667 66.5 165
s-22.167 124.166 -66.5 164.499s-104.5 60.5 -180.5 60.5h-204z" />
    <glyph glyph-name="Ntilde" unicode="&#xd1;" horiz-adv-x="682" 
d="M60 553h70l437 -488v488h55v-553h-71l-436 490v-490h-55v553zM496 711l26.001 -32.001c-26 -33.333 -63 -50 -111 -50c-17.333 0 -40.666 6.33301 -69.999 19s-52.333 19 -69 19c-38.667 0 -69.334 -14.333 -92.001 -43l-30 31c30.667 39.333 71 59 121 59
c25.333 0 51.666 -6 78.999 -18s48 -18 62 -18c20 0 36 2.33301 48 7s24 13.334 36 26.001z" />
    <glyph glyph-name="Ograve" unicode="&#xd2;" 
d="M96 276c0.666992 -74 24.5 -132.167 71.5 -174.5s106.833 -63.5 179.5 -63.5s132.667 21.167 180 63.5s71 100.5 71 174.5s-23.667 132.167 -71 174.5s-107.333 63.5 -180 63.5s-132.5 -21.167 -179.5 -63.5s-70.833 -100.5 -71.5 -174.5zM654 276
c0 -86.667 -28.833 -156.667 -86.5 -210s-131.167 -80 -220.5 -80s-162.833 26.667 -220.5 80s-86.5 123.333 -86.5 210s28.833 156.667 86.5 210s131.167 80 220.5 80s162.833 -26.667 220.5 -80s86.5 -123.333 86.5 -210zM312 818l48 -188l-46 -10l-54 186z" />
    <glyph glyph-name="Oacute" unicode="&#xd3;" 
d="M96 276c0.666992 -74 24.5 -132.167 71.5 -174.5s106.833 -63.5 179.5 -63.5s132.667 21.167 180 63.5s71 100.5 71 174.5s-23.667 132.167 -71 174.5s-107.333 63.5 -180 63.5s-132.5 -21.167 -179.5 -63.5s-70.833 -100.5 -71.5 -174.5zM654 276
c0 -86.667 -28.833 -156.667 -86.5 -210s-131.167 -80 -220.5 -80s-162.833 26.667 -220.5 80s-86.5 123.333 -86.5 210s28.833 156.667 86.5 210s131.167 80 220.5 80s162.833 -26.667 220.5 -80s86.5 -123.333 86.5 -210zM330 630l48 188l52 -12l-54 -186z" />
    <glyph glyph-name="Ocircumflex" unicode="&#xd4;" 
d="M96 276c0.666992 -74 24.5 -132.167 71.5 -174.5s106.833 -63.5 179.5 -63.5s132.667 21.167 180 63.5s71 100.5 71 174.5s-23.667 132.167 -71 174.5s-107.333 63.5 -180 63.5s-132.5 -21.167 -179.5 -63.5s-70.833 -100.5 -71.5 -174.5zM654 276
c0 -86.667 -28.833 -156.667 -86.5 -210s-131.167 -80 -220.5 -80s-162.833 26.667 -220.5 80s-86.5 123.333 -86.5 210s28.833 156.667 86.5 210s131.167 80 220.5 80s162.833 -26.667 220.5 -80s86.5 -123.333 86.5 -210zM473 608l-126 78l-126 -78l-24 30l150 110
l150 -110z" />
    <glyph glyph-name="Otilde" unicode="&#xd5;" 
d="M96 276c0.666992 -74 24.5 -132.167 71.5 -174.5s106.833 -63.5 179.5 -63.5s132.667 21.167 180 63.5s71 100.5 71 174.5s-23.667 132.167 -71 174.5s-107.333 63.5 -180 63.5s-132.5 -21.167 -179.5 -63.5s-70.833 -100.5 -71.5 -174.5zM654 276
c0 -86.667 -28.833 -156.667 -86.5 -210s-131.167 -80 -220.5 -80s-162.833 26.667 -220.5 80s-86.5 123.333 -86.5 210s28.833 156.667 86.5 210s131.167 80 220.5 80s162.833 -26.667 220.5 -80s86.5 -123.333 86.5 -210zM507 711l26.001 -32.001
c-26 -33.333 -63 -50 -111 -50c-17.333 0 -40.666 6.33301 -69.999 19s-52.333 19 -69 19c-38.667 0 -69.334 -14.333 -92.001 -43l-30 31c30.667 39.333 71 59 121 59c25.333 0 51.666 -6 78.999 -18s48 -18 62 -18c20 0 36 2.33301 48 7s24 13.334 36 26.001z" />
    <glyph glyph-name="Odieresis" unicode="&#xd6;" 
d="M96 276c0.666992 -74 24.5 -132.167 71.5 -174.5s106.833 -63.5 179.5 -63.5s132.667 21.167 180 63.5s71 100.5 71 174.5s-23.667 132.167 -71 174.5s-107.333 63.5 -180 63.5s-132.5 -21.167 -179.5 -63.5s-70.833 -100.5 -71.5 -174.5zM654 276
c0 -86.667 -28.833 -156.667 -86.5 -210s-131.167 -80 -220.5 -80s-162.833 26.667 -220.5 80s-86.5 123.333 -86.5 210s28.833 156.667 86.5 210s131.167 80 220.5 80s162.833 -26.667 220.5 -80s86.5 -123.333 86.5 -210zM228 735c15.333 0 28.166 -5.16699 38.499 -15.5
s15.5 -22.5 15.5 -36.5s-5.16699 -26.167 -15.5 -36.5s-23.166 -15.5 -38.499 -15.5c-14.667 0 -27.167 5.16699 -37.5 15.5s-15.5 22.5 -15.5 36.5s5.16699 26.167 15.5 36.5s22.833 15.5 37.5 15.5zM465 735c15.333 0 28.166 -5.16699 38.499 -15.5s15.5 -22.5 15.5 -36.5
s-5.16699 -26.167 -15.5 -36.5s-23.166 -15.5 -38.499 -15.5c-14.667 0 -27.167 5.16699 -37.5 15.5s-15.5 22.5 -15.5 36.5s5.16699 26.167 15.5 36.5s22.833 15.5 37.5 15.5z" />
    <glyph glyph-name="multiply" unicode="&#xd7;" horiz-adv-x="405" 
d="M105 416l97 -97l98 98l36 -36l-98 -98l97 -97l-36 -36l-97 97l-96 -96l-36 36l96 96l-97 97z" />
    <glyph glyph-name="Oslash" unicode="&#xd8;" 
d="M498 588l48 -27l-24 -41c41.333 -25.333 73.666 -59 96.999 -101s35 -89.667 35 -143c0 -86.667 -28.833 -156.667 -86.5 -210s-131.167 -80 -220.5 -80c-41.333 0 -81 6.33301 -119 19l-25 -45l-48 27l23 40c-43.333 24.667 -77.166 58.5 -101.499 101.5
s-36.5 92.167 -36.5 147.5c0 86.667 28.833 156.667 86.5 210s131.167 80 220.5 80c44 0 86 -7.33301 126 -22zM205 73l241 424.001c-30.667 11.333 -63.667 17 -99 17c-72.667 0 -132.5 -21.167 -179.5 -63.5s-70.833 -100.5 -71.5 -174.5
c0 -92.667 36.333 -160.334 109 -203.001zM496 474.001l-241 -422c29.333 -9.33301 60 -14 92 -14c72.667 0 132.667 21.167 180 63.5s71 100.5 71 174.5c0 88 -34 154 -102 198z" />
    <glyph glyph-name="Ugrave" unicode="&#xd9;" horiz-adv-x="664" 
d="M55 553h56v-284c0 -71.333 18.333 -127.666 55 -168.999s92 -62 166 -62c73.333 0 128.5 20.667 165.5 62s55.5 97.666 55.5 168.999v284h56v-283c0 -90.667 -24.833 -160.667 -74.5 -210s-117.167 -74 -202.5 -74c-86 0 -153.667 24.667 -203 74s-74 119.333 -74 210
v283zM306 818l48 -188l-46 -10l-54 186z" />
    <glyph glyph-name="Uacute" unicode="&#xda;" horiz-adv-x="664" 
d="M55 553h56v-284c0 -71.333 18.333 -127.666 55 -168.999s92 -62 166 -62c73.333 0 128.5 20.667 165.5 62s55.5 97.666 55.5 168.999v284h56v-283c0 -90.667 -24.833 -160.667 -74.5 -210s-117.167 -74 -202.5 -74c-86 0 -153.667 24.667 -203 74s-74 119.333 -74 210
v283zM301 627l48 188l52 -12l-54 -186z" />
    <glyph glyph-name="Ucircumflex" unicode="&#xdb;" horiz-adv-x="664" 
d="M55 553h56v-284c0 -71.333 18.333 -127.666 55 -168.999s92 -62 166 -62c73.333 0 128.5 20.667 165.5 62s55.5 97.666 55.5 168.999v284h56v-283c0 -90.667 -24.833 -160.667 -74.5 -210s-117.167 -74 -202.5 -74c-86 0 -153.667 24.667 -203 74s-74 119.333 -74 210
v283zM458 608l-126 78l-126 -78l-24 30l150 110l150 -110z" />
    <glyph glyph-name="Udieresis" unicode="&#xdc;" horiz-adv-x="664" 
d="M55 553h56v-284c0 -71.333 18.333 -127.666 55 -168.999s92 -62 166 -62c73.333 0 128.5 20.667 165.5 62s55.5 97.666 55.5 168.999v284h56v-283c0 -90.667 -24.833 -160.667 -74.5 -210s-117.167 -74 -202.5 -74c-86 0 -153.667 24.667 -203 74s-74 119.333 -74 210
v283zM213 735c15.333 0 28.166 -5.16699 38.499 -15.5s15.5 -22.5 15.5 -36.5s-5.16699 -26.167 -15.5 -36.5s-23.166 -15.5 -38.499 -15.5c-14.667 0 -27.167 5.16699 -37.5 15.5s-15.5 22.5 -15.5 36.5s5.16699 26.167 15.5 36.5s22.833 15.5 37.5 15.5zM450 735
c15.333 0 28.166 -5.16699 38.499 -15.5s15.5 -22.5 15.5 -36.5s-5.16699 -26.167 -15.5 -36.5s-23.166 -15.5 -38.499 -15.5c-14.667 0 -27.167 5.16699 -37.5 15.5s-15.5 22.5 -15.5 36.5s5.16699 26.167 15.5 36.5s22.833 15.5 37.5 15.5z" />
    <glyph glyph-name="Yacute" unicode="&#xdd;" horiz-adv-x="656" 
d="M30 553h65l225 -350h19l222 350h65l-270 -415v-138h-56v138zM313 630l48 188l52 -12l-54 -186z" />
    <glyph glyph-name="Thorn" unicode="&#xde;" horiz-adv-x="600" 
d="M60 553h56v-75h242c56.667 0 104.5 -19.333 143.5 -58s58.5 -86.667 58.5 -144s-19.5 -105 -58.5 -143s-86.833 -57 -143.5 -57h-242v-76h-56v553zM116 426v-297.999h237c48.667 0 86 14 112 42s39 63.333 39 106c0 43.333 -13 79.166 -39 107.499
s-63.333 42.5 -112 42.5h-237z" />
    <glyph glyph-name="agrave" unicode="&#xe0;" horiz-adv-x="727" 
d="M314 502l-151 -356h401l-148 356h-102zM282 553h170l235 -553h-58l-40 93h-448l-41 -93h-60zM345 818l48 -188l-46 -10l-54 186z" />
    <glyph glyph-name="aacute" unicode="&#xe1;" horiz-adv-x="727" 
d="M314 502l-151 -356h401l-148 356h-102zM282 553h170l235 -553h-58l-40 93h-448l-41 -93h-60zM348 631l48 188l52 -12l-54 -186z" />
    <glyph glyph-name="acircumflex" unicode="&#xe2;" horiz-adv-x="727" 
d="M314 502l-151 -356h401l-148 356h-102zM282 553h170l235 -553h-58l-40 93h-448l-41 -93h-60zM489 608l-126 78l-126 -78l-24 30l150 110l150 -110z" />
    <glyph glyph-name="atilde" unicode="&#xe3;" horiz-adv-x="727" 
d="M314 502l-151 -356h401l-148 356h-102zM282 553h170l235 -553h-58l-40 93h-448l-41 -93h-60zM523 711l26.001 -32.001c-26 -33.333 -63 -50 -111 -50c-17.333 0 -40.666 6.33301 -69.999 19s-52.333 19 -69 19c-38.667 0 -69.334 -14.333 -92.001 -43l-30 31
c30.667 39.333 71 59 121 59c25.333 0 51.666 -6 78.999 -18s48 -18 62 -18c20 0 36 2.33301 48 7s24 13.334 36 26.001z" />
    <glyph glyph-name="adieresis" unicode="&#xe4;" horiz-adv-x="727" 
d="M314 502l-151 -356h401l-148 356h-102zM282 553h170l235 -553h-58l-40 93h-448l-41 -93h-60zM244 735c15.333 0 28.166 -5.16699 38.499 -15.5s15.5 -22.5 15.5 -36.5s-5.16699 -26.167 -15.5 -36.5s-23.166 -15.5 -38.499 -15.5c-14.667 0 -27.167 5.16699 -37.5 15.5
s-15.5 22.5 -15.5 36.5s5.16699 26.167 15.5 36.5s22.833 15.5 37.5 15.5zM481 735c15.333 0 28.166 -5.16699 38.499 -15.5s15.5 -22.5 15.5 -36.5s-5.16699 -26.167 -15.5 -36.5s-23.166 -15.5 -38.499 -15.5c-14.667 0 -27.167 5.16699 -37.5 15.5s-15.5 22.5 -15.5 36.5
s5.16699 26.167 15.5 36.5s22.833 15.5 37.5 15.5z" />
    <glyph glyph-name="aring" unicode="&#xe5;" horiz-adv-x="727" 
d="M314 502l-151 -356h401l-148 356h-102zM282 553h170l235 -553h-58l-40 93h-448l-41 -93h-60zM494 726c0 -36.667 -12.667 -66 -38 -88s-56.333 -33 -93 -33s-67.667 11 -93 33s-38 51.333 -38 88s12.667 66 38 88s56.333 33 93 33s67.667 -11 93 -33s38 -51.333 38 -88z
M283 726c0 -22.667 7.5 -41 22.5 -55s34.167 -21 57.5 -21s42.5 7 57.5 21s22.5 32.333 22.5 55s-7.5 41 -22.5 55s-34.167 21 -57.5 21s-42.5 -7 -57.5 -21s-22.5 -32.333 -22.5 -55z" />
    <glyph glyph-name="ae" unicode="&#xe6;" horiz-adv-x="1107" 
d="M382 553h654v-51h-427v-192h384v-51h-384v-208h448v-51h-504v109h-402l-76 -109h-66zM409 502l-218 -338h362v338h-144z" />
    <glyph glyph-name="ccedilla" unicode="&#xe7;" horiz-adv-x="643" 
d="M606 445l-45.998 -28.0029c-49.333 64 -122.333 96 -219 96c-74 0 -133.167 -21.5 -177.5 -64.5s-66.5 -100.167 -66.5 -171.5c0 -69.333 22.667 -126.5 68 -171.5s104 -67.5 176 -67.5c92 0 165.333 33 220 99l47 -29c-60 -76 -141.333 -116.333 -244 -121v-35
c69.333 -3.33301 104 -31.333 104 -84c0 -31.333 -12.333 -55.166 -37 -71.499s-55.334 -24.5 -92.001 -24.5c-32 0 -60.333 6.66699 -85 20l15 43c22 -10 46.333 -15 73 -15c48 0 72 16 72 48c0 25.333 -20.333 38 -61 38h-45l-6 6l8 76
c-80.667 6.66699 -145.834 35.834 -195.501 87.501s-74.5 118.834 -74.5 201.501c0 88 28.5 158.167 85.5 210.5s129.833 78.5 218.5 78.5c114 0 201.333 -40.333 262 -121z" />
    <glyph glyph-name="egrave" unicode="&#xe8;" horiz-adv-x="607" 
d="M60 553h481v-51h-425v-192h382v-51h-382v-208h441v-51h-497v553zM301 818l48 -188l-46 -10l-54 186z" />
    <glyph glyph-name="eacute" unicode="&#xe9;" horiz-adv-x="607" 
d="M60 553h481v-51h-425v-192h382v-51h-382v-208h441v-51h-497v553zM288 630l48 188l52 -12l-54 -186z" />
    <glyph glyph-name="ecircumflex" unicode="&#xea;" horiz-adv-x="607" 
d="M60 553h481v-51h-425v-192h382v-51h-382v-208h441v-51h-497v553zM438 608l-126 78l-126 -78l-24 30l150 110l150 -110z" />
    <glyph glyph-name="edieresis" unicode="&#xeb;" horiz-adv-x="607" 
d="M60 553h481v-51h-425v-192h382v-51h-382v-208h441v-51h-497v553zM181 735c15.333 0 28.166 -5.16699 38.499 -15.5s15.5 -22.5 15.5 -36.5s-5.16699 -26.167 -15.5 -36.5s-23.166 -15.5 -38.499 -15.5c-14.667 0 -27.167 5.16699 -37.5 15.5s-15.5 22.5 -15.5 36.5
s5.16699 26.167 15.5 36.5s22.833 15.5 37.5 15.5zM418 735c15.333 0 28.166 -5.16699 38.499 -15.5s15.5 -22.5 15.5 -36.5s-5.16699 -26.167 -15.5 -36.5s-23.166 -15.5 -38.499 -15.5c-14.667 0 -27.167 5.16699 -37.5 15.5s-15.5 22.5 -15.5 36.5
s5.16699 26.167 15.5 36.5s22.833 15.5 37.5 15.5z" />
    <glyph glyph-name="igrave" unicode="&#xec;" horiz-adv-x="176" 
d="M60 553h56v-553h-56v553zM65 818l48 -188l-46 -10l-54 186z" />
    <glyph glyph-name="iacute" unicode="&#xed;" horiz-adv-x="176" 
d="M60 553h56v-553h-56v553zM64 630l48 188l52 -12l-54 -186z" />
    <glyph glyph-name="icircumflex" unicode="&#xee;" horiz-adv-x="176" 
d="M60 553h56v-553h-56v553zM214 608l-126 78l-126 -78l-24 30l150 110l150 -110z" />
    <glyph glyph-name="idieresis" unicode="&#xef;" horiz-adv-x="176" 
d="M60 553h56v-553h-56v553zM-31 735c15.333 0 28.166 -5.16699 38.499 -15.5s15.5 -22.5 15.5 -36.5s-5.16699 -26.167 -15.5 -36.5s-23.166 -15.5 -38.499 -15.5c-14.667 0 -27.167 5.16699 -37.5 15.5s-15.5 22.5 -15.5 36.5s5.16699 26.167 15.5 36.5
s22.833 15.5 37.5 15.5zM206 735c15.333 0 28.166 -5.16699 38.499 -15.5s15.5 -22.5 15.5 -36.5s-5.16699 -26.167 -15.5 -36.5s-23.166 -15.5 -38.499 -15.5c-14.667 0 -27.167 5.16699 -37.5 15.5s-15.5 22.5 -15.5 36.5s5.16699 26.167 15.5 36.5s22.833 15.5 37.5 15.5
z" />
    <glyph glyph-name="eth" unicode="&#xf0;" horiz-adv-x="674" 
d="M71 553l267 -0.000976562c85.333 0 156 -24.667 212 -74s84 -116.666 84 -201.999c0 -84.667 -28.5 -152 -85.5 -202s-127.167 -75 -210.5 -75h-267v265h-61v51h61v237zM127 501.999v-185.999h174v-51h-174v-214h204c76 0 136.167 20.333 180.5 61s66.5 95.667 66.5 165
s-22.167 124.166 -66.5 164.499s-104.5 60.5 -180.5 60.5h-204z" />
    <glyph glyph-name="ntilde" unicode="&#xf1;" horiz-adv-x="682" 
d="M60 553h70l437 -488v488h55v-553h-71l-436 490v-490h-55v553zM501 711l26.001 -32.001c-26 -33.333 -63 -50 -111 -50c-17.333 0 -40.666 6.33301 -69.999 19s-52.333 19 -69 19c-38.667 0 -69.334 -14.333 -92.001 -43l-30 31c30.667 39.333 71 59 121 59
c25.333 0 51.666 -6 78.999 -18s48 -18 62 -18c20 0 36 2.33301 48 7s24 13.334 36 26.001z" />
    <glyph glyph-name="ograve" unicode="&#xf2;" 
d="M96 276c0.666992 -74 24.5 -132.167 71.5 -174.5s106.833 -63.5 179.5 -63.5s132.667 21.167 180 63.5s71 100.5 71 174.5s-23.667 132.167 -71 174.5s-107.333 63.5 -180 63.5s-132.5 -21.167 -179.5 -63.5s-70.833 -100.5 -71.5 -174.5zM654 276
c0 -86.667 -28.833 -156.667 -86.5 -210s-131.167 -80 -220.5 -80s-162.833 26.667 -220.5 80s-86.5 123.333 -86.5 210s28.833 156.667 86.5 210s131.167 80 220.5 80s162.833 -26.667 220.5 -80s86.5 -123.333 86.5 -210zM313 818l48 -188l-46 -10l-54 186z" />
    <glyph glyph-name="oacute" unicode="&#xf3;" 
d="M96 276c0.666992 -74 24.5 -132.167 71.5 -174.5s106.833 -63.5 179.5 -63.5s132.667 21.167 180 63.5s71 100.5 71 174.5s-23.667 132.167 -71 174.5s-107.333 63.5 -180 63.5s-132.5 -21.167 -179.5 -63.5s-70.833 -100.5 -71.5 -174.5zM654 276
c0 -86.667 -28.833 -156.667 -86.5 -210s-131.167 -80 -220.5 -80s-162.833 26.667 -220.5 80s-86.5 123.333 -86.5 210s28.833 156.667 86.5 210s131.167 80 220.5 80s162.833 -26.667 220.5 -80s86.5 -123.333 86.5 -210zM333 630l48 188l52 -12l-54 -186z" />
    <glyph glyph-name="ocircumflex" unicode="&#xf4;" 
d="M96 276c0.666992 -74 24.5 -132.167 71.5 -174.5s106.833 -63.5 179.5 -63.5s132.667 21.167 180 63.5s71 100.5 71 174.5s-23.667 132.167 -71 174.5s-107.333 63.5 -180 63.5s-132.5 -21.167 -179.5 -63.5s-70.833 -100.5 -71.5 -174.5zM654 276
c0 -86.667 -28.833 -156.667 -86.5 -210s-131.167 -80 -220.5 -80s-162.833 26.667 -220.5 80s-86.5 123.333 -86.5 210s28.833 156.667 86.5 210s131.167 80 220.5 80s162.833 -26.667 220.5 -80s86.5 -123.333 86.5 -210zM473 608l-126 78l-126 -78l-24 30l150 110
l150 -110z" />
    <glyph glyph-name="otilde" unicode="&#xf5;" 
d="M96 276c0.666992 -74 24.5 -132.167 71.5 -174.5s106.833 -63.5 179.5 -63.5s132.667 21.167 180 63.5s71 100.5 71 174.5s-23.667 132.167 -71 174.5s-107.333 63.5 -180 63.5s-132.5 -21.167 -179.5 -63.5s-70.833 -100.5 -71.5 -174.5zM654 276
c0 -86.667 -28.833 -156.667 -86.5 -210s-131.167 -80 -220.5 -80s-162.833 26.667 -220.5 80s-86.5 123.333 -86.5 210s28.833 156.667 86.5 210s131.167 80 220.5 80s162.833 -26.667 220.5 -80s86.5 -123.333 86.5 -210zM507 718l26.001 -32.001
c-26 -33.333 -63 -50 -111 -50c-17.333 0 -40.666 6.33301 -69.999 19s-52.333 19 -69 19c-38.667 0 -69.334 -14.333 -92.001 -43l-30 31c30.667 39.333 71 59 121 59c25.333 0 51.666 -6 78.999 -18s48 -18 62 -18c20 0 36 2.33301 48 7s24 13.334 36 26.001z" />
    <glyph glyph-name="odieresis" unicode="&#xf6;" 
d="M96 276c0.666992 -74 24.5 -132.167 71.5 -174.5s106.833 -63.5 179.5 -63.5s132.667 21.167 180 63.5s71 100.5 71 174.5s-23.667 132.167 -71 174.5s-107.333 63.5 -180 63.5s-132.5 -21.167 -179.5 -63.5s-70.833 -100.5 -71.5 -174.5zM654 276
c0 -86.667 -28.833 -156.667 -86.5 -210s-131.167 -80 -220.5 -80s-162.833 26.667 -220.5 80s-86.5 123.333 -86.5 210s28.833 156.667 86.5 210s131.167 80 220.5 80s162.833 -26.667 220.5 -80s86.5 -123.333 86.5 -210zM228 735c15.333 0 28.166 -5.16699 38.499 -15.5
s15.5 -22.5 15.5 -36.5s-5.16699 -26.167 -15.5 -36.5s-23.166 -15.5 -38.499 -15.5c-14.667 0 -27.167 5.16699 -37.5 15.5s-15.5 22.5 -15.5 36.5s5.16699 26.167 15.5 36.5s22.833 15.5 37.5 15.5zM465 735c15.333 0 28.166 -5.16699 38.499 -15.5s15.5 -22.5 15.5 -36.5
s-5.16699 -26.167 -15.5 -36.5s-23.166 -15.5 -38.499 -15.5c-14.667 0 -27.167 5.16699 -37.5 15.5s-15.5 22.5 -15.5 36.5s5.16699 26.167 15.5 36.5s22.833 15.5 37.5 15.5z" />
    <glyph glyph-name="divide" unicode="&#xf7;" horiz-adv-x="396" 
d="M198 489c16 0 29.5 -5.5 40.5 -16.5s16.5 -24.5 16.5 -40.5s-5.5 -29.333 -16.5 -40s-24.5 -16 -40.5 -16s-29.5 5.33301 -40.5 16s-16.5 24 -16.5 40s5.5 29.5 16.5 40.5s24.5 16.5 40.5 16.5zM198 191c16 0 29.5 -5.5 40.5 -16.5s16.5 -24.5 16.5 -40.5
s-5.5 -29.333 -16.5 -40s-24.5 -16 -40.5 -16s-29.5 5.33301 -40.5 16s-16.5 24 -16.5 40s5.5 29.5 16.5 40.5s24.5 16.5 40.5 16.5zM40 309h316v-51h-316v51z" />
    <glyph glyph-name="oslash" unicode="&#xf8;" 
d="M498 588l48 -27l-24 -41c41.333 -25.333 73.666 -59 96.999 -101s35 -89.667 35 -143c0 -86.667 -28.833 -156.667 -86.5 -210s-131.167 -80 -220.5 -80c-41.333 0 -81 6.33301 -119 19l-25 -45l-48 27l23 40c-43.333 24.667 -77.166 58.5 -101.499 101.5
s-36.5 92.167 -36.5 147.5c0 86.667 28.833 156.667 86.5 210s131.167 80 220.5 80c44 0 86 -7.33301 126 -22zM205 73l241 424.001c-30.667 11.333 -63.667 17 -99 17c-72.667 0 -132.5 -21.167 -179.5 -63.5s-70.833 -100.5 -71.5 -174.5
c0 -92.667 36.333 -160.334 109 -203.001zM496 474.001l-241 -422c29.333 -9.33301 60 -14 92 -14c72.667 0 132.667 21.167 180 63.5s71 100.5 71 174.5c0 88 -34 154 -102 198z" />
    <glyph glyph-name="ugrave" unicode="&#xf9;" horiz-adv-x="664" 
d="M55 553h56v-284c0 -71.333 18.333 -127.666 55 -168.999s92 -62 166 -62c73.333 0 128.5 20.667 165.5 62s55.5 97.666 55.5 168.999v284h56v-283c0 -90.667 -24.833 -160.667 -74.5 -210s-117.167 -74 -202.5 -74c-86 0 -153.667 24.667 -203 74s-74 119.333 -74 210
v283zM310 818l48 -188l-46 -10l-54 186z" />
    <glyph glyph-name="uacute" unicode="&#xfa;" horiz-adv-x="664" 
d="M55 553h56v-284c0 -71.333 18.333 -127.666 55 -168.999s92 -62 166 -62c73.333 0 128.5 20.667 165.5 62s55.5 97.666 55.5 168.999v284h56v-283c0 -90.667 -24.833 -160.667 -74.5 -210s-117.167 -74 -202.5 -74c-86 0 -153.667 24.667 -203 74s-74 119.333 -74 210
v283zM300 630l48 188l52 -12l-54 -186z" />
    <glyph glyph-name="ucircumflex" unicode="&#xfb;" horiz-adv-x="664" 
d="M55 553h56v-284c0 -71.333 18.333 -127.666 55 -168.999s92 -62 166 -62c73.333 0 128.5 20.667 165.5 62s55.5 97.666 55.5 168.999v284h56v-283c0 -90.667 -24.833 -160.667 -74.5 -210s-117.167 -74 -202.5 -74c-86 0 -153.667 24.667 -203 74s-74 119.333 -74 210
v283zM458 608l-126 78l-126 -78l-24 30l150 110l150 -110z" />
    <glyph glyph-name="udieresis" unicode="&#xfc;" horiz-adv-x="664" 
d="M55 553h56v-284c0 -71.333 18.333 -127.666 55 -168.999s92 -62 166 -62c73.333 0 128.5 20.667 165.5 62s55.5 97.666 55.5 168.999v284h56v-283c0 -90.667 -24.833 -160.667 -74.5 -210s-117.167 -74 -202.5 -74c-86 0 -153.667 24.667 -203 74s-74 119.333 -74 210
v283zM213 735c15.333 0 28.166 -5.16699 38.499 -15.5s15.5 -22.5 15.5 -36.5s-5.16699 -26.167 -15.5 -36.5s-23.166 -15.5 -38.499 -15.5c-14.667 0 -27.167 5.16699 -37.5 15.5s-15.5 22.5 -15.5 36.5s5.16699 26.167 15.5 36.5s22.833 15.5 37.5 15.5zM450 735
c15.333 0 28.166 -5.16699 38.499 -15.5s15.5 -22.5 15.5 -36.5s-5.16699 -26.167 -15.5 -36.5s-23.166 -15.5 -38.499 -15.5c-14.667 0 -27.167 5.16699 -37.5 15.5s-15.5 22.5 -15.5 36.5s5.16699 26.167 15.5 36.5s22.833 15.5 37.5 15.5z" />
    <glyph glyph-name="yacute" unicode="&#xfd;" horiz-adv-x="656" 
d="M30 553h65l225 -350h19l222 350h65l-270 -415v-138h-56v138zM309 630l48 188l52 -12l-54 -186z" />
    <glyph glyph-name="thorn" unicode="&#xfe;" horiz-adv-x="600" 
d="M60 553h56v-75h242c56.667 0 104.5 -19.333 143.5 -58s58.5 -86.667 58.5 -144s-19.5 -105 -58.5 -143s-86.833 -57 -143.5 -57h-242v-76h-56v553zM116 426v-297.999h237c48.667 0 86 14 112 42s39 63.333 39 106c0 43.333 -13 79.166 -39 107.499
s-63.333 42.5 -112 42.5h-237z" />
    <glyph glyph-name="ydieresis" unicode="&#xff;" horiz-adv-x="656" 
d="M30 553h65l225 -350h19l222 350h65l-270 -415v-138h-56v138zM209 735c15.333 0 28.166 -5.16699 38.499 -15.5s15.5 -22.5 15.5 -36.5s-5.16699 -26.167 -15.5 -36.5s-23.166 -15.5 -38.499 -15.5c-14.667 0 -27.167 5.16699 -37.5 15.5s-15.5 22.5 -15.5 36.5
s5.16699 26.167 15.5 36.5s22.833 15.5 37.5 15.5zM446 735c15.333 0 28.166 -5.16699 38.499 -15.5s15.5 -22.5 15.5 -36.5s-5.16699 -26.167 -15.5 -36.5s-23.166 -15.5 -38.499 -15.5c-14.667 0 -27.167 5.16699 -37.5 15.5s-15.5 22.5 -15.5 36.5
s5.16699 26.167 15.5 36.5s22.833 15.5 37.5 15.5z" />
    <glyph glyph-name="Amacron" unicode="&#x100;" horiz-adv-x="727" 
d="M314 502l-151 -356h401l-148 356h-102zM282 553h170l235 -553h-58l-40 93h-448l-41 -93h-60zM196 696h335v-50h-335v50z" />
    <glyph glyph-name="amacron" unicode="&#x101;" horiz-adv-x="727" 
d="M314 502l-151 -356h401l-148 356h-102zM282 553h170l235 -553h-58l-40 93h-448l-41 -93h-60zM196 696h335v-50h-335v50z" />
    <glyph glyph-name="Abreve" unicode="&#x102;" horiz-adv-x="727" 
d="M314 502l-151 -356h401l-148 356h-102zM282 553h170l235 -553h-58l-40 93h-448l-41 -93h-60zM472 726l35 -26c-34 -53.333 -82 -80 -144 -80s-110 26.667 -144 80l35 26c30 -39.333 66.333 -59 109 -59s79 19.667 109 59z" />
    <glyph glyph-name="abreve" unicode="&#x103;" horiz-adv-x="727" 
d="M314 502l-151 -356h401l-148 356h-102zM282 553h170l235 -553h-58l-40 93h-448l-41 -93h-60zM472 726l35 -26c-34 -53.333 -82 -80 -144 -80s-110 26.667 -144 80l35 26c30 -39.333 66.333 -59 109 -59s79 19.667 109 59z" />
    <glyph glyph-name="Aogonek" unicode="&#x104;" horiz-adv-x="727" 
d="M282 553h170l235 -553c-17.333 -17.333 -26 -40.333 -26 -69c0 -24 4.66699 -43.333 14 -58s24 -28.334 44 -41.001l-32 -26c-52 23.333 -78 59.333 -78 108c0 34.667 10.333 63.334 31 86.001h-11l-40 93h-448l-41 -93h-60zM314 502l-151 -356h401l-148 356h-102z" />
    <glyph glyph-name="aogonek" unicode="&#x105;" horiz-adv-x="727" 
d="M282 553h170l235 -553c-17.333 -17.333 -26 -40.333 -26 -69c0 -24 4.66699 -43.333 14 -58s24 -28.334 44 -41.001l-32 -26c-52 23.333 -78 59.333 -78 108c0 34.667 10.333 63.334 31 86.001h-11l-40 93h-448l-41 -93h-60zM314 502l-151 -356h401l-148 356h-102z" />
    <glyph glyph-name="Cacute" unicode="&#x106;" horiz-adv-x="643" 
d="M606 445l-46 -28.001c-49.333 64 -122.333 96 -219 96c-74 0 -133.167 -21.5 -177.5 -64.5s-66.5 -100.167 -66.5 -171.5c0 -69.333 22.667 -126.5 68 -171.5s104 -67.5 176 -67.5c92 0 165.333 33 220 99l47 -29c-64 -81.333 -152 -122 -264 -122
c-89.333 0 -162.333 26.333 -219 79s-85 123.334 -85 212.001c0 88 28.5 158.167 85.5 210.5s129.833 78.5 218.5 78.5c114 0 201.333 -40.333 262 -121zM333 629.999l48 188l52 -12l-54 -186z" />
    <glyph glyph-name="cacute" unicode="&#x107;" horiz-adv-x="643" 
d="M606 445l-46 -28.001c-49.333 64 -122.333 96 -219 96c-74 0 -133.167 -21.5 -177.5 -64.5s-66.5 -100.167 -66.5 -171.5c0 -69.333 22.667 -126.5 68 -171.5s104 -67.5 176 -67.5c92 0 165.333 33 220 99l47 -29c-64 -81.333 -152 -122 -264 -122
c-89.333 0 -162.333 26.333 -219 79s-85 123.334 -85 212.001c0 88 28.5 158.167 85.5 210.5s129.833 78.5 218.5 78.5c114 0 201.333 -40.333 262 -121zM333 629.999l48 188l52 -12l-54 -186z" />
    <glyph glyph-name="Ccircumflex" unicode="&#x108;" horiz-adv-x="643" 
d="M606 445l-46 -28.001c-49.333 64 -122.333 96 -219 96c-74 0 -133.167 -21.5 -177.5 -64.5s-66.5 -100.167 -66.5 -171.5c0 -69.333 22.667 -126.5 68 -171.5s104 -67.5 176 -67.5c92 0 165.333 33 220 99l47 -29c-64 -81.333 -152 -122 -264 -122
c-89.333 0 -162.333 26.333 -219 79s-85 123.334 -85 212.001c0 88 28.5 158.167 85.5 210.5s129.833 78.5 218.5 78.5c114 0 201.333 -40.333 262 -121zM474 607.999l-126 78l-126 -78l-24 30l150 110l150 -110z" />
    <glyph glyph-name="ccircumflex" unicode="&#x109;" horiz-adv-x="643" 
d="M606 445l-46 -28.001c-49.333 64 -122.333 96 -219 96c-74 0 -133.167 -21.5 -177.5 -64.5s-66.5 -100.167 -66.5 -171.5c0 -69.333 22.667 -126.5 68 -171.5s104 -67.5 176 -67.5c92 0 165.333 33 220 99l47 -29c-64 -81.333 -152 -122 -264 -122
c-89.333 0 -162.333 26.333 -219 79s-85 123.334 -85 212.001c0 88 28.5 158.167 85.5 210.5s129.833 78.5 218.5 78.5c114 0 201.333 -40.333 262 -121zM474 607.999l-126 78l-126 -78l-24 30l150 110l150 -110z" />
    <glyph glyph-name="Cdotaccent" unicode="&#x10a;" horiz-adv-x="643" 
d="M606 445l-46 -28.001c-49.333 64 -122.333 96 -219 96c-74 0 -133.167 -21.5 -177.5 -64.5s-66.5 -100.167 -66.5 -171.5c0 -69.333 22.667 -126.5 68 -171.5s104 -67.5 176 -67.5c92 0 165.333 33 220 99l47 -29c-64 -81.333 -152 -122 -264 -122
c-89.333 0 -162.333 26.333 -219 79s-85 123.334 -85 212.001c0 88 28.5 158.167 85.5 210.5s129.833 78.5 218.5 78.5c114 0 201.333 -40.333 262 -121zM350 738.999c17.333 0 31.833 -5.66699 43.5 -17s17.5 -25 17.5 -41s-5.83301 -29.833 -17.5 -41.5
s-26.167 -17.5 -43.5 -17.5c-16.667 0 -30.667 5.83301 -42 17.5s-17 25.5 -17 41.5c0 15.333 5.83301 28.833 17.5 40.5s25.5 17.5 41.5 17.5z" />
    <glyph glyph-name="cdotaccent" unicode="&#x10b;" horiz-adv-x="643" 
d="M606 445l-46 -28.001c-49.333 64 -122.333 96 -219 96c-74 0 -133.167 -21.5 -177.5 -64.5s-66.5 -100.167 -66.5 -171.5c0 -69.333 22.667 -126.5 68 -171.5s104 -67.5 176 -67.5c92 0 165.333 33 220 99l47 -29c-64 -81.333 -152 -122 -264 -122
c-89.333 0 -162.333 26.333 -219 79s-85 123.334 -85 212.001c0 88 28.5 158.167 85.5 210.5s129.833 78.5 218.5 78.5c114 0 201.333 -40.333 262 -121zM350 738.999c17.333 0 31.833 -5.66699 43.5 -17s17.5 -25 17.5 -41s-5.83301 -29.833 -17.5 -41.5
s-26.167 -17.5 -43.5 -17.5c-16.667 0 -30.667 5.83301 -42 17.5s-17 25.5 -17 41.5c0 15.333 5.83301 28.833 17.5 40.5s25.5 17.5 41.5 17.5z" />
    <glyph glyph-name="Ccaron" unicode="&#x10c;" horiz-adv-x="643" 
d="M606 445l-46 -28.001c-49.333 64 -122.333 96 -219 96c-74 0 -133.167 -21.5 -177.5 -64.5s-66.5 -100.167 -66.5 -171.5c0 -69.333 22.667 -126.5 68 -171.5s104 -67.5 176 -67.5c92 0 165.333 33 220 99l47 -29c-64 -81.333 -152 -122 -264 -122
c-89.333 0 -162.333 26.333 -219 79s-85 123.334 -85 212.001c0 88 28.5 158.167 85.5 210.5s129.833 78.5 218.5 78.5c114 0 201.333 -40.333 262 -121zM228 757.999l126 -78l126 78l24 -30l-150 -110l-150 110z" />
    <glyph glyph-name="ccaron" unicode="&#x10d;" horiz-adv-x="643" 
d="M606 445l-46 -28.001c-49.333 64 -122.333 96 -219 96c-74 0 -133.167 -21.5 -177.5 -64.5s-66.5 -100.167 -66.5 -171.5c0 -69.333 22.667 -126.5 68 -171.5s104 -67.5 176 -67.5c92 0 165.333 33 220 99l47 -29c-64 -81.333 -152 -122 -264 -122
c-89.333 0 -162.333 26.333 -219 79s-85 123.334 -85 212.001c0 88 28.5 158.167 85.5 210.5s129.833 78.5 218.5 78.5c114 0 201.333 -40.333 262 -121zM228 757.999l126 -78l126 78l24 -30l-150 -110l-150 110z" />
    <glyph glyph-name="Dcaron" unicode="&#x10e;" horiz-adv-x="663" 
d="M60 553l267 -0.000976562c85.333 0 156 -24.667 212 -74s84 -116.666 84 -201.999c0 -84.667 -28.5 -152 -85.5 -202s-127.167 -75 -210.5 -75h-267v553zM116 501.999v-450.999h204c76 0 136.167 20.333 180.5 61s66.5 95.667 66.5 165s-22.167 124.166 -66.5 164.499
s-104.5 60.5 -180.5 60.5h-204zM178 758l126 -78l126 78l24 -30l-150 -110l-150 110z" />
    <glyph glyph-name="dcaron" unicode="&#x10f;" horiz-adv-x="663" 
d="M60 553l267 -0.000976562c85.333 0 156 -24.667 212 -74s84 -116.666 84 -201.999c0 -84.667 -28.5 -152 -85.5 -202s-127.167 -75 -210.5 -75h-267v553zM116 501.999v-450.999h204c76 0 136.167 20.333 180.5 61s66.5 95.667 66.5 165s-22.167 124.166 -66.5 164.499
s-104.5 60.5 -180.5 60.5h-204zM178 758l126 -78l126 78l24 -30l-150 -110l-150 110z" />
    <glyph glyph-name="Dcroat" unicode="&#x110;" horiz-adv-x="674" 
d="M71 553l267 -0.000976562c85.333 0 156 -24.667 212 -74s84 -116.666 84 -201.999c0 -84.667 -28.5 -152 -85.5 -202s-127.167 -75 -210.5 -75h-267v265h-61v51h61v237zM127 501.999v-185.999h174v-51h-174v-214h204c76 0 136.167 20.333 180.5 61s66.5 95.667 66.5 165
s-22.167 124.166 -66.5 164.499s-104.5 60.5 -180.5 60.5h-204z" />
    <glyph glyph-name="dcroat" unicode="&#x111;" horiz-adv-x="674" 
d="M71 553l267 -0.000976562c85.333 0 156 -24.667 212 -74s84 -116.666 84 -201.999c0 -84.667 -28.5 -152 -85.5 -202s-127.167 -75 -210.5 -75h-267v265h-61v51h61v237zM127 501.999v-185.999h174v-51h-174v-214h204c76 0 136.167 20.333 180.5 61s66.5 95.667 66.5 165
s-22.167 124.166 -66.5 164.499s-104.5 60.5 -180.5 60.5h-204z" />
    <glyph glyph-name="Emacron" unicode="&#x112;" horiz-adv-x="607" 
d="M60 553h481v-51h-425v-192h382v-51h-382v-208h441v-51h-497v553zM142 696h335v-50h-335v50z" />
    <glyph glyph-name="emacron" unicode="&#x113;" horiz-adv-x="607" 
d="M60 553h481v-51h-425v-192h382v-51h-382v-208h441v-51h-497v553zM142 696h335v-50h-335v50z" />
    <glyph glyph-name="Ebreve" unicode="&#x114;" horiz-adv-x="607" 
d="M60 553h481v-51h-425v-192h382v-51h-382v-208h441v-51h-497v553zM425 732l35 -26c-34 -53.333 -82 -80 -144 -80s-110 26.667 -144 80l35 26c30 -39.333 66.333 -59 109 -59s79 19.667 109 59z" />
    <glyph glyph-name="ebreve" unicode="&#x115;" horiz-adv-x="607" 
d="M60 553h481v-51h-425v-192h382v-51h-382v-208h441v-51h-497v553zM425 732l35 -26c-34 -53.333 -82 -80 -144 -80s-110 26.667 -144 80l35 26c30 -39.333 66.333 -59 109 -59s79 19.667 109 59z" />
    <glyph glyph-name="Edotaccent" unicode="&#x116;" horiz-adv-x="607" 
d="M60 553h481v-51h-425v-192h382v-51h-382v-208h441v-51h-497v553zM306 739c17.333 0 31.833 -5.66699 43.5 -17s17.5 -25 17.5 -41s-5.83301 -29.833 -17.5 -41.5s-26.167 -17.5 -43.5 -17.5c-16.667 0 -30.667 5.83301 -42 17.5s-17 25.5 -17 41.5
c0 15.333 5.83301 28.833 17.5 40.5s25.5 17.5 41.5 17.5z" />
    <glyph glyph-name="edotaccent" unicode="&#x117;" horiz-adv-x="607" 
d="M60 553h481v-51h-425v-192h382v-51h-382v-208h441v-51h-497v553zM306 739c17.333 0 31.833 -5.66699 43.5 -17s17.5 -25 17.5 -41s-5.83301 -29.833 -17.5 -41.5s-26.167 -17.5 -43.5 -17.5c-16.667 0 -30.667 5.83301 -42 17.5s-17 25.5 -17 41.5
c0 15.333 5.83301 28.833 17.5 40.5s25.5 17.5 41.5 17.5z" />
    <glyph glyph-name="Eogonek" unicode="&#x118;" horiz-adv-x="607" 
d="M60 553h481v-51h-425v-192h382v-51h-382v-208h441v-51c-14 -18.667 -21 -41.667 -21 -69c0 -24 4.66699 -43.333 14 -58s24 -28.334 44 -41.001l-32 -26c-52 23.333 -78 59.333 -78 108c0 34.667 10.333 63.334 31 86.001h-455v553z" />
    <glyph glyph-name="eogonek" unicode="&#x119;" horiz-adv-x="607" 
d="M60 553h481v-51h-425v-192h382v-51h-382v-208h441v-51c-14 -18.667 -21 -41.667 -21 -69c0 -24 4.66699 -43.333 14 -58s24 -28.334 44 -41.001l-32 -26c-52 23.333 -78 59.333 -78 108c0 34.667 10.333 63.334 31 86.001h-455v553z" />
    <glyph glyph-name="Ecaron" unicode="&#x11a;" horiz-adv-x="607" 
d="M60 553h481v-51h-425v-192h382v-51h-382v-208h441v-51h-497v553zM189 758l126 -78l126 78l24 -30l-150 -110l-150 110z" />
    <glyph glyph-name="ecaron" unicode="&#x11b;" horiz-adv-x="607" 
d="M60 553h481v-51h-425v-192h382v-51h-382v-208h441v-51h-497v553zM189 758l126 -78l126 78l24 -30l-150 -110l-150 110z" />
    <glyph glyph-name="Gcircumflex" unicode="&#x11c;" horiz-adv-x="682" 
d="M414 301l210.001 -0.00195312v-301h-39l-12 68c-58 -54.667 -134 -82 -228 -82c-90.667 0 -164.167 26.333 -220.5 79s-84.5 123.334 -84.5 212.001c0 88 28.667 158.167 86 210.5s130.333 78.5 219 78.5c114 0 201.333 -39.667 262 -119l-45 -27
c-50 62.667 -123.333 94 -220 94c-74 0 -133.333 -21.667 -178 -65s-67 -100.666 -67 -171.999c0 -68.667 23.167 -125.667 69.5 -171s104.833 -68 175.5 -68c99.333 0 175.666 31.667 228.999 95v116l-157 6v46zM485.001 607.998l-126 78l-126 -78l-24 30l150 110l150 -110
z" />
    <glyph glyph-name="gcircumflex" unicode="&#x11d;" horiz-adv-x="682" 
d="M414 301l210.001 -0.00195312v-301h-39l-12 68c-58 -54.667 -134 -82 -228 -82c-90.667 0 -164.167 26.333 -220.5 79s-84.5 123.334 -84.5 212.001c0 88 28.667 158.167 86 210.5s130.333 78.5 219 78.5c114 0 201.333 -39.667 262 -119l-45 -27
c-50 62.667 -123.333 94 -220 94c-74 0 -133.333 -21.667 -178 -65s-67 -100.666 -67 -171.999c0 -68.667 23.167 -125.667 69.5 -171s104.833 -68 175.5 -68c99.333 0 175.666 31.667 228.999 95v116l-157 6v46zM485.001 607.998l-126 78l-126 -78l-24 30l150 110l150 -110
z" />
    <glyph glyph-name="Gbreve" unicode="&#x11e;" horiz-adv-x="682" 
d="M414 301l210.001 -0.00195312v-301h-39l-12 68c-58 -54.667 -134 -82 -228 -82c-90.667 0 -164.167 26.333 -220.5 79s-84.5 123.334 -84.5 212.001c0 88 28.667 158.167 86 210.5s130.333 78.5 219 78.5c114 0 201.333 -39.667 262 -119l-45 -27
c-50 62.667 -123.333 94 -220 94c-74 0 -133.333 -21.667 -178 -65s-67 -100.666 -67 -171.999c0 -68.667 23.167 -125.667 69.5 -171s104.833 -68 175.5 -68c99.333 0 175.666 31.667 228.999 95v116l-157 6v46zM465.001 731.998l35 -26c-34 -53.333 -82 -80 -144 -80
s-110 26.667 -144 80l35 26c30 -39.333 66.333 -59 109 -59s79 19.667 109 59z" />
    <glyph glyph-name="gbreve" unicode="&#x11f;" horiz-adv-x="682" 
d="M414 301l210.001 -0.00195312v-301h-39l-12 68c-58 -54.667 -134 -82 -228 -82c-90.667 0 -164.167 26.333 -220.5 79s-84.5 123.334 -84.5 212.001c0 88 28.667 158.167 86 210.5s130.333 78.5 219 78.5c114 0 201.333 -39.667 262 -119l-45 -27
c-50 62.667 -123.333 94 -220 94c-74 0 -133.333 -21.667 -178 -65s-67 -100.666 -67 -171.999c0 -68.667 23.167 -125.667 69.5 -171s104.833 -68 175.5 -68c99.333 0 175.666 31.667 228.999 95v116l-157 6v46zM465.001 731.998l35 -26c-34 -53.333 -82 -80 -144 -80
s-110 26.667 -144 80l35 26c30 -39.333 66.333 -59 109 -59s79 19.667 109 59z" />
    <glyph glyph-name="Gdotaccent" unicode="&#x120;" horiz-adv-x="682" 
d="M414 301l210.001 -0.00195312v-301h-39l-12 68c-58 -54.667 -134 -82 -228 -82c-90.667 0 -164.167 26.333 -220.5 79s-84.5 123.334 -84.5 212.001c0 88 28.667 158.167 86 210.5s130.333 78.5 219 78.5c114 0 201.333 -39.667 262 -119l-45 -27
c-50 62.667 -123.333 94 -220 94c-74 0 -133.333 -21.667 -178 -65s-67 -100.666 -67 -171.999c0 -68.667 23.167 -125.667 69.5 -171s104.833 -68 175.5 -68c99.333 0 175.666 31.667 228.999 95v116l-157 6v46zM346.001 738.998c17.333 0 31.833 -5.66699 43.5 -17
s17.5 -25 17.5 -41s-5.83301 -29.833 -17.5 -41.5s-26.167 -17.5 -43.5 -17.5c-16.667 0 -30.667 5.83301 -42 17.5s-17 25.5 -17 41.5c0 15.333 5.83301 28.833 17.5 40.5s25.5 17.5 41.5 17.5z" />
    <glyph glyph-name="gdotaccent" unicode="&#x121;" horiz-adv-x="682" 
d="M414 301l210.001 -0.00195312v-301h-39l-12 68c-58 -54.667 -134 -82 -228 -82c-90.667 0 -164.167 26.333 -220.5 79s-84.5 123.334 -84.5 212.001c0 88 28.667 158.167 86 210.5s130.333 78.5 219 78.5c114 0 201.333 -39.667 262 -119l-45 -27
c-50 62.667 -123.333 94 -220 94c-74 0 -133.333 -21.667 -178 -65s-67 -100.666 -67 -171.999c0 -68.667 23.167 -125.667 69.5 -171s104.833 -68 175.5 -68c99.333 0 175.666 31.667 228.999 95v116l-157 6v46zM346.001 738.998c17.333 0 31.833 -5.66699 43.5 -17
s17.5 -25 17.5 -41s-5.83301 -29.833 -17.5 -41.5s-26.167 -17.5 -43.5 -17.5c-16.667 0 -30.667 5.83301 -42 17.5s-17 25.5 -17 41.5c0 15.333 5.83301 28.833 17.5 40.5s25.5 17.5 41.5 17.5z" />
    <glyph glyph-name="Gcommaaccent" unicode="&#x122;" horiz-adv-x="682" 
d="M414 301l210.001 -0.00195312v-301h-39l-12 68c-58 -54.667 -134 -82 -228 -82c-90.667 0 -164.167 26.333 -220.5 79s-84.5 123.334 -84.5 212.001c0 88 28.667 158.167 86 210.5s130.333 78.5 219 78.5c114 0 201.333 -39.667 262 -119l-45 -27
c-50 62.667 -123.333 94 -220 94c-74 0 -133.333 -21.667 -178 -65s-67 -100.666 -67 -171.999c0 -68.667 23.167 -125.667 69.5 -171s104.833 -68 175.5 -68c99.333 0 175.666 31.667 228.999 95v116l-157 6v46zM352.001 -52.002c16 0 29.5 -5.33301 40.5 -16
s16.5 -24 16.5 -40c0 -6 -1.33301 -13 -4 -21l-51 -129l-30 8l16 87c-13.333 2.66699 -24 9 -32 19s-12 22 -12 36c0 16 5.33301 29.333 16 40s24 16 40 16z" />
    <glyph glyph-name="gcommaaccent" unicode="&#x123;" horiz-adv-x="682" 
d="M414 301l210.001 -0.00195312v-301h-39l-12 68c-58 -54.667 -134 -82 -228 -82c-90.667 0 -164.167 26.333 -220.5 79s-84.5 123.334 -84.5 212.001c0 88 28.667 158.167 86 210.5s130.333 78.5 219 78.5c114 0 201.333 -39.667 262 -119l-45 -27
c-50 62.667 -123.333 94 -220 94c-74 0 -133.333 -21.667 -178 -65s-67 -100.666 -67 -171.999c0 -68.667 23.167 -125.667 69.5 -171s104.833 -68 175.5 -68c99.333 0 175.666 31.667 228.999 95v116l-157 6v46zM352.001 -52.002c16 0 29.5 -5.33301 40.5 -16
s16.5 -24 16.5 -40c0 -6 -1.33301 -13 -4 -21l-51 -129l-30 8l16 87c-13.333 2.66699 -24 9 -32 19s-12 22 -12 36c0 16 5.33301 29.333 16 40s24 16 40 16z" />
    <glyph glyph-name="Hcircumflex" unicode="&#x124;" horiz-adv-x="670" 
d="M60 553h56v-239h438v239h56v-553h-56v262h-438v-262h-56v553zM461 608l-126 78l-126 -78l-24 30l150 110l150 -110z" />
    <glyph glyph-name="hcircumflex" unicode="&#x125;" horiz-adv-x="670" 
d="M60 553h56v-239h438v239h56v-553h-56v262h-438v-262h-56v553zM461 608l-126 78l-126 -78l-24 30l150 110l150 -110z" />
    <glyph glyph-name="Hbar" unicode="&#x126;" horiz-adv-x="670" 
d="M60 553h56v-80h438v80h56v-80h35v-50h-35v-423h-56v262h-438v-262h-56v423h-35v50h35v80zM116 314h438v109h-438v-109z" />
    <glyph glyph-name="hbar" unicode="&#x127;" horiz-adv-x="670" 
d="M60 553h56v-80h438v80h56v-80h35v-50h-35v-423h-56v262h-438v-262h-56v423h-35v50h35v80zM116 314h438v109h-438v-109z" />
    <glyph glyph-name="Itilde" unicode="&#x128;" horiz-adv-x="176" 
d="M60 553h56v-553h-56v553zM248 711l26.001 -32.001c-26 -33.333 -63 -50 -111 -50c-17.333 0 -40.666 6.33301 -69.999 19s-52.333 19 -69 19c-38.667 0 -69.334 -14.333 -92.001 -43l-30 31c30.667 39.333 71 59 121 59c25.333 0 51.666 -6 78.999 -18s48 -18 62 -18
c20 0 36 2.33301 48 7s24 13.334 36 26.001z" />
    <glyph glyph-name="itilde" unicode="&#x129;" horiz-adv-x="176" 
d="M60 553h56v-553h-56v553zM248 711l26.001 -32.001c-26 -33.333 -63 -50 -111 -50c-17.333 0 -40.666 6.33301 -69.999 19s-52.333 19 -69 19c-38.667 0 -69.334 -14.333 -92.001 -43l-30 31c30.667 39.333 71 59 121 59c25.333 0 51.666 -6 78.999 -18s48 -18 62 -18
c20 0 36 2.33301 48 7s24 13.334 36 26.001z" />
    <glyph glyph-name="imacron" unicode="&#x12b;" horiz-adv-x="176" 
d="M60 553h56v-553h-56v553zM-79 696h335v-50h-335v50z" />
    <glyph glyph-name="Ibreve" unicode="&#x12c;" horiz-adv-x="176" 
d="M60 553h56v-553h-56v553zM197 732l35 -26c-34 -53.333 -82 -80 -144 -80s-110 26.667 -144 80l35 26c30 -39.333 66.333 -59 109 -59s79 19.667 109 59z" />
    <glyph glyph-name="Iogonek" unicode="&#x12e;" horiz-adv-x="176" 
d="M60 553h56v-553c-14.667 -21.333 -22 -44.333 -22 -69c0 -24 4.66699 -43.333 14 -58s24 -28.334 44 -41.001l-32 -26c-52 23.333 -78 59.333 -78 108c0 34.667 10.333 63.334 31 86.001h-13v553z" />
    <glyph glyph-name="iogonek" unicode="&#x12f;" horiz-adv-x="176" 
d="M60 553h56v-553c-14.667 -21.333 -22 -44.333 -22 -69c0 -24 4.66699 -43.333 14 -58s24 -28.334 44 -41.001l-32 -26c-52 23.333 -78 59.333 -78 108c0 34.667 10.333 63.334 31 86.001h-13v553z" />
    <glyph glyph-name="Idotaccent" unicode="&#x130;" horiz-adv-x="176" 
d="M60 553h56v-553h-56v553zM87 739c17.333 0 31.833 -5.66699 43.5 -17s17.5 -25 17.5 -41s-5.83301 -29.833 -17.5 -41.5s-26.167 -17.5 -43.5 -17.5c-16.667 0 -30.667 5.83301 -42 17.5s-17 25.5 -17 41.5c0 15.333 5.66699 28.833 17 40.5s25.333 17.5 42 17.5z" />
    <glyph glyph-name="dotlessi" unicode="&#x131;" horiz-adv-x="176" 
d="M60 553h56v-553h-56v553z" />
    <glyph glyph-name="Jcircumflex" unicode="&#x134;" horiz-adv-x="597" 
d="M480 553h55.998v-322c0 -76 -20.5 -135.833 -61.5 -179.5s-105.5 -65.5 -193.5 -65.5c-111.333 0 -191.666 41.667 -240.999 125l47 29c20.667 -34 48.167 -59.667 82.5 -77s70.833 -26 109.5 -26c74.667 0 126.834 17.167 156.501 51.5s44.5 85.5 44.5 153.5v311z
M637.998 608l-126 78l-126 -78l-24 30l150 110l150 -110z" />
    <glyph glyph-name="jcircumflex" unicode="&#x135;" horiz-adv-x="597" 
d="M480 553h55.998v-322c0 -76 -20.5 -135.833 -61.5 -179.5s-105.5 -65.5 -193.5 -65.5c-111.333 0 -191.666 41.667 -240.999 125l47 29c20.667 -34 48.167 -59.667 82.5 -77s70.833 -26 109.5 -26c74.667 0 126.834 17.167 156.501 51.5s44.5 85.5 44.5 153.5v311z
M637.998 608l-126 78l-126 -78l-24 30l150 110l150 -110z" />
    <glyph glyph-name="Kcommaaccent" unicode="&#x136;" horiz-adv-x="632" 
d="M60 553h56v-232h254l160 232h65l-174 -255l190 -298h-66l-173 270h-256v-270h-56v553zM302 -2c16 0 29.5 -5.33301 40.5 -16s16.5 -24 16.5 -40c0 -6 -1.33301 -13 -4 -21l-51 -129l-30 8l16 87c-13.333 2.66699 -24 9 -32 19s-12 22 -12 36c0 16 5.33301 29.333 16 40
s24 16 40 16z" />
    <glyph glyph-name="kcommaaccent" unicode="&#x137;" horiz-adv-x="632" 
d="M60 553h56v-232h254l160 232h65l-174 -255l190 -298h-66l-173 270h-256v-270h-56v553zM302 -2c16 0 29.5 -5.33301 40.5 -16s16.5 -24 16.5 -40c0 -6 -1.33301 -13 -4 -21l-51 -129l-30 8l16 87c-13.333 2.66699 -24 9 -32 19s-12 22 -12 36c0 16 5.33301 29.333 16 40
s24 16 40 16z" />
    <glyph glyph-name="Lacute" unicode="&#x139;" horiz-adv-x="576" 
d="M60 553h56v-501h430v-52h-486v553zM70 617l48 188l52 -12l-54 -186z" />
    <glyph glyph-name="lacute" unicode="&#x13a;" horiz-adv-x="576" 
d="M60 553h56v-501h430v-52h-486v553zM70 617l48 188l52 -12l-54 -186z" />
    <glyph glyph-name="Lcommaaccent" unicode="&#x13b;" horiz-adv-x="576" 
d="M60 553h56v-501h430v-52h-486v553zM305 -52c16 0 29.5 -5.33301 40.5 -16s16.5 -24 16.5 -40c0 -6 -1.33301 -13 -4 -21l-51 -129l-30 8l16 87c-13.333 2.66699 -24 9 -32 19s-12 22 -12 36c0 16 5.33301 29.333 16 40s24 16 40 16z" />
    <glyph glyph-name="lcommaaccent" unicode="&#x13c;" horiz-adv-x="576" 
d="M60 553h56v-501h430v-52h-486v553zM305 -52c16 0 29.5 -5.33301 40.5 -16s16.5 -24 16.5 -40c0 -6 -1.33301 -13 -4 -21l-51 -129l-30 8l16 87c-13.333 2.66699 -24 9 -32 19s-12 22 -12 36c0 16 5.33301 29.333 16 40s24 16 40 16z" />
    <glyph glyph-name="Lcaron" unicode="&#x13d;" horiz-adv-x="576" 
d="M60 553h56v-501h430v-52h-486v553zM315 385l16 87c-13.333 2.66699 -24 9 -32 19s-12 22 -12 36c0 16 5.33301 29.333 16 40s24 16 40 16s29.5 -5.33301 40.5 -16s16.5 -24 16.5 -40c0 -6 -1.33301 -13 -4 -21l-51 -129z" />
    <glyph glyph-name="lcaron" unicode="&#x13e;" horiz-adv-x="576" 
d="M60 553h56v-501h430v-52h-486v553zM315 385l16 87c-13.333 2.66699 -24 9 -32 19s-12 22 -12 36c0 16 5.33301 29.333 16 40s24 16 40 16s29.5 -5.33301 40.5 -16s16.5 -24 16.5 -40c0 -6 -1.33301 -13 -4 -21l-51 -129z" />
    <glyph glyph-name="Ldot" unicode="&#x13f;" horiz-adv-x="576" 
d="M60 553h56v-501h430v-52h-486v553zM308 356c16 0 29.5 -5.5 40.5 -16.5s16.5 -24.5 16.5 -40.5s-5.5 -29.333 -16.5 -40s-24.5 -16 -40.5 -16s-29.5 5.33301 -40.5 16s-16.5 24 -16.5 40s5.5 29.5 16.5 40.5s24.5 16.5 40.5 16.5z" />
    <glyph glyph-name="ldot" unicode="&#x140;" horiz-adv-x="576" 
d="M60 553h56v-501h430v-52h-486v553zM308 356c16 0 29.5 -5.5 40.5 -16.5s16.5 -24.5 16.5 -40.5s-5.5 -29.333 -16.5 -40s-24.5 -16 -40.5 -16s-29.5 5.33301 -40.5 16s-16.5 24 -16.5 40s5.5 29.5 16.5 40.5s24.5 16.5 40.5 16.5z" />
    <glyph glyph-name="Lslash" unicode="&#x141;" horiz-adv-x="597" 
d="M26 238l-20 46l74 33v236h56v-211l111 49l21 -46l-132 -59v-231h431v-55h-487v262z" />
    <glyph glyph-name="lslash" unicode="&#x142;" horiz-adv-x="597" 
d="M26 238l-20 46l74 33v236h56v-211l111 49l21 -46l-132 -59v-231h431v-55h-487v262z" />
    <glyph glyph-name="Nacute" unicode="&#x143;" horiz-adv-x="682" 
d="M60 553h70l437 -488v488h55v-553h-71l-436 490v-490h-55v553zM311 630l48 188l52 -12l-54 -186z" />
    <glyph glyph-name="nacute" unicode="&#x144;" horiz-adv-x="682" 
d="M60 553h70l437 -488v488h55v-553h-71l-436 490v-490h-55v553zM311 630l48 188l52 -12l-54 -186z" />
    <glyph glyph-name="Ncommaaccent" unicode="&#x145;" horiz-adv-x="682" 
d="M60 553h70l437 -488v488h55v-553h-71l-436 490v-490h-55v553zM341 -2c16 0 29.5 -5.33301 40.5 -16s16.5 -24 16.5 -40c0 -6 -1.33301 -13 -4 -21l-51 -129l-30 8l16 87c-13.333 2.66699 -24 9 -32 19s-12 22 -12 36c0 16 5.33301 29.333 16 40s24 16 40 16z" />
    <glyph glyph-name="ncommaaccent" unicode="&#x146;" horiz-adv-x="682" 
d="M60 553h70l437 -488v488h55v-553h-71l-436 490v-490h-55v553zM341 -2c16 0 29.5 -5.33301 40.5 -16s16.5 -24 16.5 -40c0 -6 -1.33301 -13 -4 -21l-51 -129l-30 8l16 87c-13.333 2.66699 -24 9 -32 19s-12 22 -12 36c0 16 5.33301 29.333 16 40s24 16 40 16z" />
    <glyph glyph-name="Ncaron" unicode="&#x147;" horiz-adv-x="682" 
d="M60 553h70l437 -488v488h55v-553h-71l-436 490v-490h-55v553zM215 758l126 -78l126 78l24 -30l-150 -110l-150 110z" />
    <glyph glyph-name="ncaron" unicode="&#x148;" horiz-adv-x="682" 
d="M60 553h70l437 -488v488h55v-553h-71l-436 490v-490h-55v553zM215 758l126 -78l126 78l24 -30l-150 -110l-150 110z" />
    <glyph glyph-name="napostrophe" unicode="&#x149;" horiz-adv-x="753" 
d="M131 553h70l437 -488v488h55v-553h-71l-436 490v-490h-55v553zM37 705c16 0 29.5 -5.33301 40.5 -16s16.5 -24 16.5 -40c0 -6 -1.33301 -13 -4 -21l-51 -129l-30 8l16 87c-13.333 2.66699 -24 9 -32 19s-12 22 -12 36c0 16 5.33301 29.333 16 40s24 16 40 16z" />
    <glyph glyph-name="Omacron" unicode="&#x14c;" 
d="M96 276c0.666992 -74 24.5 -132.167 71.5 -174.5s106.833 -63.5 179.5 -63.5s132.667 21.167 180 63.5s71 100.5 71 174.5s-23.667 132.167 -71 174.5s-107.333 63.5 -180 63.5s-132.5 -21.167 -179.5 -63.5s-70.833 -100.5 -71.5 -174.5zM654 276
c0 -86.667 -28.833 -156.667 -86.5 -210s-131.167 -80 -220.5 -80s-162.833 26.667 -220.5 80s-86.5 123.333 -86.5 210s28.833 156.667 86.5 210s131.167 80 220.5 80s162.833 -26.667 220.5 -80s86.5 -123.333 86.5 -210zM180 696h335v-50h-335v50z" />
    <glyph glyph-name="omacron" unicode="&#x14d;" 
d="M96 276c0.666992 -74 24.5 -132.167 71.5 -174.5s106.833 -63.5 179.5 -63.5s132.667 21.167 180 63.5s71 100.5 71 174.5s-23.667 132.167 -71 174.5s-107.333 63.5 -180 63.5s-132.5 -21.167 -179.5 -63.5s-70.833 -100.5 -71.5 -174.5zM654 276
c0 -86.667 -28.833 -156.667 -86.5 -210s-131.167 -80 -220.5 -80s-162.833 26.667 -220.5 80s-86.5 123.333 -86.5 210s28.833 156.667 86.5 210s131.167 80 220.5 80s162.833 -26.667 220.5 -80s86.5 -123.333 86.5 -210zM180 696h335v-50h-335v50z" />
    <glyph glyph-name="Obreve" unicode="&#x14e;" 
d="M96 276c0.666992 -74 24.5 -132.167 71.5 -174.5s106.833 -63.5 179.5 -63.5s132.667 21.167 180 63.5s71 100.5 71 174.5s-23.667 132.167 -71 174.5s-107.333 63.5 -180 63.5s-132.5 -21.167 -179.5 -63.5s-70.833 -100.5 -71.5 -174.5zM654 276
c0 -86.667 -28.833 -156.667 -86.5 -210s-131.167 -80 -220.5 -80s-162.833 26.667 -220.5 80s-86.5 123.333 -86.5 210s28.833 156.667 86.5 210s131.167 80 220.5 80s162.833 -26.667 220.5 -80s86.5 -123.333 86.5 -210zM456 732l35 -26c-34 -53.333 -82 -80 -144 -80
s-110 26.667 -144 80l35 26c30 -39.333 66.333 -59 109 -59s79 19.667 109 59z" />
    <glyph glyph-name="obreve" unicode="&#x14f;" 
d="M96 276c0.666992 -74 24.5 -132.167 71.5 -174.5s106.833 -63.5 179.5 -63.5s132.667 21.167 180 63.5s71 100.5 71 174.5s-23.667 132.167 -71 174.5s-107.333 63.5 -180 63.5s-132.5 -21.167 -179.5 -63.5s-70.833 -100.5 -71.5 -174.5zM654 276
c0 -86.667 -28.833 -156.667 -86.5 -210s-131.167 -80 -220.5 -80s-162.833 26.667 -220.5 80s-86.5 123.333 -86.5 210s28.833 156.667 86.5 210s131.167 80 220.5 80s162.833 -26.667 220.5 -80s86.5 -123.333 86.5 -210zM456 732l35 -26c-34 -53.333 -82 -80 -144 -80
s-110 26.667 -144 80l35 26c30 -39.333 66.333 -59 109 -59s79 19.667 109 59z" />
    <glyph glyph-name="Ohungarumlaut" unicode="&#x150;" 
d="M96 276c0.666992 -74 24.5 -132.167 71.5 -174.5s106.833 -63.5 179.5 -63.5s132.667 21.167 180 63.5s71 100.5 71 174.5s-23.667 132.167 -71 174.5s-107.333 63.5 -180 63.5s-132.5 -21.167 -179.5 -63.5s-70.833 -100.5 -71.5 -174.5zM654 276
c0 -86.667 -28.833 -156.667 -86.5 -210s-131.167 -80 -220.5 -80s-162.833 26.667 -220.5 80s-86.5 123.333 -86.5 210s28.833 156.667 86.5 210s131.167 80 220.5 80s162.833 -26.667 220.5 -80s86.5 -123.333 86.5 -210zM290 630l44 188l52 -12l-50 -186zM391 630l53 188
l52 -12l-59 -186z" />
    <glyph glyph-name="ohungarumlaut" unicode="&#x151;" 
d="M96 276c0.666992 -74 24.5 -132.167 71.5 -174.5s106.833 -63.5 179.5 -63.5s132.667 21.167 180 63.5s71 100.5 71 174.5s-23.667 132.167 -71 174.5s-107.333 63.5 -180 63.5s-132.5 -21.167 -179.5 -63.5s-70.833 -100.5 -71.5 -174.5zM654 276
c0 -86.667 -28.833 -156.667 -86.5 -210s-131.167 -80 -220.5 -80s-162.833 26.667 -220.5 80s-86.5 123.333 -86.5 210s28.833 156.667 86.5 210s131.167 80 220.5 80s162.833 -26.667 220.5 -80s86.5 -123.333 86.5 -210zM292 630l44 188l52 -12l-50 -186zM393 630l53 188
l52 -12l-59 -186z" />
    <glyph glyph-name="OE" unicode="&#x152;" horiz-adv-x="1071" 
d="M564 553l441 -0.00195312v-51h-385v-192h342v-51h-342v-208h401v-51h-457v85c-56 -66 -132 -99 -228 -99c-84 0 -153.333 25 -208 75c-58.667 52.667 -88 124.334 -88 215.001s29.333 162.334 88 215.001c54.667 50 124 75 208 75c98.667 0 174.667 -33.333 228 -100v87z
M96 275.998c0 -66.667 18.667 -120.667 56 -162c46.667 -50.667 108 -76 184 -76s137.333 25.333 184 76c34.667 38.667 52 92.667 52 162s-17.333 123.333 -52 162c-46.667 50.667 -108 76 -184 76s-137.333 -25.333 -184 -76c-37.333 -41.333 -56 -95.333 -56 -162z" />
    <glyph glyph-name="oe" unicode="&#x153;" horiz-adv-x="1071" 
d="M564 553l441 -0.00195312v-51h-385v-192h342v-51h-342v-208h401v-51h-457v85c-56 -66 -132 -99 -228 -99c-84 0 -153.333 25 -208 75c-58.667 52.667 -88 124.334 -88 215.001s29.333 162.334 88 215.001c54.667 50 124 75 208 75c98.667 0 174.667 -33.333 228 -100v87z
M96 275.998c0 -66.667 18.667 -120.667 56 -162c46.667 -50.667 108 -76 184 -76s137.333 25.333 184 76c34.667 38.667 52 92.667 52 162s-17.333 123.333 -52 162c-46.667 50.667 -108 76 -184 76s-137.333 -25.333 -184 -76c-37.333 -41.333 -56 -95.333 -56 -162z" />
    <glyph glyph-name="Racute" unicode="&#x154;" horiz-adv-x="641" 
d="M60 553l320.999 -0.000976562c62 0 114.167 -19.167 156.5 -57.5s63.5 -88.166 63.5 -149.499c0 -46 -11.667 -85.5 -35 -118.5s-54.666 -56.833 -93.999 -71.5l89 -156h-62l-79 139h-304v-139h-56v553zM115.999 500.999v-310h265c49.333 0 89.166 14 119.499 42
s45.5 65.667 45.5 113s-15.167 85 -45.5 113s-70.166 42 -119.499 42h-265zM271.999 629.999l48 188l52 -12l-54 -186z" />
    <glyph glyph-name="racute" unicode="&#x155;" horiz-adv-x="641" 
d="M60 553l320.999 -0.000976562c62 0 114.167 -19.167 156.5 -57.5s63.5 -88.166 63.5 -149.499c0 -46 -11.667 -85.5 -35 -118.5s-54.666 -56.833 -93.999 -71.5l89 -156h-62l-79 139h-304v-139h-56v553zM115.999 500.999v-310h265c49.333 0 89.166 14 119.499 42
s45.5 65.667 45.5 113s-15.167 85 -45.5 113s-70.166 42 -119.499 42h-265zM271.999 629.999l48 188l52 -12l-54 -186z" />
    <glyph glyph-name="Rcommaaccent" unicode="&#x156;" horiz-adv-x="641" 
d="M60 553l320.999 -0.000976562c62 0 114.167 -19.167 156.5 -57.5s63.5 -88.166 63.5 -149.499c0 -46 -11.667 -85.5 -35 -118.5s-54.666 -56.833 -93.999 -71.5l89 -156h-62l-79 139h-304v-139h-56v553zM115.999 500.999v-310h265c49.333 0 89.166 14 119.499 42
s45.5 65.667 45.5 113s-15.167 85 -45.5 113s-70.166 42 -119.499 42h-265zM304.999 -0.000976562c16 0 29.5 -5.33301 40.5 -16s16.5 -24 16.5 -40c0 -6 -1.33301 -13 -4 -21l-51 -129l-30 8l16 87c-13.333 2.66699 -24 9 -32 19s-12 22 -12 36c0 16 5.33301 29.333 16 40
s24 16 40 16z" />
    <glyph glyph-name="rcommaaccent" unicode="&#x157;" horiz-adv-x="641" 
d="M60 553l320.999 -0.000976562c62 0 114.167 -19.167 156.5 -57.5s63.5 -88.166 63.5 -149.499c0 -46 -11.667 -85.5 -35 -118.5s-54.666 -56.833 -93.999 -71.5l89 -156h-62l-79 139h-304v-139h-56v553zM115.999 500.999v-310h265c49.333 0 89.166 14 119.499 42
s45.5 65.667 45.5 113s-15.167 85 -45.5 113s-70.166 42 -119.499 42h-265zM304.999 -0.000976562c16 0 29.5 -5.33301 40.5 -16s16.5 -24 16.5 -40c0 -6 -1.33301 -13 -4 -21l-51 -129l-30 8l16 87c-13.333 2.66699 -24 9 -32 19s-12 22 -12 36c0 16 5.33301 29.333 16 40
s24 16 40 16z" />
    <glyph glyph-name="Rcaron" unicode="&#x158;" horiz-adv-x="641" 
d="M60 553l320.999 -0.000976562c62 0 114.167 -19.167 156.5 -57.5s63.5 -88.166 63.5 -149.499c0 -46 -11.667 -85.5 -35 -118.5s-54.666 -56.833 -93.999 -71.5l89 -156h-62l-79 139h-304v-139h-56v553zM115.999 500.999v-310h265c49.333 0 89.166 14 119.499 42
s45.5 65.667 45.5 113s-15.167 85 -45.5 113s-70.166 42 -119.499 42h-265zM172.999 757.999l126 -78l126 78l24 -30l-150 -110l-150 110z" />
    <glyph glyph-name="rcaron" unicode="&#x159;" horiz-adv-x="641" 
d="M60 553l320.999 -0.000976562c62 0 114.167 -19.167 156.5 -57.5s63.5 -88.166 63.5 -149.499c0 -46 -11.667 -85.5 -35 -118.5s-54.666 -56.833 -93.999 -71.5l89 -156h-62l-79 139h-304v-139h-56v553zM115.999 500.999v-310h265c49.333 0 89.166 14 119.499 42
s45.5 65.667 45.5 113s-15.167 85 -45.5 113s-70.166 42 -119.499 42h-265zM176.999 757.999l126 -78l126 78l24 -30l-150 -110l-150 110z" />
    <glyph glyph-name="Sacute" unicode="&#x15a;" horiz-adv-x="620" 
d="M554 502l-27.001 -41.998c-68 37.333 -143.667 56 -227 56c-128 0 -192 -34.333 -192 -103c0 -28 9.83301 -48 29.5 -60s49.167 -20.333 88.5 -25l181 -22c55.333 -6.66699 98 -22.834 128 -48.501s45 -60.167 45 -103.5c0 -56.667 -23.667 -98.834 -71 -126.501
s-114 -41.5 -200 -41.5c-104.667 0 -194.334 24.333 -269.001 73l29 46c38.667 -25.333 77.334 -43.166 116.001 -53.499s85.334 -15.5 140.001 -15.5c63.333 0 112.5 9.83301 147.5 29.5s52.5 48.5 52.5 86.5c0 59.333 -43.667 93.666 -131 102.999l-174 19
c-111.333 12 -167 58 -167 138c0 50.667 23.167 89 69.5 115s105.5 39 177.5 39c52.667 0 98.5 -4.5 137.5 -13.5s77.833 -25.833 116.5 -50.5zM294.999 630.002l48 188l52 -12l-54 -186z" />
    <glyph glyph-name="sacute" unicode="&#x15b;" horiz-adv-x="620" 
d="M554 502l-27.001 -41.998c-68 37.333 -143.667 56 -227 56c-128 0 -192 -34.333 -192 -103c0 -28 9.83301 -48 29.5 -60s49.167 -20.333 88.5 -25l181 -22c55.333 -6.66699 98 -22.834 128 -48.501s45 -60.167 45 -103.5c0 -56.667 -23.667 -98.834 -71 -126.501
s-114 -41.5 -200 -41.5c-104.667 0 -194.334 24.333 -269.001 73l29 46c38.667 -25.333 77.334 -43.166 116.001 -53.499s85.334 -15.5 140.001 -15.5c63.333 0 112.5 9.83301 147.5 29.5s52.5 48.5 52.5 86.5c0 59.333 -43.667 93.666 -131 102.999l-174 19
c-111.333 12 -167 58 -167 138c0 50.667 23.167 89 69.5 115s105.5 39 177.5 39c52.667 0 98.5 -4.5 137.5 -13.5s77.833 -25.833 116.5 -50.5zM294.999 630.002l48 188l52 -12l-54 -186z" />
    <glyph glyph-name="Scircumflex" unicode="&#x15c;" horiz-adv-x="620" 
d="M554 502l-27.001 -41.998c-68 37.333 -143.667 56 -227 56c-128 0 -192 -34.333 -192 -103c0 -28 9.83301 -48 29.5 -60s49.167 -20.333 88.5 -25l181 -22c55.333 -6.66699 98 -22.834 128 -48.501s45 -60.167 45 -103.5c0 -56.667 -23.667 -98.834 -71 -126.501
s-114 -41.5 -200 -41.5c-104.667 0 -194.334 24.333 -269.001 73l29 46c38.667 -25.333 77.334 -43.166 116.001 -53.499s85.334 -15.5 140.001 -15.5c63.333 0 112.5 9.83301 147.5 29.5s52.5 48.5 52.5 86.5c0 59.333 -43.667 93.666 -131 102.999l-174 19
c-111.333 12 -167 58 -167 138c0 50.667 23.167 89 69.5 115s105.5 39 177.5 39c52.667 0 98.5 -4.5 137.5 -13.5s77.833 -25.833 116.5 -50.5zM435.999 608.002l-126 78l-126 -78l-24 30l150 110l150 -110z" />
    <glyph glyph-name="scircumflex" unicode="&#x15d;" horiz-adv-x="620" 
d="M554 502l-27.001 -41.998c-68 37.333 -143.667 56 -227 56c-128 0 -192 -34.333 -192 -103c0 -28 9.83301 -48 29.5 -60s49.167 -20.333 88.5 -25l181 -22c55.333 -6.66699 98 -22.834 128 -48.501s45 -60.167 45 -103.5c0 -56.667 -23.667 -98.834 -71 -126.501
s-114 -41.5 -200 -41.5c-104.667 0 -194.334 24.333 -269.001 73l29 46c38.667 -25.333 77.334 -43.166 116.001 -53.499s85.334 -15.5 140.001 -15.5c63.333 0 112.5 9.83301 147.5 29.5s52.5 48.5 52.5 86.5c0 59.333 -43.667 93.666 -131 102.999l-174 19
c-111.333 12 -167 58 -167 138c0 50.667 23.167 89 69.5 115s105.5 39 177.5 39c52.667 0 98.5 -4.5 137.5 -13.5s77.833 -25.833 116.5 -50.5zM435.999 608.002l-126 78l-126 -78l-24 30l150 110l150 -110z" />
    <glyph glyph-name="Scedilla" unicode="&#x15e;" horiz-adv-x="620" 
d="M554 502l-27 -42c-68 37.333 -143.667 56 -227 56c-128 0 -192 -34.333 -192 -103c0 -28 9.83301 -48 29.5 -60s49.167 -20.333 88.5 -25l181 -22c55.333 -6.66699 98 -22.834 128 -48.501s45 -60.167 45 -103.5c0 -54.667 -22.667 -96 -68 -124s-109 -42.667 -191 -44
v-34c69.333 -3.33301 104 -31.333 104 -84c0 -31.333 -12.167 -55.166 -36.5 -71.499s-55.166 -24.5 -92.499 -24.5c-32 0 -60.333 6.66699 -85 20l15 43c22 -10 46.333 -15 73 -15c48 0 72 16 72 48c0 25.333 -20.333 38 -61 38h-45l-6 6l8 75
c-86 4.66699 -161.667 28.667 -227 72l29 46c37.333 -25.333 75.666 -43.166 114.999 -53.499s86.333 -15.5 141 -15.5c63.333 0 112.5 9.83301 147.5 29.5s52.5 48.5 52.5 86.5c0 59.333 -43.667 93.666 -131 102.999l-174 19c-111.333 12 -167 58 -167 138
c0 50.667 23.167 89 69.5 115s105.5 39 177.5 39c52.667 0 98.5 -4.5 137.5 -13.5s77.833 -25.833 116.5 -50.5z" />
    <glyph glyph-name="scedilla" unicode="&#x15f;" horiz-adv-x="620" 
d="M554 502l-27 -42c-68 37.333 -143.667 56 -227 56c-128 0 -192 -34.333 -192 -103c0 -28 9.83301 -48 29.5 -60s49.167 -20.333 88.5 -25l181 -22c55.333 -6.66699 98 -22.834 128 -48.501s45 -60.167 45 -103.5c0 -54.667 -22.667 -96 -68 -124s-109 -42.667 -191 -44
v-34c69.333 -3.33301 104 -31.333 104 -84c0 -31.333 -12.167 -55.166 -36.5 -71.499s-55.166 -24.5 -92.499 -24.5c-32 0 -60.333 6.66699 -85 20l15 43c22 -10 46.333 -15 73 -15c48 0 72 16 72 48c0 25.333 -20.333 38 -61 38h-45l-6 6l8 75
c-86 4.66699 -161.667 28.667 -227 72l29 46c37.333 -25.333 75.666 -43.166 114.999 -53.499s86.333 -15.5 141 -15.5c63.333 0 112.5 9.83301 147.5 29.5s52.5 48.5 52.5 86.5c0 59.333 -43.667 93.666 -131 102.999l-174 19c-111.333 12 -167 58 -167 138
c0 50.667 23.167 89 69.5 115s105.5 39 177.5 39c52.667 0 98.5 -4.5 137.5 -13.5s77.833 -25.833 116.5 -50.5z" />
    <glyph glyph-name="Scaron" unicode="&#x160;" horiz-adv-x="620" 
d="M554 502l-27.001 -41.998c-68 37.333 -143.667 56 -227 56c-128 0 -192 -34.333 -192 -103c0 -28 9.83301 -48 29.5 -60s49.167 -20.333 88.5 -25l181 -22c55.333 -6.66699 98 -22.834 128 -48.501s45 -60.167 45 -103.5c0 -56.667 -23.667 -98.834 -71 -126.501
s-114 -41.5 -200 -41.5c-104.667 0 -194.334 24.333 -269.001 73l29 46c38.667 -25.333 77.334 -43.166 116.001 -53.499s85.334 -15.5 140.001 -15.5c63.333 0 112.5 9.83301 147.5 29.5s52.5 48.5 52.5 86.5c0 59.333 -43.667 93.666 -131 102.999l-174 19
c-111.333 12 -167 58 -167 138c0 50.667 23.167 89 69.5 115s105.5 39 177.5 39c52.667 0 98.5 -4.5 137.5 -13.5s77.833 -25.833 116.5 -50.5zM183.999 758.002l126 -78l126 78l24 -30l-150 -110l-150 110z" />
    <glyph glyph-name="scaron" unicode="&#x161;" horiz-adv-x="620" 
d="M554 502l-27.001 -41.998c-68 37.333 -143.667 56 -227 56c-128 0 -192 -34.333 -192 -103c0 -28 9.83301 -48 29.5 -60s49.167 -20.333 88.5 -25l181 -22c55.333 -6.66699 98 -22.834 128 -48.501s45 -60.167 45 -103.5c0 -56.667 -23.667 -98.834 -71 -126.501
s-114 -41.5 -200 -41.5c-104.667 0 -194.334 24.333 -269.001 73l29 46c38.667 -25.333 77.334 -43.166 116.001 -53.499s85.334 -15.5 140.001 -15.5c63.333 0 112.5 9.83301 147.5 29.5s52.5 48.5 52.5 86.5c0 59.333 -43.667 93.666 -131 102.999l-174 19
c-111.333 12 -167 58 -167 138c0 50.667 23.167 89 69.5 115s105.5 39 177.5 39c52.667 0 98.5 -4.5 137.5 -13.5s77.833 -25.833 116.5 -50.5zM183.999 758.002l126 -78l126 78l24 -30l-150 -110l-150 110z" />
    <glyph glyph-name="Tcommaaccent" unicode="&#x162;" horiz-adv-x="626" 
d="M30 553h566v-52h-255v-501h-56v501h-255v52zM313 -42c16 0 29.5 -5.33301 40.5 -16s16.5 -24 16.5 -40c0 -6 -1.33301 -13 -4 -21l-51 -129l-30 8l16 87c-13.333 2.66699 -24 9 -32 19s-12 22 -12 36c0 16 5.33301 29.333 16 40s24 16 40 16z" />
    <glyph glyph-name="tcommaaccent" unicode="&#x163;" horiz-adv-x="626" 
d="M30 553h566v-52h-255v-501h-56v501h-255v52zM313 -42c16 0 29.5 -5.33301 40.5 -16s16.5 -24 16.5 -40c0 -6 -1.33301 -13 -4 -21l-51 -129l-30 8l16 87c-13.333 2.66699 -24 9 -32 19s-12 22 -12 36c0 16 5.33301 29.333 16 40s24 16 40 16z" />
    <glyph glyph-name="Tcaron" unicode="&#x164;" horiz-adv-x="626" 
d="M30 553h566v-52h-255v-501h-56v501h-255v52zM187 758l126 -78l126 78l24 -30l-150 -110l-150 110z" />
    <glyph glyph-name="tcaron" unicode="&#x165;" horiz-adv-x="626" 
d="M30 553h566v-52h-255v-501h-56v501h-255v52zM187 758l126 -78l126 78l24 -30l-150 -110l-150 110z" />
    <glyph glyph-name="Tbar" unicode="&#x166;" horiz-adv-x="626" 
d="M30 553h566v-52h-255v-192h130v-51h-130v-258h-56v258h-130v51h130v192h-255v52z" />
    <glyph glyph-name="tbar" unicode="&#x167;" horiz-adv-x="626" 
d="M30 553h566v-52h-255v-192h130v-51h-130v-258h-56v258h-130v51h130v192h-255v52z" />
    <glyph glyph-name="Utilde" unicode="&#x168;" horiz-adv-x="664" 
d="M55 553h56v-284c0 -71.333 18.333 -127.666 55 -168.999s92 -62 166 -62c73.333 0 128.5 20.667 165.5 62s55.5 97.666 55.5 168.999v284h56v-283c0 -90.667 -24.833 -160.667 -74.5 -210s-117.167 -74 -202.5 -74c-86 0 -153.667 24.667 -203 74s-74 119.333 -74 210
v283zM492 711l26.001 -32.001c-26 -33.333 -63 -50 -111 -50c-17.333 0 -40.666 6.33301 -69.999 19s-52.333 19 -69 19c-38.667 0 -69.334 -14.333 -92.001 -43l-30 31c30.667 39.333 71 59 121 59c25.333 0 51.666 -6 78.999 -18s48 -18 62 -18c20 0 36 2.33301 48 7
s24 13.334 36 26.001z" />
    <glyph glyph-name="utilde" unicode="&#x169;" horiz-adv-x="664" 
d="M55 553h56v-284c0 -71.333 18.333 -127.666 55 -168.999s92 -62 166 -62c73.333 0 128.5 20.667 165.5 62s55.5 97.666 55.5 168.999v284h56v-283c0 -90.667 -24.833 -160.667 -74.5 -210s-117.167 -74 -202.5 -74c-86 0 -153.667 24.667 -203 74s-74 119.333 -74 210
v283zM492 711l26.001 -32.001c-26 -33.333 -63 -50 -111 -50c-17.333 0 -40.666 6.33301 -69.999 19s-52.333 19 -69 19c-38.667 0 -69.334 -14.333 -92.001 -43l-30 31c30.667 39.333 71 59 121 59c25.333 0 51.666 -6 78.999 -18s48 -18 62 -18c20 0 36 2.33301 48 7
s24 13.334 36 26.001z" />
    <glyph glyph-name="Umacron" unicode="&#x16a;" horiz-adv-x="664" 
d="M55 553h56v-284c0 -71.333 18.333 -127.666 55 -168.999s92 -62 166 -62c73.333 0 128.5 20.667 165.5 62s55.5 97.666 55.5 168.999v284h56v-283c0 -90.667 -24.833 -160.667 -74.5 -210s-117.167 -74 -202.5 -74c-86 0 -153.667 24.667 -203 74s-74 119.333 -74 210
v283zM165 696h335v-50h-335v50z" />
    <glyph glyph-name="umacron" unicode="&#x16b;" horiz-adv-x="664" 
d="M55 553h56v-284c0 -71.333 18.333 -127.666 55 -168.999s92 -62 166 -62c73.333 0 128.5 20.667 165.5 62s55.5 97.666 55.5 168.999v284h56v-283c0 -90.667 -24.833 -160.667 -74.5 -210s-117.167 -74 -202.5 -74c-86 0 -153.667 24.667 -203 74s-74 119.333 -74 210
v283zM165 696h335v-50h-335v50z" />
    <glyph glyph-name="Ubreve" unicode="&#x16c;" horiz-adv-x="664" 
d="M55 553h56v-284c0 -71.333 18.333 -127.666 55 -168.999s92 -62 166 -62c73.333 0 128.5 20.667 165.5 62s55.5 97.666 55.5 168.999v284h56v-283c0 -90.667 -24.833 -160.667 -74.5 -210s-117.167 -74 -202.5 -74c-86 0 -153.667 24.667 -203 74s-74 119.333 -74 210
v283zM441 732l35 -26c-34 -53.333 -82 -80 -144 -80s-110 26.667 -144 80l35 26c30 -39.333 66.333 -59 109 -59s79 19.667 109 59z" />
    <glyph glyph-name="ubreve" unicode="&#x16d;" horiz-adv-x="664" 
d="M55 553h56v-284c0 -71.333 18.333 -127.666 55 -168.999s92 -62 166 -62c73.333 0 128.5 20.667 165.5 62s55.5 97.666 55.5 168.999v284h56v-283c0 -90.667 -24.833 -160.667 -74.5 -210s-117.167 -74 -202.5 -74c-86 0 -153.667 24.667 -203 74s-74 119.333 -74 210
v283zM441 732l35 -26c-34 -53.333 -82 -80 -144 -80s-110 26.667 -144 80l35 26c30 -39.333 66.333 -59 109 -59s79 19.667 109 59z" />
    <glyph glyph-name="Uring" unicode="&#x16e;" horiz-adv-x="664" 
d="M55 553h56v-284c0 -71.333 18.333 -127.666 55 -168.999s92 -62 166 -62c73.333 0 128.5 20.667 165.5 62s55.5 97.666 55.5 168.999v284h56v-283c0 -90.667 -24.833 -160.667 -74.5 -210s-117.167 -74 -202.5 -74c-86 0 -153.667 24.667 -203 74s-74 119.333 -74 210
v283zM463 726c0 -36.667 -12.667 -66 -38 -88s-56.333 -33 -93 -33s-67.667 11 -93 33s-38 51.333 -38 88s12.667 66 38 88s56.333 33 93 33s67.667 -11 93 -33s38 -51.333 38 -88zM252 726c0 -22.667 7.5 -41 22.5 -55s34.167 -21 57.5 -21s42.5 7 57.5 21
s22.5 32.333 22.5 55s-7.5 41 -22.5 55s-34.167 21 -57.5 21s-42.5 -7 -57.5 -21s-22.5 -32.333 -22.5 -55z" />
    <glyph glyph-name="uring" unicode="&#x16f;" horiz-adv-x="664" 
d="M55 553h56v-284c0 -71.333 18.333 -127.666 55 -168.999s92 -62 166 -62c73.333 0 128.5 20.667 165.5 62s55.5 97.666 55.5 168.999v284h56v-283c0 -90.667 -24.833 -160.667 -74.5 -210s-117.167 -74 -202.5 -74c-86 0 -153.667 24.667 -203 74s-74 119.333 -74 210
v283zM463 726c0 -36.667 -12.667 -66 -38 -88s-56.333 -33 -93 -33s-67.667 11 -93 33s-38 51.333 -38 88s12.667 66 38 88s56.333 33 93 33s67.667 -11 93 -33s38 -51.333 38 -88zM252 726c0 -22.667 7.5 -41 22.5 -55s34.167 -21 57.5 -21s42.5 7 57.5 21
s22.5 32.333 22.5 55s-7.5 41 -22.5 55s-34.167 21 -57.5 21s-42.5 -7 -57.5 -21s-22.5 -32.333 -22.5 -55z" />
    <glyph glyph-name="Uhungarumlaut" unicode="&#x170;" horiz-adv-x="664" 
d="M55 553h56v-284c0 -71.333 18.333 -127.666 55 -168.999s92 -62 166 -62c73.333 0 128.5 20.667 165.5 62s55.5 97.666 55.5 168.999v284h56v-283c0 -90.667 -24.833 -160.667 -74.5 -210s-117.167 -74 -202.5 -74c-86 0 -153.667 24.667 -203 74s-74 119.333 -74 210
v283zM242 630l44 188l52 -12l-50 -186zM343 630l53 188l52 -12l-59 -186z" />
    <glyph glyph-name="uhungarumlaut" unicode="&#x171;" horiz-adv-x="664" 
d="M55 553h56v-284c0 -71.333 18.333 -127.666 55 -168.999s92 -62 166 -62c73.333 0 128.5 20.667 165.5 62s55.5 97.666 55.5 168.999v284h56v-283c0 -90.667 -24.833 -160.667 -74.5 -210s-117.167 -74 -202.5 -74c-86 0 -153.667 24.667 -203 74s-74 119.333 -74 210
v283zM256 630l44 188l52 -12l-50 -186zM357 630l53 188l52 -12l-59 -186z" />
    <glyph glyph-name="Uogonek" unicode="&#x172;" horiz-adv-x="664" 
d="M55 553l55.999 0.000976562v-284c0 -71.333 18.333 -127.666 55 -168.999s92 -62 166 -62c73.333 0 128.5 20.667 165.5 62s55.5 97.666 55.5 168.999v284h56v-283c0 -88 -23.5 -156.5 -70.5 -205.5s-111.5 -75.167 -193.5 -78.5c-8.66699 -18.667 -13 -37 -13 -55
c0 -24 4.66699 -43.333 14 -58s24 -28.334 44 -41.001l-32 -26c-52 23.333 -78 59.333 -78 108c0 30 7 54.333 21 73c-77.333 6 -137.666 33.5 -180.999 82.5s-65 115.833 -65 200.5v283z" />
    <glyph glyph-name="uogonek" unicode="&#x173;" horiz-adv-x="664" 
d="M55 553l55.999 0.000976562v-284c0 -71.333 18.333 -127.666 55 -168.999s92 -62 166 -62c73.333 0 128.5 20.667 165.5 62s55.5 97.666 55.5 168.999v284h56v-283c0 -88 -23.5 -156.5 -70.5 -205.5s-111.5 -75.167 -193.5 -78.5c-8.66699 -18.667 -13 -37 -13 -55
c0 -24 4.66699 -43.333 14 -58s24 -28.334 44 -41.001l-32 -26c-52 23.333 -78 59.333 -78 108c0 30 7 54.333 21 73c-77.333 6 -137.666 33.5 -180.999 82.5s-65 115.833 -65 200.5v283z" />
    <glyph glyph-name="Wcircumflex" unicode="&#x174;" horiz-adv-x="1005" 
d="M30 553h61l170 -499h37l151 499h102l158 -499h39l169 499h58l-192 -553h-114l-156 499h-25l-151 -499h-114zM628 608l-126 78l-126 -78l-24 30l150 110l150 -110z" />
    <glyph glyph-name="wcircumflex" unicode="&#x175;" horiz-adv-x="1005" 
d="M30 553h61l170 -499h37l151 499h102l158 -499h39l169 499h58l-192 -553h-114l-156 499h-25l-151 -499h-114zM628 608l-126 78l-126 -78l-24 30l150 110l150 -110z" />
    <glyph glyph-name="Ycircumflex" unicode="&#x176;" horiz-adv-x="656" 
d="M30 553h65l225 -350h19l222 350h65l-270 -415v-138h-56v138zM454 608l-126 78l-126 -78l-24 30l150 110l150 -110z" />
    <glyph glyph-name="ycircumflex" unicode="&#x177;" horiz-adv-x="656" 
d="M30 553h65l225 -350h19l222 350h65l-270 -415v-138h-56v138zM454 608l-126 78l-126 -78l-24 30l150 110l150 -110z" />
    <glyph glyph-name="Ydieresis" unicode="&#x178;" horiz-adv-x="656" 
d="M30 553h65l225 -350h19l222 350h65l-270 -415v-138h-56v138zM209 735c15.333 0 28.166 -5.16699 38.499 -15.5s15.5 -22.5 15.5 -36.5s-5.16699 -26.167 -15.5 -36.5s-23.166 -15.5 -38.499 -15.5c-14.667 0 -27.167 5.16699 -37.5 15.5s-15.5 22.5 -15.5 36.5
s5.16699 26.167 15.5 36.5s22.833 15.5 37.5 15.5zM446 735c15.333 0 28.166 -5.16699 38.499 -15.5s15.5 -22.5 15.5 -36.5s-5.16699 -26.167 -15.5 -36.5s-23.166 -15.5 -38.499 -15.5c-14.667 0 -27.167 5.16699 -37.5 15.5s-15.5 22.5 -15.5 36.5
s5.16699 26.167 15.5 36.5s22.833 15.5 37.5 15.5z" />
    <glyph glyph-name="Zacute" unicode="&#x179;" horiz-adv-x="602" 
d="M54 553h491v-54l-435 -450l243 4h209v-53h-522v54l438 449l-219 -3h-205v53zM280 630l48 188l52 -12l-54 -186z" />
    <glyph glyph-name="zacute" unicode="&#x17a;" horiz-adv-x="602" 
d="M54 553h491v-54l-435 -450l243 4h209v-53h-522v54l438 449l-219 -3h-205v53zM280 630l48 188l52 -12l-54 -186z" />
    <glyph glyph-name="Zdotaccent" unicode="&#x17b;" horiz-adv-x="602" 
d="M54 553h491v-54l-435 -450l243 4h209v-53h-522v54l438 449l-219 -3h-205v53zM300 739c17.333 0 31.833 -5.66699 43.5 -17s17.5 -25 17.5 -41s-5.83301 -29.833 -17.5 -41.5s-26.167 -17.5 -43.5 -17.5c-16.667 0 -30.667 5.83301 -42 17.5s-17 25.5 -17 41.5
c0 15.333 5.66699 28.833 17 40.5s25.333 17.5 42 17.5z" />
    <glyph glyph-name="zdotaccent" unicode="&#x17c;" horiz-adv-x="602" 
d="M54 553h491v-54l-435 -450l243 4h209v-53h-522v54l438 449l-219 -3h-205v53zM300 739c17.333 0 31.833 -5.66699 43.5 -17s17.5 -25 17.5 -41s-5.83301 -29.833 -17.5 -41.5s-26.167 -17.5 -43.5 -17.5c-16.667 0 -30.667 5.83301 -42 17.5s-17 25.5 -17 41.5
c0 15.333 5.66699 28.833 17 40.5s25.333 17.5 42 17.5z" />
    <glyph glyph-name="Zcaron" unicode="&#x17d;" horiz-adv-x="602" 
d="M54 553h491v-54l-435 -450l243 4h209v-53h-522v54l438 449l-219 -3h-205v53zM175 758l126 -78l126 78l24 -30l-150 -110l-150 110z" />
    <glyph glyph-name="zcaron" unicode="&#x17e;" horiz-adv-x="602" 
d="M54 553h491v-54l-435 -450l243 4h209v-53h-522v54l438 449l-219 -3h-205v53zM175 758l126 -78l126 78l24 -30l-150 -110l-150 110z" />
    <glyph glyph-name="AEacute" unicode="&#x1fc;" horiz-adv-x="1107" 
d="M382 553h654v-51h-427v-192h384v-51h-384v-208h448v-51h-504v109h-402l-76 -109h-66zM409 502l-218 -338h362v338h-144zM565 630l48 188l52 -12l-54 -186z" />
    <glyph glyph-name="aeacute" unicode="&#x1fd;" horiz-adv-x="1107" 
d="M382 553h654v-51h-427v-192h384v-51h-384v-208h448v-51h-504v109h-402l-76 -109h-66zM409 502l-218 -338h362v338h-144zM565 630l48 188l52 -12l-54 -186z" />
    <glyph glyph-name="Oslashacute" unicode="&#x1fe;" 
d="M498 588l48 -27l-24 -41c41.333 -25.333 73.666 -59 96.999 -101s35 -89.667 35 -143c0 -86.667 -28.833 -156.667 -86.5 -210s-131.167 -80 -220.5 -80c-41.333 0 -81 6.33301 -119 19l-25 -45l-48 27l23 40c-43.333 24.667 -77.166 58.5 -101.499 101.5
s-36.5 92.167 -36.5 147.5c0 86.667 28.833 156.667 86.5 210s131.167 80 220.5 80c44 0 86 -7.33301 126 -22zM205 73l241 424.001c-30.667 11.333 -63.667 17 -99 17c-72.667 0 -132.5 -21.167 -179.5 -63.5s-70.833 -100.5 -71.5 -174.5
c0 -92.667 36.333 -160.334 109 -203.001zM496 474.001l-241 -422c29.333 -9.33301 60 -14 92 -14c72.667 0 132.667 21.167 180 63.5s71 100.5 71 174.5c0 88 -34 154 -102 198zM345 630.001l48 188l52 -12l-54 -186z" />
    <glyph glyph-name="oslashacute" unicode="&#x1ff;" 
d="M498 588l48 -27l-24 -41c41.333 -25.333 73.666 -59 96.999 -101s35 -89.667 35 -143c0 -86.667 -28.833 -156.667 -86.5 -210s-131.167 -80 -220.5 -80c-41.333 0 -81 6.33301 -119 19l-25 -45l-48 27l23 40c-43.333 24.667 -77.166 58.5 -101.499 101.5
s-36.5 92.167 -36.5 147.5c0 86.667 28.833 156.667 86.5 210s131.167 80 220.5 80c44 0 86 -7.33301 126 -22zM205 73l241 424.001c-30.667 11.333 -63.667 17 -99 17c-72.667 0 -132.5 -21.167 -179.5 -63.5s-70.833 -100.5 -71.5 -174.5
c0 -92.667 36.333 -160.334 109 -203.001zM496 474.001l-241 -422c29.333 -9.33301 60 -14 92 -14c72.667 0 132.667 21.167 180 63.5s71 100.5 71 174.5c0 88 -34 154 -102 198zM345 630.001l48 188l52 -12l-54 -186z" />
    <glyph glyph-name="uni0200" unicode="&#x200;" horiz-adv-x="727" 
d="M314 502l-151 -356h401l-148 356h-102zM282 553h170l235 -553h-58l-40 93h-448l-41 -93h-60zM391 818l44 -188l-46 -10l-50 186zM281 818l53 -188l-46 -10l-59 186z" />
    <glyph glyph-name="uni0201" unicode="&#x201;" horiz-adv-x="727" 
d="M314 502l-151 -356h401l-148 356h-102zM282 553h170l235 -553h-58l-40 93h-448l-41 -93h-60zM391 818l44 -188l-46 -10l-50 186zM281 818l53 -188l-46 -10l-59 186z" />
    <glyph glyph-name="uni0202" unicode="&#x202;" horiz-adv-x="727" 
d="M314 502l-151 -356h401l-148 356h-102zM282 553h170l235 -553h-58l-40 93h-448l-41 -93h-60zM489 608l-126 78l-126 -78l-24 30l150 110l150 -110z" />
    <glyph glyph-name="uni0203" unicode="&#x203;" horiz-adv-x="727" 
d="M314 502l-151 -356h401l-148 356h-102zM282 553h170l235 -553h-58l-40 93h-448l-41 -93h-60zM493 608l-126 78l-126 -78l-24 30l150 110l150 -110z" />
    <glyph glyph-name="uni0204" unicode="&#x204;" horiz-adv-x="607" 
d="M60 553h481v-51h-425v-192h382v-51h-382v-208h441v-51h-497v553zM342 818l44 -188l-46 -10l-50 186zM232 818l53 -188l-46 -10l-59 186z" />
    <glyph glyph-name="uni0205" unicode="&#x205;" horiz-adv-x="607" 
d="M60 553h481v-51h-425v-192h382v-51h-382v-208h441v-51h-497v553zM342 818l44 -188l-46 -10l-50 186zM232 818l53 -188l-46 -10l-59 186z" />
    <glyph glyph-name="uni0206" unicode="&#x206;" horiz-adv-x="607" 
d="M60 553h481v-51h-425v-192h382v-51h-382v-208h441v-51h-497v553zM429 608l-126 78l-126 -78l-24 30l150 110l150 -110z" />
    <glyph glyph-name="uni0207" unicode="&#x207;" horiz-adv-x="607" 
d="M60 553h481v-51h-425v-192h382v-51h-382v-208h441v-51h-497v553zM429 608l-126 78l-126 -78l-24 30l150 110l150 -110z" />
    <glyph glyph-name="uni0208" unicode="&#x208;" horiz-adv-x="176" 
d="M60 553h56v-553h-56v553zM120 818l44 -188l-46 -10l-50 186zM10 818l53 -188l-46 -10l-59 186z" />
    <glyph glyph-name="uni0209" unicode="&#x209;" horiz-adv-x="176" 
d="M60 553h56v-553h-56v553zM120 818l44 -188l-46 -10l-50 186zM10 818l53 -188l-46 -10l-59 186z" />
    <glyph glyph-name="uni020A" unicode="&#x20a;" horiz-adv-x="176" 
d="M60 553h56v-553h-56v553zM214 608l-126 78l-126 -78l-24 30l150 110l150 -110z" />
    <glyph glyph-name="uni020B" unicode="&#x20b;" horiz-adv-x="176" 
d="M60 553h56v-553h-56v553zM214 615l-126 78l-126 -78l-24 30l150 110l150 -110z" />
    <glyph glyph-name="uni020C" unicode="&#x20c;" 
d="M96 276c0.666992 -74 24.5 -132.167 71.5 -174.5s106.833 -63.5 179.5 -63.5s132.667 21.167 180 63.5s71 100.5 71 174.5s-23.667 132.167 -71 174.5s-107.333 63.5 -180 63.5s-132.5 -21.167 -179.5 -63.5s-70.833 -100.5 -71.5 -174.5zM654 276
c0 -86.667 -28.833 -156.667 -86.5 -210s-131.167 -80 -220.5 -80s-162.833 26.667 -220.5 80s-86.5 123.333 -86.5 210s28.833 156.667 86.5 210s131.167 80 220.5 80s162.833 -26.667 220.5 -80s86.5 -123.333 86.5 -210zM375 818l44 -188l-46 -10l-50 186zM265 818
l53 -188l-46 -10l-59 186z" />
    <glyph glyph-name="uni020D" unicode="&#x20d;" 
d="M96 276c0.666992 -74 24.5 -132.167 71.5 -174.5s106.833 -63.5 179.5 -63.5s132.667 21.167 180 63.5s71 100.5 71 174.5s-23.667 132.167 -71 174.5s-107.333 63.5 -180 63.5s-132.5 -21.167 -179.5 -63.5s-70.833 -100.5 -71.5 -174.5zM654 276
c0 -86.667 -28.833 -156.667 -86.5 -210s-131.167 -80 -220.5 -80s-162.833 26.667 -220.5 80s-86.5 123.333 -86.5 210s28.833 156.667 86.5 210s131.167 80 220.5 80s162.833 -26.667 220.5 -80s86.5 -123.333 86.5 -210zM375 818l44 -188l-46 -10l-50 186zM265 818
l53 -188l-46 -10l-59 186z" />
    <glyph glyph-name="uni020E" unicode="&#x20e;" 
d="M96 276c0.666992 -74 24.5 -132.167 71.5 -174.5s106.833 -63.5 179.5 -63.5s132.667 21.167 180 63.5s71 100.5 71 174.5s-23.667 132.167 -71 174.5s-107.333 63.5 -180 63.5s-132.5 -21.167 -179.5 -63.5s-70.833 -100.5 -71.5 -174.5zM654 276
c0 -86.667 -28.833 -156.667 -86.5 -210s-131.167 -80 -220.5 -80s-162.833 26.667 -220.5 80s-86.5 123.333 -86.5 210s28.833 156.667 86.5 210s131.167 80 220.5 80s162.833 -26.667 220.5 -80s86.5 -123.333 86.5 -210zM473 608l-126 78l-126 -78l-24 30l150 110
l150 -110z" />
    <glyph glyph-name="uni020F" unicode="&#x20f;" 
d="M96 276c0.666992 -74 24.5 -132.167 71.5 -174.5s106.833 -63.5 179.5 -63.5s132.667 21.167 180 63.5s71 100.5 71 174.5s-23.667 132.167 -71 174.5s-107.333 63.5 -180 63.5s-132.5 -21.167 -179.5 -63.5s-70.833 -100.5 -71.5 -174.5zM654 276
c0 -86.667 -28.833 -156.667 -86.5 -210s-131.167 -80 -220.5 -80s-162.833 26.667 -220.5 80s-86.5 123.333 -86.5 210s28.833 156.667 86.5 210s131.167 80 220.5 80s162.833 -26.667 220.5 -80s86.5 -123.333 86.5 -210zM473 608l-126 78l-126 -78l-24 30l150 110
l150 -110z" />
    <glyph glyph-name="uni0210" unicode="&#x210;" horiz-adv-x="641" 
d="M60 553l320.999 -0.000976562c62 0 114.167 -19.167 156.5 -57.5s63.5 -88.166 63.5 -149.499c0 -46 -11.667 -85.5 -35 -118.5s-54.666 -56.833 -93.999 -71.5l89 -156h-62l-79 139h-304v-139h-56v553zM115.999 500.999v-310h265c49.333 0 89.166 14 119.499 42
s45.5 65.667 45.5 113s-15.167 85 -45.5 113s-70.166 42 -119.499 42h-265zM331.999 817.999l44 -188l-46 -10l-50 186zM221.999 817.999l53 -188l-46 -10l-59 186z" />
    <glyph glyph-name="uni0211" unicode="&#x211;" horiz-adv-x="641" 
d="M60 553l320.999 -0.000976562c62 0 114.167 -19.167 156.5 -57.5s63.5 -88.166 63.5 -149.499c0 -46 -11.667 -85.5 -35 -118.5s-54.666 -56.833 -93.999 -71.5l89 -156h-62l-79 139h-304v-139h-56v553zM115.999 500.999v-310h265c49.333 0 89.166 14 119.499 42
s45.5 65.667 45.5 113s-15.167 85 -45.5 113s-70.166 42 -119.499 42h-265zM331.999 817.999l44 -188l-46 -10l-50 186zM221.999 817.999l53 -188l-46 -10l-59 186z" />
    <glyph glyph-name="uni0212" unicode="&#x212;" horiz-adv-x="641" 
d="M60 553l320.999 -0.000976562c62 0 114.167 -19.167 156.5 -57.5s63.5 -88.166 63.5 -149.499c0 -46 -11.667 -85.5 -35 -118.5s-54.666 -56.833 -93.999 -71.5l89 -156h-62l-79 139h-304v-139h-56v553zM115.999 500.999v-310h265c49.333 0 89.166 14 119.499 42
s45.5 65.667 45.5 113s-15.167 85 -45.5 113s-70.166 42 -119.499 42h-265zM429.999 607.999l-126 78l-126 -78l-24 30l150 110l150 -110z" />
    <glyph glyph-name="uni0213" unicode="&#x213;" horiz-adv-x="641" 
d="M60 553l320.999 -0.000976562c62 0 114.167 -19.167 156.5 -57.5s63.5 -88.166 63.5 -149.499c0 -46 -11.667 -85.5 -35 -118.5s-54.666 -56.833 -93.999 -71.5l89 -156h-62l-79 139h-304v-139h-56v553zM115.999 500.999v-310h265c49.333 0 89.166 14 119.499 42
s45.5 65.667 45.5 113s-15.167 85 -45.5 113s-70.166 42 -119.499 42h-265zM429.999 607.999l-126 78l-126 -78l-24 30l150 110l150 -110z" />
    <glyph glyph-name="uni0214" unicode="&#x214;" horiz-adv-x="664" 
d="M55 553h56v-284c0 -71.333 18.333 -127.666 55 -168.999s92 -62 166 -62c73.333 0 128.5 20.667 165.5 62s55.5 97.666 55.5 168.999v284h56v-283c0 -90.667 -24.833 -160.667 -74.5 -210s-117.167 -74 -202.5 -74c-86 0 -153.667 24.667 -203 74s-74 119.333 -74 210
v283zM358 818l44 -188l-46 -10l-50 186zM248 818l53 -188l-46 -10l-59 186z" />
    <glyph glyph-name="uni0215" unicode="&#x215;" horiz-adv-x="664" 
d="M55 553h56v-284c0 -71.333 18.333 -127.666 55 -168.999s92 -62 166 -62c73.333 0 128.5 20.667 165.5 62s55.5 97.666 55.5 168.999v284h56v-283c0 -90.667 -24.833 -160.667 -74.5 -210s-117.167 -74 -202.5 -74c-86 0 -153.667 24.667 -203 74s-74 119.333 -74 210
v283zM358 818l44 -188l-46 -10l-50 186zM248 818l53 -188l-46 -10l-59 186z" />
    <glyph glyph-name="uni0216" unicode="&#x216;" horiz-adv-x="664" 
d="M55 553h56v-284c0 -71.333 18.333 -127.666 55 -168.999s92 -62 166 -62c73.333 0 128.5 20.667 165.5 62s55.5 97.666 55.5 168.999v284h56v-283c0 -90.667 -24.833 -160.667 -74.5 -210s-117.167 -74 -202.5 -74c-86 0 -153.667 24.667 -203 74s-74 119.333 -74 210
v283zM458 608l-126 78l-126 -78l-24 30l150 110l150 -110z" />
    <glyph glyph-name="uni0217" unicode="&#x217;" horiz-adv-x="664" 
d="M55 553h56v-284c0 -71.333 18.333 -127.666 55 -168.999s92 -62 166 -62c73.333 0 128.5 20.667 165.5 62s55.5 97.666 55.5 168.999v284h56v-283c0 -90.667 -24.833 -160.667 -74.5 -210s-117.167 -74 -202.5 -74c-86 0 -153.667 24.667 -203 74s-74 119.333 -74 210
v283zM458 608l-126 78l-126 -78l-24 30l150 110l150 -110z" />
    <glyph glyph-name="Scommaaccent" unicode="&#x218;" horiz-adv-x="620" 
d="M554 502l-27.001 -41.998c-68 37.333 -143.667 56 -227 56c-128 0 -192 -34.333 -192 -103c0 -28 9.83301 -48 29.5 -60s49.167 -20.333 88.5 -25l181 -22c55.333 -6.66699 98 -22.834 128 -48.501s45 -60.167 45 -103.5c0 -56.667 -23.667 -98.834 -71 -126.501
s-114 -41.5 -200 -41.5c-104.667 0 -194.334 24.333 -269.001 73l29 46c38.667 -25.333 77.334 -43.166 116.001 -53.499s85.334 -15.5 140.001 -15.5c63.333 0 112.5 9.83301 147.5 29.5s52.5 48.5 52.5 86.5c0 59.333 -43.667 93.666 -131 102.999l-174 19
c-111.333 12 -167 58 -167 138c0 50.667 23.167 89 69.5 115s105.5 39 177.5 39c52.667 0 98.5 -4.5 137.5 -13.5s77.833 -25.833 116.5 -50.5zM309.999 -41.998c16 0 29.5 -5.33301 40.5 -16s16.5 -24 16.5 -40c0 -6 -1.33301 -13 -4 -21l-51 -129l-30 8l16 87
c-13.333 2.66699 -24 9 -32 19s-12 22 -12 36c0 16 5.33301 29.333 16 40s24 16 40 16z" />
    <glyph glyph-name="scommaaccent" unicode="&#x219;" horiz-adv-x="620" 
d="M554 502l-27.001 -41.998c-68 37.333 -143.667 56 -227 56c-128 0 -192 -34.333 -192 -103c0 -28 9.83301 -48 29.5 -60s49.167 -20.333 88.5 -25l181 -22c55.333 -6.66699 98 -22.834 128 -48.501s45 -60.167 45 -103.5c0 -56.667 -23.667 -98.834 -71 -126.501
s-114 -41.5 -200 -41.5c-104.667 0 -194.334 24.333 -269.001 73l29 46c38.667 -25.333 77.334 -43.166 116.001 -53.499s85.334 -15.5 140.001 -15.5c63.333 0 112.5 9.83301 147.5 29.5s52.5 48.5 52.5 86.5c0 59.333 -43.667 93.666 -131 102.999l-174 19
c-111.333 12 -167 58 -167 138c0 50.667 23.167 89 69.5 115s105.5 39 177.5 39c52.667 0 98.5 -4.5 137.5 -13.5s77.833 -25.833 116.5 -50.5zM309.999 -41.998c16 0 29.5 -5.33301 40.5 -16s16.5 -24 16.5 -40c0 -6 -1.33301 -13 -4 -21l-51 -129l-30 8l16 87
c-13.333 2.66699 -24 9 -32 19s-12 22 -12 36c0 16 5.33301 29.333 16 40s24 16 40 16z" />
    <glyph glyph-name="uni021A" unicode="&#x21a;" horiz-adv-x="626" 
d="M30 553h566v-52h-255v-501h-56v501h-255v52zM313 -42c16 0 29.5 -5.33301 40.5 -16s16.5 -24 16.5 -40c0 -6 -1.33301 -13 -4 -21l-51 -129l-30 8l16 87c-13.333 2.66699 -24 9 -32 19s-12 22 -12 36c0 16 5.33301 29.333 16 40s24 16 40 16z" />
    <glyph glyph-name="uni021B" unicode="&#x21b;" horiz-adv-x="626" 
d="M30 553h566v-52h-255v-501h-56v501h-255v52zM313 -42c16 0 29.5 -5.33301 40.5 -16s16.5 -24 16.5 -40c0 -6 -1.33301 -13 -4 -21l-51 -129l-30 8l16 87c-13.333 2.66699 -24 9 -32 19s-12 22 -12 36c0 16 5.33301 29.333 16 40s24 16 40 16z" />
    <glyph glyph-name="dotlessj" unicode="&#x237;" horiz-adv-x="597" 
d="M480 553h55.998v-322c0 -76 -20.5 -135.833 -61.5 -179.5s-105.5 -65.5 -193.5 -65.5c-111.333 0 -191.666 41.667 -240.999 125l47 29c20.667 -34 48.167 -59.667 82.5 -77s70.833 -26 109.5 -26c74.667 0 126.834 17.167 156.501 51.5s44.5 85.5 44.5 153.5v311z" />
    <glyph glyph-name="circumflex" unicode="&#x2c6;" horiz-adv-x="350" 
d="M301 608l-126 78l-126 -78l-24 30l150 110l150 -110z" />
    <glyph glyph-name="caron" unicode="&#x2c7;" horiz-adv-x="350" 
d="M49 758l126 -78l126 78l24 -30l-150 -110l-150 110z" />
    <glyph glyph-name="breve" unicode="&#x2d8;" horiz-adv-x="380" 
d="M299 732l35 -26c-34 -53.333 -82 -80 -144 -80s-110 26.667 -144 80l35 26c30 -39.333 66.333 -59 109 -59s79 19.667 109 59z" />
    <glyph glyph-name="dotaccent" unicode="&#x2d9;" horiz-adv-x="220" 
d="M109 739c17.333 0 31.833 -5.66699 43.5 -17s17.5 -25 17.5 -41s-5.83301 -29.833 -17.5 -41.5s-26.167 -17.5 -43.5 -17.5c-16.667 0 -30.667 5.83301 -42 17.5s-17 25.5 -17 41.5c0 15.333 5.66699 28.833 17 40.5s25.333 17.5 42 17.5z" />
    <glyph glyph-name="ring" unicode="&#x2da;" horiz-adv-x="334" 
d="M298 726c0 -36.667 -12.667 -66 -38 -88s-56.333 -33 -93 -33s-67.667 11 -93 33s-38 51.333 -38 88s12.667 66 38 88s56.333 33 93 33s67.667 -11 93 -33s38 -51.333 38 -88zM87 726c0 -22.667 7.5 -41 22.5 -55s34.167 -21 57.5 -21s42.5 7 57.5 21
s22.5 32.333 22.5 55s-7.5 41 -22.5 55s-34.167 21 -57.5 21s-42.5 -7 -57.5 -21s-22.5 -32.333 -22.5 -55z" />
    <glyph glyph-name="ogonek" unicode="&#x2db;" horiz-adv-x="380" 
d="M172 14l35 -2.99805c-19.333 -26.667 -29 -53.334 -29 -80.001c0 -24 4.66699 -43.333 14 -58s24 -28.334 44 -41.001l-32 -26c-52 23.333 -78 59.333 -78 108c0 40.667 15.333 74 46 100z" />
    <glyph glyph-name="tilde" unicode="&#x2dc;" horiz-adv-x="401" 
d="M360 711l26.001 -32.001c-26 -33.333 -63 -50 -111 -50c-17.333 0 -40.666 6.33301 -69.999 19s-52.333 19 -69 19c-38.667 0 -69.334 -14.333 -92.001 -43l-30 31c30.667 39.333 71 59 121 59c25.333 0 51.666 -6 78.999 -18s48 -18 62 -18c20 0 36 2.33301 48 7
s24 13.334 36 26.001z" />
    <glyph glyph-name="hungarumlaut" unicode="&#x2dd;" horiz-adv-x="288" 
d="M41 630l44 188l52 -12l-50 -186zM142 630l53 188l52 -12l-59 -186z" />
    <glyph glyph-name="uni0400" unicode="&#x400;" horiz-adv-x="607" 
d="M60 553h481v-51h-425v-192h382v-51h-382v-208h441v-51h-497v553zM290 818l48 -188l-46 -10l-54 186z" />
    <glyph glyph-name="afii10023" unicode="&#x401;" horiz-adv-x="607" 
d="M60 553h481v-51h-425v-192h382v-51h-382v-208h441v-51h-497v553zM184 735c15.333 0 28.166 -5.16699 38.499 -15.5s15.5 -22.5 15.5 -36.5s-5.16699 -26.167 -15.5 -36.5s-23.166 -15.5 -38.499 -15.5c-14.667 0 -27.167 5.16699 -37.5 15.5s-15.5 22.5 -15.5 36.5
s5.16699 26.167 15.5 36.5s22.833 15.5 37.5 15.5zM421 735c15.333 0 28.166 -5.16699 38.499 -15.5s15.5 -22.5 15.5 -36.5s-5.16699 -26.167 -15.5 -36.5s-23.166 -15.5 -38.499 -15.5c-14.667 0 -27.167 5.16699 -37.5 15.5s-15.5 22.5 -15.5 36.5
s5.16699 26.167 15.5 36.5s22.833 15.5 37.5 15.5z" />
    <glyph glyph-name="afii10051" unicode="&#x402;" horiz-adv-x="788" 
d="M30 553h553.001v-51h-258v-123h173c83.333 0 145.833 -22.333 187.5 -67s62.5 -106.667 62.5 -186c0 -49.333 -9.33301 -100 -28 -152s-44.667 -96.667 -78 -134l-40 30c29.333 36.667 51.666 77.667 66.999 123s23 88.333 23 129c0 75.333 -16.833 128.5 -50.5 159.5
s-91.167 46.5 -172.5 46.5h-144v-328h-56v502h-239v51z" />
    <glyph glyph-name="afii10052" unicode="&#x403;" horiz-adv-x="581" 
d="M60 553h491v-52h-435v-501h-56v553zM292 630l48 188l52 -12l-54 -186z" />
    <glyph glyph-name="afii10053" unicode="&#x404;" horiz-adv-x="648" 
d="M397 308v-50.001h-299c4.66699 -64.667 29.5 -117.5 74.5 -158.5s101.833 -61.5 170.5 -61.5c91.333 0 165.333 32.667 222 98l43 -28c-64 -81.333 -151.333 -122 -262 -122c-89.333 0 -162.666 26.333 -219.999 79s-86 123.334 -86 212.001
c0 88 28.833 158.167 86.5 210.5s130.834 78.5 219.501 78.5c111.333 0 198 -40.333 260 -121l-45 -26c-50 62.667 -122.667 94 -218 94c-68.667 0 -124.834 -18.5 -168.501 -55.5s-68.834 -86.833 -75.501 -149.5h298z" />
    <glyph glyph-name="afii10054" unicode="&#x405;" horiz-adv-x="620" 
d="M554 502l-27.001 -41.998c-68 37.333 -143.667 56 -227 56c-128 0 -192 -34.333 -192 -103c0 -28 9.83301 -48 29.5 -60s49.167 -20.333 88.5 -25l181 -22c55.333 -6.66699 98 -22.834 128 -48.501s45 -60.167 45 -103.5c0 -56.667 -23.667 -98.834 -71 -126.501
s-114 -41.5 -200 -41.5c-104.667 0 -194.334 24.333 -269.001 73l29 46c38.667 -25.333 77.334 -43.166 116.001 -53.499s85.334 -15.5 140.001 -15.5c63.333 0 112.5 9.83301 147.5 29.5s52.5 48.5 52.5 86.5c0 59.333 -43.667 93.666 -131 102.999l-174 19
c-111.333 12 -167 58 -167 138c0 50.667 23.167 89 69.5 115s105.5 39 177.5 39c52.667 0 98.5 -4.5 137.5 -13.5s77.833 -25.833 116.5 -50.5z" />
    <glyph glyph-name="afii10055" unicode="&#x406;" horiz-adv-x="176" 
d="M60 553h56v-553h-56v553z" />
    <glyph glyph-name="afii10056" unicode="&#x407;" horiz-adv-x="176" 
d="M60 553h56v-553h-56v553zM-31 735c15.333 0 28.166 -5.16699 38.499 -15.5s15.5 -22.5 15.5 -36.5s-5.16699 -26.167 -15.5 -36.5s-23.166 -15.5 -38.499 -15.5c-14.667 0 -27.167 5.16699 -37.5 15.5s-15.5 22.5 -15.5 36.5s5.16699 26.167 15.5 36.5
s22.833 15.5 37.5 15.5zM206 735c15.333 0 28.166 -5.16699 38.499 -15.5s15.5 -22.5 15.5 -36.5s-5.16699 -26.167 -15.5 -36.5s-23.166 -15.5 -38.499 -15.5c-14.667 0 -27.167 5.16699 -37.5 15.5s-15.5 22.5 -15.5 36.5s5.16699 26.167 15.5 36.5s22.833 15.5 37.5 15.5
z" />
    <glyph glyph-name="afii10057" unicode="&#x408;" horiz-adv-x="597" 
d="M480 553h55.998v-322c0 -76 -20.5 -135.833 -61.5 -179.5s-105.5 -65.5 -193.5 -65.5c-111.333 0 -191.666 41.667 -240.999 125l47 29c20.667 -34 48.167 -59.667 82.5 -77s70.833 -26 109.5 -26c74.667 0 126.834 17.167 156.501 51.5s44.5 85.5 44.5 153.5v311z" />
    <glyph glyph-name="afii10058" unicode="&#x409;" horiz-adv-x="1065" 
d="M226 553h382.001v-147h207c62 0 113.333 -18.5 154 -55.5s61 -86.167 61 -147.5s-20.333 -110.5 -61 -147.5s-92 -55.5 -154 -55.5h-263v501h-280l-69 -371c-8 -42 -25.333 -74.167 -52 -96.5s-60 -33.5 -100 -33.5h-36v57h29c59.333 0 93.666 26 102.999 78z
M608.001 354v-302h202c49.333 0 88.833 13.5 118.5 40.5s44.5 63.833 44.5 110.5c0 47.333 -14.667 84.333 -44 111s-69 40 -119 40h-202z" />
    <glyph glyph-name="afii10059" unicode="&#x40a;" horiz-adv-x="1027" 
d="M60 553h56v-239h398v239h56v-147h207c62 0 113.333 -18.5 154 -55.5s61 -86.167 61 -147.5s-20.333 -110.5 -61 -147.5s-92 -55.5 -154 -55.5h-263v262h-398v-262h-56v553zM570 354v-302h202c49.333 0 88.833 13.5 118.5 40.5s44.5 63.833 44.5 110.5
c0 47.333 -14.667 84.333 -44 111s-69 40 -119 40h-202z" />
    <glyph glyph-name="afii10060" unicode="&#x40b;" horiz-adv-x="788" 
d="M30 553h553v-52h-258v-122h173c83.333 0 145.833 -22.333 187.5 -67s62.5 -106.667 62.5 -186v-126h-56v126c0 72.667 -16.833 124.5 -50.5 155.5s-88.5 46.5 -164.5 46.5h-152v-328h-56v501h-239v52z" />
    <glyph glyph-name="afii10061" unicode="&#x40c;" horiz-adv-x="632" 
d="M60 553h56v-232h254l160 232h65l-174 -255l190 -298h-66l-173 270h-256v-270h-56v553zM282 620l48 188l52 -12l-54 -186z" />
    <glyph glyph-name="uni040D" unicode="&#x40d;" horiz-adv-x="683" 
d="M60 553h56v-484l446 484h61v-553h-56v481l-445 -481h-62v553zM299 818l48 -188l-46 -10l-54 186z" />
    <glyph glyph-name="afii10062" unicode="&#x40e;" horiz-adv-x="647" 
d="M30 553h58l92 -250c14.667 -40.667 45 -61 91 -61h191l100 311h55l-145 -448c-10 -32 -27.667 -57.5 -53 -76.5s-55.333 -28.5 -90 -28.5h-134v51h127c51.333 0 84 20 98 60l28 79h-183c-32 0 -60.833 9.66699 -86.5 29s-44.167 45 -55.5 77zM442 722l35 -26
c-34 -53.333 -82 -80 -144 -80s-110 26.667 -144 80l35 26c30 -39.333 66.333 -59 109 -59s79 19.667 109 59z" />
    <glyph glyph-name="afii10145" unicode="&#x40f;" horiz-adv-x="650" 
d="M60 553h56v-501h418v501h56v-553h-230l-10 -123h-43l-9 123h-238v553z" />
    <glyph glyph-name="afii10017" unicode="&#x410;" horiz-adv-x="727" 
d="M314 502l-151 -356h401l-148 356h-102zM282 553h170l235 -553h-58l-40 93h-448l-41 -93h-60z" />
    <glyph glyph-name="afii10018" unicode="&#x411;" horiz-adv-x="627" 
d="M60 553h458.999v-52h-403v-155h290c52.667 0 96.834 -15.833 132.501 -47.5s53.5 -72.5 53.5 -122.5c0 -49.333 -18 -91 -54 -125s-80 -51 -132 -51h-346v553zM115.999 295l0.000976562 -243h280c46.667 0 81.667 11.333 105 34s35 52.667 35 90
c0 36.667 -11.833 65.667 -35.5 87s-58.834 32 -105.501 32h-279z" />
    <glyph glyph-name="afii10019" unicode="&#x412;" horiz-adv-x="648" 
d="M60 553l347.002 -0.000976562c49.333 0 89.166 -12.167 119.499 -36.5s45.5 -56.5 45.5 -96.5c0 -51.333 -18.333 -89.666 -55 -114.999c30 -10.667 53.5 -28.5 70.5 -53.5s25.5 -53.5 25.5 -85.5c0 -46.667 -16.833 -86 -50.5 -118s-78.834 -48 -135.501 -48h-367v553z
M116.002 500.999v-182h308c30 0 53 8.5 69 25.5s24 38.167 24 63.5c0 62 -39 93 -117 93h-284zM116.002 267.999v-216h307c44 0 77.333 10.667 100 32s34 48 34 80c0 32.667 -10 58.167 -30 76.5s-47 27.5 -81 27.5h-330z" />
    <glyph glyph-name="afii10020" unicode="&#x413;" horiz-adv-x="581" 
d="M60 553h491v-52h-435v-501h-56v553z" />
    <glyph glyph-name="afii10021" unicode="&#x414;" horiz-adv-x="724" 
d="M213 553h410v-501h71v-172h-45l-7 120h-559l-9 -120h-44v172h75zM257 502l-91 -450h401v450h-310z" />
    <glyph glyph-name="afii10022" unicode="&#x415;" horiz-adv-x="607" 
d="M60 553h481v-51h-425v-192h382v-51h-382v-208h441v-51h-497v553z" />
    <glyph glyph-name="afii10024" unicode="&#x416;" horiz-adv-x="899" 
d="M40 553h63l141 -236h178v236h55v-236h178l141 236h63l-154 -256l174 -297h-66l-154 266h-182v-266h-55v266h-182l-154 -266h-66l174 297z" />
    <glyph glyph-name="afii10025" unicode="&#x417;" horiz-adv-x="647" 
d="M215 328h198.001c32.667 0 58.5 6.83301 77.5 20.5s28.5 34.167 28.5 61.5c0 70 -69 105 -207 105c-82.667 0 -158.334 -20 -227.001 -60l-25 46c77.333 43.333 161.666 65 252.999 65c74 0 134 -10.667 180 -32c54 -25.333 81 -65 81 -119c0 -48 -22.333 -83 -67 -105
c33.333 -7.33301 59.166 -23.5 77.499 -48.5s27.5 -54.167 27.5 -87.5c0 -51.333 -22.667 -94.333 -68 -129c-52.667 -39.333 -132 -59 -238 -59c-105.333 0 -197.333 23 -276 69l26 47c76.667 -42.667 162.334 -64 257.001 -64c74.667 0 133.834 11.833 177.501 35.5
s65.5 57.167 65.5 100.5c0 68.667 -44.333 103 -133 103h-208v51z" />
    <glyph glyph-name="afii10026" unicode="&#x418;" horiz-adv-x="683" 
d="M60 553h56v-484l446 484h61v-553h-56v481l-445 -481h-62v553z" />
    <glyph glyph-name="afii10027" unicode="&#x419;" horiz-adv-x="683" 
d="M60 553h56v-484l446 484h61v-553h-56v481l-445 -481h-62v553zM450 712l35 -26c-34 -53.333 -82 -80 -144 -80s-110 26.667 -144 80l35 26c30 -39.333 66.333 -59 109 -59s79 19.667 109 59z" />
    <glyph glyph-name="afii10028" unicode="&#x41a;" horiz-adv-x="632" 
d="M60 553h56v-232h254l160 232h65l-174 -255l190 -298h-66l-173 270h-256v-270h-56v553z" />
    <glyph glyph-name="afii10029" unicode="&#x41b;" horiz-adv-x="704" 
d="M226 553h418.001v-553h-56v501h-316l-69 -371c-8 -42 -25.333 -74.167 -52 -96.5s-60 -33.5 -100 -33.5h-36v57h29c59.333 0 93.666 26 102.999 78z" />
    <glyph glyph-name="afii10030" unicode="&#x41c;" horiz-adv-x="853" 
d="M60 553h112l257 -499h6l247 499h111v-553h-56v505h-20l-254 -505h-64l-264 505h-20v-505h-55v553z" />
    <glyph glyph-name="afii10031" unicode="&#x41d;" horiz-adv-x="670" 
d="M60 553h56v-239h438v239h56v-553h-56v262h-438v-262h-56v553z" />
    <glyph glyph-name="afii10032" unicode="&#x41e;" 
d="M96 276c0.666992 -74 24.5 -132.167 71.5 -174.5s106.833 -63.5 179.5 -63.5s132.667 21.167 180 63.5s71 100.5 71 174.5s-23.667 132.167 -71 174.5s-107.333 63.5 -180 63.5s-132.5 -21.167 -179.5 -63.5s-70.833 -100.5 -71.5 -174.5zM654 276
c0 -86.667 -28.833 -156.667 -86.5 -210s-131.167 -80 -220.5 -80s-162.833 26.667 -220.5 80s-86.5 123.333 -86.5 210s28.833 156.667 86.5 210s131.167 80 220.5 80s162.833 -26.667 220.5 -80s86.5 -123.333 86.5 -210z" />
    <glyph glyph-name="afii10033" unicode="&#x41f;" horiz-adv-x="650" 
d="M60 553h530v-553h-55v501h-419v-501h-56v553z" />
    <glyph glyph-name="afii10034" unicode="&#x420;" horiz-adv-x="636" 
d="M60 553l321 -0.000976562c62 0 114.167 -19.167 156.5 -57.5s63.5 -88.166 63.5 -149.499c0 -62 -21.167 -112 -63.5 -150s-94.5 -57 -156.5 -57h-265v-139h-56v553zM116 500.999v-310h265c49.333 0 89.166 14 119.499 42s45.5 65.667 45.5 113s-15.167 85 -45.5 113
s-70.166 42 -119.499 42h-265z" />
    <glyph glyph-name="afii10035" unicode="&#x421;" horiz-adv-x="643" 
d="M606 445l-46 -28.001c-49.333 64 -122.333 96 -219 96c-74 0 -133.167 -21.5 -177.5 -64.5s-66.5 -100.167 -66.5 -171.5c0 -69.333 22.667 -126.5 68 -171.5s104 -67.5 176 -67.5c92 0 165.333 33 220 99l47 -29c-64 -81.333 -152 -122 -264 -122
c-89.333 0 -162.333 26.333 -219 79s-85 123.334 -85 212.001c0 88 28.5 158.167 85.5 210.5s129.833 78.5 218.5 78.5c114 0 201.333 -40.333 262 -121z" />
    <glyph glyph-name="afii10036" unicode="&#x422;" horiz-adv-x="626" 
d="M30 553h566v-52h-255v-501h-56v501h-255v52z" />
    <glyph glyph-name="afii10037" unicode="&#x423;" horiz-adv-x="647" 
d="M30 553h58l92 -250c14.667 -40.667 45 -61 91 -61h191l100 311h55l-145 -448c-10 -32 -27.667 -57.5 -53 -76.5s-55.333 -28.5 -90 -28.5h-134v51h127c51.333 0 84 20 98 60l28 79h-183c-32 0 -60.833 9.66699 -86.5 29s-44.167 45 -55.5 77z" />
    <glyph glyph-name="afii10038" unicode="&#x424;" horiz-adv-x="863" 
d="M404 485v68h55v-68h149c62 0 113.333 -19.333 154 -58s61 -89 61 -151c0 -61.333 -20.333 -110.833 -61 -148.5s-92 -56.5 -154 -56.5h-149v-71h-55v71h-149c-62 0 -113.333 18.833 -154 56.5s-61 87.167 -61 148.5c0 62 20.333 112.333 61 151s92 58 154 58h149z
M459 434v-312h144c48.667 0 88.167 13.833 118.5 41.5s45.5 65.5 45.5 113.5c0 49.333 -14.667 87.833 -44 115.5s-69.333 41.5 -120 41.5h-144zM404 434h-144c-50.667 0 -90.667 -13.833 -120 -41.5s-44 -66.167 -44 -115.5c0 -48 15.167 -85.833 45.5 -113.5
s69.833 -41.5 118.5 -41.5h144v312z" />
    <glyph glyph-name="afii10039" unicode="&#x425;" horiz-adv-x="647" 
d="M54 553h67l167 -241h70l171 241h64l-189 -261l213 -292h-68l-186 258h-78l-189 -258h-66l213 289z" />
    <glyph glyph-name="afii10040" unicode="&#x426;" horiz-adv-x="673" 
d="M60 553h56v-501h415v501h56v-501h66v-172h-44l-9 120h-540v553z" />
    <glyph glyph-name="afii10041" unicode="&#x427;" horiz-adv-x="635" 
d="M50 553h56v-194c0 -55.333 14.5 -97.333 43.5 -126s70.833 -43 125.5 -43h244v363h56v-553h-56v138h-266c-60.667 0 -109.667 19.167 -147 57.5s-56 88.833 -56 151.5v206z" />
    <glyph glyph-name="afii10042" unicode="&#x428;" horiz-adv-x="901" 
d="M60 553h55v-501h308v501h55v-501h308v501h55v-553h-781v553z" />
    <glyph glyph-name="afii10043" unicode="&#x429;" horiz-adv-x="927" 
d="M854 0h-794v553h55v-501h308v501h55v-501h308v501h55v-501h66v-172h-44z" />
    <glyph glyph-name="afii10044" unicode="&#x42a;" horiz-adv-x="725" 
d="M25 553h203v-147h247c62 0 113.333 -18.5 154 -55.5s61 -86.167 61 -147.5s-20.333 -110.5 -61 -147.5s-92 -55.5 -154 -55.5h-303v499l-147 6v48zM228 354v-302h242c49.333 0 88.833 13.5 118.5 40.5s44.5 63.833 44.5 110.5c0 47.333 -14.667 84.333 -44 111
s-69 40 -119 40h-242z" />
    <glyph glyph-name="afii10045" unicode="&#x42b;" horiz-adv-x="779" 
d="M663 553h56v-553h-56v553zM60 553h56v-147h247c62 0 113.333 -18.5 154 -55.5s61 -86.167 61 -147.5s-20.333 -110.5 -61 -147.5s-92 -55.5 -154 -55.5h-303v553zM116 354v-302h242c49.333 0 88.833 13.5 118.5 40.5s44.5 63.833 44.5 110.5
c0 47.333 -14.667 84.333 -44 111s-69 40 -119 40h-242z" />
    <glyph glyph-name="afii10046" unicode="&#x42c;" horiz-adv-x="613" 
d="M60 553h56v-147h247c62 0 113.333 -18.5 154 -55.5s61 -86.167 61 -147.5s-20.333 -110.5 -61 -147.5s-92 -55.5 -154 -55.5h-303v553zM116 354v-302h242c49.333 0 88.833 13.5 118.5 40.5s44.5 63.833 44.5 110.5c0 47.333 -14.667 84.333 -44 111s-69 40 -119 40h-242z
" />
    <glyph glyph-name="afii10047" unicode="&#x42d;" horiz-adv-x="648" 
d="M251 308l298.002 0.000976562c-6.66699 62.667 -31.834 112.5 -75.501 149.5s-99.834 55.5 -168.501 55.5c-94.667 0 -167.334 -31.667 -218.001 -95l-45 27c62 80.667 148.667 121 260 121c88.667 0 161.834 -26.167 219.501 -78.5s86.5 -122.5 86.5 -210.5
c0 -88.667 -28.667 -159.334 -86 -212.001s-130.666 -79 -219.999 -79c-111.333 0 -199 40.667 -263 122l46 29c57.333 -66 130.666 -99 219.999 -99c68.667 0 125.5 20.5 170.5 61.5s69.833 93.833 74.5 158.5h-299v50z" />
    <glyph glyph-name="afii10048" unicode="&#x42e;" horiz-adv-x="886" 
d="M60 553l52.999 0.000976562v-234h139c8.66699 80.667 40.167 142 94.5 184s121.5 63 201.5 63c87.333 0 158.833 -24.833 214.5 -74.5s83.5 -121.5 83.5 -215.5s-27.833 -165.833 -83.5 -215.5s-127.167 -74.5 -214.5 -74.5c-85.333 0 -155.666 23.667 -210.999 71
s-84.333 116.666 -87 207.999h-137v-265h-53v553zM304.999 276.001c0 -72.667 21 -130.5 63 -173.5s102 -64.5 180 -64.5s138 21.5 180 64.5s63 100.833 63 173.5s-21 130.5 -63 173.5s-102 64.5 -180 64.5s-138 -21.5 -180 -64.5s-63 -100.833 -63 -173.5z" />
    <glyph glyph-name="afii10049" unicode="&#x42f;" horiz-adv-x="641" 
d="M581 553v-553h-56v144h-310l-83 -144h-63l89 159c-78.667 35.333 -118 97 -118 185c0 62 20.333 112.333 61 151s92 58 154 58h326zM525 501h-264c-49.333 0 -89 -14.333 -119 -43s-45 -66.667 -45 -114s14.667 -83.833 44 -109.5s69.333 -38.5 120 -38.5h264v305z" />
    <glyph glyph-name="afii10065" unicode="&#x430;" horiz-adv-x="727" 
d="M314 502l-151 -356h401l-148 356h-102zM282 553h170l235 -553h-58l-40 93h-448l-41 -93h-60z" />
    <glyph glyph-name="afii10066" unicode="&#x431;" horiz-adv-x="627" 
d="M60 553h458.999v-52h-403v-155h290c52.667 0 96.834 -15.833 132.501 -47.5s53.5 -72.5 53.5 -122.5c0 -49.333 -18 -91 -54 -125s-80 -51 -132 -51h-346v553zM115.999 295l0.000976562 -243h280c46.667 0 81.667 11.333 105 34s35 52.667 35 90
c0 36.667 -11.833 65.667 -35.5 87s-58.834 32 -105.501 32h-279z" />
    <glyph glyph-name="afii10067" unicode="&#x432;" horiz-adv-x="648" 
d="M60 553l347.002 -0.000976562c49.333 0 89.166 -12.167 119.499 -36.5s45.5 -56.5 45.5 -96.5c0 -51.333 -18.333 -89.666 -55 -114.999c30 -10.667 53.5 -28.5 70.5 -53.5s25.5 -53.5 25.5 -85.5c0 -46.667 -16.833 -86 -50.5 -118s-78.834 -48 -135.501 -48h-367v553z
M116.002 500.999v-182h308c30 0 53 8.5 69 25.5s24 38.167 24 63.5c0 62 -39 93 -117 93h-284zM116.002 267.999v-216h307c44 0 77.333 10.667 100 32s34 48 34 80c0 32.667 -10 58.167 -30 76.5s-47 27.5 -81 27.5h-330z" />
    <glyph glyph-name="afii10068" unicode="&#x433;" horiz-adv-x="581" 
d="M60 553h491v-52h-435v-501h-56v553z" />
    <glyph glyph-name="afii10069" unicode="&#x434;" horiz-adv-x="724" 
d="M213 553h410v-501h71v-172h-45l-7 120h-559l-9 -120h-44v172h75zM257 502l-91 -450h401v450h-310z" />
    <glyph glyph-name="afii10070" unicode="&#x435;" horiz-adv-x="607" 
d="M60 553h481v-51h-425v-192h382v-51h-382v-208h441v-51h-497v553z" />
    <glyph glyph-name="afii10072" unicode="&#x436;" horiz-adv-x="899" 
d="M40 553h63l141 -236h178v236h55v-236h178l141 236h63l-154 -256l174 -297h-66l-154 266h-182v-266h-55v266h-182l-154 -266h-66l174 297z" />
    <glyph glyph-name="afii10073" unicode="&#x437;" horiz-adv-x="647" 
d="M215 328h198.001c32.667 0 58.5 6.83301 77.5 20.5s28.5 34.167 28.5 61.5c0 70 -69 105 -207 105c-82.667 0 -158.334 -20 -227.001 -60l-25 46c77.333 43.333 161.666 65 252.999 65c74 0 134 -10.667 180 -32c54 -25.333 81 -65 81 -119c0 -48 -22.333 -83 -67 -105
c33.333 -7.33301 59.166 -23.5 77.499 -48.5s27.5 -54.167 27.5 -87.5c0 -51.333 -22.667 -94.333 -68 -129c-52.667 -39.333 -132 -59 -238 -59c-105.333 0 -197.333 23 -276 69l26 47c76.667 -42.667 162.334 -64 257.001 -64c74.667 0 133.834 11.833 177.501 35.5
s65.5 57.167 65.5 100.5c0 68.667 -44.333 103 -133 103h-208v51z" />
    <glyph glyph-name="afii10074" unicode="&#x438;" horiz-adv-x="683" 
d="M60 553h56v-484l446 484h61v-553h-56v481l-445 -481h-62v553z" />
    <glyph glyph-name="afii10075" unicode="&#x439;" horiz-adv-x="683" 
d="M60 553h56v-484l446 484h61v-553h-56v481l-445 -481h-62v553zM450 712l35 -26c-34 -53.333 -82 -80 -144 -80s-110 26.667 -144 80l35 26c30 -39.333 66.333 -59 109 -59s79 19.667 109 59z" />
    <glyph glyph-name="afii10076" unicode="&#x43a;" horiz-adv-x="632" 
d="M60 553h56v-232h254l160 232h65l-174 -255l190 -298h-66l-173 270h-256v-270h-56v553z" />
    <glyph glyph-name="afii10077" unicode="&#x43b;" horiz-adv-x="704" 
d="M226 553h418.001v-553h-56v501h-316l-69 -371c-8 -42 -25.333 -74.167 -52 -96.5s-60 -33.5 -100 -33.5h-36v57h29c59.333 0 93.666 26 102.999 78z" />
    <glyph glyph-name="afii10078" unicode="&#x43c;" horiz-adv-x="853" 
d="M60 553h112l257 -499h6l247 499h111v-553h-56v505h-20l-254 -505h-64l-264 505h-20v-505h-55v553z" />
    <glyph glyph-name="afii10079" unicode="&#x43d;" horiz-adv-x="670" 
d="M60 553h56v-239h438v239h56v-553h-56v262h-438v-262h-56v553z" />
    <glyph glyph-name="afii10080" unicode="&#x43e;" 
d="M96 276c0.666992 -74 24.5 -132.167 71.5 -174.5s106.833 -63.5 179.5 -63.5s132.667 21.167 180 63.5s71 100.5 71 174.5s-23.667 132.167 -71 174.5s-107.333 63.5 -180 63.5s-132.5 -21.167 -179.5 -63.5s-70.833 -100.5 -71.5 -174.5zM654 276
c0 -86.667 -28.833 -156.667 -86.5 -210s-131.167 -80 -220.5 -80s-162.833 26.667 -220.5 80s-86.5 123.333 -86.5 210s28.833 156.667 86.5 210s131.167 80 220.5 80s162.833 -26.667 220.5 -80s86.5 -123.333 86.5 -210z" />
    <glyph glyph-name="afii10081" unicode="&#x43f;" horiz-adv-x="650" 
d="M60 553h530v-553h-55v501h-419v-501h-56v553z" />
    <glyph glyph-name="afii10082" unicode="&#x440;" horiz-adv-x="636" 
d="M60 553l321 -0.000976562c62 0 114.167 -19.167 156.5 -57.5s63.5 -88.166 63.5 -149.499c0 -62 -21.167 -112 -63.5 -150s-94.5 -57 -156.5 -57h-265v-139h-56v553zM116 500.999v-310h265c49.333 0 89.166 14 119.499 42s45.5 65.667 45.5 113s-15.167 85 -45.5 113
s-70.166 42 -119.499 42h-265z" />
    <glyph glyph-name="afii10083" unicode="&#x441;" horiz-adv-x="643" 
d="M606 445l-46 -28.001c-49.333 64 -122.333 96 -219 96c-74 0 -133.167 -21.5 -177.5 -64.5s-66.5 -100.167 -66.5 -171.5c0 -69.333 22.667 -126.5 68 -171.5s104 -67.5 176 -67.5c92 0 165.333 33 220 99l47 -29c-64 -81.333 -152 -122 -264 -122
c-89.333 0 -162.333 26.333 -219 79s-85 123.334 -85 212.001c0 88 28.5 158.167 85.5 210.5s129.833 78.5 218.5 78.5c114 0 201.333 -40.333 262 -121z" />
    <glyph glyph-name="afii10084" unicode="&#x442;" horiz-adv-x="626" 
d="M30 553h566v-52h-255v-501h-56v501h-255v52z" />
    <glyph glyph-name="afii10085" unicode="&#x443;" horiz-adv-x="647" 
d="M30 553h58l92 -250c14.667 -40.667 45 -61 91 -61h191l100 311h55l-145 -448c-10 -32 -27.667 -57.5 -53 -76.5s-55.333 -28.5 -90 -28.5h-134v51h127c51.333 0 84 20 98 60l28 79h-183c-32 0 -60.833 9.66699 -86.5 29s-44.167 45 -55.5 77z" />
    <glyph glyph-name="afii10086" unicode="&#x444;" horiz-adv-x="863" 
d="M404 485v68h55v-68h149c62 0 113.333 -19.333 154 -58s61 -89 61 -151c0 -61.333 -20.333 -110.833 -61 -148.5s-92 -56.5 -154 -56.5h-149v-71h-55v71h-149c-62 0 -113.333 18.833 -154 56.5s-61 87.167 -61 148.5c0 62 20.333 112.333 61 151s92 58 154 58h149z
M459 434v-312h144c48.667 0 88.167 13.833 118.5 41.5s45.5 65.5 45.5 113.5c0 49.333 -14.667 87.833 -44 115.5s-69.333 41.5 -120 41.5h-144zM404 434h-144c-50.667 0 -90.667 -13.833 -120 -41.5s-44 -66.167 -44 -115.5c0 -48 15.167 -85.833 45.5 -113.5
s69.833 -41.5 118.5 -41.5h144v312z" />
    <glyph glyph-name="afii10087" unicode="&#x445;" horiz-adv-x="647" 
d="M54 553h67l167 -241h70l171 241h64l-189 -261l213 -292h-68l-186 258h-78l-189 -258h-66l213 289z" />
    <glyph glyph-name="afii10088" unicode="&#x446;" horiz-adv-x="673" 
d="M60 553h56v-501h415v501h56v-501h66v-172h-44l-9 120h-540v553z" />
    <glyph glyph-name="afii10089" unicode="&#x447;" horiz-adv-x="635" 
d="M50 553h56v-194c0 -55.333 14.5 -97.333 43.5 -126s70.833 -43 125.5 -43h244v363h56v-553h-56v138h-266c-60.667 0 -109.667 19.167 -147 57.5s-56 88.833 -56 151.5v206z" />
    <glyph glyph-name="afii10090" unicode="&#x448;" horiz-adv-x="901" 
d="M60 553h55v-501h308v501h55v-501h308v501h55v-553h-781v553z" />
    <glyph glyph-name="afii10091" unicode="&#x449;" horiz-adv-x="927" 
d="M854 0h-794v553h55v-501h308v501h55v-501h308v501h55v-501h66v-172h-44z" />
    <glyph glyph-name="afii10092" unicode="&#x44a;" horiz-adv-x="725" 
d="M25 553h203v-147h247c62 0 113.333 -18.5 154 -55.5s61 -86.167 61 -147.5s-20.333 -110.5 -61 -147.5s-92 -55.5 -154 -55.5h-303v499l-147 6v48zM228 354v-302h242c49.333 0 88.833 13.5 118.5 40.5s44.5 63.833 44.5 110.5c0 47.333 -14.667 84.333 -44 111
s-69 40 -119 40h-242z" />
    <glyph glyph-name="afii10093" unicode="&#x44b;" horiz-adv-x="779" 
d="M663 553h56v-553h-56v553zM60 553h56v-147h247c62 0 113.333 -18.5 154 -55.5s61 -86.167 61 -147.5s-20.333 -110.5 -61 -147.5s-92 -55.5 -154 -55.5h-303v553zM116 354v-302h242c49.333 0 88.833 13.5 118.5 40.5s44.5 63.833 44.5 110.5
c0 47.333 -14.667 84.333 -44 111s-69 40 -119 40h-242z" />
    <glyph glyph-name="afii10094" unicode="&#x44c;" horiz-adv-x="613" 
d="M60 553h56v-147h247c62 0 113.333 -18.5 154 -55.5s61 -86.167 61 -147.5s-20.333 -110.5 -61 -147.5s-92 -55.5 -154 -55.5h-303v553zM116 354v-302h242c49.333 0 88.833 13.5 118.5 40.5s44.5 63.833 44.5 110.5c0 47.333 -14.667 84.333 -44 111s-69 40 -119 40h-242z
" />
    <glyph glyph-name="afii10095" unicode="&#x44d;" horiz-adv-x="648" 
d="M251 308l298.002 0.000976562c-6.66699 62.667 -31.834 112.5 -75.501 149.5s-99.834 55.5 -168.501 55.5c-94.667 0 -167.334 -31.667 -218.001 -95l-45 27c62 80.667 148.667 121 260 121c88.667 0 161.834 -26.167 219.501 -78.5s86.5 -122.5 86.5 -210.5
c0 -88.667 -28.667 -159.334 -86 -212.001s-130.666 -79 -219.999 -79c-111.333 0 -199 40.667 -263 122l46 29c57.333 -66 130.666 -99 219.999 -99c68.667 0 125.5 20.5 170.5 61.5s69.833 93.833 74.5 158.5h-299v50z" />
    <glyph glyph-name="afii10096" unicode="&#x44e;" horiz-adv-x="886" 
d="M60 553l52.999 0.000976562v-234h139c8.66699 80.667 40.167 142 94.5 184s121.5 63 201.5 63c87.333 0 158.833 -24.833 214.5 -74.5s83.5 -121.5 83.5 -215.5s-27.833 -165.833 -83.5 -215.5s-127.167 -74.5 -214.5 -74.5c-85.333 0 -155.666 23.667 -210.999 71
s-84.333 116.666 -87 207.999h-137v-265h-53v553zM304.999 276.001c0 -72.667 21 -130.5 63 -173.5s102 -64.5 180 -64.5s138 21.5 180 64.5s63 100.833 63 173.5s-21 130.5 -63 173.5s-102 64.5 -180 64.5s-138 -21.5 -180 -64.5s-63 -100.833 -63 -173.5z" />
    <glyph glyph-name="afii10097" unicode="&#x44f;" horiz-adv-x="641" 
d="M581 553v-553h-56v144h-310l-83 -144h-63l89 159c-78.667 35.333 -118 97 -118 185c0 62 20.333 112.333 61 151s92 58 154 58h326zM525 501h-264c-49.333 0 -89 -14.333 -119 -43s-45 -66.667 -45 -114s14.667 -83.833 44 -109.5s69.333 -38.5 120 -38.5h264v305z" />
    <glyph glyph-name="uni0450" unicode="&#x450;" horiz-adv-x="607" 
d="M60 553h481v-51h-425v-192h382v-51h-382v-208h441v-51h-497v553zM290 818l48 -188l-46 -10l-54 186z" />
    <glyph glyph-name="afii10071" unicode="&#x451;" horiz-adv-x="607" 
d="M60 553h481v-51h-425v-192h382v-51h-382v-208h441v-51h-497v553zM184 735c15.333 0 28.166 -5.16699 38.499 -15.5s15.5 -22.5 15.5 -36.5s-5.16699 -26.167 -15.5 -36.5s-23.166 -15.5 -38.499 -15.5c-14.667 0 -27.167 5.16699 -37.5 15.5s-15.5 22.5 -15.5 36.5
s5.16699 26.167 15.5 36.5s22.833 15.5 37.5 15.5zM421 735c15.333 0 28.166 -5.16699 38.499 -15.5s15.5 -22.5 15.5 -36.5s-5.16699 -26.167 -15.5 -36.5s-23.166 -15.5 -38.499 -15.5c-14.667 0 -27.167 5.16699 -37.5 15.5s-15.5 22.5 -15.5 36.5
s5.16699 26.167 15.5 36.5s22.833 15.5 37.5 15.5z" />
    <glyph glyph-name="afii10099" unicode="&#x452;" horiz-adv-x="788" 
d="M30 553h553.001v-51h-258v-123h173c83.333 0 145.833 -22.333 187.5 -67s62.5 -106.667 62.5 -186c0 -49.333 -9.33301 -100 -28 -152s-44.667 -96.667 -78 -134l-40 30c29.333 36.667 51.666 77.667 66.999 123s23 88.333 23 129c0 75.333 -16.833 128.5 -50.5 159.5
s-91.167 46.5 -172.5 46.5h-144v-328h-56v502h-239v51z" />
    <glyph glyph-name="afii10100" unicode="&#x453;" horiz-adv-x="581" 
d="M60 553h491v-52h-435v-501h-56v553zM292 630l48 188l52 -12l-54 -186z" />
    <glyph glyph-name="afii10101" unicode="&#x454;" horiz-adv-x="648" 
d="M397 308v-50.001h-299c4.66699 -64.667 29.5 -117.5 74.5 -158.5s101.833 -61.5 170.5 -61.5c91.333 0 165.333 32.667 222 98l43 -28c-64 -81.333 -151.333 -122 -262 -122c-89.333 0 -162.666 26.333 -219.999 79s-86 123.334 -86 212.001
c0 88 28.833 158.167 86.5 210.5s130.834 78.5 219.501 78.5c111.333 0 198 -40.333 260 -121l-45 -26c-50 62.667 -122.667 94 -218 94c-68.667 0 -124.834 -18.5 -168.501 -55.5s-68.834 -86.833 -75.501 -149.5h298z" />
    <glyph glyph-name="afii10102" unicode="&#x455;" horiz-adv-x="620" 
d="M554 502l-27.001 -41.998c-68 37.333 -143.667 56 -227 56c-128 0 -192 -34.333 -192 -103c0 -28 9.83301 -48 29.5 -60s49.167 -20.333 88.5 -25l181 -22c55.333 -6.66699 98 -22.834 128 -48.501s45 -60.167 45 -103.5c0 -56.667 -23.667 -98.834 -71 -126.501
s-114 -41.5 -200 -41.5c-104.667 0 -194.334 24.333 -269.001 73l29 46c38.667 -25.333 77.334 -43.166 116.001 -53.499s85.334 -15.5 140.001 -15.5c63.333 0 112.5 9.83301 147.5 29.5s52.5 48.5 52.5 86.5c0 59.333 -43.667 93.666 -131 102.999l-174 19
c-111.333 12 -167 58 -167 138c0 50.667 23.167 89 69.5 115s105.5 39 177.5 39c52.667 0 98.5 -4.5 137.5 -13.5s77.833 -25.833 116.5 -50.5z" />
    <glyph glyph-name="afii10103" unicode="&#x456;" horiz-adv-x="176" 
d="M60 553h56v-553h-56v553z" />
    <glyph glyph-name="afii10104" unicode="&#x457;" horiz-adv-x="176" 
d="M60 553h56v-553h-56v553zM-31 735c15.333 0 28.166 -5.16699 38.499 -15.5s15.5 -22.5 15.5 -36.5s-5.16699 -26.167 -15.5 -36.5s-23.166 -15.5 -38.499 -15.5c-14.667 0 -27.167 5.16699 -37.5 15.5s-15.5 22.5 -15.5 36.5s5.16699 26.167 15.5 36.5
s22.833 15.5 37.5 15.5zM206 735c15.333 0 28.166 -5.16699 38.499 -15.5s15.5 -22.5 15.5 -36.5s-5.16699 -26.167 -15.5 -36.5s-23.166 -15.5 -38.499 -15.5c-14.667 0 -27.167 5.16699 -37.5 15.5s-15.5 22.5 -15.5 36.5s5.16699 26.167 15.5 36.5s22.833 15.5 37.5 15.5
z" />
    <glyph glyph-name="afii10105" unicode="&#x458;" horiz-adv-x="597" 
d="M480 553h55.998v-322c0 -76 -20.5 -135.833 -61.5 -179.5s-105.5 -65.5 -193.5 -65.5c-111.333 0 -191.666 41.667 -240.999 125l47 29c20.667 -34 48.167 -59.667 82.5 -77s70.833 -26 109.5 -26c74.667 0 126.834 17.167 156.501 51.5s44.5 85.5 44.5 153.5v311z" />
    <glyph glyph-name="afii10106" unicode="&#x459;" horiz-adv-x="1065" 
d="M226 553h382.001v-147h207c62 0 113.333 -18.5 154 -55.5s61 -86.167 61 -147.5s-20.333 -110.5 -61 -147.5s-92 -55.5 -154 -55.5h-263v501h-280l-69 -371c-8 -42 -25.333 -74.167 -52 -96.5s-60 -33.5 -100 -33.5h-36v57h29c59.333 0 93.666 26 102.999 78z
M608.001 354v-302h202c49.333 0 88.833 13.5 118.5 40.5s44.5 63.833 44.5 110.5c0 47.333 -14.667 84.333 -44 111s-69 40 -119 40h-202z" />
    <glyph glyph-name="afii10107" unicode="&#x45a;" horiz-adv-x="1027" 
d="M60 553h56v-239h398v239h56v-147h207c62 0 113.333 -18.5 154 -55.5s61 -86.167 61 -147.5s-20.333 -110.5 -61 -147.5s-92 -55.5 -154 -55.5h-263v262h-398v-262h-56v553zM570 354v-302h202c49.333 0 88.833 13.5 118.5 40.5s44.5 63.833 44.5 110.5
c0 47.333 -14.667 84.333 -44 111s-69 40 -119 40h-202z" />
    <glyph glyph-name="afii10108" unicode="&#x45b;" horiz-adv-x="788" 
d="M30 553h553v-52h-258v-122h173c83.333 0 145.833 -22.333 187.5 -67s62.5 -106.667 62.5 -186v-126h-56v126c0 72.667 -16.833 124.5 -50.5 155.5s-88.5 46.5 -164.5 46.5h-152v-328h-56v501h-239v52z" />
    <glyph glyph-name="afii10109" unicode="&#x45c;" horiz-adv-x="632" 
d="M60 553h56v-232h254l160 232h65l-174 -255l190 -298h-66l-173 270h-256v-270h-56v553zM282 620l48 188l52 -12l-54 -186z" />
    <glyph glyph-name="uni045D" unicode="&#x45d;" horiz-adv-x="683" 
d="M60 553h56v-484l446 484h61v-553h-56v481l-445 -481h-62v553zM299 818l48 -188l-46 -10l-54 186z" />
    <glyph glyph-name="afii10110" unicode="&#x45e;" horiz-adv-x="647" 
d="M30 553h58l92 -250c14.667 -40.667 45 -61 91 -61h191l100 311h55l-145 -448c-10 -32 -27.667 -57.5 -53 -76.5s-55.333 -28.5 -90 -28.5h-134v51h127c51.333 0 84 20 98 60l28 79h-183c-32 0 -60.833 9.66699 -86.5 29s-44.167 45 -55.5 77zM442 722l35 -26
c-34 -53.333 -82 -80 -144 -80s-110 26.667 -144 80l35 26c30 -39.333 66.333 -59 109 -59s79 19.667 109 59z" />
    <glyph glyph-name="afii10193" unicode="&#x45f;" horiz-adv-x="650" 
d="M60 553h56v-501h418v501h56v-553h-230l-10 -123h-43l-9 123h-238v553z" />
    <glyph glyph-name="afii10147" unicode="&#x472;" 
d="M40 276c0 86.667 28.833 156.667 86.5 210s131.167 80 220.5 80s162.833 -26.667 220.5 -80s86.5 -123.333 86.5 -210s-28.833 -156.667 -86.5 -210s-131.167 -80 -220.5 -80s-162.833 26.667 -220.5 80s-86.5 123.333 -86.5 210zM97 249
c6.66699 -66 33.001 -117.667 79.001 -155s103 -56 171 -56c72.667 0 132.5 21 179.5 63s70.833 99.333 71.5 172c-36.667 -30 -85.667 -45 -147 -45c-27.333 0 -67.833 10.167 -121.5 30.5s-91.834 30.5 -114.501 30.5c-44 0 -83.333 -13.333 -118 -40zM97.001 301
c34 22.667 76 34.001 126 34.001c33.333 0 73.833 -9.66699 121.5 -29s83.5 -29 107.5 -29c56 0 103.333 15 142 45c-10 60 -37.5 107 -82.5 141s-99.833 51 -164.5 51c-68 0 -125.167 -18.833 -171.5 -56.5s-72.5 -89.834 -78.5 -156.501z" />
    <glyph glyph-name="afii10195" unicode="&#x473;" 
d="M40 276c0 86.667 28.833 156.667 86.5 210s131.167 80 220.5 80s162.833 -26.667 220.5 -80s86.5 -123.333 86.5 -210s-28.833 -156.667 -86.5 -210s-131.167 -80 -220.5 -80s-162.833 26.667 -220.5 80s-86.5 123.333 -86.5 210zM97 249
c6.66699 -66 33.001 -117.667 79.001 -155s103 -56 171 -56c72.667 0 132.5 21 179.5 63s70.833 99.333 71.5 172c-36.667 -30 -85.667 -45 -147 -45c-27.333 0 -67.833 10.167 -121.5 30.5s-91.834 30.5 -114.501 30.5c-44 0 -83.333 -13.333 -118 -40zM97.001 301
c34 22.667 76 34.001 126 34.001c33.333 0 73.833 -9.66699 121.5 -29s83.5 -29 107.5 -29c56 0 103.333 15 142 45c-10 60 -37.5 107 -82.5 141s-99.833 51 -164.5 51c-68 0 -125.167 -18.833 -171.5 -56.5s-72.5 -89.834 -78.5 -156.501z" />
    <glyph glyph-name="afii10050" unicode="&#x490;" horiz-adv-x="586" 
d="M60 553h438l12 124h41v-176h-435v-501h-56v553z" />
    <glyph glyph-name="afii10098" unicode="&#x491;" horiz-adv-x="586" 
d="M60 553h438l12 124h41v-176h-435v-501h-56v553z" />
    <glyph glyph-name="uni04D8" unicode="&#x4d8;" horiz-adv-x="688" 
d="M40 315h548.998c-7.33301 62 -34.166 110.667 -80.499 146s-102.833 53 -169.5 53c-87.333 0 -154.333 -25.333 -201 -76l-37 41c60.667 58 140 87 238 87c88.667 0 162.334 -25.833 221.001 -77.5s88 -122.5 88 -212.5c0 -86.667 -28 -156.667 -84 -210
s-129.333 -80 -220 -80c-88.667 0 -161.5 26 -218.5 78s-85.5 122.667 -85.5 212v39zM591.998 263l-496.001 -0.000976562c3.33301 -67.333 27.5 -121.666 72.5 -162.999s103.5 -62 175.5 -62c71.333 0 128.833 19 172.5 57s68.834 94 75.501 168z" />
    <glyph glyph-name="afii10846" unicode="&#x4d9;" horiz-adv-x="688" 
d="M40 315h548.998c-7.33301 62 -34.166 110.667 -80.499 146s-102.833 53 -169.5 53c-87.333 0 -154.333 -25.333 -201 -76l-37 41c60.667 58 140 87 238 87c88.667 0 162.334 -25.833 221.001 -77.5s88 -122.5 88 -212.5c0 -86.667 -28 -156.667 -84 -210
s-129.333 -80 -220 -80c-88.667 0 -161.5 26 -218.5 78s-85.5 122.667 -85.5 212v39zM591.998 263l-496.001 -0.000976562c3.33301 -67.333 27.5 -121.666 72.5 -162.999s103.5 -62 175.5 -62c71.333 0 128.833 19 172.5 57s68.834 94 75.501 168z" />
    <glyph glyph-name="Wgrave" unicode="&#x1e80;" horiz-adv-x="1005" 
d="M30 553h61l170 -499h37l151 499h102l158 -499h39l169 499h58l-192 -553h-114l-156 499h-25l-151 -499h-114zM476 818l48 -188l-46 -10l-54 186z" />
    <glyph glyph-name="wgrave" unicode="&#x1e81;" horiz-adv-x="1005" 
d="M30 553h61l170 -499h37l151 499h102l158 -499h39l169 499h58l-192 -553h-114l-156 499h-25l-151 -499h-114zM476 818l48 -188l-46 -10l-54 186z" />
    <glyph glyph-name="Wacute" unicode="&#x1e82;" horiz-adv-x="1005" 
d="M30 553h61l170 -499h37l151 499h102l158 -499h39l169 499h58l-192 -553h-114l-156 499h-25l-151 -499h-114zM479 630l48 188l52 -12l-54 -186z" />
    <glyph glyph-name="wacute" unicode="&#x1e83;" horiz-adv-x="1005" 
d="M30 553h61l170 -499h37l151 499h102l158 -499h39l169 499h58l-192 -553h-114l-156 499h-25l-151 -499h-114zM479 630l48 188l52 -12l-54 -186z" />
    <glyph glyph-name="Wdieresis" unicode="&#x1e84;" horiz-adv-x="1005" 
d="M30 553h61l170 -499h37l151 499h102l158 -499h39l169 499h58l-192 -553h-114l-156 499h-25l-151 -499h-114zM383 735c15.333 0 28.166 -5.16699 38.499 -15.5s15.5 -22.5 15.5 -36.5s-5.16699 -26.167 -15.5 -36.5s-23.166 -15.5 -38.499 -15.5
c-14.667 0 -27.167 5.16699 -37.5 15.5s-15.5 22.5 -15.5 36.5s5.16699 26.167 15.5 36.5s22.833 15.5 37.5 15.5zM620 735c15.333 0 28.166 -5.16699 38.499 -15.5s15.5 -22.5 15.5 -36.5s-5.16699 -26.167 -15.5 -36.5s-23.166 -15.5 -38.499 -15.5
c-14.667 0 -27.167 5.16699 -37.5 15.5s-15.5 22.5 -15.5 36.5s5.16699 26.167 15.5 36.5s22.833 15.5 37.5 15.5z" />
    <glyph glyph-name="wdieresis" unicode="&#x1e85;" horiz-adv-x="1005" 
d="M30 553h61l170 -499h37l151 499h102l158 -499h39l169 499h58l-192 -553h-114l-156 499h-25l-151 -499h-114zM383 735c15.333 0 28.166 -5.16699 38.499 -15.5s15.5 -22.5 15.5 -36.5s-5.16699 -26.167 -15.5 -36.5s-23.166 -15.5 -38.499 -15.5
c-14.667 0 -27.167 5.16699 -37.5 15.5s-15.5 22.5 -15.5 36.5s5.16699 26.167 15.5 36.5s22.833 15.5 37.5 15.5zM620 735c15.333 0 28.166 -5.16699 38.499 -15.5s15.5 -22.5 15.5 -36.5s-5.16699 -26.167 -15.5 -36.5s-23.166 -15.5 -38.499 -15.5
c-14.667 0 -27.167 5.16699 -37.5 15.5s-15.5 22.5 -15.5 36.5s5.16699 26.167 15.5 36.5s22.833 15.5 37.5 15.5z" />
    <glyph glyph-name="Ygrave" unicode="&#x1ef2;" horiz-adv-x="656" 
d="M30 553h65l225 -350h19l222 350h65l-270 -415v-138h-56v138zM312 818l48 -188l-46 -10l-54 186z" />
    <glyph glyph-name="ygrave" unicode="&#x1ef3;" horiz-adv-x="656" 
d="M30 553h65l225 -350h19l222 350h65l-270 -415v-138h-56v138zM312 818l48 -188l-46 -10l-54 186z" />
    <glyph glyph-name="endash" unicode="&#x2013;" horiz-adv-x="495" 
d="M40 309h415v-51h-415v51z" />
    <glyph glyph-name="emdash" unicode="&#x2014;" horiz-adv-x="575" 
d="M40 309h495v-51h-495v51z" />
    <glyph glyph-name="quoteleft" unicode="&#x2018;" horiz-adv-x="194" 
d="M125 598l-16 -87c13.333 -2.66699 24 -9 32 -19s12 -22 12 -36c0 -16 -5.33301 -29.333 -16 -40s-24 -16 -40 -16s-29.5 5.33301 -40.5 16s-16.5 24 -16.5 40c0 6 1.33301 13 4 21l51 129z" />
    <glyph glyph-name="quoteright" unicode="&#x2019;" horiz-adv-x="194" 
d="M68 395l16 87c-13.333 2.66699 -24 9 -32 19s-12 22 -12 36c0 16 5.33301 29.333 16 40s24 16 40 16s29.5 -5.33301 40.5 -16s16.5 -24 16.5 -40c0 -6 -1.33301 -13 -4 -21l-51 -129z" />
    <glyph glyph-name="quotesinglbase" unicode="&#x201a;" horiz-adv-x="193" 
d="M68 -96l16 87c-13.333 2.66699 -24 9 -32 19s-12 22 -12 36c0 16 5.33301 29.333 16 40s24 16 40 16s29.5 -5.33301 40.5 -16s16.5 -24 16.5 -40c0 -6 -1.33301 -13 -4 -21l-51 -129z" />
    <glyph glyph-name="quotedblleft" unicode="&#x201c;" horiz-adv-x="321" 
d="M255 582l-12 -75c13.333 -2.66699 24 -9 32 -19s12 -22 12 -36c0 -16 -5.33301 -29.333 -16 -40s-24 -16 -40 -16s-29.5 5.33301 -40.5 16s-16.5 24 -16.5 40c0 6 1.33301 13 4 21l47 117zM120 594l-16 -87c13.333 -2.66699 24 -9 32 -19s12 -22 12 -36
c0 -16 -5.33301 -29.333 -16 -40s-24 -16 -40 -16s-29.5 5.33301 -40.5 16s-16.5 24 -16.5 40c0 6 1.33301 13 4 21l51 129z" />
    <glyph glyph-name="quotedblright" unicode="&#x201d;" horiz-adv-x="322" 
d="M67 396l12 75c-13.333 2.66699 -24 9 -32 19s-12 22 -12 36c0 16 5.33301 29.333 16 40s24 16 40 16s29.5 -5.33301 40.5 -16s16.5 -24 16.5 -40c0 -6 -1.33301 -13 -4 -21l-47 -117zM202 384l16 87c-13.333 2.66699 -24 9 -32 19s-12 22 -12 36
c0 16 5.33301 29.333 16 40s24 16 40 16s29.5 -5.33301 40.5 -16s16.5 -24 16.5 -40c0 -6 -1.33301 -13 -4 -21l-51 -129z" />
    <glyph glyph-name="quotedblbase" unicode="&#x201e;" horiz-adv-x="322" 
d="M67 -84l12 75c-13.333 2.66699 -24 9 -32 19s-12 22 -12 36c0 16 5.33301 29.333 16 40s24 16 40 16s29.5 -5.33301 40.5 -16s16.5 -24 16.5 -40c0 -6 -1.33301 -13 -4 -21l-47 -117zM202 -96l16 87c-13.333 2.66699 -24 9 -32 19s-12 22 -12 36
c0 16 5.33301 29.333 16 40s24 16 40 16s29.5 -5.33301 40.5 -16s16.5 -24 16.5 -40c0 -6 -1.33301 -13 -4 -21l-51 -129z" />
    <glyph glyph-name="bullet" unicode="&#x2022;" horiz-adv-x="229" 
d="M115 375c20.667 0 38.165 -7.16699 52.498 -21.5s21.5 -32.166 21.5 -53.499c0 -20.667 -7 -38 -21 -52s-31.667 -21 -53 -21s-39.166 7 -53.499 21s-21.5 31.333 -21.5 52c0 21.333 7.33301 39.166 22 53.499s32.334 21.5 53.001 21.5z" />
    <glyph glyph-name="ellipsis" unicode="&#x2026;" horiz-adv-x="562" 
d="M97 103c16 0 29.5 -5.5 40.5 -16.5s16.5 -24.5 16.5 -40.5s-5.5 -29.333 -16.5 -40s-24.5 -16 -40.5 -16s-29.5 5.33301 -40.5 16s-16.5 24 -16.5 40s5.5 29.5 16.5 40.5s24.5 16.5 40.5 16.5zM281 103c16 0 29.5 -5.5 40.5 -16.5s16.5 -24.5 16.5 -40.5
s-5.5 -29.333 -16.5 -40s-24.5 -16 -40.5 -16s-29.5 5.33301 -40.5 16s-16.5 24 -16.5 40s5.5 29.5 16.5 40.5s24.5 16.5 40.5 16.5zM465 103c16 0 29.5 -5.5 40.5 -16.5s16.5 -24.5 16.5 -40.5s-5.5 -29.333 -16.5 -40s-24.5 -16 -40.5 -16s-29.5 5.33301 -40.5 16
s-16.5 24 -16.5 40s5.5 29.5 16.5 40.5s24.5 16.5 40.5 16.5z" />
    <glyph glyph-name="perthousand" unicode="&#x2030;" horiz-adv-x="1042" 
d="M498 554l47 -21l-320 -556l-47 21zM533 -7c-40.667 0 -75.167 12.8291 -103.5 38.4961s-42.5 58.834 -42.5 99.501s14.167 73.834 42.5 99.501s62.833 38.5 103.5 38.5c42 0 77 -12.667 105 -38s42 -58.666 42 -99.999s-14 -74.666 -42 -99.999s-63 -38 -105 -38z
M533 39.9961c28 0 50.5 8.33301 67.5 25s25.5 38.667 25.5 66s-8.5 49.333 -25.5 66s-39.5 25 -67.5 25s-50.667 -8.33301 -68 -25s-26 -38.667 -26 -66c0 -26.667 8.83301 -48.5 26.5 -65.5s40.167 -25.5 67.5 -25.5zM176 259.996
c-40.667 0 -75.167 12.8291 -103.5 38.4961s-42.5 58.834 -42.5 99.501s14.167 73.834 42.5 99.501s62.833 38.5 103.5 38.5c42 0 77 -12.667 105 -38s42 -58.666 42 -99.999s-14 -74.666 -42 -99.999s-63 -38 -105 -38zM176 306.992c28 0 50.5 8.33301 67.5 25
s25.5 38.667 25.5 66s-8.5 49.333 -25.5 66s-39.5 25 -67.5 25s-50.667 -8.33301 -68 -25s-26 -38.667 -26 -66c0 -26.667 8.83301 -48.5 26.5 -65.5s40.167 -25.5 67.5 -25.5zM865 -7.00781c-40.667 0 -75.167 12.8291 -103.5 38.4961s-42.5 58.834 -42.5 99.501
s14.167 73.834 42.5 99.501s62.833 38.5 103.5 38.5c42 0 77 -12.667 105 -38s42 -58.666 42 -99.999s-14 -74.666 -42 -99.999s-63 -38 -105 -38zM865 39.9883c28 0 50.5 8.33301 67.5 25s25.5 38.667 25.5 66s-8.5 49.333 -25.5 66s-39.5 25 -67.5 25
s-50.667 -8.33301 -68 -25s-26 -38.667 -26 -66c0 -26.667 8.83301 -48.5 26.5 -65.5s40.167 -25.5 67.5 -25.5z" />
    <glyph glyph-name="guilsinglleft" unicode="&#x2039;" horiz-adv-x="240" 
d="M183 433l31 -30l-115 -134l115 -134l-31 -30l-162 164z" />
    <glyph glyph-name="guilsinglright" unicode="&#x203a;" horiz-adv-x="240" 
d="M57 433l162 -164l-162 -164l-31 30l115 134l-115 134z" />
    <glyph glyph-name="Euro" unicode="&#x20ac;" horiz-adv-x="643" 
d="M0 359l49.002 -0.000976562c16.667 64.667 51.667 115.334 105 152.001s116.666 55 189.999 55c114 0 201.333 -40.333 262 -121l-46 -28c-49.333 64 -122.333 96 -219 96c-58.667 0 -108.334 -13.667 -149.001 -41s-68.667 -65 -84 -113h302v-51h-410v51z
M0.00195312 248.999h410v-51h-301c15.333 -49.333 43.5 -88.333 84.5 -117s90.167 -43 147.5 -43c92 0 165.333 33 220 99l47 -29c-64 -81.333 -152 -122 -264 -122c-74.667 0 -138.5 18.833 -191.5 56.5s-87.5 89.5 -103.5 155.5h-49v51z" />
    <glyph glyph-name="afii61352" unicode="&#x2116;" horiz-adv-x="986" 
d="M60 553h70l437 -488v488h55v-553h-71l-436 490v-490h-55v553zM816 202c-39.333 0 -72.5 12.167 -99.5 36.5s-40.5 56.166 -40.5 95.499s13.5 71.166 40.5 95.499s60.167 36.5 99.5 36.5c40 0 73.333 -12.167 100 -36.5s40 -56.166 40 -95.499
s-13.333 -71.166 -40 -95.499s-60 -36.5 -100 -36.5zM816 248c26.667 0 47.834 7.83301 63.501 23.5s23.5 36.5 23.5 62.5s-7.83301 46.833 -23.5 62.5s-36.834 23.5 -63.501 23.5s-48.167 -7.83301 -64.5 -23.5s-24.5 -36.5 -24.5 -62.5s8.16699 -46.833 24.5 -62.5
s37.833 -23.5 64.5 -23.5zM696 149h240v-48h-240v48z" />
    <glyph glyph-name="trademark" unicode="&#x2122;" horiz-adv-x="651" 
d="M20 553h316l98 -195l97 195h70v-266h-49v205l-100 -205h-38l-100 205v-205h-49v224h-92v-224h-50v224h-103v42z" />
    <glyph glyph-name="minus" unicode="&#x2212;" horiz-adv-x="395" 
d="M40 309h315v-51h-315v51z" />
    <glyph glyph-name=".null" horiz-adv-x="0" 
 />
    <glyph glyph-name="nonmarkingreturn" horiz-adv-x="333" 
 />
    <glyph glyph-name="percent" horiz-adv-x="710" 
d="M498 554l47 -21l-320 -556l-47 21zM533 -7c-40.667 0 -75.167 12.8291 -103.5 38.4961s-42.5 58.834 -42.5 99.501s14.167 73.834 42.5 99.501s62.833 38.5 103.5 38.5c42 0 77 -12.667 105 -38s42 -58.666 42 -99.999s-14 -74.666 -42 -99.999s-63 -38 -105 -38z
M533 39.9961c28 0 50.5 8.33301 67.5 25s25.5 38.667 25.5 66s-8.5 49.333 -25.5 66s-39.5 25 -67.5 25s-50.667 -8.33301 -68 -25s-26 -38.667 -26 -66c0 -26.667 8.83301 -48.5 26.5 -65.5s40.167 -25.5 67.5 -25.5zM176 259.996
c-40.667 0 -75.167 12.8291 -103.5 38.4961s-42.5 58.834 -42.5 99.501s14.167 73.834 42.5 99.501s62.833 38.5 103.5 38.5c42 0 77 -12.667 105 -38s42 -58.666 42 -99.999s-14 -74.666 -42 -99.999s-63 -38 -105 -38zM176 306.992c28 0 50.5 8.33301 67.5 25
s25.5 38.667 25.5 66s-8.5 49.333 -25.5 66s-39.5 25 -67.5 25s-50.667 -8.33301 -68 -25s-26 -38.667 -26 -66c0 -26.667 8.83301 -48.5 26.5 -65.5s40.167 -25.5 67.5 -25.5z" />
    <glyph glyph-name="cyrbreve" horiz-adv-x="380" 
d="M299 732l35 -26c-34 -53.333 -82 -80 -144 -80s-110 26.667 -144 80l35 26c30 -39.333 66.333 -59 109 -59s79 19.667 109 59z" />
    <glyph glyph-name="commaaccent" horiz-adv-x="193" 
d="M96 -42c16 0 29.5 -5.33301 40.5 -16s16.5 -24 16.5 -40c0 -6 -1.33301 -13 -4 -21l-51 -129l-30 8l16 87c-13.333 2.66699 -24 9 -32 19s-12 22 -12 36c0 16 5.33301 29.333 16 40s24 16 40 16z" />
    <glyph glyph-name="dblgrave" horiz-adv-x="288" 
d="M203 818l44 -188l-46 -10l-50 186zM93 818l53 -188l-46 -10l-59 186z" />
    <glyph glyph-name="Imacron" horiz-adv-x="176" 
d="M60 553h56v-553h-56v553zM-79 696h335v-50h-335v50z" />
    <glyph glyph-name="ibreve" horiz-adv-x="176" 
d="M60 553h56v-553h-56v553zM197 732l35 -26c-34 -53.333 -82 -80 -144 -80s-110 26.667 -144 80l35 26c30 -39.333 66.333 -59 109 -59s79 19.667 109 59z" />
    </font>
</defs>
</svg>
