<svg width="183" height="50" viewBox="0 0 183 50" fill="none" xmlns="http://www.w3.org/2000/svg">
	<path fill-rule="evenodd" clip-rule="evenodd" d="M8.86019 36.3191C8.86019 36.3191 10.6169 35.3442 11.8597 35.0799C13.1026 34.8156 15.1244 34.5181 15.4061 34.6172C15.6877 34.7164 15.7375 34.9808 15.6878 35.0964C15.6381 35.212 14.7032 36.5945 14.5775 37.294C14.2971 38.8542 14.9159 39.9536 15.8866 41.0943C15.8866 41.0943 16.2346 41.3091 16.2181 40.6482C16.1574 38.2221 17.8883 35.0062 20.7588 35.84C24.485 36.9222 27.7752 43.1961 25.5316 42.0857C23.6212 41.1402 20.4943 40.393 17.668 41.0448C17.3509 41.1178 17.0715 41.2926 17.1377 41.4413C17.2101 41.6037 23.7655 42.5106 24.8852 44.0685C26.5746 46.4191 20.1409 47.9272 18.505 48.0175C18.2067 48.0341 17.1019 48.0249 17.1792 47.7036C17.5934 45.9807 18.8418 44.757 16.8312 42.1187C16.6782 41.918 16.4832 42.0527 16.4004 42.2509C16.3175 42.4492 16.2015 43.8371 16.0026 44.3328C15.8037 44.8285 15.0083 46.4973 14.2294 46.8112C12.3591 47.565 10.1141 45.9949 8.79376 44.7459C8.14741 44.1345 7.2358 43.11 6.93763 42.4822C6.58323 41.7361 6.15959 40.0936 7.50938 40.8628C9.43 41.9573 13.1855 42.1826 15.2723 41.8963C15.6923 41.8387 15.7701 41.4419 15.2899 41.3586C13.6421 41.0725 8.9204 40.1261 7.74135 38.6983C7.50938 38.4175 7.19449 37.9629 7.48449 37.5087C7.97557 36.7394 8.29311 36.7901 8.85996 36.319L8.86019 36.3191ZM18.2384 19.3346C16.3519 17.6142 9.26944 11.0028 9.42206 8.26417C9.53244 6.28307 10.4661 6.08901 12.3055 5.90132C15.3169 5.5941 20.9006 7.22286 23.8728 9.66862C24.1105 9.86423 24.2365 10.1072 23.9722 10.2139C22.6601 10.7434 20.0999 11.3666 19.1995 14.4769C18.7355 16.0796 18.7686 17.5005 18.8018 17.9963C18.8349 18.492 18.8847 18.9547 18.9676 19.1529C19.0504 19.3512 19.2327 19.31 19.2989 19.2274C23.2475 14.3054 29.0989 11.8444 31.7777 19.2852C32.9276 22.4791 33.2775 24.2329 32.8714 27.1007C32.7077 28.2575 32.4073 29.2818 32.1257 29.5296C31.2319 30.3157 31.3081 28.3129 29.2255 26.1093C26.6708 23.406 23.9269 21.0861 20.1607 20.3757C19.5476 20.2601 20.8898 21.4001 21.2378 21.6976C23.1467 23.3287 28.7903 29.205 28.4799 31.9915C28.3805 32.8837 27.8833 33.2803 27.353 33.4124C24.1373 34.2141 18.4815 32.9637 15.4544 30.7687C14.236 29.8853 14.0955 29.6782 14.1618 29.4799C14.228 29.2817 15.3825 28.9919 16.1835 28.4225C18.755 26.5945 19.8977 24.8882 19.0173 20.3923C18.9449 20.0225 18.4041 20.7558 18.4041 20.7558C16.5558 22.9334 12.3693 27.1091 9.32273 24.8535C6.0212 22.4091 4.54857 16.1323 5.16319 12.1472C5.19928 11.9134 5.77671 9.6673 6.35141 10.2041C6.59979 10.4361 6.85315 11.0055 7.16836 11.602C8.62379 14.3563 12.7458 18.0541 16.0509 19.0705C16.8038 19.302 17.2111 19.467 17.6751 19.4339C18.139 19.4009 18.2384 19.3346 18.2384 19.3346V19.3346ZM25.1108 49.109C29.2677 47.8519 32.797 45.2635 36.1114 41.0336C39.4257 36.8036 41.812 31.7476 42.8726 27.4517C43.9333 23.1557 44.795 21.4372 45.6567 20.9746C46.5184 20.512 47.9519 20.2725 48.8799 20.9995C49.8079 21.7265 49.8162 22.6435 49.8162 22.6435C49.8162 22.6435 50.0484 22.8087 50.5455 22.1809C51.0832 21.5018 51.4596 19.595 50.4627 19.1241L50.4586 18.9997C50.4876 18.2304 50.6601 17.2737 50.0305 16.6715C48.9855 15.6718 44.8985 11.9842 43.5661 10.6336C43.368 10.4328 43.2599 9.96327 43.1971 9.78651C43.1771 9.73028 43.1633 9.71361 43.1276 9.66513C42.9573 9.43369 42.7573 9.52739 42.5577 9.98701C42.3423 10.4827 42.0606 11.4575 42.392 12.1598C42.7235 12.862 43.0135 13.1181 43.0135 13.1181C39.5031 13.8319 36.4747 14.5218 33.725 17.8023C33.725 17.8023 33.5955 18.0498 33.3719 17.7215C33.3337 17.6653 33.2899 17.5712 33.2338 17.4627C30.9213 12.9936 29.637 11.4606 26.9637 9.17728C24.8594 7.38007 22.4226 6.622 20.8155 5.31085C19.2084 3.99971 18.7275 2.36987 16.7223 1.24626C14.7172 0.122656 12.6455 -0.257386 10.5243 0.172217C7.58632 0.767177 3.03137 3.2314 0.00125473 2.65071C-0.0346839 2.64381 2.34909 4.9803 7.39231 4.89785C7.41292 4.89746 7.38539 4.93663 7.30845 4.99945C5.70164 6.30967 3.75831 8.03886 3.0008 11.375C1.56591 17.695 4.63725 24.0533 8.20427 27.6997C11.0347 30.5931 13.1759 31.9956 13.1759 31.9956C13.1759 31.9956 14.1038 32.5574 13.8056 32.7556C13.2174 33.1465 9.67441 32.8573 7.0442 35.0028C1.616 39.4311 4.76965 45.7984 10.4913 48.3205C15.3313 50.4539 20.9539 50.3663 25.1108 49.1093V49.109Z" fill="white" />
	<path d="M71.576 16.4328C72.5177 16.4328 73.4465 16.6143 74.3624 16.977C75.2783 17.3398 76.0957 17.8524 76.8148 18.5146C77.5338 19.1767 78.1159 19.9705 78.5611 20.8957C79.0061 21.8209 79.2288 22.8369 79.2288 23.9435C79.2288 25.0502 79.0105 26.0661 78.5739 26.9914C78.1374 27.9166 77.5596 28.7103 76.8406 29.3725C76.1215 30.0346 75.304 30.5517 74.3881 30.9236C73.4721 31.2955 72.5348 31.4814 71.5761 31.4814H64.1031V16.4326H71.5761L71.576 16.4328ZM67.878 27.8078H71.6274C72.1581 27.8078 72.6546 27.7081 73.1169 27.5084C73.5791 27.3089 73.9857 27.0322 74.3367 26.6875C74.6877 26.3428 74.9616 25.9346 75.1585 25.4584C75.3553 24.9867 75.4538 24.4742 75.4538 23.9299C75.4538 23.3857 75.3553 22.8731 75.1585 22.4015C74.9616 21.9252 74.6877 21.5125 74.3367 21.1587C73.9857 20.805 73.5791 20.5237 73.1169 20.3242C72.6546 20.1246 72.1581 20.0248 71.6274 20.0248H67.878V27.8077V27.8078Z" fill="white" />
	<path d="M89.8433 16.4331C90.6994 16.4331 91.4912 16.5782 92.2188 16.8685C92.9421 17.1588 93.567 17.567 94.0892 18.0931C94.607 18.6192 95.0179 19.2497 95.3176 19.9844C95.6171 20.7191 95.7669 21.531 95.7669 22.42C95.7669 23.5448 95.5401 24.5245 95.0864 25.3591C94.637 26.1936 94.0078 26.8648 93.2032 27.3728L95.3603 31.482H91.26L89.6464 28.2709H85.238V31.482H81.463V16.4332H89.8433V16.4331ZM85.238 24.6243H89.7064C90.3741 24.6243 90.9219 24.4428 91.3499 24.08C91.7779 23.7172 91.9919 23.1638 91.9919 22.42C91.9919 21.6943 91.7779 21.1229 91.3499 20.7056C90.9219 20.2883 90.3741 20.0797 89.7064 20.0797H85.238V24.6243V24.6243Z" fill="white" />
	<path d="M101.417 23.9709C101.417 24.6603 101.524 25.2816 101.738 25.8349C101.952 26.3883 102.251 26.86 102.636 27.25C103.022 27.6401 103.467 27.9394 103.972 28.148C104.477 28.3566 105.029 28.461 105.628 28.461C106.21 28.461 106.758 28.3566 107.272 28.148C107.785 27.9394 108.23 27.64 108.607 27.25C108.984 26.86 109.279 26.3883 109.493 25.8349C109.707 25.2816 109.814 24.6602 109.814 23.9709C109.814 23.2814 109.707 22.6601 109.493 22.1068C109.279 21.5534 108.984 21.0818 108.607 20.6917C108.23 20.3017 107.785 20.0023 107.272 19.7937C106.758 19.5851 106.21 19.4808 105.628 19.4808C105.029 19.4808 104.477 19.5851 103.972 19.7937C103.467 20.0024 103.022 20.3018 102.636 20.6917C102.251 21.0818 101.952 21.5535 101.738 22.1068C101.524 22.6601 101.417 23.2815 101.417 23.9709ZM113.589 23.9709C113.589 25.1501 113.371 26.2251 112.934 27.1956C112.498 28.1662 111.92 28.9961 111.192 29.6856C110.465 30.3751 109.621 30.9102 108.654 31.2912C107.687 31.6722 106.677 31.8626 105.615 31.8626C104.554 31.8626 103.544 31.6722 102.576 31.2912C101.613 30.9102 100.766 30.3751 100.038 29.6856C99.3107 28.9962 98.7329 28.1662 98.2963 27.1956C97.8598 26.225 97.6415 25.1501 97.6415 23.9709C97.6415 22.7917 97.8598 21.7167 98.2963 20.7462C98.7329 19.7756 99.3107 18.9456 100.038 18.2561C100.766 17.5667 101.613 17.0315 102.576 16.6506C103.544 16.2696 104.554 16.0791 105.615 16.0791C106.677 16.0791 107.687 16.2696 108.654 16.6506C109.621 17.0315 110.465 17.5667 111.192 18.2561C111.92 18.9456 112.498 19.7755 112.934 20.7462C113.371 21.7168 113.589 22.7917 113.589 23.9709Z" fill="white" />
	<path d="M119.341 16.4331L126.943 25.5222V16.4331H130.718V31.4819H127.242L119.624 22.3927V31.4819H115.9V16.4331H119.341Z" fill="white" />
	<path d="M136.881 16.4331V31.4819H133.106V16.4331H136.881Z" fill="white" />
	<path d="M151.545 22.1204C151.014 21.304 150.41 20.6827 149.734 20.2563C149.058 19.83 148.172 19.6168 147.076 19.6168C145.809 19.6168 144.795 20.0068 144.033 20.787C143.271 21.5671 142.89 22.6284 142.89 23.9709C142.89 24.624 142.993 25.2182 143.198 25.7534C143.404 26.2886 143.691 26.7467 144.059 27.1276C144.427 27.5086 144.868 27.8034 145.381 28.012C145.895 28.2207 146.46 28.325 147.076 28.325C148.155 28.325 149.041 28.1164 149.734 27.6991C150.427 27.2818 151.022 26.6651 151.519 25.8486L154.446 27.5902C153.727 29.0234 152.756 30.0938 151.532 30.8013C150.308 31.5089 148.84 31.8626 147.128 31.8626C145.98 31.8626 144.919 31.6812 143.943 31.3184C142.963 30.9556 142.12 30.434 141.405 29.7536C140.69 29.0734 140.13 28.2433 139.723 27.2637C139.316 26.284 139.115 25.1864 139.115 23.9709C139.115 22.7554 139.321 21.6623 139.736 20.6917C140.151 19.7211 140.72 18.8957 141.444 18.2153C142.167 17.5351 143.014 17.0089 143.982 16.637C144.949 16.265 145.998 16.0791 147.127 16.0791C150.552 16.0791 153 17.5033 154.472 20.3516L151.545 22.1204Z" fill="white" />
	<path d="M160.045 23.9709C160.045 24.6603 160.152 25.2816 160.366 25.8349C160.58 26.3883 160.879 26.86 161.265 27.25C161.65 27.6401 162.095 27.9394 162.6 28.148C163.105 28.3566 163.657 28.461 164.256 28.461C164.839 28.461 165.386 28.3566 165.9 28.148C166.414 27.9394 166.859 27.64 167.235 27.25C167.612 26.86 167.907 26.3883 168.121 25.8349C168.335 25.2816 168.442 24.6602 168.442 23.9709C168.442 23.2814 168.335 22.6601 168.121 22.1068C167.907 21.5534 167.612 21.0818 167.235 20.6917C166.859 20.3017 166.414 20.0023 165.9 19.7937C165.386 19.5851 164.839 19.4808 164.256 19.4808C163.657 19.4808 163.105 19.5851 162.6 19.7937C162.095 20.0024 161.65 20.3018 161.265 20.6917C160.879 21.0818 160.58 21.5535 160.366 22.1068C160.152 22.6601 160.045 23.2815 160.045 23.9709ZM172.217 23.9709C172.217 25.1501 171.999 26.2251 171.563 27.1956C171.126 28.1662 170.548 28.9961 169.821 29.6856C169.093 30.3751 168.25 30.9102 167.282 31.2912C166.315 31.6722 165.305 31.8626 164.244 31.8626C163.182 31.8626 162.172 31.6722 161.205 31.2912C160.242 30.9102 159.394 30.3751 158.667 29.6856C157.939 28.9962 157.361 28.1662 156.925 27.1956C156.488 26.225 156.27 25.1501 156.27 23.9709C156.27 22.7917 156.488 21.7167 156.925 20.7462C157.361 19.7756 157.939 18.9456 158.667 18.2561C159.394 17.5667 160.242 17.0315 161.205 16.6506C162.172 16.2696 163.182 16.0791 164.244 16.0791C165.305 16.0791 166.315 16.2696 167.282 16.6506C168.25 17.0315 169.093 17.5667 169.821 18.2561C170.548 18.9456 171.126 19.7755 171.563 20.7462C171.999 21.7168 172.217 22.7917 172.217 23.9709Z" fill="white" />
	<path d="M67.2951 38.9483C67.6178 38.9483 67.9162 39.003 68.1904 39.1124C68.4631 39.2219 68.6987 39.3758 68.8954 39.574C69.0907 39.7723 69.2456 40.01 69.3585 40.2869C69.4714 40.5638 69.5279 40.8699 69.5279 41.205C69.5279 41.5401 69.4714 41.8444 69.3585 42.1179C69.2456 42.3914 69.0923 42.6239 68.8954 42.8154C68.6986 43.0068 68.4647 43.1538 68.1904 43.2564C67.9162 43.359 67.6194 43.4102 67.2967 43.4102H65.5591V44.6206H64.1362V38.9482H67.2951V38.9483ZM65.5591 42.0359H67.2434C67.4952 42.0359 67.7016 41.9675 67.8629 41.8307C68.0243 41.694 68.1049 41.4855 68.1049 41.2051C68.1049 40.9315 68.0244 40.7161 67.8629 40.5588C67.7016 40.4016 67.4951 40.3229 67.2434 40.3229H65.5591V42.036V42.0359Z" fill="white" />
	<path d="M72.1317 42.4768H74.0192L73.2061 40.292H72.9835L72.1317 42.4768ZM74.1451 38.9482L76.4199 44.6206H74.9098L74.571 43.7897H71.609L71.2799 44.6206H69.7505L72.0737 38.9482H74.1451Z" fill="white" />
	<path d="M81.831 38.9482V40.3023H78.5592V40.7433H80.5775C80.8533 40.7433 81.1099 40.7912 81.3454 40.8869C81.5793 40.9826 81.781 41.116 81.9488 41.287C82.1166 41.4579 82.2456 41.6596 82.3392 41.8922C82.4328 42.1247 82.4796 42.3777 82.4796 42.6512C82.4796 42.9179 82.4327 43.171 82.3392 43.4102C82.2456 43.6496 82.115 43.8582 81.9472 44.036C81.7794 44.2138 81.5777 44.3557 81.3421 44.4617C81.1067 44.5677 80.8501 44.6207 80.5726 44.6207H77.1362V38.9483H81.831V38.9482ZM78.5592 43.2667H80.4872C80.7065 43.2667 80.855 43.2068 80.9357 43.0872C81.0164 42.9675 81.0566 42.8222 81.0566 42.6512C81.0566 42.494 81.0147 42.3588 80.9309 42.2461C80.847 42.1332 80.6969 42.0768 80.4775 42.0768H78.5592V43.2668V43.2667Z" fill="white" />
	<path d="M84.5897 41.7897C84.5897 42.0495 84.6301 42.2837 84.7107 42.4923C84.7914 42.7008 84.9043 42.8787 85.0496 43.0257C85.1948 43.1727 85.3625 43.2855 85.5529 43.3641C85.7433 43.4428 85.9514 43.4821 86.1773 43.4821C86.3967 43.4821 86.6032 43.4428 86.7968 43.3641C86.9905 43.2855 87.1582 43.1727 87.3002 43.0257C87.4421 42.8786 87.5534 42.7008 87.6341 42.4923C87.7147 42.2837 87.7551 42.0495 87.7551 41.7897C87.7551 41.5298 87.7148 41.2955 87.6341 41.0871C87.5534 40.8785 87.4421 40.7006 87.3002 40.5537C87.1582 40.4066 86.9905 40.2938 86.7968 40.2151C86.6032 40.1365 86.3967 40.0972 86.1773 40.0972C85.9514 40.0972 85.7433 40.1365 85.5529 40.2151C85.3625 40.2938 85.1948 40.4066 85.0496 40.5537C84.9043 40.7007 84.7914 40.8785 84.7107 41.0871C84.6301 41.2956 84.5897 41.5298 84.5897 41.7897ZM89.178 41.7897C89.178 42.2342 89.0957 42.6393 88.9311 43.0052C88.7666 43.371 88.5487 43.6839 88.2745 43.9437C88.0002 44.2036 87.6824 44.4053 87.3178 44.5489C86.9532 44.6925 86.5724 44.7643 86.1724 44.7643C85.7723 44.7643 85.3915 44.6925 85.0269 44.5489C84.664 44.4053 84.3445 44.2036 84.0702 43.9437C83.7959 43.6839 83.5782 43.371 83.4136 43.0052C83.2491 42.6393 83.1667 42.2342 83.1667 41.7897C83.1667 41.3452 83.2491 40.94 83.4136 40.5741C83.5781 40.2083 83.7959 39.8954 84.0702 39.6356C84.3445 39.3758 84.6639 39.174 85.0269 39.0304C85.3915 38.8868 85.7723 38.8149 86.1724 38.8149C86.5724 38.8149 86.9532 38.8868 87.3178 39.0304C87.6824 39.174 88.0003 39.3758 88.2745 39.6356C88.5487 39.8954 88.7666 40.2083 88.9311 40.5741C89.0957 40.94 89.178 41.3452 89.178 41.7897Z" fill="white" />
	<path d="M95.2763 38.9482V40.3022H93.1951V44.6206H91.7722V40.3022H89.691V38.9482H95.2763Z" fill="white" />
	<path d="M97.3478 42.4768H99.2354L98.4223 40.292H98.1997L97.3479 42.4768H97.3478ZM99.3612 38.9482L101.636 44.6206H100.126L99.7871 43.7897H96.8251L96.496 44.6206H94.9666L97.2897 38.9482H99.3612H99.3612Z" fill="white" />
	<path d="M107.279 38.9482V40.3022H103.775V41.0715H106.921V42.4256H103.775V43.2257H107.405V44.6206H102.352V38.9482H107.279Z" fill="white" />
	<path d="M110.067 38.9482L111.732 42.7332H111.771L113.571 38.9482H115.285V44.6206H113.862V41.051L112.303 44.6206H111.161L109.632 41.051V44.6206H108.247V38.9482H110.067Z" fill="white" />
	<path d="M122.312 38.9482C122.551 38.9482 122.774 38.9858 122.98 39.061C123.187 39.1362 123.364 39.2422 123.513 39.379C123.661 39.5158 123.777 39.6799 123.861 39.8714C123.945 40.0629 123.987 40.2783 123.987 40.5176C123.987 40.6953 123.956 40.8647 123.895 41.0254C123.834 41.1861 123.738 41.3143 123.609 41.41C123.842 41.5536 124.022 41.7365 124.151 41.9588C124.28 42.181 124.345 42.4734 124.345 42.8358C124.345 43.0819 124.3 43.3145 124.21 43.5333C124.119 43.7521 123.995 43.9418 123.837 44.1025C123.679 44.2632 123.493 44.3897 123.28 44.4821C123.067 44.5744 122.838 44.6206 122.593 44.6206H118.837V38.9482H122.312H122.312ZM120.26 41.0613H122.303C122.374 41.0613 122.44 41.022 122.501 40.9433C122.562 40.8647 122.593 40.7775 122.593 40.6818C122.593 40.6065 122.569 40.5245 122.521 40.4356C122.472 40.3466 122.383 40.3023 122.254 40.3023H120.26V41.0613ZM120.26 43.2667H122.554C122.664 43.2667 122.758 43.2291 122.835 43.1521C122.912 43.0769 122.951 42.9692 122.951 42.8307C122.951 42.6991 122.911 42.5897 122.83 42.5042C122.75 42.417 122.645 42.3743 122.516 42.3743H120.26V43.2667H120.26Z" fill="white" />
	<path d="M131.227 38.9482C131.466 38.9482 131.689 38.9858 131.895 39.061C132.102 39.1362 132.279 39.2422 132.428 39.379C132.576 39.5158 132.692 39.6799 132.776 39.8714C132.86 40.0629 132.902 40.2783 132.902 40.5176C132.902 40.6953 132.871 40.8647 132.81 41.0254C132.749 41.1861 132.654 41.3143 132.524 41.41C132.757 41.5536 132.938 41.7365 133.067 41.9588C133.196 42.181 133.26 42.4734 133.26 42.8358C133.26 43.0819 133.215 43.3145 133.125 43.5333C133.034 43.7521 132.91 43.9418 132.752 44.1025C132.594 44.2632 132.408 44.3897 132.195 44.4821C131.982 44.5744 131.753 44.6206 131.508 44.6206H127.752V38.9482H131.227H131.227ZM129.175 41.0613H131.218C131.289 41.0613 131.355 41.022 131.416 40.9433C131.478 40.8647 131.508 40.7775 131.508 40.6818C131.508 40.6065 131.484 40.5245 131.436 40.4356C131.387 40.3466 131.299 40.3023 131.169 40.3023H129.175V41.0613H129.175ZM129.175 43.2667H131.469C131.579 43.2667 131.673 43.2291 131.75 43.1521C131.828 43.0769 131.866 42.9692 131.866 42.8307C131.866 42.6991 131.826 42.5897 131.745 42.5042C131.665 42.417 131.56 42.3743 131.431 42.3743H129.175V43.2667H129.175Z" fill="white" />
	<path d="M135.409 41.7897C135.409 42.0495 135.45 42.2837 135.53 42.4923C135.611 42.7008 135.724 42.8787 135.869 43.0257C136.014 43.1727 136.182 43.2855 136.372 43.3641C136.563 43.4428 136.771 43.4821 136.997 43.4821C137.216 43.4821 137.423 43.4428 137.616 43.3641C137.81 43.2855 137.978 43.1727 138.12 43.0257C138.262 42.8786 138.373 42.7008 138.454 42.4923C138.534 42.2837 138.575 42.0495 138.575 41.7897C138.575 41.5298 138.534 41.2955 138.454 41.0871C138.373 40.8785 138.262 40.7006 138.12 40.5537C137.978 40.4066 137.81 40.2938 137.616 40.2151C137.423 40.1365 137.216 40.0972 136.997 40.0972C136.771 40.0972 136.563 40.1365 136.372 40.2151C136.182 40.2938 136.014 40.4066 135.869 40.5537C135.724 40.7007 135.611 40.8785 135.53 41.0871C135.45 41.2956 135.409 41.5298 135.409 41.7897ZM139.998 41.7897C139.998 42.2342 139.915 42.6393 139.751 43.0052C139.586 43.371 139.368 43.6839 139.094 43.9437C138.82 44.2036 138.502 44.4053 138.137 44.5489C137.773 44.6925 137.392 44.7643 136.992 44.7643C136.592 44.7643 136.211 44.6925 135.846 44.5489C135.483 44.4053 135.164 44.2036 134.89 43.9437C134.615 43.6839 134.398 43.371 134.233 43.0052C134.069 42.6393 133.986 42.2342 133.986 41.7897C133.986 41.3452 134.069 40.94 134.233 40.5741C134.398 40.2083 134.615 39.8954 134.89 39.6356C135.164 39.3758 135.483 39.174 135.846 39.0304C136.211 38.8868 136.592 38.8149 136.992 38.8149C137.392 38.8149 137.773 38.8868 138.137 39.0304C138.502 39.174 138.82 39.3758 139.094 39.6356C139.368 39.8954 139.586 40.2083 139.751 40.5741C139.915 40.94 139.998 41.3452 139.998 41.7897Z" fill="white" />
	<path d="M144.344 40.9998C144.441 40.9998 144.507 40.9708 144.542 40.9126C144.578 40.8545 144.595 40.7741 144.595 40.6716C144.595 40.5006 144.499 40.3689 144.305 40.2766C144.111 40.1843 143.811 40.1382 143.405 40.1382C143.16 40.1382 142.945 40.1467 142.761 40.1638C142.577 40.1808 142.408 40.2116 142.253 40.2561C142.098 40.3005 141.946 40.362 141.798 40.4407C141.649 40.5194 141.488 40.6168 141.314 40.7331L140.723 39.6561C140.943 39.492 141.157 39.3569 141.367 39.2509C141.577 39.1449 141.79 39.0594 142.006 38.9945C142.222 38.9295 142.443 38.8833 142.669 38.856C142.895 38.8286 143.131 38.8149 143.376 38.8149C144.35 38.8149 145.057 39.003 145.496 39.3791C145.857 39.68 146.038 40.1006 146.038 40.6408C146.038 40.7981 146.01 40.9519 145.955 41.1024C145.901 41.2529 145.821 41.3691 145.718 41.4511C145.928 41.6084 146.089 41.7914 146.201 41.9999C146.312 42.2085 146.367 42.4735 146.367 42.7949C146.367 43.0889 146.302 43.354 146.175 43.5899C146.046 43.8258 145.863 44.0395 145.626 44.231C145.376 44.4293 145.063 44.5678 144.686 44.6464C144.31 44.7251 143.885 44.7644 143.414 44.7644C143.111 44.7644 142.832 44.7473 142.577 44.7131C142.322 44.6789 142.082 44.6259 141.856 44.5541C141.63 44.4823 141.409 44.3883 141.193 44.272C140.977 44.1558 140.759 44.0156 140.539 43.8515L141.188 42.7437C141.511 42.9694 141.861 43.1421 142.238 43.2617C142.616 43.3813 143.027 43.4411 143.472 43.4411C143.692 43.4411 143.893 43.4309 144.077 43.4104C144.261 43.3899 144.416 43.354 144.542 43.3027C144.668 43.2514 144.766 43.1778 144.837 43.0821C144.908 42.9864 144.944 42.8667 144.944 42.7231C144.944 42.5795 144.899 42.4769 144.808 42.4153C144.718 42.3538 144.553 42.323 144.315 42.323H142.146V40.9998H144.344H144.344Z" fill="white" />
	<path d="M152.765 38.9482V43.2667H153.375V45.6567H152.136L152.03 44.6206H148.312L148.216 45.6567H146.967V43.2667H147.625L148.399 38.9482H152.765H152.765ZM149.106 43.2667H151.342V40.2612H149.571L149.106 43.2667H149.106Z" fill="white" />
	<path d="M155.185 38.9482L155.921 41.2664C155.966 41.4032 156.056 41.4716 156.192 41.4716H157.547L158.351 38.9482H159.812L158.38 43.4102C158.321 43.588 158.241 43.7505 158.138 43.8975C158.034 44.0445 157.913 44.171 157.775 44.2771C157.636 44.383 157.484 44.4668 157.32 44.5283C157.155 44.5899 156.982 44.6206 156.802 44.6206H155.224V43.3487H156.744C156.911 43.3487 157.028 43.2564 157.092 43.0718L157.16 42.8256H156.134C155.708 42.8256 155.372 42.7282 155.127 42.5333C154.882 42.3384 154.695 42.0358 154.566 41.6254L153.714 38.9482H155.185H155.185Z" fill="white" />
	<path d="M161.942 38.9482L163.278 41.0408H163.5L164.826 38.9482H166.443L164.672 41.6357L166.511 44.6206H164.865L163.51 42.3845H163.258L161.922 44.6206H160.267L162.116 41.6665L160.325 38.9482H161.942Z" fill="white" />
	<path d="M172.135 38.9482V40.3022H168.631V41.0715H171.777V42.4256H168.631V43.2257H172.261V44.6206H167.208V38.9482H172.135Z" fill="white" />
	<path d="M177.271 18.0149C176.471 18.0149 175.724 17.8654 175.03 17.5665C174.335 17.2675 173.733 16.8611 173.223 16.347C172.713 15.8329 172.31 15.2324 172.016 14.5453C171.721 13.8582 171.574 13.1265 171.574 12.3502V12.3187C171.574 11.5424 171.721 10.8108 172.016 10.1237C172.31 9.4365 172.715 8.8334 173.231 8.31413C173.746 7.79487 174.354 7.38311 175.054 7.07892C175.753 6.77473 176.503 6.62256 177.302 6.62256C178.102 6.62256 178.849 6.77202 179.543 7.07101C180.238 7.37 180.84 7.77641 181.35 8.29048C181.861 8.80454 182.263 9.40501 182.558 10.0922C182.852 10.7793 183 11.5109 183 12.2872V12.3187C183 13.095 182.852 13.8267 182.558 14.5138C182.263 15.2009 181.858 15.8041 181.343 16.3233C180.827 16.8426 180.219 17.2544 179.52 17.5585C178.82 17.8627 178.07 18.0149 177.271 18.0149ZM177.271 17.3854C177.997 17.3854 178.668 17.2517 179.283 16.9842C179.899 16.7167 180.433 16.3547 180.885 15.8985C181.337 15.4422 181.692 14.9046 181.95 14.2857C182.208 13.6668 182.337 13.0111 182.337 12.3188V12.2873C182.337 11.5949 182.211 10.9419 181.958 10.3283C181.706 9.71463 181.353 9.17962 180.901 8.72326C180.448 8.2669 179.914 7.90764 179.299 7.64542C178.683 7.38311 178.018 7.25203 177.302 7.25203C176.577 7.25203 175.906 7.38575 175.29 7.65325C174.675 7.92075 174.141 8.28265 173.688 8.73893C173.236 9.19529 172.881 9.73286 172.623 10.3518C172.365 10.9707 172.236 11.6263 172.236 12.3187V12.3502C172.236 13.0426 172.365 13.6955 172.623 14.3093C172.881 14.9229 173.233 15.4579 173.681 15.9142C174.128 16.3706 174.659 16.7298 175.275 16.9921C175.89 17.2543 176.555 17.3854 177.271 17.3854ZM174.935 9.12448H177.634C178.444 9.12448 179.07 9.34475 179.512 9.78536C179.849 10.121 180.017 10.5617 180.017 11.1071V11.1385C180.017 11.6316 179.896 12.0303 179.654 12.3344C179.412 12.6387 179.096 12.8642 178.707 13.0111L180.19 15.1825H178.628L177.334 13.2313H177.302H176.277V15.1825H174.935V9.12448H174.935ZM177.618 12.0827C177.955 12.0827 178.213 12.0014 178.391 11.8388C178.57 11.6762 178.66 11.469 178.66 11.2172V11.1857C178.66 10.892 178.565 10.6717 178.376 10.5248C178.186 10.3779 177.923 10.3045 177.586 10.3045H176.277V12.0826H177.618V12.0827Z" fill="white" />
</svg>
