<svg width="24" height="22" viewBox="0 0 24 22" fill="none" xmlns="http://www.w3.org/2000/svg">
<path d="M23.3833 0.435218C23.139 0.221747 22.8416 0.079986 22.5234 0.0252841C22.2052 -0.0294179 21.8782 0.00502422 21.5779 0.124881L1.12459 8.25679C0.768143 8.39856 0.466631 8.65332 0.265163 8.98296C0.0636951 9.31259 -0.0268988 9.69938 0.00693407 10.0855C0.040767 10.4715 0.197208 10.8362 0.452854 11.1248C0.7085 11.4134 1.04961 11.6105 1.42515 11.6865L6.62047 12.7383V19.3054C6.62016 19.6605 6.72397 20.0076 6.91875 20.3029C7.11353 20.5982 7.39052 20.8284 7.71464 20.9643C8.03877 21.1002 8.39545 21.1356 8.73951 21.0662C9.08357 20.9968 9.39954 20.8256 9.64741 20.5744L12.5226 17.6647L16.8864 21.5509C17.2077 21.8397 17.6223 21.9994 18.052 22C18.2387 21.9998 18.4243 21.97 18.602 21.9117C18.8951 21.8177 19.1586 21.6475 19.3664 21.4181C19.5742 21.1888 19.7189 20.9083 19.7861 20.6047L23.9547 2.19619C24.0273 1.87785 24.0124 1.54548 23.9117 1.23509C23.811 0.924696 23.6282 0.648007 23.3833 0.435218ZM7.30159 11.046L1.77314 9.92702L17.2532 3.77232L7.30159 11.046ZM8.39365 19.3045V13.9874L11.1886 16.4765L8.39365 19.3045ZM18.0577 20.2037L8.92672 12.0717L22.0754 2.46133L18.0577 20.2037Z" fill="white"/>
</svg>
