{"accessors":[{"bufferView":0,"componentType":5123,"count":2484,"max":[2483],"min":[0],"type":"SCALAR"},{"bufferView":1,"componentType":5126,"count":2484,"max":[64.73739624023438,11.066582679748535,64.1851577758789],"min":[-64.34700012207031,-9.958154678344727,-64.78224182128906],"type":"VEC3"},{"bufferView":2,"componentType":5126,"count":2484,"max":[0.4714091122150421,0.3333442807197571,0.8165007829666138],"min":[-0.9428104758262634,-1.0,-0.8165001273155212],"type":"VEC3"},{"bufferView":3,"componentType":5126,"count":2484,"max":[339.63262939453125,1.0],"min":[14.766632080078125,-56.19091033935547],"type":"VEC2"},{"bufferView":4,"componentType":5126,"count":2484,"max":[0.3891029357910156,0.27512121200561523,0.6739311218261719],"min":[-0.7781753540039062,-0.8253602981567383,-0.6739349365234375],"type":"VEC3"},{"bufferView":5,"componentType":5126,"count":2484,"max":[0.001658022403717041,0.004072606563568115,0.0011879205703735352],"min":[-0.0009838640689849854,-0.002020418643951416,-0.001508951187133789],"type":"VEC3"},{"bufferView":6,"componentType":5123,"count":12096,"max":[12095],"min":[0],"type":"SCALAR"},{"bufferView":7,"componentType":5126,"count":12096,"max":[35.79441452026367,35.982688903808594,35.70097351074219],"min":[-35.750701904296875,-35.836421966552734,-35.70098876953125],"type":"VEC3"},{"bufferView":8,"componentType":5126,"count":12096,"max":[0.7749050259590149,0.6947852969169617,0.9825239777565002],"min":[-0.9428135752677917,-1.0,-0.9825239181518555],"type":"VEC3"},{"bufferView":9,"componentType":5126,"count":12096,"max":[0.28006744384765625,0.19803619384765625,0.28006935119628906],"min":[-0.3233985900878906,-0.34301185607910156,-0.2800712585449219],"type":"VEC3"},{"bufferView":10,"componentType":5126,"count":12096,"max":[0.004793047904968262,0.002788260579109192,0.002950817346572876],"min":[-0.0028503835201263428,-0.003153853118419647,-0.00292167067527771],"type":"VEC3"},{"bufferView":11,"componentType":5123,"count":18528,"max":[18527],"min":[0],"type":"SCALAR"},{"bufferView":12,"componentType":5126,"count":18528,"max":[30.390613555908203,30.414518356323242,30.338293075561523],"min":[-30.33835792541504,-30.23905372619629,-30.338340759277344],"type":"VEC3"},{"bufferView":13,"componentType":5126,"count":18528,"max":[0.7748993635177612,0.6947627663612366,0.9825214743614197],"min":[-0.9428113102912903,-1.0,-0.9825214743614197],"type":"VEC3"},{"bufferView":14,"componentType":5126,"count":18528,"max":[60.0,1.0],"min":[0.0,-59.0],"type":"VEC2"},{"bufferView":15,"componentType":5126,"count":18528,"max":[0.32877159118652344,0.2324810028076172,0.32877159118652344],"min":[-0.3796272277832031,-0.40265464782714844,-0.3287696838378906],"type":"VEC3"},{"bufferView":16,"componentType":5126,"count":18528,"max":[0.00042450428009033203,0.000571906566619873,0.0009890496730804443],"min":[-0.0005132555961608887,-0.0006184577941894531,-0.0009840130805969238],"type":"VEC3"},{"bufferView":17,"componentType":5126,"count":11,"max":[0.3333333333333333],"min":[0.0],"type":"SCALAR"},{"bufferView":18,"componentType":5126,"count":11,"max":[0.17883610725402832,0.17883610725402832,0.17883610725402832],"min":[0.030905431136488914,0.030905431136488914,0.030905431136488914],"type":"VEC3"},{"bufferView":19,"componentType":5126,"count":11,"max":[0.3333333333333333],"min":[0.0],"type":"SCALAR"},{"bufferView":20,"componentType":5126,"count":11,"max":[0.19692713022232056,0.19692713022232056,0.19692713022232056],"min":[0.038615889847278595,0.038615889847278595,0.038615889847278595],"type":"VEC3"},{"bufferView":21,"componentType":5126,"count":31,"max":[1.0],"min":[0.0],"type":"SCALAR"},{"bufferView":22,"componentType":5126,"count":31,"max":[1.1117520332336426,1.187613844871521,0.959426760673523],"min":[-0.9287381172180176,-0.8572065830230713,-1.1432640552520752],"type":"VEC3"},{"bufferView":23,"componentType":5126,"count":11,"max":[0.3333333333333333],"min":[0.0],"type":"SCALAR"},{"bufferView":24,"componentType":5126,"count":11,"max":[0.07436750829219818,0.07436750829219818,0.07436750829219818],"min":[0.02539999969303608,0.02539999969303608,0.02539999969303608],"type":"VEC3"},{"bufferView":25,"componentType":5126,"count":6,"max":[0.16666666666666666],"min":[0.0],"type":"SCALAR"},{"bufferView":26,"componentType":5126,"count":6,"max":[1.0],"min":[0.0],"type":"SCALAR"},{"bufferView":27,"componentType":5126,"count":6,"max":[0.16666666666666666],"min":[0.0],"type":"SCALAR"},{"bufferView":28,"componentType":5126,"count":6,"max":[1.0],"min":[0.0],"type":"SCALAR"},{"bufferView":29,"componentType":5126,"count":6,"max":[0.16666666666666666],"min":[0.0],"type":"SCALAR"},{"bufferView":30,"componentType":5126,"count":6,"max":[1.0],"min":[0.0],"type":"SCALAR"}],"animations":[{"channels":[{"sampler":0,"target":{"node":0,"path":"scale"}},{"sampler":1,"target":{"node":0,"path":"weights"}}],"extensions":{"S8S_v3d_animation_data":{"auto":false,"loop":"REPEAT","offset":0.0,"repeatCount":1.0,"repeatInfinite":true}},"name":"Box001","samplers":[{"input":17,"interpolation":"LINEAR","output":18},{"input":25,"interpolation":"LINEAR","output":26}]},{"channels":[{"sampler":0,"target":{"node":2,"path":"scale"}},{"sampler":1,"target":{"node":2,"path":"weights"}}],"extensions":{"S8S_v3d_animation_data":{"auto":false,"loop":"REPEAT","offset":0.0,"repeatCount":1.0,"repeatInfinite":true}},"name":"GeoSphere001","samplers":[{"input":19,"interpolation":"LINEAR","output":20},{"input":27,"interpolation":"LINEAR","output":28}]},{"channels":[{"sampler":0,"target":{"node":3,"path":"translation"}}],"extensions":{"S8S_v3d_animation_data":{"auto":false,"loop":"REPEAT","offset":0.0,"repeatCount":1.0,"repeatInfinite":true}},"name":"Area","samplers":[{"input":21,"interpolation":"LINEAR","output":22}]},{"channels":[{"sampler":0,"target":{"node":4,"path":"scale"}},{"sampler":1,"target":{"node":4,"path":"weights"}}],"extensions":{"S8S_v3d_animation_data":{"auto":false,"loop":"REPEAT","offset":0.0,"repeatCount":1.0,"repeatInfinite":true}},"name":"Torus001","samplers":[{"input":23,"interpolation":"LINEAR","output":24},{"input":29,"interpolation":"LINEAR","output":30}]}],"asset":{"generator":"Soft8Soft Verge3D for Blender add-on","version":"2.0"},"bufferViews":[{"buffer":0,"byteLength":4968,"byteOffset":0,"target":34963},{"buffer":0,"byteLength":29808,"byteOffset":4968,"target":34962},{"buffer":0,"byteLength":29808,"byteOffset":34776,"target":34962},{"buffer":0,"byteLength":19872,"byteOffset":64584,"target":34962},{"buffer":0,"byteLength":29808,"byteOffset":84456},{"buffer":0,"byteLength":29808,"byteOffset":114264},{"buffer":0,"byteLength":24192,"byteOffset":144072,"target":34963},{"buffer":0,"byteLength":145152,"byteOffset":168264,"target":34962},{"buffer":0,"byteLength":145152,"byteOffset":313416,"target":34962},{"buffer":0,"byteLength":145152,"byteOffset":458568},{"buffer":0,"byteLength":145152,"byteOffset":603720},{"buffer":0,"byteLength":37056,"byteOffset":748872,"target":34963},{"buffer":0,"byteLength":222336,"byteOffset":785928,"target":34962},{"buffer":0,"byteLength":222336,"byteOffset":1008264,"target":34962},{"buffer":0,"byteLength":148224,"byteOffset":1230600,"target":34962},{"buffer":0,"byteLength":222336,"byteOffset":1378824},{"buffer":0,"byteLength":222336,"byteOffset":1601160},{"buffer":0,"byteLength":44,"byteOffset":1823496},{"buffer":0,"byteLength":132,"byteOffset":1823540},{"buffer":0,"byteLength":44,"byteOffset":1823672},{"buffer":0,"byteLength":132,"byteOffset":1823716},{"buffer":0,"byteLength":124,"byteOffset":1823848},{"buffer":0,"byteLength":372,"byteOffset":1823972},{"buffer":0,"byteLength":44,"byteOffset":1824344},{"buffer":0,"byteLength":132,"byteOffset":1824388},{"buffer":0,"byteLength":24,"byteOffset":1824520},{"buffer":0,"byteLength":24,"byteOffset":1824544},{"buffer":0,"byteLength":24,"byteOffset":1824568},{"buffer":0,"byteLength":24,"byteOffset":1824592},{"buffer":0,"byteLength":24,"byteOffset":1824616},{"buffer":0,"byteLength":24,"byteOffset":1824640}],"buffers":[{"byteLength":1824664,"uri":"Drone.bin"}],"cameras":[{"extensions":{"S8S_v3d_camera_data":{"controls":"NONE","enablePan":false,"moveSpeed":0.0,"rotateSpeed":1.0,"viewportFitInitialAspect":1.7777777777777777,"viewportFitType":"AUTO"}},"name":"Camera","perspective":{"aspectRatio":1.7777777777777777,"yfov":0.5033799372418416,"zfar":15.0,"znear":0.10000000149011612},"type":"perspective"}],"extensions":{"S8S_v3d_data":{"lights":[{"color":[0.010329604148864746,0.6724435091018677,1.0],"decay":2,"distance":158.11388477547933,"intensity":5000.0,"name":"Area","profile":"blender","shadow":{"bias":-0.0018,"cameraFar":158.11388477547933,"cameraFov":0,"cameraNear":0.05000000074505806,"enabled":false,"expBias":2.5,"mapSize":512,"radius":1.0,"slopeScaledBias":2.5},"type":"point"}]}},"extensionsUsed":["S8S_v3d_material_data","S8S_v3d_camera_data","S8S_v3d_data","S8S_v3d_mesh_data","S8S_v3d_node_data","S8S_v3d_animation_data","S8S_v3d_scene_data"],"materials":[{"extensions":{"S8S_v3d_material_data":{"nodeGraph":{"edges":[{"fromNode":0,"fromOutput":0,"toInput":0,"toNode":1}],"nodes":[{"inputs":[[0.1169707179069519,0.017641957849264145,0.4910208284854889,1.0],1.0,[1.0,0.20000000298023224,0.10000000149011612],[0.22926634550094604,0.031110452488064766,1.0,1.0],0.0,1.0,0.0,0.0,0.0,0.0,0.0,0.0,0.0,0.0,0.8500000238418579,0.0,0.018181800842285156,[0.1169707179069519,0.017641957849264145,0.4910208284854889,1.0],1.0,[0.0,0.0,0.0],[0.0,0.0,0.0],[0.0,0.0,0.0]],"is_active_output":false,"name":"Principled BSDF","outputs":[[0,0,0,0]],"type":"BSDF_PRINCIPLED_BL"},{"inputs":[[0,0,0,0],[0,0,0,0],[0.0,0.0,0.0]],"is_active_output":true,"name":"Material Output","outputs":[],"type":"OUTPUT_MATERIAL_BL"}]}}},"name":"Material"},{"extensions":{"S8S_v3d_material_data":{"nodeGraph":{"edges":[],"nodes":[{"inputs":[[0,0,0,0],[0,0,0,0]],"is_active_output":true,"name":"World Output","outputs":[],"type":"OUTPUT_WORLD_BL"}]}}},"name":"Verge3D_Environment_World"}],"meshes":[{"extensions":{"S8S_v3d_mesh_data":{"colorLayers":{},"uvLayers":{"UVChannel_1":"TEXCOORD_0"}}},"extras":{"targetNames":["Key 1"]},"name":"Mesh.001","primitives":[{"attributes":{"NORMAL":2,"POSITION":1,"TEXCOORD_0":3},"indices":0,"material":0,"mode":4,"targets":[{"NORMAL":5,"POSITION":4}]}],"weights":[0.0]},{"extensions":{"S8S_v3d_mesh_data":{"colorLayers":{},"uvLayers":{}}},"extras":{"targetNames":["Key 1"]},"name":"Mesh.011","primitives":[{"attributes":{"NORMAL":8,"POSITION":7},"indices":6,"material":0,"mode":4,"targets":[{"NORMAL":10,"POSITION":9}]}],"weights":[0.0]},{"extensions":{"S8S_v3d_mesh_data":{"colorLayers":{},"uvLayers":{"UVChannel_1":"TEXCOORD_0"}}},"extras":{"targetNames":["Key 1"]},"name":"Mesh.012","primitives":[{"attributes":{"NORMAL":13,"POSITION":12,"TEXCOORD_0":14},"indices":11,"material":0,"mode":4,"targets":[{"NORMAL":16,"POSITION":15}]}],"weights":[0.0]}],"nodes":[{"extensions":{"S8S_v3d_node_data":{"frustumCulling":true,"groupNames":[],"hidden":false,"renderOrder":0}},"mesh":2,"name":"Box001","rotation":[-2.1855694143368964e-08,0.0,-0.0,1.0],"scale":[0.030905431136488914,0.030905431136488914,0.030905431136488914]},{"camera":0,"extensions":{"S8S_v3d_node_data":{"frustumCulling":true,"groupNames":["Collection 1"],"hidden":false,"renderOrder":0}},"name":"Camera","rotation":[5.424847770996166e-08,0.7071068286895752,-5.4248470604534305e-08,0.7071067094802856],"scale":[1.0,0.9999999403953552,0.9999999403953552],"translation":[7.940030574798584,0.0,0.0]},{"extensions":{"S8S_v3d_node_data":{"frustumCulling":true,"groupNames":[],"hidden":false,"renderOrder":0}},"mesh":1,"name":"GeoSphere001","rotation":[-2.1855694143368964e-08,0.0,-0.0,1.0],"scale":[0.038615889847278595,0.038615889847278595,0.038615889847278595]},{"extensions":{"S8S_v3d_node_data":{"frustumCulling":true,"groupNames":[],"hidden":false,"light":0,"renderOrder":0}},"name":"Area","rotation":[-0.46210557222366333,0.48719683289527893,-0.23998989164829254,0.7010724544525146],"scale":[1.0,0.9999998807907104,0.9999999403953552],"translation":[-0.9287381172180176,1.187613844871521,-1.065132975578308]},{"extensions":{"S8S_v3d_node_data":{"frustumCulling":true,"groupNames":[],"hidden":false,"renderOrder":0}},"mesh":0,"name":"Torus001","rotation":[-2.1855694143368964e-08,0.0,-0.0,1.0],"scale":[0.02539999969303608,0.02539999969303608,0.02539999969303608]}],"scene":0,"scenes":[{"extensions":{"S8S_v3d_scene_data":{"aaMethod":"AUTO","iblEnvironmentMode":"PMREM","physicallyCorrectLights":true,"pmremMaxTileSize":256,"worldMaterial":1}},"extras":{"animFrameRate":30,"coordSystem":"Z_UP_RIGHT"},"name":"Scene","nodes":[2,0,3,4,1]}]}
