<svg width="89" height="59" viewBox="0 0 89 59" fill="none" xmlns="http://www.w3.org/2000/svg">
	<path d="M15.687 15.2985L15.2752 14.8942L15.2751 14.8943L15.687 15.2985ZM15.687 44.5092L15.2713 44.9096L15.279 44.9173L15.687 44.5092ZM43.9142 44.5092L43.5024 44.105L43.5023 44.1051L43.9142 44.5092ZM43.9142 15.2985L43.4985 15.6988L43.5062 15.7065L43.9142 15.2985ZM50.7006 9.10224L50.3052 9.52263L50.3079 9.52513L50.7006 9.10224ZM50.7006 50.7054L51.0932 51.1283L51.0959 51.1258L50.7006 50.7054ZM8.90067 50.7054L8.50529 51.1258L8.5105 51.1306L8.90067 50.7054ZM8.90067 9.10224L9.29335 9.52513L9.29354 9.52495L8.90067 9.10224ZM15.2751 14.8943C11.7323 18.5052 9.99559 23.5186 9.99559 29.8547H11.1498C11.1498 23.7327 12.8226 19.042 16.0989 15.7026L15.2751 14.8943ZM9.99559 29.8547C9.99559 36.1912 11.7325 41.2346 15.2713 44.9095L16.1027 44.1089C12.8224 40.7025 11.1498 35.9761 11.1498 29.8547H9.99559ZM15.279 44.9173C18.8847 48.523 23.765 50.299 29.8498 50.299V49.1448C24.0012 49.1448 19.4395 47.4456 16.0951 44.1012L15.279 44.9173ZM29.8498 50.299C35.9342 50.299 40.7845 48.5231 44.3262 44.9134L43.5023 44.1051C40.2249 47.4455 35.6988 49.1448 29.8498 49.1448V50.299ZM44.3261 44.9134C47.9325 41.239 49.704 36.1942 49.704 29.8547H48.5498C48.5498 35.9731 46.8462 40.6981 43.5024 44.105L44.3261 44.9134ZM49.704 29.8547C49.704 23.5156 47.9327 18.5008 44.3223 14.8904L43.5062 15.7065C46.846 19.0464 48.5498 23.7357 48.5498 29.8547H49.704ZM44.3299 14.8982C40.7889 11.221 35.9374 9.41034 29.8498 9.41034V10.5645C35.6957 10.5645 40.2204 12.2946 43.4985 15.6988L44.3299 14.8982ZM29.8498 9.41034C23.7618 9.41034 18.8803 11.221 15.2752 14.8942L16.0989 15.7027C19.444 12.2945 24.0043 10.5645 29.8498 10.5645V9.41034ZM50.3079 9.52513C55.6789 14.5125 58.3851 21.2664 58.3851 29.8547H59.5393C59.5393 21.0017 56.7377 13.9207 51.0932 8.67936L50.3079 9.52513ZM58.3851 29.8547C58.3851 38.4428 55.6789 45.2313 50.3052 50.2851L51.0959 51.1258C56.7378 45.8198 59.5393 38.7077 59.5393 29.8547H58.3851ZM50.3079 50.2825C44.9196 55.2859 38.1153 57.7999 29.8498 57.7999V58.954C38.3698 58.954 45.466 56.3536 51.0932 51.1283L50.3079 50.2825ZM29.8498 57.7999C21.5844 57.7999 14.7457 55.2859 9.29085 50.2802L8.5105 51.1306C14.2023 56.3536 21.3297 58.954 29.8498 58.954V57.7999ZM9.29603 50.2851C3.92237 45.2313 1.21613 38.4428 1.21613 29.8547H0.0619678C0.0619678 38.7077 2.86348 45.8198 8.50532 51.1258L9.29603 50.2851ZM1.21613 29.8547C1.21613 21.2664 3.92234 14.5125 9.29335 9.52513L8.508 8.67936C2.86351 13.9207 0.0619678 21.0017 0.0619678 29.8547H1.21613ZM9.29354 9.52495C14.7487 4.45483 21.5865 1.90946 29.8498 1.90946V0.7553C21.3276 0.7553 14.1993 3.38984 8.50781 8.67954L9.29354 9.52495ZM29.8498 1.90946C38.1132 1.90946 44.9166 4.45478 50.3052 9.52262L51.0959 8.68187C45.469 3.38989 38.3719 0.7553 29.8498 0.7553V1.90946ZM67.8846 2.61097V2.03389H67.3075V2.61097H67.8846ZM88.2436 2.61097H88.8207V2.03389H88.2436V2.61097ZM88.2436 57V57.5771H88.8207V57H88.2436ZM78.31 57H77.7329V57.5771H78.31V57ZM78.31 11.5611H78.8871V10.984H78.31V11.5611ZM67.8846 11.5611H67.3075V12.1381H67.8846V11.5611ZM67.8846 3.18805H88.2436V2.03389H67.8846V3.18805ZM87.6665 2.61097V57H88.8207V2.61097H87.6665ZM88.2436 56.4229H78.31V57.5771H88.2436V56.4229ZM78.8871 57V11.5611H77.7329V57H78.8871ZM78.31 10.984H67.8846V12.1381H78.31V10.984ZM68.4617 11.5611V2.61097H67.3075V11.5611H68.4617Z" fill="#7A22FF"/>
</svg>
