<svg width="164" height="1604" viewBox="0 0 164 1604" fill="none" xmlns="http://www.w3.org/2000/svg">
<line x1="89.3379" y1="298.836" x2="87.8283" y2="1099.65" stroke="#6024BA" stroke-width="3.65622" stroke-dasharray="1.46 1.46"/>
<line opacity="0.5" x1="90" y1="297.369" x2="9" y2="297.369" stroke="#6024BA" stroke-width="0.731245"/>
<line opacity="0.5" x1="131" y1="701.369" x2="9" y2="701.369" stroke="#6024BA" stroke-width="0.731245"/>
<path d="M48.1191 0.50337L48.119 701.003" stroke="#0039CA" stroke-width="3.65622" stroke-dasharray="1.46 1.46"/>
<rect x="1" y="105" width="13" height="13" fill="#6024BA"/>
<rect y="290" width="13" height="13" fill="#6024BA"/>
<rect x="1" y="495" width="13" height="13" fill="#6024BA"/>
<rect y="694" width="13" height="13" fill="#6024BA"/>
<rect x="1" y="903" width="13" height="13" fill="#6024BA"/>
<rect x="1" y="1494.01" width="13" height="13" fill="#6024BA"/>
<rect y="1100" width="13" height="13" fill="#6024BA"/>
<rect y="1306" width="13" height="13" fill="#6024BA"/>
<path d="M130.828 701.003L130.828 1603.03" stroke="#87FDF6" stroke-width="3.65622" stroke-dasharray="1.46 1.46"/>
<path d="M81.5991 219.282L81.5991 210.102L91.0001 210.102L91.0001 211.819L83.1461 211.819L83.1461 217.565L91.0001 217.565L91.0001 219.282L81.5991 219.282Z" fill="black"/>
<path d="M83.8091 205.759C84.4211 206.417 85.2541 206.745 86.3081 206.745C87.3621 206.745 88.2007 206.417 88.8241 205.759C89.4361 205.091 89.7421 204.246 89.7421 203.226C89.7421 202.206 89.4361 201.362 88.8241 200.693C88.2007 200.025 87.3621 199.69 86.3081 199.69C85.2541 199.69 84.4211 200.025 83.8091 200.693C83.1857 201.362 82.8741 202.206 82.8741 203.226C82.8741 204.246 83.1857 205.091 83.8091 205.759ZM82.7551 199.486C83.6617 198.478 84.8461 197.973 86.3081 197.973C87.7701 197.973 88.9601 198.478 89.8781 199.486C90.7847 200.495 91.2381 201.742 91.2381 203.226C91.2381 204.711 90.7847 205.958 89.8781 206.966C88.9601 207.975 87.7701 208.479 86.3081 208.479C84.8461 208.479 83.6617 207.975 82.7551 206.966C81.8371 205.958 81.3781 204.711 81.3781 203.226C81.3781 201.742 81.8371 200.495 82.7551 199.486Z" fill="black"/>
<path d="M81.5991 194.039L81.5991 186.712L89.4361 186.712L89.4361 185.573L92.8871 185.573L92.8871 187.052L91.0001 187.205L91.0001 195.229L92.8871 195.382L92.8871 196.861L89.4361 196.861L89.4361 195.637L81.5991 194.039ZM83.1121 192.645L89.4361 193.818L89.4361 188.446L83.1121 188.446L83.1121 192.645Z" fill="black"/>
<path d="M81.5991 184.103L81.5991 175.535L83.1631 175.535L83.1631 182.369L91.0001 182.369L91.0001 184.103L81.5991 184.103Z" fill="black"/>
<path d="M83.8091 171.958C84.4211 172.616 85.2541 172.944 86.3081 172.944C87.3621 172.944 88.2007 172.616 88.8241 171.958C89.4361 171.29 89.7421 170.445 89.7421 169.425C89.7421 168.405 89.4361 167.561 88.8241 166.892C88.2007 166.224 87.3621 165.889 86.3081 165.889C85.2541 165.889 84.4211 166.224 83.8091 166.892C83.1857 167.561 82.8741 168.405 82.8741 169.425C82.8741 170.445 83.1857 171.29 83.8091 171.958ZM82.7551 165.685C83.6617 164.677 84.8461 164.172 86.3081 164.172C87.7701 164.172 88.9601 164.677 89.8781 165.685C90.7847 166.694 91.2381 167.941 91.2381 169.425C91.2381 170.91 90.7847 172.157 89.8781 173.165C88.9601 174.174 87.7701 174.678 86.3081 174.678C84.8461 174.678 83.6617 174.174 82.7551 173.165C81.8371 172.157 81.3781 170.91 81.3781 169.425C81.3781 167.941 81.8371 166.694 82.7551 165.685Z" fill="black"/>
<path d="M81.5991 163.278L81.5991 153.554L83.1631 153.554L83.1631 157.549L91.0001 157.549L91.0001 159.283L83.1631 159.283L83.1631 163.278L81.5991 163.278Z" fill="black"/>
<path d="M83.8091 149.961C84.4211 150.619 85.2541 150.947 86.3081 150.947C87.3621 150.947 88.2007 150.619 88.8241 149.961C89.4361 149.293 89.7421 148.448 89.7421 147.428C89.7421 146.408 89.4361 145.564 88.8241 144.895C88.2007 144.227 87.3621 143.892 86.3081 143.892C85.2541 143.892 84.4211 144.227 83.8091 144.895C83.1857 145.564 82.8741 146.408 82.8741 147.428C82.8741 148.448 83.1857 149.293 83.8091 149.961ZM82.7551 143.688C83.6617 142.68 84.8461 142.175 86.3081 142.175C87.7701 142.175 88.9601 142.68 89.8781 143.688C90.7847 144.697 91.2381 145.944 91.2381 147.428C91.2381 148.913 90.7847 150.16 89.8781 151.168C88.9601 152.177 87.7701 152.681 86.3081 152.681C84.8461 152.681 83.6617 152.177 82.7551 151.168C81.8371 150.16 81.3781 148.913 81.3781 147.428C81.3781 145.944 81.8371 144.697 82.7551 143.688Z" fill="black"/>
<path d="M81.5991 140.557L81.5991 134.556C81.5991 133.695 81.8201 133.004 82.2621 132.482C82.7041 131.95 83.2934 131.683 84.0301 131.683C84.8121 131.683 85.3844 131.95 85.7471 132.482C86.1777 131.508 86.9654 131.02 88.1101 131.02C88.9147 131.02 89.6004 131.315 90.1671 131.904C90.7224 132.482 91.0001 133.225 91.0001 134.131L91.0001 140.557L81.5991 140.557ZM83.1631 138.823L85.3391 138.823L85.3391 134.403C85.3391 134.086 85.2371 133.837 85.0331 133.655C84.8177 133.463 84.5627 133.366 84.2681 133.366C83.5314 133.366 83.1631 133.797 83.1631 134.658L83.1631 138.823ZM86.8521 138.823L89.4361 138.823L89.4361 134.199C89.4361 133.723 89.3171 133.355 89.0791 133.094C88.8297 132.834 88.5124 132.703 88.1271 132.703C87.7304 132.703 87.4187 132.828 87.1921 133.077C86.9654 133.315 86.8521 133.633 86.8521 134.029L86.8521 138.823Z" fill="black"/>
<path d="M81.5991 129.534L81.5991 127.817L85.2371 127.817L85.2371 124.536L81.5991 122.054L81.5991 120.065L85.9511 123.057L91.0001 119.827L91.0001 121.867L86.8011 124.485L86.8011 127.817L91.0001 127.817L91.0001 129.534L81.5991 129.534Z" fill="black"/>
<path d="M83.1461 113.699L87.9911 115.722L87.9911 110.656L83.1461 112.628L83.1461 113.699ZM81.5991 114.753L81.5991 111.489L91.0001 107.494L91.0001 109.313L89.5211 109.959L89.5211 116.368L91.0001 117.014L91.0001 118.867L81.5991 114.753Z" fill="black"/>
<path d="M92.6321 105.822L91.0341 105.55C90.8301 106.06 90.4447 106.315 89.8781 106.315C89.5267 106.315 89.2264 106.196 88.9771 105.958C88.7164 105.709 88.5861 105.38 88.5861 104.972C88.5861 104.621 88.7051 104.321 88.9431 104.071C89.1811 103.822 89.4984 103.697 89.8951 103.697C90.0651 103.697 90.2351 103.726 90.4051 103.782L92.8871 104.768L92.6321 105.822Z" fill="black"/>
<path d="M83.8091 94.5288C84.4211 95.1861 85.2541 95.5148 86.3081 95.5148C87.3621 95.5148 88.2007 95.1861 88.8241 94.5288C89.4361 93.8601 89.7421 93.0158 89.7421 91.9958C89.7421 90.9758 89.4361 90.1315 88.8241 89.4628C88.2007 88.7941 87.3621 88.4598 86.3081 88.4598C85.2541 88.4598 84.4211 88.7941 83.8091 89.4628C83.1857 90.1315 82.8741 90.9758 82.8741 91.9958C82.8741 93.0158 83.1857 93.8601 83.8091 94.5288ZM82.7551 88.2558C83.6617 87.2471 84.8461 86.7428 86.3081 86.7428C87.7701 86.7428 88.9601 87.2471 89.8781 88.2558C90.7847 89.2645 91.2381 90.5111 91.2381 91.9958C91.2381 93.4805 90.7847 94.7271 89.8781 95.7358C88.9601 96.7445 87.7701 97.2488 86.3081 97.2488C84.8461 97.2488 83.6617 96.7445 82.7551 95.7358C81.8371 94.7271 81.3781 93.4805 81.3781 91.9958C81.3781 90.5111 81.8371 89.2645 82.7551 88.2558Z" fill="black"/>
<path d="M81.5991 85.8479L81.5991 76.1239L83.1631 76.1239L83.1631 80.1189L91.0001 80.1189L91.0001 81.8529L83.1631 81.8529L83.1631 85.8479L81.5991 85.8479Z" fill="black"/>
<path d="M89.4531 61.4602L91.0001 61.4602L91.0001 69.5522L89.2491 69.5522L85.9851 63.8742C85.6224 63.2396 85.1464 62.9222 84.5571 62.9222C83.4804 62.9222 82.9421 63.7892 82.9421 65.5232C82.9421 66.7132 83.3671 67.7785 84.2171 68.7192L83.1121 69.7562C81.9561 68.6002 81.3781 67.1665 81.3781 65.4552C81.3781 64.1632 81.6501 63.1376 82.1941 62.3782C82.7267 61.6076 83.5257 61.2222 84.5911 61.2222C85.6791 61.2222 86.5461 61.8002 87.1921 62.9562L89.4531 67.0022L89.4531 61.4602Z" fill="black"/>
<path d="M81.5991 52.0296L81.5991 44.7026L89.4361 44.7026L89.4361 43.5636L92.8871 43.5636L92.8871 45.0426L91.0001 45.1956L91.0001 53.2196L92.8871 53.3726L92.8871 54.8516L89.4361 54.8516L89.4361 53.6276L81.5991 52.0296ZM83.1121 50.6356L89.4361 51.8086L89.4361 46.4366L83.1121 46.4366L83.1121 50.6356Z" fill="black"/>
<path d="M81.5991 42.0936L81.5991 40.3596L85.3561 40.3596L85.3561 34.3246L81.5991 34.3246L81.5991 32.6076L91.0001 32.6076L91.0001 34.3246L86.9031 34.3246L86.9031 40.3596L91.0001 40.3596L91.0001 42.0936L81.5991 42.0936Z" fill="black"/>
<path d="M81.5991 30.788L81.5991 22.373L83.1631 22.373L83.1631 29.054L85.4241 29.054L85.4241 23.036L86.9711 23.036L86.9711 29.054L89.4191 29.054L89.4191 22.118L91.0001 22.118L91.0001 30.788L81.5991 30.788Z" fill="black"/>
<path d="M81.5991 20.4452L81.5991 18.7282L88.7051 18.7282L81.5991 12.4552L81.5991 10.7382L91.0001 10.7382L91.0001 12.4552L83.9281 12.4552L91.0001 18.7112L91.0001 20.4452L81.5991 20.4452ZM78.5391 13.8492L79.4401 12.9652C80.2674 13.7359 80.6811 14.6369 80.6811 15.6682C80.6811 16.6995 80.2674 17.6062 79.4401 18.3882L78.5391 17.5042C79.0604 16.9942 79.3211 16.3822 79.3211 15.6682C79.3211 14.9655 79.0604 14.3592 78.5391 13.8492Z" fill="black"/>
<path d="M112.599 510.681V503.32H122V505.054H114.163V509.253L119.671 510.29C121.224 510.573 122 511.497 122 513.061V514.013H120.385V513.18C120.385 512.5 120.073 512.098 119.45 511.973L112.599 510.681Z" fill="black"/>
<path d="M114.809 498.996C115.421 499.653 116.254 499.982 117.308 499.982C118.362 499.982 119.201 499.653 119.824 498.996C120.436 498.327 120.742 497.483 120.742 496.463C120.742 495.443 120.436 494.598 119.824 493.93C119.201 493.261 118.362 492.927 117.308 492.927C116.254 492.927 115.421 493.261 114.809 493.93C114.186 494.598 113.874 495.443 113.874 496.463C113.874 497.483 114.186 498.327 114.809 498.996ZM113.755 492.723C114.662 491.714 115.846 491.21 117.308 491.21C118.77 491.21 119.96 491.714 120.878 492.723C121.785 493.731 122.238 494.978 122.238 496.463C122.238 497.947 121.785 499.194 120.878 500.203C119.96 501.211 118.77 501.716 117.308 501.716C115.846 501.716 114.662 501.211 113.755 500.203C112.837 499.194 112.378 497.947 112.378 496.463C112.378 494.978 112.837 493.731 113.755 492.723Z" fill="black"/>
<path d="M112.599 489.592V481.024H114.163V487.858H122V489.592H112.599Z" fill="black"/>
<path d="M112.599 479.631V477.914H119.705L112.599 471.641V469.924H122V471.641H114.928L122 477.897V479.631H112.599Z" fill="black"/>
<path d="M114.741 458.47L115.523 459.813C114.458 460.595 113.925 461.711 113.925 463.162C113.925 464.216 114.231 465.06 114.843 465.695C115.455 466.318 116.277 466.63 117.308 466.63C118.305 466.63 119.121 466.313 119.756 465.678C120.379 465.032 120.691 464.193 120.691 463.162C120.691 461.745 120.153 460.629 119.076 459.813L119.875 458.453C121.45 459.484 122.238 461.043 122.238 463.128C122.238 464.647 121.79 465.899 120.895 466.885C120 467.86 118.804 468.347 117.308 468.347C115.812 468.347 114.616 467.854 113.721 466.868C112.826 465.882 112.378 464.635 112.378 463.128C112.378 461.02 113.166 459.467 114.741 458.47Z" fill="black"/>
<path d="M112.599 457.477V447.753H114.163V451.748H122V453.482H114.163V457.477H112.599Z" fill="black"/>
<path d="M112.599 446.345V444.628H119.705L112.599 438.355V436.638H122V438.355H114.928L122 444.611V446.345H112.599Z" fill="black"/>
<path d="M112.599 434.84V433.123H116.237V429.842L112.599 427.36V425.371L116.951 428.363L122 425.133V427.173L117.801 429.791V433.123H122V434.84H112.599Z" fill="black"/>
<path d="M114.146 419.005L118.991 421.028V415.962L114.146 417.934V419.005ZM112.599 420.059V416.795L122 412.8V414.619L120.521 415.265V421.674L122 422.32V424.173L112.599 420.059Z" fill="black"/>
<path d="M123.632 411.128L122.034 410.856C121.83 411.366 121.445 411.621 120.878 411.621C120.527 411.621 120.226 411.502 119.977 411.264C119.716 411.015 119.586 410.686 119.586 410.278C119.586 409.927 119.705 409.626 119.943 409.377C120.181 409.128 120.498 409.003 120.895 409.003C121.065 409.003 121.235 409.031 121.405 409.088L123.887 410.074L123.632 411.128Z" fill="black"/>
<path d="M114.809 399.834C115.421 400.492 116.254 400.82 117.308 400.82C118.362 400.82 119.201 400.492 119.824 399.834C120.436 399.166 120.742 398.321 120.742 397.301C120.742 396.281 120.436 395.437 119.824 394.768C119.201 394.1 118.362 393.765 117.308 393.765C116.254 393.765 115.421 394.1 114.809 394.768C114.186 395.437 113.874 396.281 113.874 397.301C113.874 398.321 114.186 399.166 114.809 399.834ZM113.755 393.561C114.662 392.553 115.846 392.048 117.308 392.048C118.77 392.048 119.96 392.553 120.878 393.561C121.785 394.57 122.238 395.817 122.238 397.301C122.238 398.786 121.785 400.033 120.878 401.041C119.96 402.05 118.77 402.554 117.308 402.554C115.846 402.554 114.662 402.05 113.755 401.041C112.837 400.033 112.378 398.786 112.378 397.301C112.378 395.817 112.837 394.57 113.755 393.561Z" fill="black"/>
<path d="M112.599 391.154V381.43H114.163V385.425H122V387.159H114.163V391.154H112.599Z" fill="black"/>
<path d="M112.599 375.283V371.764H122V373.481H114.146V375.283H112.599Z" fill="black"/>
<path d="M112.599 362.332V355.005H120.436V353.866H123.887V355.345L122 355.498V363.522L123.887 363.675V365.154H120.436V363.93L112.599 362.332ZM114.112 360.938L120.436 362.111V356.739H114.112V360.938Z" fill="black"/>
<path d="M112.599 352.396V350.662H116.356V344.627H112.599V342.91H122V344.627H117.903V350.662H122V352.396H112.599Z" fill="black"/>
<path d="M112.599 332.064H122V333.798H119.79V337.895L122 339.102V341.006L119.382 339.527C118.747 340.785 117.699 341.414 116.237 341.414C115.16 341.414 114.288 341.057 113.619 340.343C112.939 339.617 112.599 338.705 112.599 337.606V332.064ZM114.18 333.798V337.521C114.18 338.167 114.367 338.688 114.741 339.085C115.115 339.481 115.614 339.68 116.237 339.68C116.86 339.68 117.348 339.487 117.699 339.102C118.039 338.705 118.209 338.178 118.209 337.521V333.798H114.18Z" fill="black"/>
<path d="M149.599 1045.1V1039.57C149.599 1038.47 149.939 1037.56 150.619 1036.84C151.288 1036.11 152.16 1035.75 153.237 1035.75C154.314 1035.75 155.181 1036.11 155.838 1036.84C156.495 1037.56 156.824 1038.47 156.824 1039.57V1043.36H159V1045.1H149.599ZM151.18 1043.36H155.243V1039.64C155.243 1038.98 155.067 1038.46 154.716 1038.06C154.353 1037.66 153.86 1037.47 153.237 1037.47C152.602 1037.47 152.104 1037.66 151.741 1038.06C151.367 1038.46 151.18 1038.98 151.18 1039.64V1043.36Z" fill="black"/>
<path d="M149.599 1034.31V1025.89H151.163V1032.57H153.424V1026.56H154.971V1032.57H157.419V1025.64H159V1034.31H149.599Z" fill="black"/>
<path d="M149.599 1023.97V1014.79H159V1016.5H151.146V1022.25H159V1023.97H149.599Z" fill="black"/>
<path d="M149.599 1012.96V1004.54H151.163V1011.22H153.424V1005.21H154.971V1011.22H157.419V1004.29H159V1012.96H149.599Z" fill="black"/>
<path d="M149.599 1003.01V993.283H151.163V997.278H159V999.012H151.163V1003.01H149.599Z" fill="black"/>
<path d="M149.599 991.874V990.157H156.705L149.599 983.884V982.167H159V983.884H151.928L159 990.14V991.874H149.599Z" fill="black"/>
<path d="M149.599 980.37V978.636H157.436V972.958H149.599V971.241H157.436V970.204H160.887V971.666L159 971.819V980.37H149.599Z" fill="black"/>
<path d="M149.599 968.848V967.131H156.705L149.599 960.858V959.141H159V960.858H151.928L159 967.114V968.848H149.599Z" fill="black"/>
<path d="M149.599 948.316H159V950.05H156.79V954.147L159 955.354V957.258L156.382 955.779C155.747 957.037 154.699 957.666 153.237 957.666C152.16 957.666 151.288 957.309 150.619 956.595C149.939 955.87 149.599 954.957 149.599 953.858V948.316ZM151.18 950.05V953.773C151.18 954.419 151.367 954.94 151.741 955.337C152.115 955.734 152.614 955.932 153.237 955.932C153.86 955.932 154.348 955.739 154.699 955.354C155.039 954.957 155.209 954.43 155.209 953.773V950.05H151.18Z" fill="black"/>
<path d="M149.599 941.356V939.639H156.705L149.599 933.366V931.649H159V933.366H151.928L159 939.622V941.356H149.599Z" fill="black"/>
<path d="M149.599 924.704V918.703C149.599 917.842 149.82 917.151 150.262 916.629C150.704 916.097 151.293 915.83 152.03 915.83C152.812 915.83 153.384 916.097 153.747 916.629C154.178 915.655 154.965 915.167 156.11 915.167C156.915 915.167 157.6 915.462 158.167 916.051C158.722 916.629 159 917.372 159 918.278V924.704H149.599ZM151.163 922.97H153.339V918.55C153.339 918.233 153.237 917.984 153.033 917.802C152.818 917.61 152.563 917.513 152.268 917.513C151.531 917.513 151.163 917.944 151.163 918.805V922.97ZM154.852 922.97H157.436V918.346C157.436 917.87 157.317 917.502 157.079 917.241C156.83 916.981 156.512 916.85 156.127 916.85C155.73 916.85 155.419 916.975 155.192 917.224C154.965 917.462 154.852 917.78 154.852 918.176V922.97Z" fill="black"/>
<path d="M149.599 903.532V901.798H159V903.532H149.599ZM149.599 913.681V911.947H151.86V908.377C151.86 907.278 152.183 906.371 152.829 905.657C153.464 904.932 154.319 904.569 155.396 904.569C156.473 904.569 157.345 904.932 158.014 905.657C158.671 906.371 159 907.278 159 908.377V913.681H149.599ZM153.407 911.947H157.419V908.513C157.419 907.81 157.243 907.266 156.892 906.881C156.541 906.496 156.042 906.303 155.396 906.303C154.739 906.303 154.246 906.496 153.917 906.881C153.577 907.266 153.407 907.81 153.407 908.513V911.947Z" fill="black"/>
<path d="M151.741 890.345L152.523 891.688C151.458 892.47 150.925 893.587 150.925 895.037C150.925 896.091 151.231 896.936 151.843 897.57C152.455 898.194 153.277 898.505 154.308 898.505C155.305 898.505 156.121 898.188 156.756 897.553C157.379 896.907 157.691 896.069 157.691 895.037C157.691 893.621 157.153 892.504 156.076 891.688L156.875 890.328C158.45 891.36 159.238 892.918 159.238 895.003C159.238 896.522 158.79 897.774 157.895 898.76C157 899.735 155.804 900.222 154.308 900.222C152.812 900.222 151.616 899.729 150.721 898.743C149.826 897.757 149.378 896.511 149.378 895.003C149.378 892.895 150.166 891.343 151.741 890.345Z" fill="black"/>
<path d="M149.599 889.352V879.628H151.163V883.623H159V885.357H151.163V889.352H149.599Z" fill="black"/>
<path d="M149.599 878.713V876.928L153.662 875.5C154.115 875.341 154.342 875.007 154.342 874.497V871.675L149.599 870.111V868.377L157.096 870.859C157.663 871.052 158.122 871.386 158.473 871.862C158.824 872.327 159 872.859 159 873.46V875.993H157.521V873.562C157.521 872.984 157.272 872.604 156.773 872.423L155.889 872.134V874.599C155.889 875.88 155.26 876.741 154.002 877.183L149.599 878.713Z" fill="black"/>
<path d="M149.599 867.031V857.851H159V859.568H151.146V865.314H159V867.031H149.599Z" fill="black"/>
<path d="M149.599 853.423V846.062H159V847.796H151.163V851.995L156.671 853.032C158.224 853.315 159 854.239 159 855.803V856.755H157.385V855.922C157.385 855.242 157.073 854.839 156.45 854.715L149.599 853.423Z" fill="black"/>
<path d="M149.599 844.253V835.838H151.163V842.519H153.424V836.501H154.971V842.519H157.419V835.583H159V844.253H149.599Z" fill="black"/>
<path d="M149.599 833.911V832.177H153.356V826.142H149.599V824.425H159V826.142H154.903V832.177H159V833.911H149.599Z" fill="black"/>
<path d="M149.599 822.605V820.888H156.705L149.599 814.615V812.898H159V814.615H151.928L159 820.871V822.605H149.599Z" fill="black"/>
<path d="M149.599 811.1V802.685H151.163V809.366H153.424V803.348H154.971V809.366H157.419V802.43H159V811.1H149.599Z" fill="black"/>
<path d="M160.632 800.553L159.034 800.281C158.83 800.791 158.445 801.046 157.878 801.046C157.527 801.046 157.226 800.927 156.977 800.689C156.716 800.44 156.586 800.111 156.586 799.703C156.586 799.352 156.705 799.052 156.943 798.802C157.181 798.553 157.498 798.428 157.895 798.428C158.065 798.428 158.235 798.457 158.405 798.513L160.887 799.499L160.632 800.553Z" fill="black"/>
<path d="M151.809 789.26C152.421 789.917 153.254 790.246 154.308 790.246C155.362 790.246 156.201 789.917 156.824 789.26C157.436 788.591 157.742 787.747 157.742 786.727C157.742 785.707 157.436 784.862 156.824 784.194C156.201 783.525 155.362 783.191 154.308 783.191C153.254 783.191 152.421 783.525 151.809 784.194C151.186 784.862 150.874 785.707 150.874 786.727C150.874 787.747 151.186 788.591 151.809 789.26ZM150.755 782.987C151.662 781.978 152.846 781.474 154.308 781.474C155.77 781.474 156.96 781.978 157.878 782.987C158.785 783.995 159.238 785.242 159.238 786.727C159.238 788.211 158.785 789.458 157.878 790.467C156.96 791.475 155.77 791.98 154.308 791.98C152.846 791.98 151.662 791.475 150.755 790.467C149.837 789.458 149.378 788.211 149.378 786.727C149.378 785.242 149.837 783.995 150.755 782.987Z" fill="black"/>
<path d="M149.599 780.579V770.855H151.163V774.85H159V776.584H151.163V780.579H149.599Z" fill="black"/>
<path d="M157.453 756.191H159V764.283H157.249L153.985 758.605C153.622 757.97 153.146 757.653 152.557 757.653C151.48 757.653 150.942 758.52 150.942 760.254C150.942 761.444 151.367 762.509 152.217 763.45L151.112 764.487C149.956 763.331 149.378 761.897 149.378 760.186C149.378 758.894 149.65 757.868 150.194 757.109C150.727 756.338 151.526 755.953 152.591 755.953C153.679 755.953 154.546 756.531 155.192 757.687L157.453 761.733V756.191Z" fill="black"/>
<path d="M149.599 746.761V739.434H157.436V738.295H160.887V739.774L159 739.927V747.951L160.887 748.104V749.583H157.436V748.359L149.599 746.761ZM151.112 745.367L157.436 746.54V741.168H151.112V745.367Z" fill="black"/>
<path d="M149.599 736.825V735.091H153.356V729.056H149.599V727.339H159V729.056H154.903V735.091H159V736.825H149.599Z" fill="black"/>
<path d="M149.599 725.519V717.104H151.163V723.785H153.424V717.767H154.971V723.785H157.419V716.849H159V725.519H149.599Z" fill="black"/>
<path d="M149.599 715.176V713.459H156.705L149.599 707.186V705.469H159V707.186H151.928L159 713.442V715.176H149.599ZM146.539 708.58L147.44 707.696C148.267 708.467 148.681 709.368 148.681 710.399C148.681 711.43 148.267 712.337 147.44 713.119L146.539 712.235C147.06 711.725 147.321 711.113 147.321 710.399C147.321 709.696 147.06 709.09 146.539 708.58Z" fill="black"/>
<path opacity="0.5" d="M6.50007 1603.03L6.5 0.500274" stroke="#6024BA"/>
</svg>
