<svg width="1881" height="170" viewBox="0 0 1881 170" fill="none" xmlns="http://www.w3.org/2000/svg">
<path opacity="0.7" fill-rule="evenodd" clip-rule="evenodd" d="M0.55127 4.48619H81.9033C105.557 4.48619 125.953 11.958 143.04 26.9076C160.168 41.7015 168.727 61.0879 168.727 84.9742C168.727 108.865 160.069 128.346 142.751 143.329C125.666 158.277 105.367 165.75 81.9033 165.75H0.55127V4.48619ZM142.095 142.574C159.183 127.79 167.727 108.59 167.727 84.9742C167.727 61.3582 159.279 42.2542 142.383 27.6622C125.487 12.8782 105.327 5.48619 81.9033 5.48619H1.55127V164.75H81.9033C105.135 164.75 125.199 157.358 142.095 142.574ZM121.825 122.551L121.831 122.545C132.167 112.961 137.351 100.469 137.351 84.9742C137.351 69.4796 132.167 56.9874 121.831 47.4035L121.825 47.3972C111.678 37.8142 98.2137 32.9822 81.3273 32.9822H31.9273V136.966H81.3273C98.2137 136.966 111.678 132.134 121.825 122.551ZM30.9273 137.966V31.9822H81.3273C98.4153 31.9822 112.143 36.8782 122.511 46.6702C133.071 56.4622 138.351 69.2302 138.351 84.9742C138.351 100.718 133.071 113.486 122.511 123.278C112.143 133.07 98.4153 137.966 81.3273 137.966H30.9273ZM308.689 4.48619H403.289C422.136 4.48619 437.844 10.3229 450.337 22.0336C462.849 33.5691 469.089 48.6287 469.089 67.1182C469.089 79.5751 466.069 90.6125 460.006 100.197L460.001 100.205C454.136 109.286 446.251 116.261 436.367 121.122L461.744 165.75H427.464L407.304 128.886H340.065V165.75H308.689V4.48619ZM339.065 127.886H407.897L428.057 164.75H460.025L434.969 120.686C435.272 120.543 435.573 120.398 435.872 120.252C445.623 115.467 453.386 108.604 459.161 99.6622C465.113 90.2542 468.089 79.4062 468.089 67.1182C468.089 48.8782 461.945 34.0942 449.657 22.7662C437.369 11.2462 421.913 5.48619 403.289 5.48619H309.689V164.75H339.065V127.886ZM428.24 42.507L428.235 42.5018C421.737 36.3755 413.073 33.2702 402.137 33.2702H340.065V100.102H402.137C413.086 100.102 421.756 97.1812 428.251 91.4313C434.727 85.508 438.001 77.4438 438.001 67.1182C438.001 56.5915 434.721 48.4324 428.246 42.5122L428.24 42.507ZM428.921 92.1742C422.201 98.1262 413.273 101.102 402.137 101.102H339.065V32.2702H402.137C413.273 32.2702 422.201 35.4382 428.921 41.7742C435.641 47.9182 439.001 56.3662 439.001 67.1182C439.001 77.6782 435.641 86.0302 428.921 92.1742ZM651.85 43.6581C640.953 53.8039 635.465 67.6313 635.465 85.2622C635.465 102.889 640.951 116.816 651.851 127.155C662.97 137.328 677.021 142.438 694.081 142.438C711.143 142.438 725.195 137.327 736.314 127.152C747.406 116.811 752.985 102.886 752.985 85.2622C752.985 67.6367 747.405 53.8111 736.318 43.6639L736.311 43.6577C725.19 33.2907 711.14 28.0862 694.081 28.0862C677.022 28.0862 662.971 33.2911 651.85 43.6581ZM651.169 127.886C640.033 117.326 634.465 103.118 634.465 85.2622C634.465 67.4062 640.033 53.2942 651.169 42.9262C662.497 32.3662 676.801 27.0862 694.081 27.0862C711.361 27.0862 725.665 32.3662 736.993 42.9262C748.321 53.2942 753.985 67.4062 753.985 85.2622C753.985 103.118 748.321 117.326 736.993 127.886C725.665 138.254 711.361 143.438 694.081 143.438C676.801 143.438 662.497 138.254 651.169 127.886ZM758.114 24.3306C775.428 39.8958 784.073 60.2376 784.073 85.2622C784.073 110.289 775.427 130.725 758.114 146.482L758.11 146.486C740.82 162.027 719.455 169.782 694.081 169.782C668.708 169.782 647.342 162.027 630.053 146.486L630.048 146.482C612.735 130.725 604.089 110.289 604.089 85.2622C604.089 60.2363 612.735 39.8937 630.051 24.3283C647.339 8.59474 668.705 0.742188 694.081 0.742188C719.458 0.742188 740.825 8.5956 758.114 24.3306ZM757.441 25.0702C774.529 40.4302 783.073 60.4942 783.073 85.2622C783.073 110.03 774.529 130.19 757.441 145.742C740.353 161.102 719.233 168.782 694.081 168.782C668.929 168.782 647.809 161.102 630.721 145.742C613.633 130.19 605.089 110.03 605.089 85.2622C605.089 60.4942 613.633 40.4302 630.721 25.0702C647.809 9.51819 668.929 1.74219 694.081 1.74219C719.233 1.74219 740.353 9.51819 757.441 25.0702ZM924.682 4.48619H955.506L1059.75 121.233V4.48619H1090.84V165.75H1059.73L955.483 48.437V165.75H924.682V4.48619ZM954.483 45.8062L1060.18 164.75H1089.84V5.48619H1060.75V123.854L955.059 5.48619H925.682V164.75H954.483V45.8062ZM1234.51 4.48619H1265.88V165.75H1234.51V4.48619ZM1575.6 42.1161L1551.17 56.3389L1550.64 55.6139C1537.6 37.8503 1519 28.9502 1494.71 28.9502C1477.06 28.9502 1463.03 34.0667 1452.5 44.218C1442.16 54.364 1436.96 68.0076 1436.96 85.2622C1436.96 101.921 1442.25 115.478 1452.79 126.02C1463.51 136.369 1477.46 141.574 1494.71 141.574C1518.41 141.574 1537.02 132.587 1550.65 114.61L1551.19 113.902L1575.9 128.42L1575.32 129.298C1557.64 156.302 1530.91 169.782 1495.29 169.782C1469.35 169.782 1447.88 162.129 1430.97 146.771L1430.96 146.767C1414.22 131.384 1405.87 110.846 1405.87 85.2622C1405.87 59.6748 1414.31 39.1359 1431.25 23.7539C1448.17 8.39654 1469.54 0.742188 1495.29 0.742188C1531.29 0.742188 1557.94 14.2197 1575.04 41.2393L1575.6 42.1161ZM1452.09 126.734C1441.33 115.982 1435.96 102.158 1435.96 85.2622C1435.96 67.7902 1441.24 53.8702 1451.8 43.5022C1462.55 33.1342 1476.85 27.9502 1494.71 27.9502C1519.29 27.9502 1538.2 36.9742 1551.45 55.0222L1574.2 41.7742C1574.02 41.4917 1573.84 41.2107 1573.66 40.9313C1556.74 14.8052 1530.62 1.74219 1495.29 1.74219C1469.75 1.74219 1448.63 9.32619 1431.93 24.4942C1415.22 39.6622 1406.87 59.9182 1406.87 85.2622C1406.87 110.606 1415.13 130.862 1431.64 146.03C1448.34 161.198 1469.56 168.782 1495.29 168.782C1530.24 168.782 1556.46 155.717 1573.93 129.585C1574.12 129.308 1574.3 129.03 1574.49 128.75L1551.45 115.214C1537.62 133.454 1518.71 142.574 1494.71 142.574C1477.24 142.574 1463.03 137.294 1452.09 126.734ZM1834.24 43.3386L1834.24 43.3318C1824.48 33.2004 1811.04 28.0862 1793.77 28.0862C1776.51 28.0862 1762.97 33.2002 1753.01 43.3385C1743.26 53.2793 1738.33 67.2076 1738.33 85.2622C1738.33 103.311 1743.26 117.338 1753.01 127.473C1762.96 137.419 1776.51 142.438 1793.77 142.438C1811.04 142.438 1824.49 137.417 1834.24 127.474C1844.19 117.338 1849.22 103.311 1849.22 85.2622C1849.22 67.2128 1844.19 53.2869 1834.25 43.3453L1834.24 43.3386ZM1732.43 24.4942C1716.3 39.4702 1708.24 59.7262 1708.24 85.2622C1708.24 110.798 1716.3 131.15 1732.43 146.318C1748.75 161.294 1769.2 168.782 1793.77 168.782C1818.35 168.782 1838.7 161.294 1854.83 146.318C1870.96 131.15 1879.02 110.798 1879.02 85.2622C1879.02 59.7262 1870.96 39.4702 1854.83 24.4942C1838.7 9.32619 1818.35 1.74219 1793.77 1.74219C1769.2 1.74219 1748.75 9.32619 1732.43 24.4942ZM1855.51 23.763C1839.18 8.40253 1818.57 0.742188 1793.77 0.742188C1768.97 0.742188 1748.27 8.40345 1731.75 23.7614C1715.38 38.9574 1707.24 59.4969 1707.24 85.2622C1707.24 111.028 1715.38 131.66 1731.74 147.047L1731.75 147.055C1748.28 162.219 1768.98 169.782 1793.77 169.782C1818.57 169.782 1839.17 162.219 1855.51 147.051L1855.51 147.047C1871.87 131.66 1880.02 111.028 1880.02 85.2622C1880.02 59.4978 1871.88 38.9589 1855.51 23.763ZM1235.51 5.48619V164.75H1264.88V5.48619H1235.51ZM1737.33 85.2622C1737.33 67.0222 1742.32 52.8142 1752.3 42.6382C1762.48 32.2702 1776.3 27.0862 1793.77 27.0862C1811.25 27.0862 1824.97 32.2702 1834.96 42.6382C1845.13 52.8142 1850.22 67.0222 1850.22 85.2622C1850.22 103.502 1845.13 117.806 1834.96 128.174C1824.97 138.35 1811.25 143.438 1793.77 143.438C1776.3 143.438 1762.48 138.35 1752.3 128.174C1742.32 117.806 1737.33 103.502 1737.33 85.2622Z" fill="white"/>
</svg>
