<svg width="35" height="35" viewBox="0 0 35 35" fill="none" xmlns="http://www.w3.org/2000/svg">
<path d="M16.6419 1.00481L16.6416 1.50481L16.6417 1.50481L16.6419 1.00481ZM15.5126 1.00501H15.0126V1.50579L15.5134 1.50501L15.5126 1.00501ZM17.3094 1.00501L17.3093 1.50501H17.3094V1.00501ZM25.4029 1.12018L25.4257 0.620697L25.4256 0.620691L25.4029 1.12018ZM29.1216 1.80993L29.3027 1.34385L29.3026 1.34384L29.1216 1.80993ZM31.4233 3.30795L31.0697 3.6614L31.0698 3.6615L31.4233 3.30795ZM32.9222 5.61131L33.3882 5.43014L33.3881 5.42992L32.9222 5.61131ZM33.6119 9.32923L34.1114 9.30652L34.1114 9.3065L33.6119 9.32923ZM33.6119 25.5112L34.1114 25.534L34.1114 25.5339L33.6119 25.5112ZM32.9222 29.2291L32.4562 29.0479L32.4561 29.0481L32.9222 29.2291ZM31.4233 31.5299L31.0699 31.1763L31.0698 31.1764L31.4233 31.5299ZM29.1216 33.028L28.9407 32.5618L28.9398 32.5622L29.1216 33.028ZM25.4029 33.7181L25.4256 34.2176L25.4257 34.2176L25.4029 33.7181ZM9.21596 33.7181L9.1929 34.2176L9.19325 34.2176L9.21596 33.7181ZM5.49678 33.0275L5.31576 33.4936L5.31589 33.4937L5.49678 33.0275ZM3.19342 31.5295L3.54698 31.176L3.54698 31.176L3.19342 31.5295ZM1.69457 29.2274L1.22855 29.4086L1.2286 29.4087L1.69457 29.2274ZM1.00482 25.5095L0.505332 25.5322L0.505333 25.5322L1.00482 25.5095ZM1.00482 9.32422L0.505338 9.30138L0.505332 9.30152L1.00482 9.32422ZM1.69457 5.60547L1.22849 5.42444L1.22848 5.42448L1.69457 5.60547ZM3.19342 3.30211L3.54698 3.65566L3.54698 3.65566L3.19342 3.30211ZM5.49678 1.80325L5.67817 2.26919L5.67848 2.26907L5.49678 1.80325ZM9.21596 1.11266L9.1934 0.613173L9.19301 0.613191L9.21596 1.11266ZM15.5126 1H16.0126V0.499441L15.5121 0.5L15.5126 1ZM27.2189 5.40611V5.90611H27.7189V5.40611H27.2189ZM27.2189 5.40527V4.90527H26.7189V5.40527H27.2189ZM16.6421 0.504812C16.2372 0.50463 15.8613 0.504461 15.5119 0.505008L15.5134 1.50501C15.8617 1.50446 16.2365 1.50463 16.6416 1.50481L16.6421 0.504812ZM17.3096 0.505007L16.642 0.504812L16.6417 1.50481L17.3093 1.50501L17.3096 0.505007ZM25.4256 0.620691C23.3021 0.524188 22.6591 0.505007 17.3094 0.505007V1.50501C22.6553 1.50501 23.28 1.52422 25.3802 1.61966L25.4256 0.620691ZM29.3026 1.34384C28.547 1.05042 27.4337 0.712517 25.4257 0.620697L25.38 1.61965C27.2777 1.70643 28.2843 2.02115 28.9407 2.27603L29.3026 1.34384ZM31.777 2.9545C31.0268 2.20384 30.3014 1.73177 29.3027 1.34385L28.9406 2.27601C29.8112 2.61416 30.4187 3.01001 31.0697 3.6614L31.777 2.9545ZM33.3881 5.42992C32.9995 4.43166 32.5276 3.70514 31.7769 2.9544L31.0698 3.6615C31.7211 4.3128 32.1171 4.92156 32.4562 5.79269L33.3881 5.42992ZM34.1114 9.3065C34.02 7.29836 33.6817 6.18503 33.3882 5.43014L32.4562 5.79248C32.711 6.44798 33.0261 7.4544 33.1125 9.35196L34.1114 9.3065ZM34.2288 17.4202C34.2288 12.0727 34.2079 11.4294 34.1114 9.30652L33.1125 9.35193C33.2079 11.4519 33.2288 12.0771 33.2288 17.4202H34.2288ZM34.1114 25.5339C34.2079 23.411 34.2288 22.7677 34.2288 17.4202H33.2288C33.2288 22.7632 33.2079 23.3885 33.1125 25.4885L34.1114 25.5339ZM33.3882 29.4102C33.6817 28.6553 34.0196 27.542 34.1114 25.534L33.1125 25.4883C33.0257 27.386 32.711 28.3925 32.4562 29.0479L33.3882 29.4102ZM31.7768 31.8836C32.5271 31.1337 33.0002 30.4093 33.3883 29.4101L32.4561 29.0481C32.1181 29.9183 31.7216 30.525 31.0699 31.1763L31.7768 31.8836ZM29.3026 33.4941C30.302 33.1061 31.0264 32.6339 31.7769 31.8835L31.0698 31.1764C30.4182 31.828 29.8115 32.2238 28.9407 32.5618L29.3026 33.4941ZM25.4257 34.2176C27.4333 34.1258 28.5478 33.7888 29.3035 33.4937L28.9398 32.5622C28.2851 32.8179 27.2781 33.1319 25.38 33.2186L25.4257 34.2176ZM17.3094 34.335C22.6595 34.335 23.3027 34.3141 25.4256 34.2176L25.3802 33.2186C23.2803 33.3141 22.655 33.335 17.3094 33.335V34.335ZM9.19325 34.2176C11.3161 34.3141 11.959 34.335 17.3094 34.335V33.335C11.9634 33.335 11.3386 33.3141 9.23866 33.2186L9.19325 34.2176ZM5.31589 33.4937C6.07185 33.787 7.18497 34.1249 9.1929 34.2176L9.23901 33.2187C7.34124 33.1311 6.33461 32.8163 5.67767 32.5614L5.31589 33.4937ZM2.83987 31.8831C3.59062 32.6338 4.31723 33.1058 5.31576 33.4936L5.6778 32.5615C4.80694 32.2232 4.19827 31.8273 3.54698 31.176L2.83987 31.8831ZM1.2286 29.4087C1.61735 30.4078 2.08936 31.1326 2.83987 31.8831L3.54698 31.176C2.89545 30.5244 2.49953 29.9173 2.16054 29.0461L1.2286 29.4087ZM0.505333 25.5322C0.596729 27.5404 0.935079 28.6537 1.22855 29.4086L2.1606 29.0462C1.90577 28.3907 1.59066 27.3843 1.5043 25.4868L0.505333 25.5322ZM0.389648 17.4152C0.389648 22.7657 0.408829 23.4091 0.505332 25.5322L1.5043 25.4868C1.40886 23.387 1.38965 22.7619 1.38965 17.4152H0.389648ZM0.505332 9.30152C0.408829 11.4246 0.389648 12.0646 0.389648 17.4152H1.38965C1.38965 12.0685 1.40886 11.4467 1.5043 9.34693L0.505332 9.30152ZM1.22848 5.42448C0.935058 6.18014 0.597158 7.29337 0.505338 9.30138L1.50429 9.34706C1.59107 7.44938 1.90579 6.44285 2.16067 5.78645L1.22848 5.42448ZM2.83987 2.94855C2.08931 3.69911 1.61641 4.42566 1.22849 5.42444L2.16065 5.78649C2.49879 4.91588 2.89549 4.30714 3.54698 3.65566L2.83987 2.94855ZM5.3154 1.33731C4.31713 1.72593 3.59062 2.1978 2.83987 2.94855L3.54698 3.65566C4.19827 3.00437 4.80704 2.60831 5.67817 2.26919L5.3154 1.33731ZM9.19301 0.613191C7.18539 0.705422 6.07149 1.04238 5.31508 1.33744L5.67848 2.26907C6.33413 2.01332 7.34083 1.69934 9.2389 1.61214L9.19301 0.613191ZM15.5121 0.5C11.7743 0.504178 11.0506 0.529291 9.1934 0.613174L9.23852 1.61216C11.0767 1.52913 11.7851 1.50417 15.5132 1.5L15.5121 0.5ZM16.0126 1.00501V1H15.0126V1.00501H16.0126ZM25.3154 7.80878C25.3154 6.75785 26.1679 5.90611 27.2189 5.90611V4.90611C25.6161 4.90611 24.3154 6.205 24.3154 7.80878H25.3154ZM27.2189 9.71228C26.1681 9.71228 25.3154 8.85957 25.3154 7.80878H24.3154C24.3154 9.41186 25.6159 10.7123 27.2189 10.7123V9.71228ZM29.1224 7.80878C29.1224 8.85957 28.2697 9.71228 27.2189 9.71228V10.7123C28.822 10.7123 30.1224 9.41185 30.1224 7.80878H29.1224ZM27.2189 5.90527C28.2697 5.90527 29.1224 6.75799 29.1224 7.80878H30.1224C30.1224 6.2057 28.822 4.90527 27.2189 4.90527V5.90527ZM27.7189 5.40611V5.40527H26.7189V5.40611H27.7189ZM17.3089 11.8984C20.7198 11.8984 23.4853 14.6635 23.4853 18.0748H24.4853C24.4853 14.1112 21.2721 10.8984 17.3089 10.8984V11.8984ZM11.1325 18.0748C11.1325 14.6635 13.8976 11.8984 17.3089 11.8984V10.8984C13.3453 10.8984 10.1325 14.1112 10.1325 18.0748H11.1325ZM17.3089 24.2512C13.8976 24.2512 11.1325 21.4858 11.1325 18.0748H10.1325C10.1325 22.038 13.3453 25.2512 17.3089 25.2512V24.2512ZM23.4853 18.0748C23.4853 21.4857 20.7198 24.2512 17.3089 24.2512V25.2512C21.2721 25.2512 24.4853 22.038 24.4853 18.0748H23.4853Z" fill="url(#paint0_linear)"/>
<defs>
<linearGradient id="paint0_linear" x1="-34.2105" y1="-88.9927" x2="116.083" y2="-1.64148" gradientUnits="userSpaceOnUse">
<stop stop-color="white"/>
<stop offset="1" stop-color="#7A22FF"/>
</linearGradient>
</defs>
</svg>
