<svg width="38" height="22" viewBox="0 0 38 22" fill="none" xmlns="http://www.w3.org/2000/svg">
<path d="M21.1743 21.4013C21.1743 21.4013 21.8232 21.3305 22.1556 20.9801C22.4598 20.659 22.4493 20.0531 22.4493 20.0531C22.4493 20.0531 22.4088 17.2237 23.7472 16.8059C25.0662 16.3951 26.7597 19.5421 28.5571 20.7522C29.9148 21.6671 30.9453 21.4669 30.9453 21.4669L35.7482 21.4013C35.7482 21.4013 38.2596 21.2494 37.069 19.3108C36.9705 19.1519 36.3743 17.8762 33.4989 15.2557C30.4863 12.5126 30.8908 12.9563 34.5171 8.21074C36.726 5.32094 37.6089 3.55667 37.3327 2.80228C37.0707 2.0807 35.4457 2.27231 35.4457 2.27231L30.0396 2.30511C30.0396 2.30511 29.6386 2.2516 29.3414 2.42595C29.0513 2.59686 28.8631 2.99563 28.8631 2.99563C28.8631 2.99563 28.0084 5.23117 26.867 7.13354C24.4594 11.1454 23.4974 11.3578 23.1035 11.1092C22.1872 10.5274 22.4159 8.77524 22.4159 7.53058C22.4159 3.64126 23.0173 2.02028 21.2464 1.60079C20.659 1.46096 20.2263 1.36947 18.7227 1.35393C16.7935 1.33494 15.1614 1.36083 14.2364 1.80449C13.6208 2.09968 13.146 2.75913 13.4362 2.7971C13.7932 2.84371 14.6022 3.01116 15.0313 3.58429C15.5853 4.32487 15.5659 5.98556 15.5659 5.98556C15.5659 5.98556 15.8842 10.5637 14.822 11.1316C14.0939 11.5218 13.095 10.7259 10.9477 7.0852C9.84853 5.22081 9.01845 3.15962 9.01845 3.15962C9.01845 3.15962 8.85841 2.77466 8.57175 2.56751C8.2253 2.3172 7.74167 2.23951 7.74167 2.23951L2.60464 2.27231C2.60464 2.27231 1.83259 2.29303 1.54945 2.62275C1.29796 2.91449 1.53011 3.52042 1.53011 3.52042C1.53011 3.52042 5.55214 12.7578 10.1071 17.4136C14.2839 21.681 19.0252 21.4013 19.0252 21.4013H21.1743Z" stroke="url(#paint0_linear)"/>
<defs>
<linearGradient id="paint0_linear" x1="-37.0002" y1="-53.8379" x2="68.9998" y2="56.1621" gradientUnits="userSpaceOnUse">
<stop stop-color="white"/>
<stop offset="1" stop-color="#7A22FF"/>
</linearGradient>
</defs>
</svg>
