<svg width="1862" height="815" viewBox="0 0 1862 815" fill="none" xmlns="http://www.w3.org/2000/svg">
<g opacity="0.5">
<line x1="921.053" y1="1.37478" x2="1.05249" y2="813.805" stroke="white"/>
<line x1="921.053" y1="1.37478" x2="1.05249" y2="813.805" stroke="url(#paint0_linear)"/>
</g>
<mask id="path-2-outside-1" maskUnits="userSpaceOnUse" x="3.72253" y="0" width="1859" height="815" fill="black">
<rect fill="white" x="3.72253" width="1859" height="815"/>
<path fill-rule="evenodd" clip-rule="evenodd" d="M4.72253 813.43V50.0008L60.323 1H1861V772.879L1818.61 813.43H4.72253Z"/>
</mask>
<path d="M4.72253 50.0008L4.06136 49.2505L3.72253 49.5491V50.0008H4.72253ZM4.72253 813.43H3.72253V814.43H4.72253V813.43ZM60.323 1V0H59.9452L59.6618 0.249771L60.323 1ZM1861 1H1862V0H1861V1ZM1861 772.879L1861.69 773.602L1862 773.307V772.879H1861ZM1818.61 813.43V814.43H1819.01L1819.3 814.153L1818.61 813.43ZM3.72253 50.0008V813.43H5.72253V50.0008H3.72253ZM59.6618 0.249771L4.06136 49.2505L5.38371 50.751L60.9842 1.75023L59.6618 0.249771ZM1861 0H60.323V2H1861V0ZM1862 772.879V1H1860V772.879H1862ZM1819.3 814.153L1861.69 773.602L1860.31 772.157L1817.92 812.708L1819.3 814.153ZM4.72253 814.43H1818.61V812.43H4.72253V814.43Z" fill="white" mask="url(#path-2-outside-1)"/>
<path d="M4.72253 50.0008L4.06136 49.2505L3.72253 49.5491V50.0008H4.72253ZM4.72253 813.43H3.72253V814.43H4.72253V813.43ZM60.323 1V0H59.9452L59.6618 0.249771L60.323 1ZM1861 1H1862V0H1861V1ZM1861 772.879L1861.69 773.602L1862 773.307V772.879H1861ZM1818.61 813.43V814.43H1819.01L1819.3 814.153L1818.61 813.43ZM3.72253 50.0008V813.43H5.72253V50.0008H3.72253ZM59.6618 0.249771L4.06136 49.2505L5.38371 50.751L60.9842 1.75023L59.6618 0.249771ZM1861 0H60.323V2H1861V0ZM1862 772.879V1H1860V772.879H1862ZM1819.3 814.153L1861.69 773.602L1860.31 772.157L1817.92 812.708L1819.3 814.153ZM4.72253 814.43H1818.61V812.43H4.72253V814.43Z" fill="url(#paint1_linear)" mask="url(#path-2-outside-1)"/>
<defs>
<linearGradient id="paint0_linear" x1="1205.02" y1="-238.661" x2="1155.83" y2="-288.923" gradientUnits="userSpaceOnUse">
<stop stop-color="white"/>
<stop offset="1" stop-color="#9A45E6"/>
</linearGradient>
<linearGradient id="paint1_linear" x1="1471" y1="920" x2="1050.3" y2="1127.43" gradientUnits="userSpaceOnUse">
<stop stop-color="white"/>
<stop offset="1" stop-color="#9A45E6"/>
</linearGradient>
</defs>
</svg>
