<svg width="31" height="32" viewBox="0 0 31 32" fill="none" xmlns="http://www.w3.org/2000/svg">
<path fill-rule="evenodd" clip-rule="evenodd" d="M3.96103 18.92C5.59637 18.92 6.92207 17.5943 6.92207 15.959C6.92207 14.3236 5.59637 12.9979 3.96103 12.9979C2.3257 12.9979 1 14.3236 1 15.959C1 17.5943 2.3257 18.92 3.96103 18.92ZM3.96103 19.92C6.14865 19.92 7.92207 18.1466 7.92207 15.959C7.92207 13.7713 6.14865 11.9979 3.96103 11.9979C1.77342 11.9979 0 13.7713 0 15.959C0 18.1466 1.77342 19.92 3.96103 19.92Z" fill="white"/>
<path fill-rule="evenodd" clip-rule="evenodd" d="M15.25 30.2132C16.8853 30.2132 18.211 28.8875 18.211 27.2522C18.211 25.6168 16.8853 24.2911 15.25 24.2911C13.6146 24.2911 12.2889 25.6168 12.2889 27.2522C12.2889 28.8875 13.6146 30.2132 15.25 30.2132ZM15.25 31.2132C17.4376 31.2132 19.211 29.4398 19.211 27.2522C19.211 25.0646 17.4376 23.2911 15.25 23.2911C13.0624 23.2911 11.2889 25.0646 11.2889 27.2522C11.2889 29.4398 13.0624 31.2132 15.25 31.2132Z" fill="white"/>
<path fill-rule="evenodd" clip-rule="evenodd" d="M15.25 18.92C16.8853 18.92 18.211 17.5943 18.211 15.959C18.211 14.3236 16.8853 12.9979 15.25 12.9979C13.6146 12.9979 12.2889 14.3236 12.2889 15.959C12.2889 17.5943 13.6146 18.92 15.25 18.92ZM15.25 19.92C17.4376 19.92 19.211 18.1466 19.211 15.959C19.211 13.7713 17.4376 11.9979 15.25 11.9979C13.0624 11.9979 11.2889 13.7713 11.2889 15.959C11.2889 18.1466 13.0624 19.92 15.25 19.92Z" fill="white"/>
<path d="M19.211 4.04282C19.211 6.23044 17.4376 8.00385 15.25 8.00385C13.0624 8.00385 11.2889 6.23044 11.2889 4.04282C11.2889 1.8552 13.0624 0.0817871 15.25 0.0817871C17.4376 0.0817871 19.211 1.8552 19.211 4.04282Z" fill="#7A22FF"/>
<path fill-rule="evenodd" clip-rule="evenodd" d="M26.539 18.92C28.1743 18.92 29.5 17.5943 29.5 15.959C29.5 14.3236 28.1743 12.9979 26.539 12.9979C24.9036 12.9979 23.5779 14.3236 23.5779 15.959C23.5779 17.5943 24.9036 18.92 26.539 18.92ZM26.539 19.92C28.7266 19.92 30.5 18.1466 30.5 15.959C30.5 13.7713 28.7266 11.9979 26.539 11.9979C24.3514 11.9979 22.5779 13.7713 22.5779 15.959C22.5779 18.1466 24.3514 19.92 26.539 19.92Z" fill="white"/>
</svg>
