<svg width="62" height="66" viewBox="0 0 62 66" fill="none" xmlns="http://www.w3.org/2000/svg">
<path d="M54.0117 32.4346C54.0117 45.6894 43.2666 56.4346 30.0117 56.4346C16.7569 56.4346 6.01172 45.6894 6.01172 32.4346C6.01172 19.1797 16.7569 8.43457 30.0117 8.43457C43.2666 8.43457 54.0117 19.1797 54.0117 32.4346Z" fill="white"/>
<path d="M31.8857 39.0558V34.2798H36.6617V31.9518H31.8857V27.1758H29.5337V31.9518H24.7817V34.2798H29.5337V39.0558H31.8857Z" fill="black"/>
<path fill-rule="evenodd" clip-rule="evenodd" d="M-0.000976562 0H8.99902V2H1.99902V9H-0.000976562V0Z" fill="white"/>
<path fill-rule="evenodd" clip-rule="evenodd" d="M61.999 0H52.999V2H59.999V9H61.999V0Z" fill="white"/>
<path fill-rule="evenodd" clip-rule="evenodd" d="M-0.000976562 66H7.99902V64H1.99902V57H-0.000976562V66Z" fill="white"/>
<path fill-rule="evenodd" clip-rule="evenodd" d="M61.999 66H52.999V64H59.999V57H61.999V66Z" fill="white"/>
</svg>
