<svg width="78" height="78" viewBox="0 0 78 78" fill="none" xmlns="http://www.w3.org/2000/svg">
<path fill-rule="evenodd" clip-rule="evenodd" d="M39.0172 76C59.4418 76 75.9992 59.4426 75.9992 39.018C75.9992 18.5934 59.4418 2.03595 39.0172 2.03595C18.5926 2.03595 2.03516 18.5934 2.03516 39.018C2.03516 59.4426 18.5926 76 39.0172 76ZM39.0172 78C60.5464 78 77.9992 60.5472 77.9992 39.018C77.9992 17.4888 60.5464 0.0359497 39.0172 0.0359497C17.488 0.0359497 0.0351562 17.4888 0.0351562 39.018C0.0351562 60.5472 17.488 78 39.0172 78Z" fill="#9A45E6"/>
<path fill-rule="evenodd" clip-rule="evenodd" d="M33.4455 71.969C47.7293 71.969 59.3087 60.3897 59.3087 46.1059C59.3087 31.8221 47.7293 20.2427 33.4455 20.2427C19.1617 20.2427 7.58237 31.8221 7.58237 46.1059C7.58237 60.3897 19.1617 71.969 33.4455 71.969ZM33.4455 73.969C48.8339 73.969 61.3087 61.4943 61.3087 46.1059C61.3087 30.7175 48.8339 18.2427 33.4455 18.2427C18.0571 18.2427 5.58237 30.7175 5.58237 46.1059C5.58237 61.4943 18.0571 73.969 33.4455 73.969Z" fill="#7A22FF"/>
<path fill-rule="evenodd" clip-rule="evenodd" d="M27.0679 66.7775C34.7279 66.7775 40.9376 60.5678 40.9376 52.9078C40.9376 45.2478 34.7279 39.0381 27.0679 39.0381C19.4079 39.0381 13.1982 45.2478 13.1982 52.9078C13.1982 60.5678 19.4079 66.7775 27.0679 66.7775ZM27.0679 68.7775C35.8325 68.7775 42.9376 61.6724 42.9376 52.9078C42.9376 44.1432 35.8325 37.0381 27.0679 37.0381C18.3033 37.0381 11.1982 44.1432 11.1982 52.9078C11.1982 61.6724 18.3033 68.7775 27.0679 68.7775Z" fill="white"/>
</svg>
