<svg width="125" height="60" viewBox="0 0 125 60" fill="none" xmlns="http://www.w3.org/2000/svg">
<path fill-rule="evenodd" clip-rule="evenodd" d="M44.2007 43.8086C47.4482 40.4998 49.127 35.892 49.127 29.8546C49.127 23.8162 47.448 19.2462 44.2072 16.0055L44.2006 15.9988L44.194 15.992C41.0122 12.6878 36.6072 10.9873 30.8499 10.9873C25.0933 10.9873 20.6506 12.6877 17.4008 15.9988C14.2221 19.2387 12.5728 23.8111 12.5728 29.8546C12.5728 35.893 14.2196 40.501 17.4009 43.8086C20.649 47.053 25.0918 48.7218 30.8499 48.7218C36.6127 48.7218 41.02 47.0504 44.2007 43.8086ZM16.6871 44.5091C13.2776 40.9684 11.5728 36.0836 11.5728 29.8546C11.5728 23.6256 13.2776 18.7735 16.6871 15.2984C20.1622 11.7577 24.8832 9.98731 30.8499 9.98731C36.8166 9.98731 41.5048 11.7577 44.9143 15.2984C48.3895 18.7735 50.127 23.6256 50.127 29.8546C50.127 36.0836 48.3895 40.9684 44.9143 44.5091C41.5048 47.9842 36.8166 49.7218 30.8499 49.7218C24.8832 49.7218 20.1622 47.9842 16.6871 44.5091ZM52.3858 51.4338L52.3811 51.4381C46.6663 56.7447 39.4632 59.3768 30.8499 59.3768C22.2364 59.3768 15.0032 56.7448 9.22467 51.4421L9.21564 51.4338C3.47553 46.0354 0.63916 38.8047 0.63916 29.8546C0.63916 20.9048 3.47552 13.704 9.22 8.36965C14.998 2.99949 22.2328 0.332275 30.8499 0.332275C39.4657 0.332275 46.6695 2.99883 52.3834 8.37145C58.1266 13.7056 60.9623 20.9058 60.9623 29.8546C60.9623 38.8047 58.1259 46.0353 52.3858 51.4338ZM51.7007 9.10214C46.1929 3.92223 39.2427 1.33228 30.8499 1.33228C22.4571 1.33228 15.4741 3.92223 9.90079 9.10214C4.39303 14.2165 1.63916 21.134 1.63916 29.8546C1.63916 38.5752 4.39303 45.5254 9.90079 50.7053C15.4741 55.8197 22.4571 58.3768 30.8499 58.3768C39.2427 58.3768 46.1929 55.8197 51.7007 50.7053C57.2084 45.5254 59.9623 38.5752 59.9623 29.8546C59.9623 21.134 57.2084 14.2165 51.7007 9.10214ZM84.408 22.0682H103.898C105.869 22.0682 107.16 21.6269 107.954 20.9199C108.726 20.2326 109.193 19.1448 109.193 17.4621C109.193 16.3423 108.936 15.4274 108.462 14.6767C107.987 13.9242 107.254 13.2749 106.205 12.7504L106.195 12.7454C104.126 11.6812 100.529 11.0857 95.2433 11.0857C88.4838 11.0857 82.3824 12.8996 76.912 16.5253L76.0643 17.0871L70.4747 8.33813L71.2647 7.78919C75.1976 5.0561 79.0297 3.13282 82.76 2.04647C86.4754 0.899063 90.6069 0.332275 95.1449 0.332275C103.355 0.332275 109.744 1.71689 114.175 4.62129C118.854 7.55768 121.225 11.8426 121.225 17.3638C121.225 21.174 119.787 24.2084 116.96 26.3901C119.233 27.4467 121.044 28.9049 122.349 30.7839C123.984 33.137 124.766 36.0628 124.766 39.4931C124.766 45.2164 122.231 49.9882 117.293 53.7606C112.376 57.5674 104.763 59.3768 94.6531 59.3768C84.5683 59.3768 75.8327 56.7351 68.4946 51.4167L67.7368 50.8675L73.5872 41.5547L74.4347 42.09C78.1227 44.4193 81.4564 46.0821 84.4398 47.0991C87.4633 48.0422 91.0912 48.5251 95.3416 48.5251C101.446 48.5251 105.865 47.6753 108.725 46.0929C110.14 45.3101 111.155 44.3587 111.82 43.2553C112.484 42.1537 112.832 40.8457 112.832 39.2964C112.832 36.9546 112.122 35.3594 110.841 34.3189C109.52 33.2461 107.428 32.6249 104.39 32.6249H84.408V22.0682ZM116.684 52.9674C121.405 49.3612 123.766 44.8697 123.766 39.4931C123.766 33.3875 121.179 29.2434 116.005 27.0607C115.623 26.8994 115.226 26.7488 114.815 26.6089C115.193 26.396 115.551 26.1715 115.889 25.9355C118.78 23.9191 120.225 21.0618 120.225 17.3638C120.225 12.1839 118.028 8.21696 113.635 5.46309C109.439 2.70921 103.275 1.33228 95.1449 1.33228C90.6862 1.33228 86.6538 1.88961 83.0475 3.00427C79.4413 4.05337 75.7039 5.92207 71.8353 8.61038L76.3595 15.6918C76.3596 15.6918 76.3595 15.6918 76.3595 15.6918C76.6383 15.507 76.9188 15.3267 77.2008 15.1511C82.6225 11.7741 88.6367 10.0857 95.2433 10.0857C100.554 10.0857 104.357 10.6758 106.652 11.856C109.013 13.0362 110.193 14.9049 110.193 17.4621C110.193 21.1995 108.095 23.0682 103.898 23.0682H85.408V31.6249H104.39C110.685 31.6249 113.832 34.1821 113.832 39.2964C113.832 46.1155 107.668 49.5251 95.3416 49.5251C91.0141 49.5251 87.2767 49.0333 84.1294 48.0498C81.1339 47.0301 77.8287 45.3908 74.2138 43.1321C74.1099 43.0672 74.0058 43.0018 73.9014 42.9359C73.9012 42.9358 73.9016 42.936 73.9014 42.9359L69.0814 50.607C76.2284 55.7869 84.7523 58.3768 94.6531 58.3768C104.685 58.3768 112.029 56.5737 116.684 52.9674Z" fill="#7A22FF"/>
</svg>
