<svg width="124" height="59" viewBox="0 0 124 59" fill="none" xmlns="http://www.w3.org/2000/svg">
<path fill-rule="evenodd" clip-rule="evenodd" d="M43.5024 44.1051C46.8462 40.6981 48.5499 35.9732 48.5499 29.8547C48.5499 23.7357 46.8461 19.0465 43.5062 15.7066L43.4985 15.6989C40.2204 12.2947 35.6957 10.5646 29.8498 10.5646C24.0044 10.5646 19.4441 12.2945 16.099 15.7027C12.8226 19.0421 11.1498 23.7327 11.1498 29.8547C11.1498 35.9738 12.8212 40.6989 16.099 44.1051C19.4431 47.447 24.0035 49.1449 29.8498 49.1449C35.6989 49.1449 40.225 47.4455 43.5024 44.1051ZM15.6871 44.5093C12.2775 40.9686 10.5727 36.0837 10.5727 29.8547C10.5727 23.6257 12.2775 18.7737 15.6871 15.2985C19.1622 11.7578 23.8831 9.98749 29.8498 9.98749C35.8166 9.98749 40.5047 11.7578 43.9143 15.2985C47.3894 18.7737 49.127 23.6257 49.127 29.8547C49.127 36.0837 47.3894 40.9686 43.9143 44.5093C40.5047 47.9844 35.8166 49.722 29.8498 49.722C23.8831 49.722 19.1622 47.9844 15.6871 44.5093ZM51.096 51.1259L51.0933 51.1284C45.466 56.3537 38.3699 58.9541 29.8498 58.9541C21.3297 58.9541 14.2023 56.3537 8.51054 51.1307L8.50533 51.1259C2.86352 45.8199 0.0620117 38.7078 0.0620117 29.8547C0.0620117 21.0018 2.86355 13.9207 8.50804 8.67944C14.1995 3.38985 21.3277 0.755371 29.8498 0.755371C38.3712 0.755371 45.4678 3.38949 51.0945 8.68054C56.7382 13.9217 59.5393 21.0024 59.5393 29.8547C59.5393 38.7078 56.7378 45.8199 51.096 51.1259ZM8.90072 9.10232C3.39297 14.2167 0.639093 21.1341 0.639093 29.8547C0.639093 38.5753 3.39297 45.5256 8.90072 50.7055C14.474 55.8198 21.4571 58.377 29.8498 58.377C38.2426 58.377 45.1929 55.8198 50.7006 50.7055C56.2084 45.5256 58.9622 38.5753 58.9622 29.8547C58.9622 21.1341 56.2084 14.2167 50.7006 9.10232C45.1929 3.92241 38.2426 1.33245 29.8498 1.33245C21.4571 1.33245 14.474 3.92241 8.90072 9.10232ZM83.8308 22.4913H102.898C104.923 22.4913 106.334 22.0391 107.235 21.2359C108.124 20.4441 108.616 19.2236 108.616 17.4623C108.616 16.2753 108.343 15.2794 107.82 14.451C107.296 13.6216 106.498 12.9246 105.394 12.3723L105.388 12.3694C103.224 11.2561 99.5399 10.6629 94.2432 10.6629C87.403 10.6629 81.2199 12.5 75.6783 16.173L75.1891 16.4972L70.0501 8.45345L70.5059 8.13666C74.4117 5.42251 78.2037 3.5223 81.8816 2.45171C85.5508 1.31815 89.6404 0.755371 94.1448 0.755371C102.321 0.755371 108.615 2.13672 112.947 4.97749C117.505 7.83667 119.802 11.9871 119.802 17.3639C119.802 21.2967 118.228 24.3539 115.115 26.4814C117.649 27.5296 119.622 29.0393 121.002 31.0254C122.576 33.2914 123.343 36.1272 123.343 39.4933C123.343 45.0699 120.881 49.7231 116.036 53.4253C111.229 57.1473 103.73 58.9541 93.6531 58.9541C83.6461 58.9541 75 56.3343 67.7427 51.0744L67.3054 50.7575L72.7197 42.1388L73.2088 42.4477C76.9178 44.7902 80.2836 46.4708 83.3085 47.5014C86.3844 48.4616 90.0585 48.9482 94.3415 48.9482C100.471 48.9482 104.976 48.0973 107.93 46.4631C109.398 45.6509 110.472 44.6513 111.182 43.4738C111.891 42.2973 112.255 40.9116 112.255 39.2966C112.255 36.8637 111.512 35.132 110.107 33.9908C108.68 32.831 106.474 32.2022 103.39 32.2022H83.8308V22.4913ZM83.1293 48.05C80.1337 47.0302 76.8283 45.3908 73.2131 43.1319C73.1096 43.0673 73.0059 43.0021 72.902 42.9365C72.9015 42.9362 72.9011 42.9359 72.9007 42.9356L68.0814 50.6072C75.2283 55.7871 83.7522 58.377 93.6531 58.377C103.685 58.377 111.029 56.5739 115.684 52.9676C120.405 49.3613 122.765 44.8699 122.765 39.4933C122.765 33.1998 120.017 28.9904 114.52 26.865C114.29 26.776 114.055 26.6907 113.815 26.6091C114.036 26.4848 114.25 26.3565 114.457 26.2243C117.635 24.1955 119.225 21.2421 119.225 17.3639C119.225 12.184 117.028 8.21714 112.635 5.46326C108.439 2.70939 102.275 1.33245 94.1448 1.33245C89.6862 1.33245 85.6537 1.88979 82.0475 3.00445C78.4412 4.05354 74.7038 5.92225 70.8353 8.61055L75.3595 15.6919C75.3595 15.6919 75.3595 15.692 75.3595 15.6919C75.5201 15.5855 75.6814 15.4805 75.8431 15.377C81.3576 11.8496 87.491 10.0858 94.2432 10.0858C99.5542 10.0858 103.357 10.676 105.652 11.8562C108.013 13.0364 109.193 14.9051 109.193 17.4623C109.193 21.1997 107.095 23.0684 102.898 23.0684H84.4079V31.6251H103.39C109.685 31.6251 112.832 34.1823 112.832 39.2966C112.832 46.1157 106.668 49.5253 94.3415 49.5253C90.014 49.5253 86.2766 49.0335 83.1293 48.05Z" fill="white"/>
<path fill-rule="evenodd" clip-rule="evenodd" d="M43.5024 44.1051C46.8462 40.6981 48.5499 35.9732 48.5499 29.8547C48.5499 23.7357 46.8461 19.0465 43.5062 15.7066L43.4985 15.6989C40.2204 12.2947 35.6957 10.5646 29.8498 10.5646C24.0044 10.5646 19.4441 12.2945 16.099 15.7027C12.8226 19.0421 11.1498 23.7327 11.1498 29.8547C11.1498 35.9738 12.8212 40.6989 16.099 44.1051C19.4431 47.447 24.0035 49.1449 29.8498 49.1449C35.6989 49.1449 40.225 47.4455 43.5024 44.1051ZM15.6871 44.5093C12.2775 40.9686 10.5727 36.0837 10.5727 29.8547C10.5727 23.6257 12.2775 18.7737 15.6871 15.2985C19.1622 11.7578 23.8831 9.98749 29.8498 9.98749C35.8166 9.98749 40.5047 11.7578 43.9143 15.2985C47.3894 18.7737 49.127 23.6257 49.127 29.8547C49.127 36.0837 47.3894 40.9686 43.9143 44.5093C40.5047 47.9844 35.8166 49.722 29.8498 49.722C23.8831 49.722 19.1622 47.9844 15.6871 44.5093ZM51.096 51.1259L51.0933 51.1284C45.466 56.3537 38.3699 58.9541 29.8498 58.9541C21.3297 58.9541 14.2023 56.3537 8.51054 51.1307L8.50533 51.1259C2.86352 45.8199 0.0620117 38.7078 0.0620117 29.8547C0.0620117 21.0018 2.86355 13.9207 8.50804 8.67944C14.1995 3.38985 21.3277 0.755371 29.8498 0.755371C38.3712 0.755371 45.4678 3.38949 51.0945 8.68054C56.7382 13.9217 59.5393 21.0024 59.5393 29.8547C59.5393 38.7078 56.7378 45.8199 51.096 51.1259ZM8.90072 9.10232C3.39297 14.2167 0.639093 21.1341 0.639093 29.8547C0.639093 38.5753 3.39297 45.5256 8.90072 50.7055C14.474 55.8198 21.4571 58.377 29.8498 58.377C38.2426 58.377 45.1929 55.8198 50.7006 50.7055C56.2084 45.5256 58.9622 38.5753 58.9622 29.8547C58.9622 21.1341 56.2084 14.2167 50.7006 9.10232C45.1929 3.92241 38.2426 1.33245 29.8498 1.33245C21.4571 1.33245 14.474 3.92241 8.90072 9.10232ZM83.8308 22.4913H102.898C104.923 22.4913 106.334 22.0391 107.235 21.2359C108.124 20.4441 108.616 19.2236 108.616 17.4623C108.616 16.2753 108.343 15.2794 107.82 14.451C107.296 13.6216 106.498 12.9246 105.394 12.3723L105.388 12.3694C103.224 11.2561 99.5399 10.6629 94.2432 10.6629C87.403 10.6629 81.2199 12.5 75.6783 16.173L75.1891 16.4972L70.0501 8.45345L70.5059 8.13666C74.4117 5.42251 78.2037 3.5223 81.8816 2.45171C85.5508 1.31815 89.6404 0.755371 94.1448 0.755371C102.321 0.755371 108.615 2.13672 112.947 4.97749C117.505 7.83667 119.802 11.9871 119.802 17.3639C119.802 21.2967 118.228 24.3539 115.115 26.4814C117.649 27.5296 119.622 29.0393 121.002 31.0254C122.576 33.2914 123.343 36.1272 123.343 39.4933C123.343 45.0699 120.881 49.7231 116.036 53.4253C111.229 57.1473 103.73 58.9541 93.6531 58.9541C83.6461 58.9541 75 56.3343 67.7427 51.0744L67.3054 50.7575L72.7197 42.1388L73.2088 42.4477C76.9178 44.7902 80.2836 46.4708 83.3085 47.5014C86.3844 48.4616 90.0585 48.9482 94.3415 48.9482C100.471 48.9482 104.976 48.0973 107.93 46.4631C109.398 45.6509 110.472 44.6513 111.182 43.4738C111.891 42.2973 112.255 40.9116 112.255 39.2966C112.255 36.8637 111.512 35.132 110.107 33.9908C108.68 32.831 106.474 32.2022 103.39 32.2022H83.8308V22.4913ZM83.1293 48.05C80.1337 47.0302 76.8283 45.3908 73.2131 43.1319C73.1096 43.0673 73.0059 43.0021 72.902 42.9365C72.9015 42.9362 72.9011 42.9359 72.9007 42.9356L68.0814 50.6072C75.2283 55.7871 83.7522 58.377 93.6531 58.377C103.685 58.377 111.029 56.5739 115.684 52.9676C120.405 49.3613 122.765 44.8699 122.765 39.4933C122.765 33.1998 120.017 28.9904 114.52 26.865C114.29 26.776 114.055 26.6907 113.815 26.6091C114.036 26.4848 114.25 26.3565 114.457 26.2243C117.635 24.1955 119.225 21.2421 119.225 17.3639C119.225 12.184 117.028 8.21714 112.635 5.46326C108.439 2.70939 102.275 1.33245 94.1448 1.33245C89.6862 1.33245 85.6537 1.88979 82.0475 3.00445C78.4412 4.05354 74.7038 5.92225 70.8353 8.61055L75.3595 15.6919C75.3595 15.6919 75.3595 15.692 75.3595 15.6919C75.5201 15.5855 75.6814 15.4805 75.8431 15.377C81.3576 11.8496 87.491 10.0858 94.2432 10.0858C99.5542 10.0858 103.357 10.676 105.652 11.8562C108.013 13.0364 109.193 14.9051 109.193 17.4623C109.193 21.1997 107.095 23.0684 102.898 23.0684H84.4079V31.6251H103.39C109.685 31.6251 112.832 34.1823 112.832 39.2966C112.832 46.1157 106.668 49.5253 94.3415 49.5253C90.014 49.5253 86.2766 49.0335 83.1293 48.05Z" fill="white"/>
</svg>
