<svg width="1081" height="6" viewBox="0 0 1081 6" fill="none" xmlns="http://www.w3.org/2000/svg">
<path fill-rule="evenodd" clip-rule="evenodd" d="M1.27758 5.52881H0.277344V0.528809H1.27758V5.52881ZM5.2785 5.52881H3.27804V0.528809H5.2785V5.52881ZM9.27943 5.52881H7.27896V0.528809H9.27943V5.52881ZM13.2804 5.52881H11.2799V0.528809H13.2804V5.52881ZM17.2813 5.52881H15.2808V0.528809H17.2813V5.52881ZM21.2822 5.52881H19.2817V0.528809H21.2822V5.52881ZM25.2831 5.52881H23.2827V0.528809H25.2831V5.52881ZM29.2841 5.52881H27.2836V0.528809H29.2841V5.52881ZM33.285 5.52881H31.2845V0.528809H33.285V5.52881ZM37.2859 5.52881H35.2854V0.528809H37.2859V5.52881ZM41.2868 5.52881H39.2864V0.528809H41.2868V5.52881ZM45.2878 5.52881H43.2873V0.528809H45.2878V5.52881ZM49.2887 5.52881H47.2882V0.528809H49.2887V5.52881ZM53.2896 5.52881H51.2891V0.528809H53.2896V5.52881ZM57.2905 5.52881H55.2901V0.528809H57.2905V5.52881ZM61.2915 5.52881H59.291V0.528809H61.2915V5.52881ZM65.2924 5.52881H63.2919V0.528809H65.2924V5.52881ZM69.2933 5.52881H67.2928V0.528809H69.2933V5.52881ZM73.2942 5.52881H71.2938V0.528809H73.2942V5.52881ZM77.2952 5.52881H75.2947V0.528809H77.2952V5.52881ZM81.2961 5.52881H79.2956V0.528809H81.2961V5.52881ZM85.297 5.52881H83.2966V0.528809H85.297V5.52881ZM89.298 5.52881H87.2975V0.528809H89.298V5.52881ZM93.2989 5.52881H91.2984V0.528809H93.2989V5.52881ZM97.2998 5.52881H95.2994V0.528809H97.2998V5.52881ZM101.301 5.52881H99.3003V0.528809H101.301V5.52881ZM105.302 5.52881H103.301V0.528809H105.302V5.52881ZM109.303 5.52881H107.302V0.528809H109.303V5.52881ZM113.304 5.52881H111.303V0.528809H113.304V5.52881ZM117.304 5.52881H115.304V0.528809H117.304V5.52881ZM121.305 5.52881H119.305V0.528809H121.305V5.52881ZM125.306 5.52881H123.306V0.528809H125.306V5.52881ZM129.307 5.52881H127.307V0.528809H129.307V5.52881ZM133.308 5.52881H131.308V0.528809H133.308V5.52881ZM137.309 5.52881H135.309V0.528809H137.309V5.52881ZM141.31 5.52881H139.31V0.528809H141.31V5.52881ZM145.311 5.52881H143.31V0.528809H145.311V5.52881ZM149.312 5.52881H147.311V0.528809H149.312V5.52881ZM153.313 5.52881H151.312V0.528809H153.313V5.52881ZM157.314 5.52881H155.313V0.528809H157.314V5.52881ZM161.315 5.52881H159.314V0.528809H161.315V5.52881ZM165.316 5.52881H163.315V0.528809H165.316V5.52881ZM169.316 5.52881H167.316V0.528809H169.316V5.52881ZM173.317 5.52881H171.317V0.528809H173.317V5.52881ZM177.318 5.52881H175.318V0.528809H177.318V5.52881ZM181.319 5.52881H179.319V0.528809H181.319V5.52881ZM185.32 5.52881H183.32V0.528809H185.32V5.52881ZM189.321 5.52881H187.321V0.528809H189.321V5.52881ZM193.322 5.52881H191.321V0.528809H193.322V5.52881ZM197.323 5.52881H195.322V0.528809H197.323V5.52881ZM201.324 5.52881H199.323V0.528809H201.324V5.52881ZM205.325 5.52881H203.324V0.528809H205.325V5.52881ZM209.326 5.52881H207.325V0.528809H209.326V5.52881ZM213.326 5.52881H211.326V0.528809H213.326V5.52881ZM217.327 5.52881H215.327V0.528809H217.327V5.52881ZM221.328 5.52881H219.328V0.528809H221.328V5.52881ZM225.329 5.52881H223.329V0.528809H225.329V5.52881ZM229.33 5.52881H227.33V0.528809H229.33V5.52881ZM233.331 5.52881H231.331V0.528809H233.331V5.52881ZM237.332 5.52881H235.332V0.528809H237.332V5.52881ZM241.333 5.52881H239.332V0.528809H241.333V5.52881ZM245.334 5.52881H243.333V0.528809H245.334V5.52881ZM249.335 5.52881H247.334V0.528809H249.335V5.52881ZM253.336 5.52881H251.335V0.528809H253.336V5.52881ZM257.337 5.52881H255.336V0.528809H257.337V5.52881ZM261.337 5.52881H259.337V0.528809H261.337V5.52881ZM265.338 5.52881H263.338V0.528809H265.338V5.52881ZM269.339 5.52881H267.339V0.528809H269.339V5.52881ZM273.34 5.52881H271.34V0.528809H273.34V5.52881ZM277.341 5.52881H275.341V0.528809H277.341V5.52881ZM281.342 5.52881H279.342V0.528809H281.342V5.52881ZM285.343 5.52881H283.343V0.528809H285.343V5.52881ZM289.344 5.52881H287.343V0.528809H289.344V5.52881ZM293.345 5.52881H291.344V0.528809H293.345V5.52881ZM297.346 5.52881H295.345V0.528809H297.346V5.52881ZM301.347 5.52881H299.346V0.528809H301.347V5.52881ZM305.348 5.52881H303.347V0.528809H305.348V5.52881ZM309.348 5.52881H307.348V0.528809H309.348V5.52881ZM313.349 5.52881H311.349V0.528809H313.349V5.52881ZM317.35 5.52881H315.35V0.528809H317.35V5.52881ZM321.351 5.52881H319.351V0.528809H321.351V5.52881ZM325.352 5.52881H323.352V0.528809H325.352V5.52881ZM329.353 5.52881H327.353V0.528809H329.353V5.52881ZM333.354 5.52881H331.354V0.528809H333.354V5.52881ZM337.355 5.52881H335.354V0.528809H337.355V5.52881ZM341.356 5.52881H339.355V0.528809H341.356V5.52881ZM345.357 5.52881H343.356V0.528809H345.357V5.52881ZM349.358 5.52881H347.357V0.528809H349.358V5.52881ZM353.359 5.52881H351.358V0.528809H353.359V5.52881ZM357.359 5.52881H355.359V0.528809H357.359V5.52881ZM361.36 5.52881H359.36V0.528809H361.36V5.52881ZM365.361 5.52881H363.361V0.528809H365.361V5.52881ZM369.362 5.52881H367.362V0.528809H369.362V5.52881ZM373.363 5.52881H371.363V0.528809H373.363V5.52881ZM377.364 5.52881H375.364V0.528809H377.364V5.52881ZM381.365 5.52881H379.365V0.528809H381.365V5.52881ZM385.366 5.52881H383.365V0.528809H385.366V5.52881ZM389.367 5.52881H387.366V0.528809H389.367V5.52881ZM393.368 5.52881H391.367V0.528809H393.368V5.52881ZM397.369 5.52881H395.368V0.528809H397.369V5.52881ZM401.37 5.52881H399.369V0.528809H401.37V5.52881ZM405.37 5.52881H403.37V0.528809H405.37V5.52881ZM409.371 5.52881H407.371V0.528809H409.371V5.52881ZM413.372 5.52881H411.372V0.528809H413.372V5.52881ZM417.373 5.52881H415.373V0.528809H417.373V5.52881ZM421.374 5.52881H419.374V0.528809H421.374V5.52881ZM425.375 5.52881H423.375V0.528809H425.375V5.52881ZM429.376 5.52881H427.376V0.528809H429.376V5.52881ZM433.377 5.52881H431.376V0.528809H433.377V5.52881ZM437.378 5.52881H435.377V0.528809H437.378V5.52881ZM441.379 5.52881H439.378V0.528809H441.379V5.52881ZM445.38 5.52881H443.379V0.528809H445.38V5.52881ZM449.381 5.52881H447.38V0.528809H449.381V5.52881ZM453.381 5.52881H451.381V0.528809H453.381V5.52881ZM457.382 5.52881H455.382V0.528809H457.382V5.52881ZM461.383 5.52881H459.383V0.528809H461.383V5.52881ZM465.384 5.52881H463.384V0.528809H465.384V5.52881ZM469.385 5.52881H467.385V0.528809H469.385V5.52881ZM473.386 5.52881H471.386V0.528809H473.386V5.52881ZM477.387 5.52881H475.386V0.528809H477.387V5.52881ZM481.388 5.52881H479.387V0.528809H481.388V5.52881ZM485.389 5.52881H483.388V0.528809H485.389V5.52881ZM489.39 5.52881H487.389V0.528809H489.39V5.52881ZM493.391 5.52881H491.39V0.528809H493.391V5.52881ZM497.392 5.52881H495.391V0.528809H497.392V5.52881ZM501.392 5.52881H499.392V0.528809H501.392V5.52881ZM505.393 5.52881H503.393V0.528809H505.393V5.52881ZM509.394 5.52881H507.394V0.528809H509.394V5.52881ZM513.395 5.52881H511.395V0.528809H513.395V5.52881ZM517.396 5.52881H515.396V0.528809H517.396V5.52881ZM521.397 5.52881H519.397V0.528809H521.397V5.52881ZM525.398 5.52881H523.398V0.528809H525.398V5.52881ZM529.399 5.52881H527.399V0.528809H529.399V5.52881ZM533.4 5.52881H531.4V0.528809H533.4V5.52881ZM537.401 5.52881H535.401V0.528809H537.401V5.52881ZM541.402 5.52881H539.402V0.528809H541.402V5.52881ZM545.403 5.52881H543.403V0.528809H545.403V5.52881ZM549.404 5.52881H547.404V0.528809H549.404V5.52881ZM553.405 5.52881H551.404V0.528809H553.405V5.52881ZM557.406 5.52881H555.405V0.528809H557.406V5.52881ZM561.407 5.52881H559.406V0.528809H561.407V5.52881ZM565.408 5.52881H563.407V0.528809H565.408V5.52881ZM569.409 5.52881H567.408V0.528809H569.409V5.52881ZM573.41 5.52881H571.409V0.528809H573.41V5.52881ZM577.411 5.52881H575.41V0.528809H577.411V5.52881ZM581.412 5.52881H579.411V0.528809H581.412V5.52881ZM585.413 5.52881H583.412V0.528809H585.413V5.52881ZM589.414 5.52881H587.413V0.528809H589.414V5.52881ZM593.415 5.52881H591.414V0.528809H593.415V5.52881ZM597.416 5.52881H595.415V0.528809H597.416V5.52881ZM601.417 5.52881H599.416V0.528809H601.417V5.52881ZM605.418 5.52881H603.417V0.528809H605.418V5.52881ZM609.419 5.52881H607.418V0.528809H609.419V5.52881ZM613.42 5.52881H611.419V0.528809H613.42V5.52881ZM617.421 5.52881H615.42V0.528809H617.421V5.52881ZM621.422 5.52881H619.421V0.528809H621.422V5.52881ZM625.423 5.52881H623.422V0.528809H625.423V5.52881ZM629.424 5.52881H627.423V0.528809H629.424V5.52881ZM633.424 5.52881H631.424V0.528809H633.424V5.52881ZM637.425 5.52881H635.425V0.528809H637.425V5.52881ZM641.426 5.52881H639.426V0.528809H641.426V5.52881ZM645.427 5.52881H643.427V0.528809H645.427V5.52881ZM649.428 5.52881H647.428V0.528809H649.428V5.52881ZM653.429 5.52881H651.429V0.528809H653.429V5.52881ZM657.43 5.52881H655.43V0.528809H657.43V5.52881ZM661.431 5.52881H659.431V0.528809H661.431V5.52881ZM665.432 5.52881H663.432V0.528809H665.432V5.52881ZM669.433 5.52881H667.433V0.528809H669.433V5.52881ZM673.434 5.52881H671.434V0.528809H673.434V5.52881ZM677.435 5.52881H675.435V0.528809H677.435V5.52881ZM681.436 5.52881H679.436V0.528809H681.436V5.52881ZM685.437 5.52881H683.437V0.528809H685.437V5.52881ZM689.438 5.52881H687.438V0.528809H689.438V5.52881ZM693.439 5.52881H691.439V0.528809H693.439V5.52881ZM697.44 5.52881H695.44V0.528809H697.44V5.52881ZM701.441 5.52881H699.441V0.528809H701.441V5.52881ZM705.442 5.52881H703.442V0.528809H705.442V5.52881ZM709.443 5.52881H707.443V0.528809H709.443V5.52881ZM713.444 5.52881H711.444V0.528809H713.444V5.52881ZM717.445 5.52881H715.445V0.528809H717.445V5.52881ZM721.446 5.52881H719.445V0.528809H721.446V5.52881ZM725.447 5.52881H723.446V0.528809H725.447V5.52881ZM729.448 5.52881H727.447V0.528809H729.448V5.52881ZM733.449 5.52881H731.448V0.528809H733.449V5.52881ZM737.45 5.52881H735.449V0.528809H737.45V5.52881ZM741.451 5.52881H739.45V0.528809H741.451V5.52881ZM745.452 5.52881H743.451V0.528809H745.452V5.52881ZM749.453 5.52881H747.452V0.528809H749.453V5.52881ZM753.454 5.52881H751.453V0.528809H753.454V5.52881ZM757.455 5.52881H755.454V0.528809H757.455V5.52881ZM761.456 5.52881H759.455V0.528809H761.456V5.52881ZM765.457 5.52881H763.456V0.528809H765.457V5.52881ZM769.458 5.52881H767.457V0.528809H769.458V5.52881ZM773.459 5.52881H771.458V0.528809H773.459V5.52881ZM777.46 5.52881H775.459V0.528809H777.46V5.52881ZM781.461 5.52881H779.46V0.528809H781.461V5.52881ZM785.462 5.52881H783.461V0.528809H785.462V5.52881ZM789.463 5.52881H787.462V0.528809H789.463V5.52881ZM793.464 5.52881H791.463V0.528809H793.464V5.52881ZM797.465 5.52881H795.464V0.528809H797.465V5.52881ZM801.466 5.52881H799.465V0.528809H801.466V5.52881ZM805.466 5.52881H803.466V0.528809H805.466V5.52881ZM809.467 5.52881H807.467V0.528809H809.467V5.52881ZM813.469 5.52881H811.468V0.528809H813.469V5.52881ZM817.469 5.52881H815.469V0.528809H817.469V5.52881ZM821.47 5.52881H819.47V0.528809H821.47V5.52881ZM825.471 5.52881H823.471V0.528809H825.471V5.52881ZM829.472 5.52881H827.472V0.528809H829.472V5.52881ZM833.473 5.52881H831.473V0.528809H833.473V5.52881ZM837.474 5.52881H835.474V0.528809H837.474V5.52881ZM841.475 5.52881H839.475V0.528809H841.475V5.52881ZM845.476 5.52881H843.476V0.528809H845.476V5.52881ZM849.477 5.52881H847.477V0.528809H849.477V5.52881ZM853.478 5.52881H851.478V0.528809H853.478V5.52881ZM857.479 5.52881H855.479V0.528809H857.479V5.52881ZM861.48 5.52881H859.48V0.528809H861.48V5.52881ZM865.481 5.52881H863.481V0.528809H865.481V5.52881ZM869.482 5.52881H867.482V0.528809H869.482V5.52881ZM873.483 5.52881H871.483V0.528809H873.483V5.52881ZM877.484 5.52881H875.484V0.528809H877.484V5.52881ZM881.485 5.52881H879.485V0.528809H881.485V5.52881ZM885.486 5.52881H883.486V0.528809H885.486V5.52881ZM889.487 5.52881H887.487V0.528809H889.487V5.52881ZM893.488 5.52881H891.487V0.528809H893.488V5.52881ZM897.489 5.52881H895.488V0.528809H897.489V5.52881ZM901.49 5.52881H899.489V0.528809H901.49V5.52881ZM905.491 5.52881H903.49V0.528809H905.491V5.52881ZM909.492 5.52881H907.491V0.528809H909.492V5.52881ZM913.493 5.52881H911.492V0.528809H913.493V5.52881ZM917.494 5.52881H915.493V0.528809H917.494V5.52881ZM921.495 5.52881H919.494V0.528809H921.495V5.52881ZM925.496 5.52881H923.495V0.528809H925.496V5.52881ZM929.497 5.52881H927.496V0.528809H929.497V5.52881ZM933.498 5.52881H931.497V0.528809H933.498V5.52881ZM937.499 5.52881H935.498V0.528809H937.499V5.52881ZM941.5 5.52881H939.499V0.528809H941.5V5.52881ZM945.501 5.52881H943.5V0.528809H945.501V5.52881ZM949.502 5.52881H947.501V0.528809H949.502V5.52881ZM953.503 5.52881H951.502V0.528809H953.503V5.52881ZM957.504 5.52881H955.503V0.528809H957.504V5.52881ZM961.505 5.52881H959.504V0.528809H961.505V5.52881ZM965.506 5.52881H963.505V0.528809H965.506V5.52881ZM969.507 5.52881H967.506V0.528809H969.507V5.52881ZM973.508 5.52881H971.507V0.528809H973.508V5.52881ZM977.508 5.52881H975.508V0.528809H977.508V5.52881ZM981.509 5.52881H979.509V0.528809H981.509V5.52881ZM985.51 5.52881H983.51V0.528809H985.51V5.52881ZM989.511 5.52881H987.511V0.528809H989.511V5.52881ZM993.512 5.52881H991.512V0.528809H993.512V5.52881ZM997.513 5.52881H995.513V0.528809H997.513V5.52881ZM1001.51 5.52881H999.514V0.528809H1001.51V5.52881ZM1005.52 5.52881H1003.51V0.528809H1005.52V5.52881ZM1009.52 5.52881H1007.52V0.528809H1009.52V5.52881ZM1013.52 5.52881H1011.52V0.528809H1013.52V5.52881ZM1017.52 5.52881H1015.52V0.528809H1017.52V5.52881ZM1021.52 5.52881H1019.52V0.528809H1021.52V5.52881ZM1025.52 5.52881H1023.52V0.528809H1025.52V5.52881ZM1029.52 5.52881H1027.52V0.528809H1029.52V5.52881ZM1033.52 5.52881H1031.52V0.528809H1033.52V5.52881ZM1037.52 5.52881H1035.52V0.528809H1037.52V5.52881ZM1041.52 5.52881H1039.52V0.528809H1041.52V5.52881ZM1045.53 5.52881H1043.52V0.528809H1045.53V5.52881ZM1049.53 5.52881H1047.53V0.528809H1049.53V5.52881ZM1053.53 5.52881H1051.53V0.528809H1053.53V5.52881ZM1057.53 5.52881H1055.53V0.528809H1057.53V5.52881ZM1061.53 5.52881H1059.53V0.528809H1061.53V5.52881ZM1065.53 5.52881H1063.53V0.528809H1065.53V5.52881ZM1069.53 5.52881H1067.53V0.528809H1069.53V5.52881ZM1073.53 5.52881H1071.53V0.528809H1073.53V5.52881ZM1077.53 5.52881H1075.53V0.528809H1077.53V5.52881ZM1080.53 5.52881H1079.53V0.528809H1080.53V5.52881Z" fill="#0039CA"/>
</svg>
