<svg width="129" height="59" viewBox="0 0 129 59" fill="none" xmlns="http://www.w3.org/2000/svg">
<path fill-rule="evenodd" clip-rule="evenodd" d="M43.5023 44.1051L43.5024 44.1051C46.8462 40.6981 48.5499 35.9732 48.5499 29.8547C48.5499 23.7357 46.8461 19.0465 43.5062 15.7066L43.4985 15.6989L43.4986 15.6988C40.2205 12.2946 35.6957 10.5646 29.8498 10.5646C24.0044 10.5646 19.4441 12.2945 16.099 15.7027C12.8226 19.0421 11.1498 23.7327 11.1498 29.8547C11.1498 35.9738 12.8212 40.6989 16.099 44.1051C19.4431 47.447 24.0035 49.1449 29.8498 49.1449C35.6989 49.1449 40.2249 47.4456 43.5023 44.1051ZM15.6871 44.5093C12.2775 40.9686 10.5727 36.0837 10.5727 29.8547C10.5727 23.6257 12.2775 18.7737 15.6871 15.2985C19.1622 11.7578 23.8831 9.98749 29.8498 9.98749C35.8166 9.98749 40.5047 11.7578 43.9143 15.2985C47.3894 18.7737 49.127 23.6257 49.127 29.8547C49.127 36.0837 47.3894 40.9686 43.9143 44.5093C40.5047 47.9844 35.8166 49.722 29.8498 49.722C23.8831 49.722 19.1622 47.9844 15.6871 44.5093ZM51.096 51.1259L51.0933 51.1284C45.466 56.3537 38.3699 58.9541 29.8498 58.9541C21.3297 58.9541 14.2023 56.3537 8.51054 51.1307L8.50533 51.1259C2.86352 45.8199 0.0620117 38.7078 0.0620117 29.8547C0.0620117 21.0018 2.86355 13.9207 8.50804 8.67944C14.1995 3.38985 21.3277 0.755371 29.8498 0.755371C38.3712 0.755371 45.4678 3.38949 51.0945 8.68054C56.7382 13.9217 59.5393 21.0024 59.5393 29.8547C59.5393 38.7078 56.7378 45.8199 51.096 51.1259ZM8.90072 9.10232C3.39297 14.2167 0.639093 21.1341 0.639093 29.8547C0.639093 38.5753 3.39297 45.5256 8.90072 50.7055C14.474 55.8198 21.4571 58.377 29.8498 58.377C38.2426 58.377 45.1929 55.8198 50.7006 50.7055C56.2084 45.5256 58.9622 38.5753 58.9622 29.8547C58.9622 21.1341 56.2084 14.2167 50.7006 9.10232C45.1929 3.92241 38.2426 1.33245 29.8498 1.33245C21.4571 1.33245 14.474 3.92241 8.90072 9.10232ZM120.837 54.3418L120.832 54.3447C115.787 57.4388 108.782 58.9541 99.8762 58.9541C90.8436 58.9541 83.8045 57.473 78.8239 54.4442L78.8191 54.4413C73.7932 51.3171 71.2686 46.7034 71.2686 40.6735C71.2686 37.5994 72.193 34.7015 74.0229 31.9907L74.0284 31.9826L74.0284 31.9826C75.7018 29.5921 77.8054 27.8483 80.3341 26.7654C77.0536 24.3936 75.3994 21.0786 75.3994 16.8722C75.3994 11.4211 77.7714 7.32656 82.4789 4.66582C87.1134 2.04632 92.9232 0.755371 99.8762 0.755371C108.178 0.755371 114.362 2.16716 118.315 5.09657C122.318 8.01512 124.353 11.8211 124.353 16.4788C124.353 19.0439 123.855 21.2533 122.828 23.0806C121.995 24.5627 120.827 25.7708 119.337 26.7063C122.165 27.8768 124.362 29.5395 125.895 31.7102C127.634 34.1724 128.484 37.2385 128.484 40.8702C128.484 46.652 125.914 51.1598 120.837 54.3418ZM118.707 27.0753C124.84 29.4572 127.907 34.0555 127.907 40.8702C127.907 46.4436 125.448 50.7711 120.53 53.8528C115.613 56.8689 108.728 58.377 99.8762 58.377C90.8933 58.377 83.9758 56.9017 79.1238 53.9511C74.2717 50.935 71.8457 46.5091 71.8457 40.6735C71.8457 37.7229 72.7308 34.9363 74.5012 32.3135C76.1905 29.9003 78.3238 28.1809 80.9013 27.1555C81.1251 27.0665 81.3521 26.9827 81.5826 26.9042C81.3736 26.7758 81.1704 26.6442 80.973 26.5093C77.642 24.2319 75.9765 21.0196 75.9765 16.8722C75.9765 11.6267 78.2386 7.72538 82.7628 5.16821C87.287 2.61104 92.9915 1.33245 99.8762 1.33245C108.138 1.33245 114.17 2.74218 117.973 5.56162C121.842 8.38107 123.776 12.0201 123.776 16.4788C123.776 21.1575 122.071 24.4779 118.661 26.44C118.439 26.5677 118.209 26.6896 117.973 26.8058C118.222 26.8922 118.467 26.9821 118.707 27.0753ZM84.1989 34.9339L84.1988 34.9339C83.0348 36.4042 82.4547 38.0807 82.4547 39.9851C82.4547 41.4983 82.8067 42.7953 83.4925 43.897C84.1793 45.0004 85.2212 45.9403 86.6497 46.7053C89.524 48.2445 93.9093 49.0465 99.8762 49.0465C105.877 49.0465 110.249 48.2277 113.07 46.6603L113.075 46.6577C115.948 45.0966 117.298 43.0079 117.298 40.3785C117.298 38.4604 116.752 37.0332 115.724 36.0193C114.685 34.9948 113.081 34.3213 110.828 34.0673C110.828 34.0673 110.827 34.0673 110.827 34.0672L89.3969 31.7187C87.0506 32.3539 85.3393 33.4333 84.2058 34.9248L84.1989 34.9339ZM89.3524 31.1333L110.892 33.4938C115.547 34.0183 117.875 36.3132 117.875 40.3785C117.875 43.2635 116.367 45.5256 113.35 47.1648C110.4 48.804 105.908 49.6236 99.8762 49.6236C87.8771 49.6236 81.8776 46.4108 81.8776 39.9851C81.8776 37.9524 82.5005 36.1493 83.7463 34.5757C84.9921 32.9365 86.8608 31.789 89.3524 31.1333ZM110.318 12.3614L110.309 12.3563C108.283 11.1903 104.84 10.5646 99.8762 10.5646C94.5686 10.5646 91.0375 11.1612 89.1504 12.2569C87.2904 13.3369 86.3888 14.8874 86.3888 16.9705C86.3888 18.5305 86.8882 19.617 87.8196 20.3366C88.8866 21.0416 90.6719 21.5817 93.254 21.9049C93.2559 21.9052 93.2578 21.9054 93.2598 21.9057L109.949 23.6521C112.257 21.9942 113.364 19.9389 113.364 17.4623C113.364 16.2694 113.104 15.2689 112.609 14.4385C112.114 13.6086 111.363 12.9149 110.327 12.3662L110.318 12.3614ZM110.105 24.2486L93.1882 22.4783C90.5655 22.1504 88.664 21.5931 87.4837 20.8063C86.3691 19.9539 85.8117 18.6753 85.8117 16.9705C85.8117 14.6756 86.828 12.9381 88.8607 11.7578C90.8933 10.5776 94.5651 9.98749 99.8762 9.98749C104.859 9.98749 108.433 10.6104 110.597 11.8562C112.826 13.0364 113.941 14.9051 113.941 17.4623C113.941 20.2162 112.662 22.4783 110.105 24.2486Z" fill="white"/>
<path fill-rule="evenodd" clip-rule="evenodd" d="M43.5023 44.1051L43.5024 44.1051C46.8462 40.6981 48.5499 35.9732 48.5499 29.8547C48.5499 23.7357 46.8461 19.0465 43.5062 15.7066L43.4985 15.6989L43.4986 15.6988C40.2205 12.2946 35.6957 10.5646 29.8498 10.5646C24.0044 10.5646 19.4441 12.2945 16.099 15.7027C12.8226 19.0421 11.1498 23.7327 11.1498 29.8547C11.1498 35.9738 12.8212 40.6989 16.099 44.1051C19.4431 47.447 24.0035 49.1449 29.8498 49.1449C35.6989 49.1449 40.2249 47.4456 43.5023 44.1051ZM15.6871 44.5093C12.2775 40.9686 10.5727 36.0837 10.5727 29.8547C10.5727 23.6257 12.2775 18.7737 15.6871 15.2985C19.1622 11.7578 23.8831 9.98749 29.8498 9.98749C35.8166 9.98749 40.5047 11.7578 43.9143 15.2985C47.3894 18.7737 49.127 23.6257 49.127 29.8547C49.127 36.0837 47.3894 40.9686 43.9143 44.5093C40.5047 47.9844 35.8166 49.722 29.8498 49.722C23.8831 49.722 19.1622 47.9844 15.6871 44.5093ZM51.096 51.1259L51.0933 51.1284C45.466 56.3537 38.3699 58.9541 29.8498 58.9541C21.3297 58.9541 14.2023 56.3537 8.51054 51.1307L8.50533 51.1259C2.86352 45.8199 0.0620117 38.7078 0.0620117 29.8547C0.0620117 21.0018 2.86355 13.9207 8.50804 8.67944C14.1995 3.38985 21.3277 0.755371 29.8498 0.755371C38.3712 0.755371 45.4678 3.38949 51.0945 8.68054C56.7382 13.9217 59.5393 21.0024 59.5393 29.8547C59.5393 38.7078 56.7378 45.8199 51.096 51.1259ZM8.90072 9.10232C3.39297 14.2167 0.639093 21.1341 0.639093 29.8547C0.639093 38.5753 3.39297 45.5256 8.90072 50.7055C14.474 55.8198 21.4571 58.377 29.8498 58.377C38.2426 58.377 45.1929 55.8198 50.7006 50.7055C56.2084 45.5256 58.9622 38.5753 58.9622 29.8547C58.9622 21.1341 56.2084 14.2167 50.7006 9.10232C45.1929 3.92241 38.2426 1.33245 29.8498 1.33245C21.4571 1.33245 14.474 3.92241 8.90072 9.10232ZM120.837 54.3418L120.832 54.3447C115.787 57.4388 108.782 58.9541 99.8762 58.9541C90.8436 58.9541 83.8045 57.473 78.8239 54.4442L78.8191 54.4413C73.7932 51.3171 71.2686 46.7034 71.2686 40.6735C71.2686 37.5994 72.193 34.7015 74.0229 31.9907L74.0284 31.9826L74.0284 31.9826C75.7018 29.5921 77.8054 27.8483 80.3341 26.7654C77.0536 24.3936 75.3994 21.0786 75.3994 16.8722C75.3994 11.4211 77.7714 7.32656 82.4789 4.66582C87.1134 2.04632 92.9232 0.755371 99.8762 0.755371C108.178 0.755371 114.362 2.16716 118.315 5.09657C122.318 8.01512 124.353 11.8211 124.353 16.4788C124.353 19.0439 123.855 21.2533 122.828 23.0806C121.995 24.5627 120.827 25.7708 119.337 26.7063C122.165 27.8768 124.362 29.5395 125.895 31.7102C127.634 34.1724 128.484 37.2385 128.484 40.8702C128.484 46.652 125.914 51.1598 120.837 54.3418ZM118.707 27.0753C124.84 29.4572 127.907 34.0555 127.907 40.8702C127.907 46.4436 125.448 50.7711 120.53 53.8528C115.613 56.8689 108.728 58.377 99.8762 58.377C90.8933 58.377 83.9758 56.9017 79.1238 53.9511C74.2717 50.935 71.8457 46.5091 71.8457 40.6735C71.8457 37.7229 72.7308 34.9363 74.5012 32.3135C76.1905 29.9003 78.3238 28.1809 80.9013 27.1555C81.1251 27.0665 81.3521 26.9827 81.5826 26.9042C81.3736 26.7758 81.1704 26.6442 80.973 26.5093C77.642 24.2319 75.9765 21.0196 75.9765 16.8722C75.9765 11.6267 78.2386 7.72538 82.7628 5.16821C87.287 2.61104 92.9915 1.33245 99.8762 1.33245C108.138 1.33245 114.17 2.74218 117.973 5.56162C121.842 8.38107 123.776 12.0201 123.776 16.4788C123.776 21.1575 122.071 24.4779 118.661 26.44C118.439 26.5677 118.209 26.6896 117.973 26.8058C118.222 26.8922 118.467 26.9821 118.707 27.0753ZM84.1989 34.9339L84.1988 34.9339C83.0348 36.4042 82.4547 38.0807 82.4547 39.9851C82.4547 41.4983 82.8067 42.7953 83.4925 43.897C84.1793 45.0004 85.2212 45.9403 86.6497 46.7053C89.524 48.2445 93.9093 49.0465 99.8762 49.0465C105.877 49.0465 110.249 48.2277 113.07 46.6603L113.075 46.6577C115.948 45.0966 117.298 43.0079 117.298 40.3785C117.298 38.4604 116.752 37.0332 115.724 36.0193C114.685 34.9948 113.081 34.3213 110.828 34.0673C110.828 34.0673 110.827 34.0673 110.827 34.0672L89.3969 31.7187C87.0506 32.3539 85.3393 33.4333 84.2058 34.9248L84.1989 34.9339ZM89.3524 31.1333L110.892 33.4938C115.547 34.0183 117.875 36.3132 117.875 40.3785C117.875 43.2635 116.367 45.5256 113.35 47.1648C110.4 48.804 105.908 49.6236 99.8762 49.6236C87.8771 49.6236 81.8776 46.4108 81.8776 39.9851C81.8776 37.9524 82.5005 36.1493 83.7463 34.5757C84.9921 32.9365 86.8608 31.789 89.3524 31.1333ZM110.318 12.3614L110.309 12.3563C108.283 11.1903 104.84 10.5646 99.8762 10.5646C94.5686 10.5646 91.0375 11.1612 89.1504 12.2569C87.2904 13.3369 86.3888 14.8874 86.3888 16.9705C86.3888 18.5305 86.8882 19.617 87.8196 20.3366C88.8866 21.0416 90.6719 21.5817 93.254 21.9049C93.2559 21.9052 93.2578 21.9054 93.2598 21.9057L109.949 23.6521C112.257 21.9942 113.364 19.9389 113.364 17.4623C113.364 16.2694 113.104 15.2689 112.609 14.4385C112.114 13.6086 111.363 12.9149 110.327 12.3662L110.318 12.3614ZM110.105 24.2486L93.1882 22.4783C90.5655 22.1504 88.664 21.5931 87.4837 20.8063C86.3691 19.9539 85.8117 18.6753 85.8117 16.9705C85.8117 14.6756 86.828 12.9381 88.8607 11.7578C90.8933 10.5776 94.5651 9.98749 99.8762 9.98749C104.859 9.98749 108.433 10.6104 110.597 11.8562C112.826 13.0364 113.941 14.9051 113.941 17.4623C113.941 20.2162 112.662 22.4783 110.105 24.2486Z" fill="white"/>
</svg>
