<svg width="127" height="59" viewBox="0 0 127 59" fill="none" xmlns="http://www.w3.org/2000/svg">
<path fill-rule="evenodd" clip-rule="evenodd" d="M43.5024 44.1051C46.8462 40.6981 48.5499 35.9732 48.5499 29.8547C48.5499 23.7357 46.8461 19.0465 43.5062 15.7066L43.4985 15.6989C40.2204 12.2947 35.6957 10.5646 29.8498 10.5646C24.0044 10.5646 19.4441 12.2945 16.099 15.7027C12.8226 19.0421 11.1498 23.7327 11.1498 29.8547C11.1498 35.9738 12.8212 40.6989 16.099 44.1051C19.4431 47.447 24.0035 49.1449 29.8498 49.1449C35.6989 49.1449 40.225 47.4455 43.5024 44.1051ZM15.6871 44.5093C12.2775 40.9686 10.5727 36.0837 10.5727 29.8547C10.5727 23.6257 12.2775 18.7737 15.6871 15.2985C19.1622 11.7578 23.8831 9.98749 29.8498 9.98749C35.8166 9.98749 40.5047 11.7578 43.9143 15.2985C47.3894 18.7737 49.127 23.6257 49.127 29.8547C49.127 36.0837 47.3894 40.9686 43.9143 44.5093C40.5047 47.9844 35.8166 49.722 29.8498 49.722C23.8831 49.722 19.1622 47.9844 15.6871 44.5093ZM51.096 51.1259L51.0933 51.1284C45.466 56.3537 38.3699 58.9541 29.8498 58.9541C21.3297 58.9541 14.2023 56.3537 8.51054 51.1307L8.50533 51.1259C2.86352 45.8199 0.0620117 38.7078 0.0620117 29.8547C0.0620117 21.0018 2.86355 13.9207 8.50804 8.67944C14.1995 3.38985 21.3277 0.755371 29.8498 0.755371C38.3712 0.755371 45.4678 3.38949 51.0945 8.68054C56.7382 13.9217 59.5393 21.0024 59.5393 29.8547C59.5393 38.7078 56.7378 45.8199 51.096 51.1259ZM8.90072 9.10232C3.39297 14.2167 0.639093 21.1341 0.639093 29.8547C0.639093 38.5753 3.39297 45.5256 8.90072 50.7055C14.474 55.8198 21.4571 58.377 29.8498 58.377C38.2426 58.377 45.1929 55.8198 50.7006 50.7055C56.2084 45.5256 58.9622 38.5753 58.9622 29.8547C58.9622 21.1341 56.2084 14.2167 50.7006 9.10232C45.1929 3.92241 38.2426 1.33245 29.8498 1.33245C21.4571 1.33245 14.474 3.92241 8.90072 9.10232ZM125.036 6.50848L120.585 15.1873L120.073 14.9283C114.455 12.0869 108.283 10.6629 101.548 10.6629C96.2653 10.6629 92.0764 11.9503 88.9261 14.4706L88.9206 14.475C86.0041 16.7498 84.1459 20.0998 83.3867 24.5903C89.2817 22.1413 95.534 20.9177 102.138 20.9177C109.168 20.9177 114.992 22.41 119.57 25.4394C124.219 28.5158 126.517 33.3045 126.517 39.69C126.517 45.5843 124.064 50.3135 119.196 53.8289L119.192 53.832C114.345 57.2654 107.954 58.9541 100.073 58.9541C90.9794 58.9541 84.0148 56.362 79.2844 51.0909C74.5747 45.843 72.2521 38.7082 72.2521 29.7564C72.2521 21.2944 74.9562 14.3225 80.3877 8.89096C85.8219 3.45678 92.8937 0.755371 101.548 0.755371C110.285 0.755371 117.958 2.57615 124.548 6.23739L125.036 6.50848ZM83.2828 25.2598C83.0762 25.3474 82.8701 25.4365 82.6645 25.5272C82.6934 25.3011 82.725 25.0774 82.7591 24.8562C83.4967 20.0761 85.4322 16.464 88.5656 14.02C91.844 11.3972 96.1716 10.0858 101.548 10.0858C108.367 10.0858 114.629 11.5283 120.334 14.4134L124.268 6.74185C117.776 3.13559 110.203 1.33245 101.548 1.33245C93.0243 1.33245 86.1068 3.98798 80.7958 9.29902C75.4847 14.6101 72.8292 21.4292 72.8292 29.7564C72.8292 38.6081 75.1241 45.5912 79.7139 50.7055C84.3037 55.8198 91.09 58.377 100.073 58.377C107.876 58.377 114.137 56.705 118.858 53.361C123.579 49.9515 125.94 45.3945 125.94 39.69C125.94 33.461 123.71 28.8712 119.252 25.9206C114.793 22.97 109.089 21.4948 102.138 21.4948C95.4858 21.4948 89.2006 22.7498 83.2828 25.2598ZM112.269 33.0063C109.983 31.647 106.149 30.9236 100.663 30.9236C95.0959 30.9236 89.2695 31.9435 83.181 33.9925C83.6825 39.2495 85.2739 42.9651 87.8634 45.2549C90.5942 47.6117 95.0151 48.8498 101.253 48.8498C106.191 48.8498 109.795 48.0343 112.148 46.486C114.459 44.9655 115.626 42.6987 115.626 39.5916C115.626 36.4064 114.485 34.2645 112.279 33.0121L112.269 33.0063ZM87.4837 45.6895C84.6643 43.1979 83.0251 39.1655 82.5661 33.5921C88.8607 31.4284 94.893 30.3465 100.663 30.3465C106.171 30.3465 110.138 31.0677 112.564 32.5103C114.99 33.8872 116.203 36.2477 116.203 39.5916C116.203 46.1485 111.22 49.4269 101.253 49.4269C94.9585 49.4269 90.3687 48.1811 87.4837 45.6895Z" fill="white"/>
<path fill-rule="evenodd" clip-rule="evenodd" d="M43.5024 44.1051C46.8462 40.6981 48.5499 35.9732 48.5499 29.8547C48.5499 23.7357 46.8461 19.0465 43.5062 15.7066L43.4985 15.6989C40.2204 12.2947 35.6957 10.5646 29.8498 10.5646C24.0044 10.5646 19.4441 12.2945 16.099 15.7027C12.8226 19.0421 11.1498 23.7327 11.1498 29.8547C11.1498 35.9738 12.8212 40.6989 16.099 44.1051C19.4431 47.447 24.0035 49.1449 29.8498 49.1449C35.6989 49.1449 40.225 47.4455 43.5024 44.1051ZM15.6871 44.5093C12.2775 40.9686 10.5727 36.0837 10.5727 29.8547C10.5727 23.6257 12.2775 18.7737 15.6871 15.2985C19.1622 11.7578 23.8831 9.98749 29.8498 9.98749C35.8166 9.98749 40.5047 11.7578 43.9143 15.2985C47.3894 18.7737 49.127 23.6257 49.127 29.8547C49.127 36.0837 47.3894 40.9686 43.9143 44.5093C40.5047 47.9844 35.8166 49.722 29.8498 49.722C23.8831 49.722 19.1622 47.9844 15.6871 44.5093ZM51.096 51.1259L51.0933 51.1284C45.466 56.3537 38.3699 58.9541 29.8498 58.9541C21.3297 58.9541 14.2023 56.3537 8.51054 51.1307L8.50533 51.1259C2.86352 45.8199 0.0620117 38.7078 0.0620117 29.8547C0.0620117 21.0018 2.86355 13.9207 8.50804 8.67944C14.1995 3.38985 21.3277 0.755371 29.8498 0.755371C38.3712 0.755371 45.4678 3.38949 51.0945 8.68054C56.7382 13.9217 59.5393 21.0024 59.5393 29.8547C59.5393 38.7078 56.7378 45.8199 51.096 51.1259ZM8.90072 9.10232C3.39297 14.2167 0.639093 21.1341 0.639093 29.8547C0.639093 38.5753 3.39297 45.5256 8.90072 50.7055C14.474 55.8198 21.4571 58.377 29.8498 58.377C38.2426 58.377 45.1929 55.8198 50.7006 50.7055C56.2084 45.5256 58.9622 38.5753 58.9622 29.8547C58.9622 21.1341 56.2084 14.2167 50.7006 9.10232C45.1929 3.92241 38.2426 1.33245 29.8498 1.33245C21.4571 1.33245 14.474 3.92241 8.90072 9.10232ZM125.036 6.50848L120.585 15.1873L120.073 14.9283C114.455 12.0869 108.283 10.6629 101.548 10.6629C96.2653 10.6629 92.0764 11.9503 88.9261 14.4706L88.9206 14.475C86.0041 16.7498 84.1459 20.0998 83.3867 24.5903C89.2817 22.1413 95.534 20.9177 102.138 20.9177C109.168 20.9177 114.992 22.41 119.57 25.4394C124.219 28.5158 126.517 33.3045 126.517 39.69C126.517 45.5843 124.064 50.3135 119.196 53.8289L119.192 53.832C114.345 57.2654 107.954 58.9541 100.073 58.9541C90.9794 58.9541 84.0148 56.362 79.2844 51.0909C74.5747 45.843 72.2521 38.7082 72.2521 29.7564C72.2521 21.2944 74.9562 14.3225 80.3877 8.89096C85.8219 3.45678 92.8937 0.755371 101.548 0.755371C110.285 0.755371 117.958 2.57615 124.548 6.23739L125.036 6.50848ZM83.2828 25.2598C83.0762 25.3474 82.8701 25.4365 82.6645 25.5272C82.6934 25.3011 82.725 25.0774 82.7591 24.8562C83.4967 20.0761 85.4322 16.464 88.5656 14.02C91.844 11.3972 96.1716 10.0858 101.548 10.0858C108.367 10.0858 114.629 11.5283 120.334 14.4134L124.268 6.74185C117.776 3.13559 110.203 1.33245 101.548 1.33245C93.0243 1.33245 86.1068 3.98798 80.7958 9.29902C75.4847 14.6101 72.8292 21.4292 72.8292 29.7564C72.8292 38.6081 75.1241 45.5912 79.7139 50.7055C84.3037 55.8198 91.09 58.377 100.073 58.377C107.876 58.377 114.137 56.705 118.858 53.361C123.579 49.9515 125.94 45.3945 125.94 39.69C125.94 33.461 123.71 28.8712 119.252 25.9206C114.793 22.97 109.089 21.4948 102.138 21.4948C95.4858 21.4948 89.2006 22.7498 83.2828 25.2598ZM112.269 33.0063C109.983 31.647 106.149 30.9236 100.663 30.9236C95.0959 30.9236 89.2695 31.9435 83.181 33.9925C83.6825 39.2495 85.2739 42.9651 87.8634 45.2549C90.5942 47.6117 95.0151 48.8498 101.253 48.8498C106.191 48.8498 109.795 48.0343 112.148 46.486C114.459 44.9655 115.626 42.6987 115.626 39.5916C115.626 36.4064 114.485 34.2645 112.279 33.0121L112.269 33.0063ZM87.4837 45.6895C84.6643 43.1979 83.0251 39.1655 82.5661 33.5921C88.8607 31.4284 94.893 30.3465 100.663 30.3465C106.171 30.3465 110.138 31.0677 112.564 32.5103C114.99 33.8872 116.203 36.2477 116.203 39.5916C116.203 46.1485 111.22 49.4269 101.253 49.4269C94.9585 49.4269 90.3687 48.1811 87.4837 45.6895Z" fill="white"/>
</svg>
