<svg width="156" height="156" viewBox="0 0 156 156" fill="none" xmlns="http://www.w3.org/2000/svg">
<g clip-path="url(#clip0)">
<path d="M149.809 15.7417H6.19083C2.77161 15.7417 0 18.5133 0 21.9326V91.0722V97.1749V134.068C0 137.487 2.77161 140.259 6.19083 140.259H149.81C153.228 140.259 156.001 137.487 156.001 134.068V97.1749V91.0722V21.9326C156 18.5133 153.228 15.7417 149.809 15.7417ZM30.3995 99.9428H18.1393V108.206H29.1242V110.793H18.1393V120.869H15.4542V97.3566H30.4001V99.9428H30.3995ZM53.5779 111.195C53.5779 117.308 49.883 121.004 43.7357 121.004C37.5551 121.004 33.8274 117.308 33.8274 111.195V97.3566H36.5146V111.195C36.5146 115.763 39.2674 118.417 43.7357 118.417C48.2035 118.417 50.8907 115.763 50.8907 111.195V97.3566H53.5779V111.195ZM73.1625 120.869H60.1627V97.3566H62.8499V118.318H73.1625V120.869ZM90.5295 120.869H77.5297V97.3566H80.2159V118.318H90.5289V120.869H90.5295ZM115.386 120.869H109.406V111.733H99.6671V120.869H93.687V97.3566H99.6671V107.031H109.406V97.3566H115.386V120.869ZM129.966 120.869H120.09V107.325H126.069V116.101H130.335C133.996 116.101 136.617 113.277 136.617 109.147C136.617 104.98 133.862 102.126 130.067 102.126H120.09V97.3566H130.201C137.591 97.3566 142.696 102.126 142.696 109.112C142.696 116.065 137.523 120.869 129.966 120.869ZM143.619 84.8814H12.3811V28.1229H143.619V84.8814Z" fill="white"/>
<path d="M57.3733 77.0352H67.6547V67.4386H73.5736V59.0276H67.6547V49.6809H57.3733V59.0276H48.1519L61.1118 33.4183H50.457L36.6865 60.0251V67.4386H57.3733V77.0352Z" fill="white"/>
<path d="M89.9018 66.318L95.6965 59.8999L107.224 77.0352H120.495L103.236 51.4878L119.437 33.4183H106.601L89.9018 52.2982V33.4183H78.8105V77.0352H89.9018V66.318Z" fill="white"/>
</g>
<defs>
<clipPath id="clip0">
<rect width="156" height="156" fill="white"/>
</clipPath>
</defs>
</svg>
