<svg width="145" height="145" viewBox="0 0 145 145" fill="none" xmlns="http://www.w3.org/2000/svg">
<path d="M138.906 136.465L131.209 93.5212L123.512 50.5775C122.892 47.1198 119.884 44.6029 116.371 44.6029H90.7681C95.5684 39.8746 98.5516 33.3061 98.5516 26.0517C98.5516 11.6866 86.865 0 72.4999 0C58.1348 0 46.4477 11.6866 46.4477 26.0517C46.4477 33.3061 49.4309 39.8746 54.2312 44.6029H28.6288C25.1155 44.6029 22.1076 47.1198 21.4876 50.5775L6.09327 136.465C5.71456 138.579 6.29156 140.753 7.67047 142.4C9.0489 144.048 11.0865 145 13.2345 145H131.765C133.913 145 135.95 144.048 137.329 142.4C138.707 140.753 139.285 138.579 138.906 136.465ZM72.4999 14.5097C78.8643 14.5097 84.0419 19.6873 84.0419 26.0517C84.0419 32.4162 78.8643 37.5942 72.4999 37.5942C66.1355 37.5942 60.9574 32.4162 60.9574 26.0517C60.9574 19.6873 66.1355 14.5097 72.4999 14.5097ZM70.604 112.269C70.2262 112.966 69.4969 113.4 68.7046 113.4H65.2823C64.5152 113.4 63.8052 112.993 63.4173 112.331L54.9475 97.8719L49.531 103.401V110.06C49.531 111.904 48.0355 113.4 46.1909 113.4C44.3462 113.4 42.8507 111.904 42.8507 110.06V83.6534C42.8507 81.8087 44.3462 80.3132 46.1909 80.3132C48.0355 80.3132 49.531 81.8087 49.531 83.6534V95.0053L62.3861 81.0121C62.7953 80.5667 63.3728 80.3132 63.9774 80.3132H66.9146C67.7823 80.3132 68.5654 80.8317 68.9044 81.6302C69.243 82.4287 69.0713 83.3525 68.4686 83.976L59.5519 93.1993L70.5164 110.06C70.9483 110.725 70.9822 111.573 70.604 112.269ZM103.513 107.863C103.513 108.52 103.214 109.144 102.7 109.554C101.367 110.617 99.6113 111.572 97.432 112.417C94.7757 113.448 92.0861 113.963 89.3631 113.963C85.9021 113.963 82.8864 113.238 80.3124 111.785C77.7403 110.334 75.8062 108.258 74.5124 105.556C73.2181 102.856 72.5715 99.9183 72.5715 96.7431C72.5715 93.298 73.2936 90.2355 74.7383 87.5579C76.1825 84.8794 78.2965 82.8263 81.0805 81.3961C83.2008 80.2982 85.8421 79.7483 89.0018 79.7483C93.1095 79.7483 96.3176 80.6102 98.6276 82.333C99.6282 83.0793 100.474 83.9494 101.165 84.9428C101.826 85.8922 101.96 87.1115 101.522 88.1814C101.084 89.2517 100.133 90.028 98.9961 90.2408L98.9884 90.2422C97.6564 90.4913 96.306 89.9013 95.5849 88.754C95.1235 88.0198 94.5348 87.3916 93.8205 86.8687C92.5335 85.9285 90.9272 85.4584 89.0018 85.4584C86.0825 85.4584 83.7614 86.3841 82.0396 88.2341C80.3168 90.0855 79.4554 92.8313 79.4554 96.4722C79.4554 100.4 80.3274 103.345 82.0734 105.308C83.8185 107.271 86.1052 108.253 88.9346 108.253C90.3333 108.253 91.7364 107.979 93.1434 107.429C94.5494 106.88 95.757 106.214 96.7655 105.432V101.234H91.9023C90.3628 101.234 89.1155 99.986 89.1155 98.447C89.1155 96.9075 90.3633 95.6602 91.9023 95.6602H101.352C102.546 95.6602 103.513 96.628 103.513 97.8212V107.863Z" fill="white"/>
</svg>
