<svg width="45" height="33" viewBox="0 0 45 33" fill="none" xmlns="http://www.w3.org/2000/svg">
<path d="M42.9946 5.83676C42.5022 3.94532 41.0515 2.4559 39.2094 1.95041C35.871 1.03174 22.4832 1.03174 22.4832 1.03174C22.4832 1.03174 9.09542 1.03174 5.7568 1.95041C3.91467 2.4559 2.46392 3.94532 1.97158 5.83676C1.07715 9.26477 1.07715 16.4173 1.07715 16.4173C1.07715 16.4173 1.07715 23.5697 1.97158 26.9979C2.46392 28.8894 3.91467 30.3788 5.7568 30.8845C9.09542 31.8029 22.4832 31.8029 22.4832 31.8029C22.4832 31.8029 35.871 31.8029 39.2094 30.8845C41.0515 30.3788 42.5022 28.8894 42.9946 26.9979C43.8893 23.5697 43.8893 16.4173 43.8893 16.4173C43.8893 16.4173 43.8893 9.26477 42.9946 5.83676" stroke="url(#paint0_linear)"/>
<path d="M18.4703 23.7728V10.394L29.1733 17.0837L18.4703 23.7728Z" stroke="url(#paint1_linear)"/>
<defs>
<linearGradient id="paint0_linear" x1="-44.6827" y1="-83.3047" x2="113.822" y2="44.8514" gradientUnits="userSpaceOnUse">
<stop stop-color="white"/>
<stop offset="1" stop-color="#7A22FF"/>
</linearGradient>
<linearGradient id="paint1_linear" x1="7.03031" y1="-26.274" x2="60.9147" y2="-1.22284" gradientUnits="userSpaceOnUse">
<stop stop-color="white"/>
<stop offset="1" stop-color="#7A22FF"/>
</linearGradient>
</defs>
</svg>
