<svg width="35" height="35" viewBox="0 0 35 35" fill="none" xmlns="http://www.w3.org/2000/svg">
<path fill-rule="evenodd" clip-rule="evenodd" d="M15.7586 0.00526482V0L15.6021 0.000174864C11.6576 0.00458475 10.8988 0.0310573 8.94416 0.119354C6.86431 0.214914 5.72746 0.562337 4.96595 0.859415M15.7586 0.00526482C16.0824 0.00493788 16.4272 0.00509263 16.7951 0.00525774C17.0212 0.0053592 17.2561 0.00546464 17.5002 0.00546464C23.1496 0.00546464 23.822 0.0257378 26.0563 0.127291C28.1363 0.222414 29.2726 0.570757 30.0339 0.866395C31.0412 1.25768 31.7635 1.72805 32.5191 2.48413C33.2751 3.24023 33.7453 3.96392 34.1374 4.9712C34.433 5.73171 34.7818 6.86815 34.8764 8.94844C34.978 11.1826 35 11.8554 35 17.503C35 23.1505 34.978 23.8233 34.8764 26.0575C34.7813 28.1377 34.433 29.2741 34.1374 30.0346C34.1374 30.0347 34.1374 30.0346 34.1374 30.0346C33.7461 31.0422 33.2749 31.7637 32.519 32.5192C31.7631 33.2752 31.0417 33.7456 30.0339 34.1369C29.2732 34.4339 28.136 34.7813 26.0564 34.8764C23.8225 34.978 23.1497 35 17.5002 35C11.8503 35 11.178 34.978 8.94411 34.8764C6.86413 34.7804 5.72785 34.4321 4.96616 34.1364C3.95891 33.7452 3.23522 33.2748 2.4792 32.5187C1.72326 31.7627 1.25298 31.0408 0.860862 30.0329C0.565245 29.2724 0.21648 28.136 0.121812 26.0557C0.0202711 23.8215 0 23.1486 0 17.4977C0 11.8467 0.0202708 11.1773 0.121811 8.94316C0.216922 6.8629 0.565221 5.72652 0.860822 4.96515C1.25206 3.9577 1.72324 3.23398 2.4792 2.47793C3.2352 1.72184 3.95883 1.25153 4.96595 0.859415M15.4461 0.312862C11.6406 0.317797 10.8809 0.344682 8.95831 0.431532C6.91271 0.525526 5.8095 0.865766 5.07949 1.15056C4.11205 1.52721 3.42513 1.97385 2.70019 2.69888C1.97519 3.42397 1.52782 4.11087 1.15213 5.07827C0.868573 5.80862 0.527522 6.91162 0.433989 8.95735C0.332779 11.1842 0.3125 11.8479 0.3125 17.4977C0.3125 23.1474 0.332779 23.8146 0.433989 26.0415C0.527083 28.0872 0.868556 29.1902 1.1521 29.9196C1.52867 30.8875 1.97517 31.5727 2.70019 32.2978C3.42512 33.0228 4.1119 33.4694 5.07923 33.8451C5.80997 34.1287 6.91286 34.4698 8.95841 34.5642C11.185 34.6655 11.8518 34.6875 17.5002 34.6875C23.1483 34.6875 23.8155 34.6655 26.0421 34.5642C28.0877 34.4707 29.1914 34.1304 29.9205 33.8457L29.9207 33.8456C30.8884 33.4699 31.573 33.0233 32.298 32.2982C33.0231 31.5735 33.4705 30.8887 33.8461 29.9215C34.1296 29.192 34.4707 28.089 34.5642 26.0432C34.6655 23.8163 34.6875 23.1491 34.6875 17.503C34.6875 11.8568 34.6655 11.1896 34.5642 8.96264C34.4712 6.9169 34.1297 5.81393 33.8461 5.08449C33.4695 4.11696 33.023 3.43006 32.298 2.70505C31.5735 1.97999 30.888 1.53343 29.9207 1.1577C29.1905 0.874108 28.0876 0.533016 26.0421 0.439467C23.8151 0.338245 23.1484 0.317963 17.5002 0.317963C17.256 0.317963 17.0211 0.317858 16.795 0.317756C16.3672 0.317564 15.9709 0.317386 15.6025 0.317963L15.4461 0.318208V0.312862ZM27.8113 4.6596C26.3961 4.74051 25.2726 5.91349 25.2726 7.34961C25.2726 8.83768 26.4797 10.045 27.9676 10.045C29.4555 10.045 30.6626 8.83768 30.6626 7.34961C30.6626 5.86155 29.4555 4.65427 27.9676 4.65427H27.8113V4.6596ZM28.033 4.96765H27.9676C26.6522 4.96765 25.5851 6.03374 25.5851 7.34961C25.5851 8.66513 26.6523 9.73246 27.9676 9.73246C29.2829 9.73246 30.3501 8.66513 30.3501 7.34961C30.3501 6.05597 29.3181 5.00233 28.033 4.96765ZM17.4995 11.2974C13.6908 11.2974 10.6036 14.385 10.6036 18.1942C10.6036 22.003 13.6908 25.091 17.4995 25.091C21.3078 25.091 24.3954 22.003 24.3954 18.1942C24.3954 14.385 21.3078 11.2974 17.4995 11.2974ZM10.2911 18.1942C10.2911 14.2124 13.5182 10.9849 17.4995 10.9849C21.4804 10.9849 24.7079 14.2124 24.7079 18.1942C24.7079 22.1755 21.4804 25.4035 17.4995 25.4035C13.5182 25.4035 10.2911 22.1755 10.2911 18.1942Z" fill="url(#paint0_linear)"/>
<defs>
<linearGradient id="paint0_linear" x1="-36.9196" y1="-94.9132" x2="121.843" y2="-2.65091" gradientUnits="userSpaceOnUse">
<stop stop-color="white"/>
<stop offset="1" stop-color="#7A22FF"/>
</linearGradient>
</defs>
</svg>
