<svg width="58" height="43" viewBox="0 0 58 43" fill="none" xmlns="http://www.w3.org/2000/svg">
<path fill-rule="evenodd" clip-rule="evenodd" d="M23.1658 22.6718C23.3064 22.5313 23.4971 22.4524 23.6958 22.4524H34.9081C35.1068 22.4524 35.2975 22.5313 35.4381 22.6718L39.9764 27.2051C40.1172 27.3458 40.1964 27.5367 40.1964 27.7357V33.6024H39.4464V34.3524H19.1575C18.7433 34.3524 18.4075 34.0166 18.4075 33.6024V27.7357C18.4075 27.5367 18.4867 27.3458 18.6275 27.2051L23.1658 22.6718ZM38.6964 32.8524V28.0466L34.5977 23.9524H24.0062L19.9075 28.0466V32.8524H38.6964Z" fill="white"/>
<path fill-rule="evenodd" clip-rule="evenodd" d="M11.1996 30.2693C11.1996 29.8551 11.5354 29.5193 11.9496 29.5193H19.024C19.4383 29.5193 19.774 29.8551 19.774 30.2693C19.774 30.6835 19.4383 31.0193 19.024 31.0193H11.9496C11.5354 31.0193 11.1996 30.6835 11.1996 30.2693Z" fill="white"/>
<path fill-rule="evenodd" clip-rule="evenodd" d="M5.19305 25.4692C5.19305 25.055 5.52884 24.7192 5.94305 24.7192H10.8818C11.296 24.7192 11.6318 25.055 11.6318 25.4692V33.4372C11.7064 34.3622 11.406 35.1997 10.8211 35.8064C10.2325 36.417 9.39678 36.7526 8.47916 36.7526C6.75688 36.7526 5.19305 35.3764 5.19305 33.4692V25.4692ZM6.69305 26.2192V33.4692C6.69305 34.4955 7.53185 35.2526 8.47916 35.2526C9.02981 35.2526 9.46215 35.0548 9.74117 34.7654C10.0163 34.48 10.1829 34.0647 10.1349 33.5372C10.1328 33.5146 10.1318 33.4919 10.1318 33.4692V26.2192H6.69305Z" fill="white"/>
<path fill-rule="evenodd" clip-rule="evenodd" d="M8.47919 21.9192C8.8934 21.9192 9.22919 22.255 9.22919 22.6692V25.4692C9.22919 25.8834 8.8934 26.2192 8.47919 26.2192C8.06497 26.2192 7.72919 25.8834 7.72919 25.4692V22.6692C7.72919 22.255 8.06497 21.9192 8.47919 21.9192Z" fill="white"/>
<path fill-rule="evenodd" clip-rule="evenodd" d="M0.788269 21.4692C0.788269 21.055 1.12406 20.7192 1.53827 20.7192H15.4201C15.8343 20.7192 16.1701 21.055 16.1701 21.4692C16.1701 21.8835 15.8343 22.2192 15.4201 22.2192H1.53827C1.12406 22.2192 0.788269 21.8835 0.788269 21.4692Z" fill="white"/>
<path fill-rule="evenodd" clip-rule="evenodd" d="M20.2917 33.0196C20.54 33.3511 20.4726 33.8212 20.1411 34.0695L15.6362 37.4445V41.7359C15.6362 42.1502 15.3004 42.4859 14.8862 42.4859C14.472 42.4859 14.1362 42.1502 14.1362 41.7359V37.0693C14.1362 36.8331 14.2474 36.6107 14.4365 36.469L19.2417 32.869C19.5732 32.6207 20.0433 32.6881 20.2917 33.0196Z" fill="white"/>
<path fill-rule="evenodd" clip-rule="evenodd" d="M38.9633 30.2693C38.9633 29.8551 39.2991 29.5193 39.7133 29.5193H46.6542C47.0684 29.5193 47.4042 29.8551 47.4042 30.2693C47.4042 30.6835 47.0684 31.0193 46.6542 31.0193H39.7133C39.2991 31.0193 38.9633 30.6835 38.9633 30.2693Z" fill="white"/>
<path fill-rule="evenodd" clip-rule="evenodd" d="M46.9721 25.4692C46.9721 25.055 47.3079 24.7192 47.7221 24.7192H52.6608C53.0751 24.7192 53.4108 25.055 53.4108 25.4692V33.4692C53.4108 35.3764 51.847 36.7526 50.1247 36.7526C49.2071 36.7526 48.3714 36.417 47.7828 35.8064C47.1979 35.1997 46.8975 34.3622 46.9721 33.4372V25.4692ZM48.4721 26.2192V33.4692C48.4721 33.4919 48.4711 33.5146 48.469 33.5372C48.421 34.0647 48.5876 34.48 48.8627 34.7654C49.1417 35.0548 49.5741 35.2526 50.1247 35.2526C51.072 35.2526 51.9108 34.4955 51.9108 33.4692V26.2192H48.4721Z" fill="white"/>
<path fill-rule="evenodd" clip-rule="evenodd" d="M50.1247 21.9192C50.5389 21.9192 50.8747 22.255 50.8747 22.6692V25.4692C50.8747 25.8834 50.5389 26.2192 50.1247 26.2192C49.7105 26.2192 49.3747 25.8834 49.3747 25.4692V22.6692C49.3747 22.255 49.7105 21.9192 50.1247 21.9192Z" fill="white"/>
<path fill-rule="evenodd" clip-rule="evenodd" d="M42.4338 21.4692C42.4338 21.055 42.7696 20.7192 43.1838 20.7192H57.0656C57.4798 20.7192 57.8156 21.055 57.8156 21.4692C57.8156 21.8835 57.4798 22.2192 57.0656 22.2192H43.1838C42.7696 22.2192 42.4338 21.8835 42.4338 21.4692Z" fill="white"/>
<path fill-rule="evenodd" clip-rule="evenodd" d="M38.3122 33.0196C38.5606 32.6881 39.0306 32.6207 39.3621 32.869L44.1674 36.469C44.3564 36.6107 44.4677 36.8331 44.4677 37.0693V41.7359C44.4677 42.1502 44.1319 42.4859 43.7177 42.4859C43.3035 42.4859 42.9677 42.1502 42.9677 41.7359V37.4445L38.4628 34.0695C38.1313 33.8212 38.0639 33.3511 38.3122 33.0196Z" fill="white"/>
<path fill-rule="evenodd" clip-rule="evenodd" d="M7.95656 6.75269C6.74819 6.75269 5.77002 7.73097 5.77002 8.93602C5.77002 10.1411 6.74819 11.1194 7.95656 11.1194C9.16493 11.1194 10.1431 10.1411 10.1431 8.93602C10.1431 7.73097 9.16493 6.75269 7.95656 6.75269ZM4.27002 8.93602C4.27002 6.901 5.92131 5.25269 7.95656 5.25269C9.99181 5.25269 11.6431 6.901 11.6431 8.93602C11.6431 10.971 9.99181 12.6194 7.95656 12.6194C5.92131 12.6194 4.27002 10.971 4.27002 8.93602Z" fill="#7A22FF"/>
<path fill-rule="evenodd" clip-rule="evenodd" d="M35.0416 11.6858C33.8332 11.6858 32.855 12.6641 32.855 13.8691C32.855 15.0742 33.8332 16.0525 35.0416 16.0525C36.25 16.0525 37.2281 15.0742 37.2281 13.8691C37.2281 12.6641 36.25 11.6858 35.0416 11.6858ZM31.355 13.8691C31.355 11.8341 33.0063 10.1858 35.0416 10.1858C37.0768 10.1858 38.7281 11.8341 38.7281 13.8691C38.7281 15.9041 37.0768 17.5525 35.0416 17.5525C33.0063 17.5525 31.355 15.9041 31.355 13.8691Z" fill="#7A22FF"/>
<path d="M53.8621 8.9359C54.8205 8.9359 55.5974 8.15987 55.5974 7.20257C55.5974 6.24528 54.8205 5.46924 53.8621 5.46924C52.9038 5.46924 52.1269 6.24528 52.1269 7.20257C52.1269 8.15987 52.9038 8.9359 53.8621 8.9359Z" fill="#ED8A7A"/>
<path d="M23.2954 3.73582C24.1063 3.73582 24.7637 3.07917 24.7637 2.26916C24.7637 1.45914 24.1063 0.80249 23.2954 0.80249C22.4845 0.80249 21.8271 1.45914 21.8271 2.26916C21.8271 3.07917 22.4845 3.73582 23.2954 3.73582Z" fill="#ED8A7A"/>
</svg>
