<svg width="77" height="78" viewBox="0 0 77 78" fill="none" xmlns="http://www.w3.org/2000/svg">
<path fill-rule="evenodd" clip-rule="evenodd" d="M0.771973 39C0.771973 18.7699 16.1325 2.26798 35.515 0.819672L35.664 2.81411C17.3483 4.18271 2.77197 19.7935 2.77197 39C2.77197 58.2065 17.3483 73.8173 35.664 75.1859L35.515 77.1803C16.1325 75.732 0.771973 59.2301 0.771973 39Z" fill="#7A22FF"/>
<path fill-rule="evenodd" clip-rule="evenodd" d="M41.4851 0.819672C60.8676 2.26798 76.2281 18.7699 76.2281 39C76.2281 59.2301 60.8676 75.732 41.4851 77.1803L41.3361 75.1859C59.6518 73.8173 74.2281 58.2065 74.2281 39C74.2281 19.7935 59.6518 4.18271 41.3361 2.81411L41.4851 0.819672Z" fill="#7A22FF"/>
<path fill-rule="evenodd" clip-rule="evenodd" d="M15.748 35.7763C17.196 24.2989 27.0383 15.4648 38.6384 15.4648C50.2385 15.4648 60.0809 24.2989 61.5288 35.7763L59.5445 36.0266C58.2206 25.5321 49.2138 17.4648 38.6384 17.4648C28.0631 17.4648 19.0563 25.5321 17.7323 36.0266L15.748 35.7763Z" fill="#9A45E6"/>
<path fill-rule="evenodd" clip-rule="evenodd" d="M38.3613 62.5352C26.7612 62.5352 16.9189 53.7011 15.4709 42.2237L17.4552 41.9734C18.7792 52.4678 27.786 60.5352 38.3613 60.5352C48.9367 60.5352 57.9435 52.4678 59.2674 41.9734L61.2517 42.2237C59.8037 53.7011 49.9614 62.5352 38.3613 62.5352Z" fill="#9A45E6"/>
<path d="M38.6386 44.3521C41.5473 44.3521 43.9053 41.9559 43.9053 39C43.9053 36.0441 41.5473 33.6479 38.6386 33.6479C35.7299 33.6479 33.3719 36.0441 33.3719 39C33.3719 41.9559 35.7299 44.3521 38.6386 44.3521Z" fill="white"/>
</svg>
