<svg width="120" height="59" viewBox="0 0 120 59" fill="none" xmlns="http://www.w3.org/2000/svg">
<path fill-rule="evenodd" clip-rule="evenodd" d="M43.5024 44.1051C46.8462 40.6981 48.5499 35.9732 48.5499 29.8547C48.5499 23.7357 46.8461 19.0465 43.5062 15.7066L43.4985 15.6989C40.2204 12.2947 35.6957 10.5646 29.8498 10.5646C24.0044 10.5646 19.4441 12.2945 16.099 15.7027C12.8226 19.0421 11.1498 23.7327 11.1498 29.8547C11.1498 35.9738 12.8212 40.6989 16.099 44.1051C19.4431 47.447 24.0035 49.1449 29.8498 49.1449C35.6989 49.1449 40.225 47.4455 43.5024 44.1051ZM15.6871 44.5093C12.2775 40.9686 10.5727 36.0837 10.5727 29.8547C10.5727 23.6257 12.2775 18.7737 15.6871 15.2985C19.1622 11.7578 23.8831 9.98749 29.8498 9.98749C35.8166 9.98749 40.5047 11.7578 43.9143 15.2985C47.3894 18.7737 49.127 23.6257 49.127 29.8547C49.127 36.0837 47.3894 40.9686 43.9143 44.5093C40.5047 47.9844 35.8166 49.722 29.8498 49.722C23.8831 49.722 19.1622 47.9844 15.6871 44.5093ZM51.096 51.1259L51.0933 51.1284C45.466 56.3537 38.3699 58.9541 29.8498 58.9541C21.3297 58.9541 14.2023 56.3537 8.51054 51.1307L8.50533 51.1259C2.86352 45.8199 0.0620117 38.7078 0.0620117 29.8547C0.0620117 21.0018 2.86355 13.9207 8.50804 8.67944C14.1995 3.38985 21.3277 0.755371 29.8498 0.755371C38.3712 0.755371 45.4678 3.38949 51.0945 8.68054C56.7382 13.9217 59.5393 21.0024 59.5393 29.8547C59.5393 38.7078 56.7378 45.8199 51.096 51.1259ZM8.90072 9.10232C3.39297 14.2167 0.639093 21.1341 0.639093 29.8547C0.639093 38.5753 3.39297 45.5256 8.90072 50.7055C14.474 55.8198 21.4571 58.377 29.8498 58.377C38.2426 58.377 45.1929 55.8198 50.7006 50.7055C56.2084 45.5256 58.9622 38.5753 58.9622 29.8547C58.9622 21.1341 56.2084 14.2167 50.7006 9.10232C45.1929 3.92241 38.2426 1.33245 29.8498 1.33245C21.4571 1.33245 14.474 3.92241 8.90072 9.10232ZM91.3946 57.5772H78.4271L106.654 12.1382H69.0526V2.03396H119.58V11.3297L91.3946 57.5772ZM69.6297 11.5611V2.61104H119.003V11.1677L91.0705 57.0001H79.4649L107.692 11.5611H69.6297Z" fill="white"/>
<path fill-rule="evenodd" clip-rule="evenodd" d="M43.5024 44.1051C46.8462 40.6981 48.5499 35.9732 48.5499 29.8547C48.5499 23.7357 46.8461 19.0465 43.5062 15.7066L43.4985 15.6989C40.2204 12.2947 35.6957 10.5646 29.8498 10.5646C24.0044 10.5646 19.4441 12.2945 16.099 15.7027C12.8226 19.0421 11.1498 23.7327 11.1498 29.8547C11.1498 35.9738 12.8212 40.6989 16.099 44.1051C19.4431 47.447 24.0035 49.1449 29.8498 49.1449C35.6989 49.1449 40.225 47.4455 43.5024 44.1051ZM15.6871 44.5093C12.2775 40.9686 10.5727 36.0837 10.5727 29.8547C10.5727 23.6257 12.2775 18.7737 15.6871 15.2985C19.1622 11.7578 23.8831 9.98749 29.8498 9.98749C35.8166 9.98749 40.5047 11.7578 43.9143 15.2985C47.3894 18.7737 49.127 23.6257 49.127 29.8547C49.127 36.0837 47.3894 40.9686 43.9143 44.5093C40.5047 47.9844 35.8166 49.722 29.8498 49.722C23.8831 49.722 19.1622 47.9844 15.6871 44.5093ZM51.096 51.1259L51.0933 51.1284C45.466 56.3537 38.3699 58.9541 29.8498 58.9541C21.3297 58.9541 14.2023 56.3537 8.51054 51.1307L8.50533 51.1259C2.86352 45.8199 0.0620117 38.7078 0.0620117 29.8547C0.0620117 21.0018 2.86355 13.9207 8.50804 8.67944C14.1995 3.38985 21.3277 0.755371 29.8498 0.755371C38.3712 0.755371 45.4678 3.38949 51.0945 8.68054C56.7382 13.9217 59.5393 21.0024 59.5393 29.8547C59.5393 38.7078 56.7378 45.8199 51.096 51.1259ZM8.90072 9.10232C3.39297 14.2167 0.639093 21.1341 0.639093 29.8547C0.639093 38.5753 3.39297 45.5256 8.90072 50.7055C14.474 55.8198 21.4571 58.377 29.8498 58.377C38.2426 58.377 45.1929 55.8198 50.7006 50.7055C56.2084 45.5256 58.9622 38.5753 58.9622 29.8547C58.9622 21.1341 56.2084 14.2167 50.7006 9.10232C45.1929 3.92241 38.2426 1.33245 29.8498 1.33245C21.4571 1.33245 14.474 3.92241 8.90072 9.10232ZM91.3946 57.5772H78.4271L106.654 12.1382H69.0526V2.03396H119.58V11.3297L91.3946 57.5772ZM69.6297 11.5611V2.61104H119.003V11.1677L91.0705 57.0001H79.4649L107.692 11.5611H69.6297Z" fill="white"/>
</svg>
