<svg width="2490" height="13" viewBox="0 0 2490 13" fill="none" xmlns="http://www.w3.org/2000/svg">
<path opacity="0.5" fill-rule="evenodd" clip-rule="evenodd" d="M2489.79 7.25H0.972656V6.25H2489.79V7.25Z" fill="#7A22FF"/>
<path d="M143.504 4H150.004V10.5H143.504V4Z" fill="white"/>
<path d="M447.473 4H453.973V10.5H447.473V4Z" fill="white"/>
<path d="M761.473 4H767.973V10.5H761.473V4Z" fill="#9A45E6"/>
<path d="M1083.5 4H1090V10.5H1083.5V4Z" fill="white"/>
<path d="M1401.48 4H1407.98V10.5H1401.48V4Z" fill="white"/>
<path d="M1703 0H1716V13H1703V0Z" fill="#7A22FF"/>
<path d="M2034.77 0H2047.77V13H2034.77V0Z" fill="#7A22FF"/>
<path d="M2342.79 0H2355.79V13H2342.79V0Z" fill="#7A22FF"/>
<path d="M1398 0H1411V13H1398V0Z" fill="#7A22FF"/>
<path d="M1080 0H1093V13H1080V0Z" fill="#7A22FF"/>
<path d="M757 0H770V13H757V0Z" fill="#7A22FF"/>
<path d="M444 0H457V13H444V0Z" fill="#7A22FF"/>
<path d="M138 0H151V13H138V0Z" fill="#7A22FF"/>
</svg>
