<svg width="350" height="163" viewBox="0 0 350 163" fill="none" xmlns="http://www.w3.org/2000/svg">
<path fill-rule="evenodd" clip-rule="evenodd" d="M83.7112 1.39087C60.1367 1.39087 40.5545 8.6618 24.9275 23.1858C9.50156 37.5098 1.77051 56.8913 1.77051 81.3885C1.77051 105.885 9.50069 125.359 24.9274 139.869C40.5539 154.207 60.1361 161.386 83.7112 161.386C107.286 161.386 126.775 154.207 142.215 139.871C157.643 125.361 165.374 105.886 165.374 81.3885C165.374 56.8913 157.643 37.51 142.218 23.1859L142.215 23.1838C126.774 8.66176 107.286 1.39087 83.7112 1.39087ZM24.2467 22.4533C40.0785 7.73906 59.9124 0.390869 83.7112 0.390869C107.509 0.390869 127.251 7.73856 142.899 22.4537C158.561 36.9977 166.374 56.6622 166.374 81.3885C166.374 106.115 158.561 125.871 142.9 140.599L142.898 140.601C127.25 155.132 107.508 162.386 83.7112 162.386C59.9142 162.386 40.0811 155.132 24.249 140.603L24.2445 140.599C8.58397 125.871 0.770508 106.115 0.770508 81.3885C0.770508 56.662 8.58394 36.9974 24.2467 22.4533ZM216.749 3.99939H338.193V30.259H243.784L241.646 62.3329C253.948 57.8596 268.202 55.6289 284.398 55.6289C304.822 55.6289 320.859 60.1773 332.449 69.3363C344.058 78.3247 349.851 90.9693 349.851 107.203C349.851 125.485 342.937 139.253 329.087 148.424C315.283 157.565 296.577 162.109 273.017 162.109C244.067 162.109 219.171 155.241 198.351 141.485L197.959 141.226L211.212 118.176L211.647 118.43C222.725 124.892 232.863 129.405 242.063 131.981C251.259 134.556 262.499 135.849 275.793 135.849C291.114 135.849 302.37 133.261 309.648 128.168C317.109 122.89 320.816 115.914 320.816 107.203C320.816 98.4813 317.333 91.9857 310.365 87.642C303.357 83.2738 292.782 81.0558 278.569 81.0558C264.017 81.0558 250.02 83.9105 236.572 89.6209L236.462 89.668L212.537 87.9591L216.749 3.99939ZM217.7 4.99939L213.584 87.0314L236.293 88.6534C249.829 82.922 263.922 80.0558 278.569 80.0558C292.854 80.0558 303.652 82.2791 310.894 86.7934C318.175 91.3321 321.816 98.1603 321.816 107.203C321.816 116.257 317.936 123.53 310.224 128.985L310.222 128.986C302.695 134.255 291.191 136.849 275.793 136.849C262.44 136.849 251.103 135.551 241.794 132.944C232.61 130.373 222.538 125.903 211.578 119.546L199.295 140.909C219.847 154.368 244.413 161.109 273.017 161.109C296.461 161.109 314.951 156.585 328.534 147.59C342.072 138.626 348.851 125.191 348.851 107.203C348.851 91.2391 343.172 78.9021 331.835 70.1256L331.831 70.1225C320.475 61.1476 304.685 56.6289 284.398 56.6289C267.974 56.6289 253.601 58.9358 241.271 63.5368L240.545 63.8074L242.849 29.259H337.193V4.99939H217.7ZM43.3831 39.9567C53.3035 29.8491 66.7664 24.8177 83.7112 24.8177C100.654 24.8177 114.026 29.848 123.762 39.9569C133.685 49.8816 138.617 63.7153 138.617 81.3885C138.617 99.0643 133.683 112.989 123.762 123.098C114.025 133.022 100.653 137.959 83.7112 137.959C66.7691 137.959 53.3074 133.022 43.3864 123.101L43.3798 123.094C33.6451 112.985 28.8059 99.0617 28.8059 81.3885C28.8059 63.7159 33.645 49.8821 43.3831 39.9567ZM44.0969 40.6571C34.5896 50.3473 29.8059 63.9013 29.8059 81.3885C29.8059 98.8733 34.5883 112.521 44.0969 122.398C53.7912 132.09 66.9758 136.959 83.7112 136.959C100.449 136.959 113.54 132.089 123.048 122.397C132.742 112.521 137.617 98.8727 137.617 81.3885C137.617 63.9039 132.742 50.3511 123.051 40.6605L123.045 40.6538C113.536 30.7792 100.446 25.8177 83.7112 25.8177C66.9766 25.8177 53.792 30.7792 44.0969 40.6571Z" fill="url(#paint0_linear)"/>
<defs>
<linearGradient id="paint0_linear" x1="178" y1="-51" x2="178" y2="231" gradientUnits="userSpaceOnUse">
<stop stop-color="white"/>
<stop offset="1" stop-color="#8533FF"/>
</linearGradient>
</defs>
</svg>
