<svg width="33" height="29" viewBox="0 0 33 29" fill="none" xmlns="http://www.w3.org/2000/svg">
<path d="M27.0469 22.3555C25.9026 25.9706 22.0443 27.9735 18.4292 26.8291C14.8142 25.6848 12.8113 21.8265 13.9556 18.2114C15.1 14.5964 18.9582 12.5935 22.5733 13.7378C26.1884 14.8822 28.1913 18.7404 27.0469 22.3555Z" fill="#7A22FF"/>
<path fill-rule="evenodd" clip-rule="evenodd" d="M3.98868 17.126C5.49835 17.6039 7.10959 16.7675 7.58748 15.2578C8.06537 13.7482 7.22894 12.1369 5.71927 11.659C4.2096 11.1811 2.59836 12.0176 2.12047 13.5272C1.64258 15.0369 2.479 16.6482 3.98868 17.126ZM3.68689 18.0794C5.72309 18.724 7.89629 17.5958 8.54085 15.5596C9.18542 13.5234 8.05727 11.3502 6.02106 10.7057C3.98485 10.0611 1.81166 11.1892 1.16709 13.2255C0.52253 15.2617 1.65068 17.4349 3.68689 18.0794Z" fill="white"/>
<path fill-rule="evenodd" clip-rule="evenodd" d="M26.6366 7.73737C28.1463 8.21526 29.7575 7.37884 30.2354 5.86917C30.7133 4.35949 29.8769 2.74825 28.3672 2.27036C26.8575 1.79247 25.2463 2.6289 24.7684 4.13857C24.2905 5.64825 25.1269 7.25949 26.6366 7.73737ZM26.3348 8.69075C28.371 9.33531 30.5442 8.20716 31.1888 6.17096C31.8334 4.13475 30.7052 1.96156 28.669 1.31699C26.6328 0.672425 24.4596 1.80057 23.815 3.83678C23.1705 5.87299 24.2986 8.04618 26.3348 8.69075Z" fill="white"/>
</svg>
