<svg width="249" height="162" viewBox="0 0 249 162" fill="none" xmlns="http://www.w3.org/2000/svg">
	<path fill-rule="evenodd" clip-rule="evenodd" d="M82.9407 1C59.3662 1 39.784 8.27093 24.157 22.7949C8.73105 37.119 1 56.5004 1 80.9977C1 105.494 8.73018 124.968 24.1569 139.478C39.7834 153.816 59.3656 160.995 82.9407 160.995C106.516 160.995 126.004 153.816 141.445 139.48C156.873 124.97 164.604 105.495 164.604 80.9977C164.604 56.5004 156.873 37.1191 141.447 22.7951L141.445 22.7929C126.004 8.27089 106.515 1 82.9407 1ZM23.4762 22.0624C39.3079 7.34819 59.1419 0 82.9407 0C106.739 0 126.481 7.34769 142.128 22.0628C157.791 36.6069 165.604 56.2714 165.604 80.9977C165.604 105.724 157.79 125.48 142.13 140.208L142.127 140.211C126.48 154.741 106.738 161.995 82.9407 161.995C59.1437 161.995 39.3105 154.741 23.4785 140.213L23.474 140.208C7.81346 125.48 0 105.724 0 80.9977C0 56.2712 7.81343 36.6065 23.4762 22.0624ZM189.785 3.60852H248.244V158.109H219.209V29.8681H189.785V3.60852ZM190.785 4.60852V28.8681H220.209V157.109H247.244V4.60852H190.785ZM42.6126 39.5659C52.533 29.4583 65.9959 24.4269 82.9407 24.4269C99.8833 24.4269 113.255 29.4571 122.991 39.566C132.914 49.4907 137.846 63.3244 137.846 80.9977C137.846 98.6734 132.913 112.598 122.991 122.707C113.254 132.631 99.8824 137.568 82.9407 137.568C65.9986 137.568 52.5369 132.631 42.6159 122.71L42.6093 122.704C32.8746 112.595 28.0354 98.6708 28.0354 80.9977C28.0354 63.325 32.8745 49.4912 42.6126 39.5659ZM43.3264 40.2663C33.8191 49.9564 29.0354 63.5104 29.0354 80.9977C29.0354 98.4824 33.8178 112.13 43.3264 122.007C53.0206 131.699 66.2053 136.568 82.9407 136.568C99.6785 136.568 112.769 131.698 122.277 122.007C131.971 112.13 136.846 98.4818 136.846 80.9977C136.846 63.513 131.971 49.9602 122.281 40.2696L122.274 40.2629C112.765 30.3884 99.6757 25.4269 82.9407 25.4269C66.206 25.4269 53.0214 30.3883 43.3264 40.2663Z" fill="url(#paint0_linear)" />
	<defs>
		<linearGradient id="paint0_linear" x1="172.39" y1="-51.3909" x2="172.39" y2="230.524" gradientUnits="userSpaceOnUse">
			<stop stop-color="white" />
			<stop offset="1" stop-color="#8533FF" />
		</linearGradient>
	</defs>
</svg>
