<svg width="48" height="48" viewBox="0 0 48 48" fill="none" xmlns="http://www.w3.org/2000/svg">
<path d="M42.2795 47.5579H6.27949C3.07949 47.5579 0.479492 44.9579 0.479492 41.7579V28.7579C0.479492 25.6579 3.07949 23.0579 6.27949 23.0579H42.2795C45.4795 23.0579 48.0795 25.6579 48.0795 28.8579V41.8579C47.9795 44.9579 45.3795 47.5579 42.2795 47.5579ZM6.27949 24.5579C3.97949 24.5579 2.07949 26.4579 2.07949 28.7579V41.7579C2.07949 44.0579 3.97949 45.9579 6.27949 45.9579H42.2795C44.5795 45.9579 46.4795 44.0579 46.4795 41.7579V28.7579C46.4795 26.4579 44.5795 24.5579 42.2795 24.5579H6.27949Z" fill="white"/>
<path d="M9.27949 47.5579C8.87949 47.5579 8.47949 47.2579 8.47949 46.7579V23.7579C8.47949 23.3579 8.77949 23.0579 9.27949 23.0579C9.67949 23.0579 10.0795 23.3579 10.0795 23.8579V46.8579C9.97949 47.2579 9.67949 47.5579 9.27949 47.5579Z" fill="white"/>
<path d="M39.2795 47.5578C38.8795 47.5578 38.4795 47.2578 38.4795 46.7578V23.7578C38.4795 23.3578 38.7795 22.9578 39.2795 22.9578C39.6795 22.9578 40.0795 23.2578 40.0795 23.7578V46.7578C39.9795 47.2578 39.6795 47.5578 39.2795 47.5578Z" fill="white"/>
<path d="M43.2795 37.5578C42.8795 37.5578 42.4795 37.2578 42.4795 36.7578V33.7578C42.4795 33.3578 42.7795 32.9578 43.2795 32.9578C43.6795 32.9578 44.0795 33.2578 44.0795 33.7578V36.7578C43.9795 37.2578 43.6795 37.5578 43.2795 37.5578Z" fill="white"/>
<path d="M5.17949 36.4579C5.84223 36.4579 6.37949 35.9206 6.37949 35.2579C6.37949 34.5951 5.84223 34.0579 5.17949 34.0579C4.51675 34.0579 3.97949 34.5951 3.97949 35.2579C3.97949 35.9206 4.51675 36.4579 5.17949 36.4579Z" fill="white"/>
<path d="M17.2795 36.8579C17.8318 36.8579 18.2795 36.4102 18.2795 35.8579C18.2795 35.3056 17.8318 34.8579 17.2795 34.8579C16.7272 34.8579 16.2795 35.3056 16.2795 35.8579C16.2795 36.4102 16.7272 36.8579 17.2795 36.8579Z" fill="#6024BA"/>
<path d="M17.2795 40.5578C14.6795 40.5578 12.4795 38.4578 12.4795 35.7578C12.4795 33.1578 14.5795 30.9578 17.2795 30.9578C19.8795 30.9578 22.0795 33.0578 22.0795 35.7578C21.9795 38.4578 19.8795 40.5578 17.2795 40.5578ZM17.2795 32.5578C15.4795 32.5578 14.0795 34.0578 14.0795 35.7578C14.0795 37.4578 15.4795 39.0578 17.2795 39.0578C19.0795 39.0578 20.4795 37.5578 20.4795 35.8578C20.4795 34.1578 18.9795 32.5578 17.2795 32.5578Z" fill="#7A22FF"/>
<path d="M31.2795 36.8579C31.8318 36.8579 32.2795 36.4102 32.2795 35.8579C32.2795 35.3056 31.8318 34.8579 31.2795 34.8579C30.7272 34.8579 30.2795 35.3056 30.2795 35.8579C30.2795 36.4102 30.7272 36.8579 31.2795 36.8579Z" fill="#ED8A7A"/>
<path d="M31.2795 40.5578C28.6795 40.5578 26.4795 38.4578 26.4795 35.7578C26.4795 33.1578 28.5795 30.9578 31.2795 30.9578C33.8795 30.9578 36.0795 33.0578 36.0795 35.7578C35.9795 38.4578 33.8795 40.5578 31.2795 40.5578ZM31.2795 32.5578C29.4795 32.5578 28.0795 34.0578 28.0795 35.7578C28.0795 37.4578 29.4795 39.0578 31.2795 39.0578C33.0795 39.0578 34.4795 37.5578 34.4795 35.8578C34.4795 34.1578 32.9795 32.5578 31.2795 32.5578Z" fill="#ED8A7A"/>
<path d="M27.2795 21.5578C26.8795 21.5578 26.4795 21.2578 26.4795 20.7578C26.4795 19.5578 25.4795 18.5578 24.2795 18.5578C23.0795 18.5578 22.0795 19.5578 22.0795 20.7578C22.0795 21.1578 21.7795 21.5578 21.2795 21.5578C20.8795 21.5578 20.4795 21.2578 20.4795 20.7578C20.4795 18.6578 22.1795 16.9578 24.2795 16.9578C26.3795 16.9578 28.0795 18.6578 28.0795 20.7578C27.9795 21.2578 27.6795 21.5578 27.2795 21.5578Z" fill="#7A22FF"/>
<path d="M31.2795 21.5578C30.8795 21.5578 30.4795 21.2578 30.4795 20.7578C30.4795 17.3578 27.6795 14.5578 24.2795 14.5578C20.8795 14.5578 18.0795 17.3578 18.0795 20.7578C18.0795 21.1578 17.7795 21.5578 17.2795 21.5578C16.8795 21.5578 16.4795 21.2578 16.4795 20.7578C16.4795 16.4578 19.9795 12.9578 24.2795 12.9578C28.5795 12.9578 32.0795 16.4578 32.0795 20.7578C31.9795 21.2578 31.6795 21.5578 31.2795 21.5578Z" fill="#7A22FF"/>
<path d="M31.2795 10.5579H17.2795C16.8795 10.5579 16.4795 10.2579 16.4795 9.75786V4.75786C16.4795 4.55786 16.5795 4.35786 16.6795 4.25786L19.6795 1.25786C19.8795 1.15786 20.0795 1.05786 20.2795 1.05786H28.2795C28.4795 1.05786 28.6795 1.15786 28.7795 1.25786L31.7795 4.25786C31.8795 4.35786 31.9795 4.55786 31.9795 4.75786V9.75786C31.9795 10.2579 31.6795 10.5579 31.2795 10.5579ZM17.9795 9.05786H30.4795V5.15786L27.8795 2.55786H20.4795L17.8795 5.15786V9.05786H17.9795Z" fill="white"/>
<path d="M13.2795 1.55786H1.27949C0.779492 1.55786 0.479492 1.25786 0.479492 0.857861C0.479492 0.357861 0.779492 0.0578613 1.27949 0.0578613H13.2795C13.6795 0.0578613 14.0795 0.357861 14.0795 0.857861C13.9795 1.25786 13.6795 1.55786 13.2795 1.55786Z" fill="white"/>
<path d="M47.2795 1.55786H35.2795C34.8795 1.55786 34.4795 1.25786 34.4795 0.757861C34.4795 0.357861 34.7795 0.0578613 35.2795 0.0578613H47.2795C47.6795 0.0578613 48.0795 0.357861 48.0795 0.857861C47.9795 1.25786 47.6795 1.55786 47.2795 1.55786Z" fill="white"/>
<path d="M7.27949 4.55786C6.77949 4.55786 6.47949 4.25786 6.47949 3.85786V0.857861C6.47949 0.357861 6.77949 0.0578613 7.27949 0.0578613C7.67949 0.0578613 8.07949 0.357861 8.07949 0.857861V3.85786C7.97949 4.25786 7.67949 4.55786 7.27949 4.55786Z" fill="white"/>
<path d="M41.2795 4.55786C40.8795 4.55786 40.4795 4.25786 40.4795 3.75786V0.757861C40.4795 0.357861 40.7795 0.0578613 41.2795 0.0578613C41.6795 0.0578613 42.0795 0.357861 42.0795 0.857861V3.85786C41.9795 4.25786 41.6795 4.55786 41.2795 4.55786Z" fill="white"/>
<path d="M7.27949 12.8579C5.87949 12.8579 4.47949 11.8579 4.47949 9.85786V3.85786C4.47949 3.35786 4.77949 3.05786 5.27949 3.05786H9.27949C9.67949 3.05786 10.0795 3.35786 10.0795 3.85786V9.85786C9.97949 11.7579 8.57949 12.8579 7.27949 12.8579ZM5.97949 4.55786V9.75786C5.97949 10.8579 6.67949 11.2579 7.17949 11.2579C7.77949 11.2579 8.37949 10.8579 8.37949 9.75786V4.55786H5.97949Z" fill="white"/>
<path d="M41.2795 12.8579C39.8795 12.8579 38.4795 11.8579 38.4795 9.85786V3.85786C38.4795 3.35786 38.7795 3.05786 39.2795 3.05786H43.2795C43.6795 3.05786 44.0795 3.35786 44.0795 3.85786V9.85786C43.9795 11.7579 42.5795 12.8579 41.2795 12.8579ZM39.9795 4.55786V9.75786C39.9795 10.8579 40.6795 11.2579 41.1795 11.2579C41.7795 11.2579 42.3795 10.8579 42.3795 9.75786V4.55786H39.9795Z" fill="white"/>
<path d="M39.2795 7.55786H31.2795C30.8795 7.55786 30.4795 7.25786 30.4795 6.75786C30.4795 6.35786 30.7795 6.05786 31.2795 6.05786H39.2795C39.6795 6.05786 40.0795 6.35786 40.0795 6.85786C39.9795 7.25786 39.6795 7.55786 39.2795 7.55786Z" fill="white"/>
<path d="M17.2795 7.55786H9.27949C8.77949 7.55786 8.47949 7.25786 8.47949 6.85786C8.47949 6.35786 8.77949 6.05786 9.27949 6.05786H17.2795C17.6795 6.05786 18.0795 6.35786 18.0795 6.85786C17.9795 7.25786 17.6795 7.55786 17.2795 7.55786Z" fill="white"/>
<path d="M13.2795 16.5578C12.8795 16.5578 12.4795 16.2578 12.4795 15.7578V11.7578C12.4795 11.4578 12.6795 11.2578 12.8795 11.0578L16.8795 9.0578C17.2795 8.8578 17.6795 9.0578 17.8795 9.3578C18.0795 9.7578 17.8795 10.1578 17.5795 10.3578L13.9795 12.1578V15.6578C13.9795 16.2578 13.6795 16.5578 13.2795 16.5578Z" fill="white"/>
<path d="M35.2795 16.5579C34.8795 16.5579 34.4795 16.2579 34.4795 15.7579V12.2579L30.8795 10.4579C30.4795 10.2579 30.3795 9.85786 30.5795 9.45786C30.7795 9.05786 31.1795 8.95786 31.5795 9.15786L35.5795 11.1579C35.8795 11.2579 35.9795 11.5579 35.9795 11.8579V15.8579C35.9795 16.2579 35.6795 16.5579 35.2795 16.5579Z" fill="white"/>
</svg>
