<svg width="76" height="77" viewBox="0 0 76 77" fill="none" xmlns="http://www.w3.org/2000/svg">
<path d="M39.3623 48.1864C41.8985 48.1864 43.9544 46.0729 43.9544 43.4659C43.9544 40.8588 41.8985 38.7454 39.3623 38.7454C36.8261 38.7454 34.7701 40.8588 34.7701 43.4659C34.7701 46.0729 36.8261 48.1864 39.3623 48.1864Z" fill="white"/>
<path fill-rule="evenodd" clip-rule="evenodd" d="M35.2797 74.3569C43.511 75.4082 51.9867 72.7991 58.2818 67.3085L59.5964 68.8157C52.8764 74.6769 43.8319 77.4654 35.0264 76.3408L35.2797 74.3569Z" fill="#7A22FF"/>
<path fill-rule="evenodd" clip-rule="evenodd" d="M12.5865 29.7885C19.8399 14.2597 37.6215 7.83886 52.7316 15.3327C60.2963 19.0845 65.4902 25.4323 68.197 32.9694L70.0793 32.2934C67.2143 24.3157 61.6896 17.543 53.6202 13.541C37.4672 5.52985 18.4755 12.4328 10.7668 28.9583L10.7597 28.9736L10.7531 28.9892C7.59779 36.3962 6.94709 44.143 8.76634 51.4537L10.7072 50.9707C8.99932 44.1077 9.5988 36.8107 12.5865 29.7885Z" fill="#7A22FF"/>
<path d="M39.3627 22.113C44.8099 22.113 49.2257 17.5737 49.2257 11.9743C49.2257 6.37485 44.8099 1.8356 39.3627 1.8356C33.9155 1.8356 29.4997 6.37485 29.4997 11.9743C29.4997 17.5737 33.9155 22.113 39.3627 22.113Z" fill="#121421"/>
<path fill-rule="evenodd" clip-rule="evenodd" d="M39.3627 2.8356C34.4936 2.8356 30.4997 6.90097 30.4997 11.9743C30.4997 17.0476 34.4936 21.113 39.3627 21.113C44.2318 21.113 48.2257 17.0476 48.2257 11.9743C48.2257 6.90097 44.2318 2.8356 39.3627 2.8356ZM28.4997 11.9743C28.4997 5.84872 33.3374 0.835602 39.3627 0.835602C45.388 0.835602 50.2257 5.84872 50.2257 11.9743C50.2257 18.0998 45.388 23.113 39.3627 23.113C33.3374 23.113 28.4997 18.0998 28.4997 11.9743Z" fill="white"/>
<path d="M64.4687 68.7351C69.9159 68.7351 74.3317 64.3192 74.3317 58.872C74.3317 53.4249 69.9159 49.009 64.4687 49.009C59.0215 49.009 54.6057 53.4249 54.6057 58.872C54.6057 64.3192 59.0215 68.7351 64.4687 68.7351Z" fill="#121421"/>
<path fill-rule="evenodd" clip-rule="evenodd" d="M64.4687 50.009C59.5738 50.009 55.6057 53.9771 55.6057 58.872C55.6057 63.767 59.5738 67.7351 64.4687 67.7351C69.3636 67.7351 73.3317 63.767 73.3317 58.872C73.3317 53.9771 69.3636 50.009 64.4687 50.009ZM53.6057 58.872C53.6057 52.8726 58.4693 48.009 64.4687 48.009C70.4682 48.009 75.3317 52.8726 75.3317 58.872C75.3317 64.8715 70.4682 69.7351 64.4687 69.7351C58.4693 69.7351 53.6057 64.8715 53.6057 58.872Z" fill="white"/>
<path d="M11.2559 68.1906C16.7031 68.1906 21.1189 63.6513 21.1189 58.0519C21.1189 52.4524 16.7031 47.9132 11.2559 47.9132C5.80871 47.9132 1.39288 52.4524 1.39288 58.0519C1.39288 63.6513 5.80871 68.1906 11.2559 68.1906Z" fill="#121421"/>
<path fill-rule="evenodd" clip-rule="evenodd" d="M11.2559 48.9132C6.3868 48.9132 2.39288 52.9786 2.39288 58.0519C2.39288 63.1252 6.3868 67.1906 11.2559 67.1906C16.125 67.1906 20.1189 63.1252 20.1189 58.0519C20.1189 52.9786 16.125 48.9132 11.2559 48.9132ZM0.392883 58.0519C0.392883 51.9263 5.23061 46.9132 11.2559 46.9132C17.2812 46.9132 22.1189 51.9263 22.1189 58.0519C22.1189 64.1774 17.2812 69.1906 11.2559 69.1906C5.23061 69.1906 0.392883 64.1774 0.392883 58.0519Z" fill="white"/>
</svg>
