<svg width="124" height="60" viewBox="0 0 124 60" fill="none" xmlns="http://www.w3.org/2000/svg">
<path fill-rule="evenodd" clip-rule="evenodd" d="M44.2007 43.8086C47.4482 40.4998 49.127 35.892 49.127 29.8546C49.127 23.8162 47.448 19.2462 44.2072 16.0055L44.2006 15.9988L44.194 15.992C41.0122 12.6878 36.6072 10.9873 30.8499 10.9873C25.0933 10.9873 20.6506 12.6877 17.4008 15.9988C14.2221 19.2387 12.5728 23.8111 12.5728 29.8546C12.5728 35.893 14.2196 40.501 17.4009 43.8086C20.649 47.053 25.0918 48.7218 30.8499 48.7218C36.6127 48.7218 41.02 47.0504 44.2007 43.8086ZM16.6871 44.5091C13.2776 40.9684 11.5728 36.0836 11.5728 29.8546C11.5728 23.6256 13.2776 18.7735 16.6871 15.2984C20.1622 11.7577 24.8832 9.98731 30.8499 9.98731C36.8166 9.98731 41.5048 11.7577 44.9143 15.2984C48.3895 18.7735 50.127 23.6256 50.127 29.8546C50.127 36.0836 48.3895 40.9684 44.9143 44.5091C41.5048 47.9842 36.8166 49.7218 30.8499 49.7218C24.8832 49.7218 20.1622 47.9842 16.6871 44.5091ZM52.3858 51.4338L52.3811 51.4381C46.6663 56.7447 39.4632 59.3768 30.8499 59.3768C22.2364 59.3768 15.0032 56.7448 9.22467 51.4421L9.21564 51.4338C3.47553 46.0354 0.63916 38.8047 0.63916 29.8546C0.63916 20.9048 3.47552 13.704 9.22 8.36965C14.998 2.99949 22.2328 0.332275 30.8499 0.332275C39.4657 0.332275 46.6695 2.99883 52.3834 8.37145C58.1266 13.7056 60.9623 20.9058 60.9623 29.8546C60.9623 38.8047 58.1259 46.0353 52.3858 51.4338ZM51.7007 9.10214C46.1929 3.92223 39.2427 1.33228 30.8499 1.33228C22.4571 1.33228 15.4741 3.92223 9.90079 9.10214C4.39303 14.2165 1.63916 21.134 1.63916 29.8546C1.63916 38.5752 4.39303 45.5254 9.90079 50.7053C15.4741 55.8197 22.4571 58.3768 30.8499 58.3768C39.2427 58.3768 46.1929 55.8197 51.7007 50.7053C57.2084 45.5254 59.9623 38.5752 59.9623 29.8546C59.9623 21.134 57.2084 14.2165 51.7007 9.10214ZM122.137 47.0498V57.9999H73.321V46.291L106.675 27.1176C110.123 25.1474 111.679 22.6843 111.679 19.7242C111.679 16.9326 110.584 14.9292 108.389 13.5662C106.115 12.1542 102.576 11.3807 97.6306 11.3807C91.0108 11.3807 85.0822 13.7357 79.8107 18.4991L79.0826 19.1571L71.7487 11.3422L72.4337 10.6571C79.3187 3.77207 87.8718 0.332275 98.024 0.332275C105.626 0.332275 111.785 1.93111 116.402 5.2355C121.166 8.53183 123.514 13.4846 123.514 19.9209C123.514 26.6621 119.893 31.9731 112.97 35.8418L92.9133 47.0498H122.137ZM89.0739 48.0498H121.137V56.9999H74.321V46.8696L107.171 27.9859C110.843 25.8877 112.679 23.1338 112.679 19.7242C112.679 13.4952 107.663 10.3807 97.6306 10.3807C90.7459 10.3807 84.5825 12.8395 79.1404 17.7571C79.1404 17.7571 79.1403 17.7571 79.1404 17.7571L73.1408 11.3643C79.8288 4.67627 88.1232 1.33228 98.024 1.33228C105.499 1.33228 111.433 2.90592 115.826 6.05321C120.285 9.13492 122.514 13.7575 122.514 19.9209C122.514 26.2155 119.17 31.2315 112.482 34.9689L89.0739 48.0498Z" fill="#7A22FF"/>
</svg>
