<svg width="109" height="1447" viewBox="0 0 109 1447" fill="none" xmlns="http://www.w3.org/2000/svg">
<line x1="45.6498" y1="268.003" x2="44.2874" y2="990.692" stroke="#6024BA" stroke-width="3.29952" stroke-dasharray="1.32 1.32"/>
<line opacity="0.5" x1="47.0049" y1="267.33" x2="8.12705" y2="267.906" stroke="white" stroke-width="0.659904"/>
<line opacity="0.5" x1="47.0014" y1="632.33" x2="8.12353" y2="632.491" stroke="white" stroke-width="0.659904"/>
<path d="M24.4246 0.00288084L24.4246 632.161" stroke="white" stroke-width="3.29952" stroke-dasharray="1.32 1.32"/>
<rect x="2" y="94.3047" width="6" height="6" fill="white"/>
<rect x="2" y="264.256" width="6" height="6" fill="white"/>
<rect x="2" y="446.256" width="6" height="6" fill="white"/>
<rect x="2" y="628.841" width="6" height="6" fill="white"/>
<rect x="2" y="814.451" width="6" height="6" fill="white"/>
<rect x="2" y="1347.8" width="6" height="6" fill="white"/>
<rect x="2" y="990.231" width="6" height="6" fill="white"/>
<rect x="2" y="1178.14" width="6" height="6" fill="white"/>
<path d="M63 632L62.9999 1446.02" stroke="#87FDF6" stroke-width="3.29952" stroke-dasharray="1.32 1.32"/>
<path d="M38.8107 160.302L38.8107 153.282L45.9997 153.282L45.9997 154.595L39.9937 154.595L39.9937 158.989L45.9997 158.989L45.9997 160.302L38.8107 160.302Z" fill="white"/>
<path d="M40.5007 149.961C40.9687 150.464 41.6057 150.715 42.4117 150.715C43.2177 150.715 43.859 150.464 44.3357 149.961C44.8037 149.45 45.0377 148.804 45.0377 148.024C45.0377 147.244 44.8037 146.599 44.3357 146.087C43.859 145.576 43.2177 145.32 42.4117 145.32C41.6057 145.32 40.9687 145.576 40.5007 146.087C40.024 146.599 39.7857 147.244 39.7857 148.024C39.7857 148.804 40.024 149.45 40.5007 149.961ZM39.6947 145.164C40.388 144.393 41.2937 144.007 42.4117 144.007C43.5297 144.007 44.4397 144.393 45.1417 145.164C45.835 145.936 46.1817 146.889 46.1817 148.024C46.1817 149.16 45.835 150.113 45.1417 150.884C44.4397 151.656 43.5297 152.041 42.4117 152.041C41.2937 152.041 40.388 151.656 39.6947 150.884C38.9927 150.113 38.6417 149.16 38.6417 148.024C38.6417 146.889 38.9927 145.936 39.6947 145.164Z" fill="white"/>
<path d="M38.8107 140.999L38.8107 135.396L44.8037 135.396L44.8037 134.525L47.4427 134.525L47.4427 135.656L45.9997 135.773L45.9997 141.909L47.4427 142.026L47.4427 143.157L44.8037 143.157L44.8037 142.221L38.8107 140.999ZM39.9677 139.933L44.8037 140.83L44.8037 136.722L39.9677 136.722L39.9677 139.933Z" fill="white"/>
<path d="M38.8107 133.401L38.8107 126.849L40.0067 126.849L40.0067 132.075L45.9997 132.075L45.9997 133.401L38.8107 133.401Z" fill="white"/>
<path d="M40.5007 124.114C40.9687 124.617 41.6057 124.868 42.4117 124.868C43.2177 124.868 43.859 124.617 44.3357 124.114C44.8037 123.603 45.0377 122.957 45.0377 122.177C45.0377 121.397 44.8037 120.751 44.3357 120.24C43.859 119.729 43.2177 119.473 42.4117 119.473C41.6057 119.473 40.9687 119.729 40.5007 120.24C40.024 120.751 39.7857 121.397 39.7857 122.177C39.7857 122.957 40.024 123.603 40.5007 124.114ZM39.6947 119.317C40.388 118.546 41.2937 118.16 42.4117 118.16C43.5297 118.16 44.4397 118.546 45.1417 119.317C45.835 120.088 46.1817 121.042 46.1817 122.177C46.1817 123.312 45.835 124.266 45.1417 125.037C44.4397 125.808 43.5297 126.194 42.4117 126.194C41.2937 126.194 40.388 125.808 39.6947 125.037C38.9927 124.266 38.6417 123.312 38.6417 122.177C38.6417 121.042 38.9927 120.088 39.6947 119.317Z" fill="white"/>
<path d="M38.8107 117.476L38.8107 110.04L40.0067 110.04L40.0067 113.095L45.9997 113.095L45.9997 114.421L40.0067 114.421L40.0067 117.476L38.8107 117.476Z" fill="white"/>
<path d="M40.5007 107.293C40.9687 107.795 41.6057 108.047 42.4117 108.047C43.2177 108.047 43.859 107.795 44.3357 107.293C44.8037 106.781 45.0377 106.136 45.0377 105.356C45.0377 104.576 44.8037 103.93 44.3357 103.419C43.859 102.907 43.2177 102.652 42.4117 102.652C41.6057 102.652 40.9687 102.907 40.5007 103.419C40.024 103.93 39.7857 104.576 39.7857 105.356C39.7857 106.136 40.024 106.781 40.5007 107.293ZM39.6947 102.496C40.388 101.724 41.2937 101.339 42.4117 101.339C43.5297 101.339 44.4397 101.724 45.1417 102.496C45.835 103.267 46.1817 104.22 46.1817 105.356C46.1817 106.491 45.835 107.444 45.1417 108.216C44.4397 108.987 43.5297 109.373 42.4117 109.373C41.2937 109.373 40.388 108.987 39.6947 108.216C38.9927 107.444 38.6417 106.491 38.6417 105.356C38.6417 104.22 38.9927 103.267 39.6947 102.496Z" fill="white"/>
<path d="M38.8107 100.101L38.8107 95.5123C38.8107 94.8537 38.9797 94.325 39.3177 93.9263C39.6557 93.519 40.1064 93.3153 40.6697 93.3153C41.2677 93.3153 41.7054 93.519 41.9827 93.9263C42.312 93.181 42.9144 92.8083 43.7897 92.8083C44.405 92.8083 44.9294 93.0337 45.3627 93.4843C45.7874 93.9263 45.9997 94.494 45.9997 95.1873L45.9997 100.101L38.8107 100.101ZM40.0067 98.7753L41.6707 98.7753L41.6707 95.3953C41.6707 95.1527 41.5927 94.962 41.4367 94.8233C41.272 94.676 41.077 94.6023 40.8517 94.6023C40.2884 94.6023 40.0067 94.9317 40.0067 95.5903L40.0067 98.7753ZM42.8277 98.7753L44.8037 98.7753L44.8037 95.2393C44.8037 94.8753 44.7127 94.5937 44.5307 94.3943C44.34 94.195 44.0974 94.0953 43.8027 94.0953C43.4994 94.0953 43.261 94.1907 43.0877 94.3813C42.9144 94.5633 42.8277 94.806 42.8277 95.1093L42.8277 98.7753Z" fill="white"/>
<path d="M38.8107 91.6716L38.8107 90.3586L41.5927 90.3586L41.5927 87.8496L38.8107 85.9516L38.8107 84.4306L42.1387 86.7186L45.9997 84.2486L45.9997 85.8086L42.7887 87.8106L42.7887 90.3586L45.9997 90.3586L45.9997 91.6716L38.8107 91.6716Z" fill="white"/>
<path d="M39.9937 79.5626L43.6987 81.1096L43.6987 77.2356L39.9937 78.7436L39.9937 79.5626ZM38.8107 80.3686L38.8107 77.8726L45.9997 74.8176L45.9997 76.2086L44.8687 76.7026L44.8687 81.6036L45.9997 82.0976L45.9997 83.5146L38.8107 80.3686Z" fill="white"/>
<path d="M47.2477 73.5391L46.0257 73.3311C45.8697 73.7211 45.575 73.9161 45.1417 73.9161C44.873 73.9161 44.6434 73.8251 44.4527 73.6431C44.2534 73.4524 44.1537 73.2011 44.1537 72.8891C44.1537 72.6204 44.2447 72.3907 44.4267 72.2001C44.6087 72.0094 44.8514 71.9141 45.1547 71.9141C45.2847 71.9141 45.4147 71.9357 45.5447 71.9791L47.4427 72.7331L47.2477 73.5391Z" fill="white"/>
<path d="M40.5007 64.9029C40.9687 65.4056 41.6057 65.6569 42.4117 65.6569C43.2177 65.6569 43.859 65.4056 44.3357 64.9029C44.8037 64.3916 45.0377 63.7459 45.0377 62.9659C45.0377 62.1859 44.8037 61.5402 44.3357 61.0289C43.859 60.5176 43.2177 60.2619 42.4117 60.2619C41.6057 60.2619 40.9687 60.5176 40.5007 61.0289C40.024 61.5402 39.7857 62.1859 39.7857 62.9659C39.7857 63.7459 40.024 64.3916 40.5007 64.9029ZM39.6947 60.1059C40.388 59.3346 41.2937 58.9489 42.4117 58.9489C43.5297 58.9489 44.4397 59.3346 45.1417 60.1059C45.835 60.8772 46.1817 61.8306 46.1817 62.9659C46.1817 64.1012 45.835 65.0546 45.1417 65.8259C44.4397 66.5972 43.5297 66.9829 42.4117 66.9829C41.2937 66.9829 40.388 66.5972 39.6947 65.8259C38.9927 65.0546 38.6417 64.1012 38.6417 62.9659C38.6417 61.8306 38.9927 60.8772 39.6947 60.1059Z" fill="white"/>
<path d="M38.8107 58.2646L38.8107 50.8286L40.0067 50.8286L40.0067 53.8836L45.9997 53.8836L45.9997 55.2096L40.0067 55.2096L40.0067 58.2646L38.8107 58.2646Z" fill="white"/>
<path d="M44.8167 39.6152L45.9997 39.6152L45.9997 45.8032L44.6607 45.8032L42.1647 41.4612C41.8874 40.9758 41.5234 40.7332 41.0727 40.7332C40.2494 40.7332 39.8377 41.3962 39.8377 42.7222C39.8377 43.6322 40.1627 44.4468 40.8127 45.1662L39.9677 45.9592C39.0837 45.0752 38.6417 43.9788 38.6417 42.6702C38.6417 41.6822 38.8497 40.8978 39.2657 40.3172C39.673 39.7278 40.284 39.4332 41.0987 39.4332C41.9307 39.4332 42.5937 39.8752 43.0877 40.7592L44.8167 43.8532L44.8167 39.6152Z" fill="white"/>
<path d="M38.8107 32.4035L38.8107 26.8005L44.8037 26.8005L44.8037 25.9295L47.4427 25.9295L47.4427 27.0605L45.9997 27.1775L45.9997 33.3135L47.4427 33.4305L47.4427 34.5615L44.8037 34.5615L44.8037 33.6255L38.8107 32.4035ZM39.9677 31.3375L44.8037 32.2345L44.8037 28.1265L39.9677 28.1265L39.9677 31.3375Z" fill="white"/>
<path d="M38.8107 24.8054L38.8107 23.4794L41.6837 23.4794L41.6837 18.8644L38.8107 18.8644L38.8107 17.5514L45.9997 17.5514L45.9997 18.8644L42.8667 18.8644L42.8667 23.4794L45.9997 23.4794L45.9997 24.8054L38.8107 24.8054Z" fill="white"/>
<path d="M38.8107 16.1599L38.8107 9.72491L40.0067 9.72491L40.0067 14.8339L41.7357 14.8339L41.7357 10.2319L42.9187 10.2319L42.9187 14.8339L44.7907 14.8339L44.7907 9.52991L45.9997 9.52991L45.9997 16.1599L38.8107 16.1599Z" fill="white"/>
<path d="M38.8107 8.25073L38.8107 6.93773L44.2447 6.93773L38.8107 2.14073L38.8107 0.827728L45.9997 0.827728L45.9997 2.14073L40.5917 2.14073L45.9997 6.92473L45.9997 8.25073L38.8107 8.25073ZM36.4707 3.20673L37.1597 2.53073C37.7924 3.12006 38.1087 3.80907 38.1087 4.59773C38.1087 5.3864 37.7924 6.07973 37.1597 6.67773L36.4707 6.00172C36.8694 5.61172 37.0687 5.14373 37.0687 4.59773C37.0687 4.0604 36.8694 3.59673 36.4707 3.20673Z" fill="white"/>
<path d="M57.8106 404.313V398.684H64.9996V400.01H59.0066V403.221L63.2186 404.014C64.4059 404.231 64.9996 404.937 64.9996 406.133V406.861H63.7646V406.224C63.7646 405.704 63.5263 405.397 63.0496 405.301L57.8106 404.313Z" fill="white"/>
<path d="M59.5006 395.377C59.9686 395.88 60.6056 396.131 61.4116 396.131C62.2176 396.131 62.8589 395.88 63.3356 395.377C63.8036 394.866 64.0376 394.22 64.0376 393.44C64.0376 392.66 63.8036 392.015 63.3356 391.503C62.8589 390.992 62.2176 390.736 61.4116 390.736C60.6056 390.736 59.9686 390.992 59.5006 391.503C59.0239 392.015 58.7856 392.66 58.7856 393.44C58.7856 394.22 59.0239 394.866 59.5006 395.377ZM58.6946 390.58C59.3879 389.809 60.2936 389.423 61.4116 389.423C62.5296 389.423 63.4396 389.809 64.1416 390.58C64.8349 391.352 65.1816 392.305 65.1816 393.44C65.1816 394.576 64.8349 395.529 64.1416 396.3C63.4396 397.072 62.5296 397.457 61.4116 397.457C60.2936 397.457 59.3879 397.072 58.6946 396.3C57.9926 395.529 57.6416 394.576 57.6416 393.44C57.6416 392.305 57.9926 391.352 58.6946 390.58Z" fill="white"/>
<path d="M57.8106 388.186V381.634H59.0066V386.86H64.9996V388.186H57.8106Z" fill="white"/>
<path d="M57.8106 380.569V379.256H63.2446L57.8106 374.459V373.146H64.9996V374.459H59.5916L64.9996 379.243V380.569H57.8106Z" fill="white"/>
<path d="M59.4486 364.387L60.0466 365.414C59.2319 366.012 58.8246 366.866 58.8246 367.975C58.8246 368.781 59.0586 369.427 59.5266 369.912C59.9946 370.389 60.6229 370.627 61.4116 370.627C62.1743 370.627 62.7983 370.384 63.2836 369.899C63.7603 369.405 63.9986 368.764 63.9986 367.975C63.9986 366.892 63.5869 366.038 62.7636 365.414L63.3746 364.374C64.5793 365.163 65.1816 366.354 65.1816 367.949C65.1816 369.11 64.8393 370.068 64.1546 370.822C63.4699 371.567 62.5556 371.94 61.4116 371.94C60.2676 371.94 59.3533 371.563 58.6686 370.809C57.9839 370.055 57.6416 369.102 57.6416 367.949C57.6416 366.337 58.2439 365.15 59.4486 364.387Z" fill="white"/>
<path d="M57.8106 363.628V356.192H59.0066V359.247H64.9996V360.573H59.0066V363.628H57.8106Z" fill="white"/>
<path d="M57.8106 355.115V353.802H63.2446L57.8106 349.005V347.692H64.9996V349.005H59.5916L64.9996 353.789V355.115H57.8106Z" fill="white"/>
<path d="M57.8106 346.317V345.004H60.5926V342.495L57.8106 340.597V339.076L61.1386 341.364L64.9996 338.894V340.454L61.7886 342.456V345.004H64.9996V346.317H57.8106Z" fill="white"/>
<path d="M58.9936 334.208L62.6986 335.755V331.881L58.9936 333.389V334.208ZM57.8106 335.014V332.518L64.9996 329.463V330.854L63.8686 331.348V336.249L64.9996 336.743V338.16L57.8106 335.014Z" fill="white"/>
<path d="M66.2476 328.184L65.0256 327.976C64.8696 328.366 64.5749 328.561 64.1416 328.561C63.8729 328.561 63.6433 328.47 63.4526 328.288C63.2533 328.098 63.1536 327.846 63.1536 327.534C63.1536 327.266 63.2446 327.036 63.4266 326.845C63.6086 326.655 63.8513 326.559 64.1546 326.559C64.2846 326.559 64.4146 326.581 64.5446 326.624L66.4426 327.378L66.2476 328.184Z" fill="white"/>
<path d="M59.5006 319.548C59.9686 320.051 60.6056 320.302 61.4116 320.302C62.2176 320.302 62.8589 320.051 63.3356 319.548C63.8036 319.037 64.0376 318.391 64.0376 317.611C64.0376 316.831 63.8036 316.186 63.3356 315.674C62.8589 315.163 62.2176 314.907 61.4116 314.907C60.6056 314.907 59.9686 315.163 59.5006 315.674C59.0239 316.186 58.7856 316.831 58.7856 317.611C58.7856 318.391 59.0239 319.037 59.5006 319.548ZM58.6946 314.751C59.3879 313.98 60.2936 313.594 61.4116 313.594C62.5296 313.594 63.4396 313.98 64.1416 314.751C64.8349 315.523 65.1816 316.476 65.1816 317.611C65.1816 318.747 64.8349 319.7 64.1416 320.471C63.4396 321.243 62.5296 321.628 61.4116 321.628C60.2936 321.628 59.3879 321.243 58.6946 320.471C57.9926 319.7 57.6416 318.747 57.6416 317.611C57.6416 316.476 57.9926 315.523 58.6946 314.751Z" fill="white"/>
<path d="M57.8106 312.91V305.474H59.0066V308.529H64.9996V309.855H59.0066V312.91H57.8106Z" fill="white"/>
<path d="M57.8106 300.774V298.083H64.9996V299.396H58.9936V300.774H57.8106Z" fill="white"/>
<path d="M57.8106 290.87V285.267H63.8036V284.396H66.4426V285.527L64.9996 285.644V291.78L66.4426 291.897V293.028H63.8036V292.092L57.8106 290.87ZM58.9676 289.804L63.8036 290.701V286.593H58.9676V289.804Z" fill="white"/>
<path d="M57.8106 283.272V281.946H60.6836L60.6836 277.331H57.8106L57.8106 276.018H64.9996V277.331H61.8666L61.8666 281.946H64.9996V283.272H57.8106Z" fill="white"/>
<path d="M57.8106 267.724H64.9996V269.05H63.3096V272.183L64.9996 273.106V274.562L62.9976 273.431C62.5123 274.393 61.7106 274.874 60.5926 274.874C59.7693 274.874 59.1019 274.601 58.5906 274.055C58.0706 273.5 57.8106 272.802 57.8106 271.962V267.724ZM59.0196 269.05V271.897C59.0196 272.391 59.1626 272.789 59.4486 273.093C59.7346 273.396 60.1159 273.548 60.5926 273.548C61.0693 273.548 61.4419 273.4 61.7106 273.106C61.9706 272.802 62.1006 272.399 62.1006 271.897V269.05H59.0196Z" fill="white"/>
<path d="M70.8107 891.311V887.086C70.8107 886.245 71.0707 885.548 71.5907 884.993C72.102 884.438 72.7694 884.161 73.5927 884.161C74.416 884.161 75.079 884.438 75.5817 884.993C76.0844 885.548 76.3357 886.245 76.3357 887.086V889.985H77.9997V891.311H70.8107ZM72.0197 889.985H75.1267V887.138C75.1267 886.635 74.9924 886.232 74.7237 885.929C74.4464 885.626 74.0694 885.474 73.5927 885.474C73.1074 885.474 72.726 885.626 72.4487 885.929C72.1627 886.232 72.0197 886.635 72.0197 887.138V889.985Z" fill="white"/>
<path d="M70.8107 883.059V876.624H72.0067V881.733H73.7357V877.131H74.9187V881.733H76.7907V876.429H77.9997V883.059H70.8107Z" fill="white"/>
<path d="M70.8107 875.15V868.13H77.9997V869.443H71.9937V873.837H77.9997V875.15H70.8107Z" fill="white"/>
<path d="M70.8107 866.733V860.298H72.0067V865.407H73.7357V860.805H74.9187V865.407H76.7907V860.103H77.9997V866.733H70.8107Z" fill="white"/>
<path d="M70.8107 859.123V851.687H72.0067V854.742H77.9997V856.068H72.0067V859.123H70.8107Z" fill="white"/>
<path d="M70.8107 850.61V849.297H76.2447L70.8107 844.5V843.187H77.9997V844.5H72.5917L77.9997 849.284V850.61H70.8107Z" fill="white"/>
<path d="M70.8107 841.812V840.486H76.8037V836.144H70.8107V834.831H76.8037V834.038H79.4427V835.156L77.9997 835.273V841.812H70.8107Z" fill="white"/>
<path d="M70.8107 833.001V831.688H76.2447L70.8107 826.891V825.578H77.9997V826.891H72.5917L77.9997 831.675V833.001H70.8107Z" fill="white"/>
<path d="M70.8107 817.301H77.9997V818.627H76.3097V821.76L77.9997 822.683V824.139L75.9977 823.008C75.5124 823.97 74.7107 824.451 73.5927 824.451C72.7694 824.451 72.102 824.178 71.5907 823.632C71.0707 823.077 70.8107 822.379 70.8107 821.539V817.301ZM72.0197 818.627V821.474C72.0197 821.968 72.1627 822.366 72.4487 822.67C72.7347 822.973 73.116 823.125 73.5927 823.125C74.0694 823.125 74.442 822.977 74.7107 822.683C74.9707 822.379 75.1007 821.976 75.1007 821.474V818.627H72.0197Z" fill="white"/>
<path d="M70.8107 811.978V810.665H76.2447L70.8107 805.868V804.555H77.9997V805.868H72.5917L77.9997 810.652V811.978H70.8107Z" fill="white"/>
<path d="M70.8107 799.245V794.656C70.8107 793.997 70.9797 793.468 71.3177 793.07C71.6557 792.662 72.1064 792.459 72.6697 792.459C73.2677 792.459 73.7054 792.662 73.9827 793.07C74.312 792.324 74.9144 791.952 75.7897 791.952C76.405 791.952 76.9294 792.177 77.3627 792.628C77.7874 793.07 77.9997 793.637 77.9997 794.331V799.245H70.8107ZM72.0067 797.919H73.6707V794.539C73.6707 794.296 73.5927 794.105 73.4367 793.967C73.272 793.819 73.077 793.746 72.8517 793.746C72.2884 793.746 72.0067 794.075 72.0067 794.734V797.919ZM74.8277 797.919H76.8037V794.383C76.8037 794.019 76.7127 793.737 76.5307 793.538C76.34 793.338 76.0974 793.239 75.8027 793.239C75.4994 793.239 75.261 793.334 75.0877 793.525C74.9144 793.707 74.8277 793.949 74.8277 794.253V797.919Z" fill="white"/>
<path d="M70.8107 783.054V781.728H77.9997V783.054H70.8107ZM70.8107 790.815V789.489H72.5397V786.759C72.5397 785.918 72.7867 785.225 73.2807 784.679C73.766 784.124 74.4204 783.847 75.2437 783.847C76.067 783.847 76.7344 784.124 77.2457 784.679C77.7484 785.225 77.9997 785.918 77.9997 786.759V790.815H70.8107ZM73.7227 789.489H76.7907V786.863C76.7907 786.326 76.6564 785.91 76.3877 785.615C76.119 785.32 75.7377 785.173 75.2437 785.173C74.741 785.173 74.364 785.32 74.1127 785.615C73.8527 785.91 73.7227 786.326 73.7227 786.863V789.489Z" fill="white"/>
<path d="M72.4487 772.97L73.0467 773.997C72.232 774.595 71.8247 775.449 71.8247 776.558C71.8247 777.364 72.0587 778.01 72.5267 778.495C72.9947 778.972 73.623 779.21 74.4117 779.21C75.1744 779.21 75.7984 778.967 76.2837 778.482C76.7604 777.988 76.9987 777.347 76.9987 776.558C76.9987 775.475 76.587 774.621 75.7637 773.997L76.3747 772.957C77.5794 773.746 78.1817 774.937 78.1817 776.532C78.1817 777.693 77.8394 778.651 77.1547 779.405C76.47 780.15 75.5557 780.523 74.4117 780.523C73.2677 780.523 72.3534 780.146 71.6687 779.392C70.984 778.638 70.6417 777.685 70.6417 776.532C70.6417 774.92 71.244 773.733 72.4487 772.97Z" fill="white"/>
<path d="M70.8107 772.211V764.775H72.0067V767.83H77.9997V769.156H72.0067V772.211H70.8107Z" fill="white"/>
<path d="M70.8107 764.075L70.8107 762.71L73.9177 761.618C74.2644 761.496 74.4377 761.241 74.4377 760.851L74.4377 758.693L70.8107 757.497V756.171L76.5437 758.069C76.977 758.216 77.328 758.472 77.5967 758.836C77.8654 759.191 77.9997 759.598 77.9997 760.058V761.995H76.8687V760.136C76.8687 759.694 76.678 759.403 76.2967 759.265L75.6207 759.044L75.6207 760.929C75.6207 761.908 75.1397 762.567 74.1777 762.905L70.8107 764.075Z" fill="white"/>
<path d="M70.8107 755.141V748.121H77.9997V749.434H71.9937V753.828H77.9997V755.141H70.8107Z" fill="white"/>
<path d="M70.8107 744.735V739.106H77.9997V740.432H72.0067V743.643L76.2187 744.436C77.406 744.653 77.9997 745.359 77.9997 746.555V747.283H76.7647V746.646C76.7647 746.126 76.5264 745.818 76.0497 745.723L70.8107 744.735Z" fill="white"/>
<path d="M70.8107 737.723V731.288H72.0067V736.397H73.7357V731.795H74.9187V736.397H76.7907V731.093H77.9997V737.723H70.8107Z" fill="white"/>
<path d="M70.8107 729.814V728.488H73.6837V723.873H70.8107V722.56H77.9997V723.873H74.8667V728.488H77.9997V729.814H70.8107Z" fill="white"/>
<path d="M70.8107 721.168V719.855H76.2447L70.8107 715.058V713.745H77.9997V715.058H72.5917L77.9997 719.842V721.168H70.8107Z" fill="white"/>
<path d="M70.8107 712.371V705.936H72.0067V711.045H73.7357V706.443H74.9187V711.045H76.7907V705.741H77.9997V712.371H70.8107Z" fill="white"/>
<path d="M79.2477 704.305L78.0257 704.097C77.8697 704.487 77.575 704.682 77.1417 704.682C76.873 704.682 76.6434 704.591 76.4527 704.409C76.2534 704.219 76.1537 703.967 76.1537 703.655C76.1537 703.387 76.2447 703.157 76.4267 702.966C76.6087 702.776 76.8514 702.68 77.1547 702.68C77.2847 702.68 77.4147 702.702 77.5447 702.745L79.4427 703.499L79.2477 704.305Z" fill="white"/>
<path d="M72.5007 695.669C72.9687 696.172 73.6057 696.423 74.4117 696.423C75.2177 696.423 75.859 696.172 76.3357 695.669C76.8037 695.158 77.0377 694.512 77.0377 693.732C77.0377 692.952 76.8037 692.307 76.3357 691.795C75.859 691.284 75.2177 691.028 74.4117 691.028C73.6057 691.028 72.9687 691.284 72.5007 691.795C72.024 692.307 71.7857 692.952 71.7857 693.732C71.7857 694.512 72.024 695.158 72.5007 695.669ZM71.6947 690.872C72.388 690.101 73.2937 689.715 74.4117 689.715C75.5297 689.715 76.4397 690.101 77.1417 690.872C77.835 691.644 78.1817 692.597 78.1817 693.732C78.1817 694.868 77.835 695.821 77.1417 696.592C76.4397 697.364 75.5297 697.749 74.4117 697.749C73.2937 697.749 72.388 697.364 71.6947 696.592C70.9927 695.821 70.6417 694.868 70.6417 693.732C70.6417 692.597 70.9927 691.644 71.6947 690.872Z" fill="white"/>
<path d="M70.8107 689.031V681.595H72.0067V684.65H77.9997V685.976H72.0067V689.031H70.8107Z" fill="white"/>
<path d="M76.8167 670.382H77.9997V676.57H76.6607L74.1647 672.228C73.8874 671.742 73.5234 671.5 73.0727 671.5C72.2494 671.5 71.8377 672.163 71.8377 673.489C71.8377 674.399 72.1627 675.213 72.8127 675.933L71.9677 676.726C71.0837 675.842 70.6417 674.745 70.6417 673.437C70.6417 672.449 70.8497 671.664 71.2657 671.084C71.673 670.494 72.284 670.2 73.0987 670.2C73.9307 670.2 74.5937 670.642 75.0877 671.526L76.8167 674.62V670.382Z" fill="white"/>
<path d="M70.8107 663.17V657.567H76.8037V656.696H79.4427V657.827L77.9997 657.944V664.08L79.4427 664.197V665.328H76.8037V664.392L70.8107 663.17ZM71.9677 662.104L76.8037 663.001V658.893H71.9677V662.104Z" fill="white"/>
<path d="M70.8107 655.572V654.246H73.6837V649.631H70.8107V648.318H77.9997V649.631H74.8667V654.246H77.9997V655.572H70.8107Z" fill="white"/>
<path d="M70.8107 646.926V640.491H72.0067V645.6H73.7357V640.998H74.9187V645.6H76.7907V640.296H77.9997V646.926H70.8107Z" fill="white"/>
<path d="M70.8107 639.017V637.704H76.2447L70.8107 632.907V631.594H77.9997V632.907H72.5917L77.9997 637.691V639.017H70.8107ZM68.4707 633.973L69.1597 633.297C69.7924 633.886 70.1087 634.575 70.1087 635.364C70.1087 636.153 69.7924 636.846 69.1597 637.444L68.4707 636.768C68.8694 636.378 69.0687 635.91 69.0687 635.364C69.0687 634.827 68.8694 634.363 68.4707 633.973Z" fill="white"/>
<path opacity="0.5" d="M5.00006 1446.18L5 9.57251e-05" stroke="white" stroke-width="0.902439"/>
</svg>
