<svg width="1081" height="6" viewBox="0 0 1081 6" fill="none" xmlns="http://www.w3.org/2000/svg">
<path fill-rule="evenodd" clip-rule="evenodd" d="M1.00023 5.55273H0V0.552734H1.00023V5.55273ZM5.00116 5.55273H3.00069V0.552734H5.00116V5.55273ZM9.00208 5.55273H7.00162V0.552734H9.00208V5.55273ZM13.003 5.55273H11.0025V0.552734H13.003V5.55273ZM17.0039 5.55273H15.0035V0.552734H17.0039V5.55273ZM21.0049 5.55273H19.0044V0.552734H21.0049V5.55273ZM25.0058 5.55273H23.0053V0.552734H25.0058V5.55273ZM29.0067 5.55273H27.0063V0.552734H29.0067V5.55273ZM33.0076 5.55273H31.0072V0.552734H33.0076V5.55273ZM37.0086 5.55273H35.0081V0.552734H37.0086V5.55273ZM41.0095 5.55273H39.009V0.552734H41.0095V5.55273ZM45.0104 5.55273H43.01V0.552734H45.0104V5.55273ZM49.0113 5.55273H47.0109V0.552734H49.0113V5.55273ZM53.0123 5.55273H51.0118V0.552734H53.0123V5.55273ZM57.0132 5.55273H55.0127V0.552734H57.0132V5.55273ZM61.0141 5.55273H59.0136V0.552734H61.0141V5.55273ZM65.015 5.55273H63.0146V0.552734H65.015V5.55273ZM69.016 5.55273H67.0155V0.552734H69.016V5.55273ZM73.0169 5.55273H71.0164V0.552734H73.0169V5.55273ZM77.0178 5.55273H75.0174V0.552734H77.0178V5.55273ZM81.0188 5.55273H79.0183V0.552734H81.0188V5.55273ZM85.0197 5.55273H83.0192V0.552734H85.0197V5.55273ZM89.0206 5.55273H87.0201V0.552734H89.0206V5.55273ZM93.0215 5.55273H91.0211V0.552734H93.0215V5.55273ZM97.0225 5.55273H95.022V0.552734H97.0225V5.55273ZM101.023 5.55273H99.0229V0.552734H101.023V5.55273ZM105.024 5.55273H103.024V0.552734H105.024V5.55273ZM109.025 5.55273H107.025V0.552734H109.025V5.55273ZM113.026 5.55273H111.026V0.552734H113.026V5.55273ZM117.027 5.55273H115.027V0.552734H117.027V5.55273ZM121.028 5.55273H119.028V0.552734H121.028V5.55273ZM125.029 5.55273H123.029V0.552734H125.029V5.55273ZM129.03 5.55273H127.029V0.552734H129.03V5.55273ZM133.031 5.55273H131.03V0.552734H133.031V5.55273ZM137.032 5.55273H135.031V0.552734H137.032V5.55273ZM141.033 5.55273H139.032V0.552734H141.033V5.55273ZM145.034 5.55273H143.033V0.552734H145.034V5.55273ZM149.035 5.55273H147.034V0.552734H149.035V5.55273ZM153.035 5.55273H151.035V0.552734H153.035V5.55273ZM157.036 5.55273H155.036V0.552734H157.036V5.55273ZM161.037 5.55273H159.037V0.552734H161.037V5.55273ZM165.038 5.55273H163.038V0.552734H165.038V5.55273ZM169.039 5.55273H167.039V0.552734H169.039V5.55273ZM173.04 5.55273H171.04V0.552734H173.04V5.55273ZM177.041 5.55273H175.04V0.552734H177.041V5.55273ZM181.042 5.55273H179.041V0.552734H181.042V5.55273ZM185.043 5.55273H183.042V0.552734H185.043V5.55273ZM189.044 5.55273H187.043V0.552734H189.044V5.55273ZM193.045 5.55273H191.044V0.552734H193.045V5.55273ZM197.045 5.55273H195.045V0.552734H197.045V5.55273ZM201.046 5.55273H199.046V0.552734H201.046V5.55273ZM205.047 5.55273H203.047V0.552734H205.047V5.55273ZM209.048 5.55273H207.048V0.552734H209.048V5.55273ZM213.049 5.55273H211.049V0.552734H213.049V5.55273ZM217.05 5.55273H215.05V0.552734H217.05V5.55273ZM221.051 5.55273H219.051V0.552734H221.051V5.55273ZM225.052 5.55273H223.051V0.552734H225.052V5.55273ZM229.053 5.55273H227.052V0.552734H229.053V5.55273ZM233.054 5.55273H231.053V0.552734H233.054V5.55273ZM237.055 5.55273H235.054V0.552734H237.055V5.55273ZM241.056 5.55273H239.055V0.552734H241.056V5.55273ZM245.056 5.55273H243.056V0.552734H245.056V5.55273ZM249.057 5.55273H247.057V0.552734H249.057V5.55273ZM253.058 5.55273H251.058V0.552734H253.058V5.55273ZM257.059 5.55273H255.059V0.552734H257.059V5.55273ZM261.06 5.55273H259.06V0.552734H261.06V5.55273ZM265.061 5.55273H263.061V0.552734H265.061V5.55273ZM269.062 5.55273H267.062V0.552734H269.062V5.55273ZM273.063 5.55273H271.062V0.552734H273.063V5.55273ZM277.064 5.55273H275.063V0.552734H277.064V5.55273ZM281.065 5.55273H279.064V0.552734H281.065V5.55273ZM285.066 5.55273H283.065V0.552734H285.066V5.55273ZM289.067 5.55273H287.066V0.552734H289.067V5.55273ZM293.067 5.55273H291.067V0.552734H293.067V5.55273ZM297.068 5.55273H295.068V0.552734H297.068V5.55273ZM301.069 5.55273H299.069V0.552734H301.069V5.55273ZM305.07 5.55273H303.07V0.552734H305.07V5.55273ZM309.071 5.55273H307.071V0.552734H309.071V5.55273ZM313.072 5.55273H311.072V0.552734H313.072V5.55273ZM317.073 5.55273H315.073V0.552734H317.073V5.55273ZM321.074 5.55273H319.073V0.552734H321.074V5.55273ZM325.075 5.55273H323.074V0.552734H325.075V5.55273ZM329.076 5.55273H327.075V0.552734H329.076V5.55273ZM333.077 5.55273H331.076V0.552734H333.077V5.55273ZM337.078 5.55273H335.077V0.552734H337.078V5.55273ZM341.078 5.55273H339.078V0.552734H341.078V5.55273ZM345.079 5.55273H343.079V0.552734H345.079V5.55273ZM349.08 5.55273H347.08V0.552734H349.08V5.55273ZM353.081 5.55273H351.081V0.552734H353.081V5.55273ZM357.082 5.55273H355.082V0.552734H357.082V5.55273ZM361.083 5.55273H359.083V0.552734H361.083V5.55273ZM365.084 5.55273H363.083V0.552734H365.084V5.55273ZM369.085 5.55273H367.084V0.552734H369.085V5.55273ZM373.086 5.55273H371.085V0.552734H373.086V5.55273ZM377.087 5.55273H375.086V0.552734H377.087V5.55273ZM381.088 5.55273H379.087V0.552734H381.088V5.55273ZM385.089 5.55273H383.088V0.552734H385.089V5.55273ZM389.089 5.55273H387.089V0.552734H389.089V5.55273ZM393.09 5.55273H391.09V0.552734H393.09V5.55273ZM397.091 5.55273H395.091V0.552734H397.091V5.55273ZM401.092 5.55273H399.092V0.552734H401.092V5.55273ZM405.093 5.55273H403.093V0.552734H405.093V5.55273ZM409.094 5.55273H407.094V0.552734H409.094V5.55273ZM413.095 5.55273H411.094V0.552734H413.095V5.55273ZM417.096 5.55273H415.095V0.552734H417.096V5.55273ZM421.097 5.55273H419.096V0.552734H421.097V5.55273ZM425.098 5.55273H423.097V0.552734H425.098V5.55273ZM429.099 5.55273H427.098V0.552734H429.099V5.55273ZM433.1 5.55273H431.099V0.552734H433.1V5.55273ZM437.1 5.55273H435.1V0.552734H437.1V5.55273ZM441.101 5.55273H439.101V0.552734H441.101V5.55273ZM445.102 5.55273H443.102V0.552734H445.102V5.55273ZM449.103 5.55273H447.103V0.552734H449.103V5.55273ZM453.104 5.55273H451.104V0.552734H453.104V5.55273ZM457.105 5.55273H455.105V0.552734H457.105V5.55273ZM461.106 5.55273H459.105V0.552734H461.106V5.55273ZM465.107 5.55273H463.106V0.552734H465.107V5.55273ZM469.108 5.55273H467.107V0.552734H469.108V5.55273ZM473.109 5.55273H471.108V0.552734H473.109V5.55273ZM477.11 5.55273H475.109V0.552734H477.11V5.55273ZM481.111 5.55273H479.11V0.552734H481.111V5.55273ZM485.111 5.55273H483.111V0.552734H485.111V5.55273ZM489.112 5.55273H487.112V0.552734H489.112V5.55273ZM493.113 5.55273H491.113V0.552734H493.113V5.55273ZM497.114 5.55273H495.114V0.552734H497.114V5.55273ZM501.115 5.55273H499.115V0.552734H501.115V5.55273ZM505.116 5.55273H503.116V0.552734H505.116V5.55273ZM509.117 5.55273H507.116V0.552734H509.117V5.55273ZM513.118 5.55273H511.117V0.552734H513.118V5.55273ZM517.119 5.55273H515.118V0.552734H517.119V5.55273ZM521.12 5.55273H519.119V0.552734H521.12V5.55273ZM525.121 5.55273H523.12V0.552734H525.121V5.55273ZM529.122 5.55273H527.121V0.552734H529.122V5.55273ZM533.123 5.55273H531.122V0.552734H533.123V5.55273ZM537.124 5.55273H535.123V0.552734H537.124V5.55273ZM541.125 5.55273H539.124V0.552734H541.125V5.55273ZM545.126 5.55273H543.125V0.552734H545.126V5.55273ZM549.127 5.55273H547.126V0.552734H549.127V5.55273ZM553.128 5.55273H551.127V0.552734H553.128V5.55273ZM557.129 5.55273H555.128V0.552734H557.129V5.55273ZM561.13 5.55273H559.129V0.552734H561.13V5.55273ZM565.131 5.55273H563.13V0.552734H565.131V5.55273ZM569.131 5.55273H567.131V0.552734H569.131V5.55273ZM573.133 5.55273H571.132V0.552734H573.133V5.55273ZM577.133 5.55273H575.133V0.552734H577.133V5.55273ZM581.134 5.55273H579.134V0.552734H581.134V5.55273ZM585.135 5.55273H583.135V0.552734H585.135V5.55273ZM589.136 5.55273H587.136V0.552734H589.136V5.55273ZM593.137 5.55273H591.137V0.552734H593.137V5.55273ZM597.138 5.55273H595.138V0.552734H597.138V5.55273ZM601.139 5.55273H599.139V0.552734H601.139V5.55273ZM605.14 5.55273H603.14V0.552734H605.14V5.55273ZM609.141 5.55273H607.141V0.552734H609.141V5.55273ZM613.142 5.55273H611.142V0.552734H613.142V5.55273ZM617.143 5.55273H615.143V0.552734H617.143V5.55273ZM621.144 5.55273H619.144V0.552734H621.144V5.55273ZM625.145 5.55273H623.145V0.552734H625.145V5.55273ZM629.146 5.55273H627.146V0.552734H629.146V5.55273ZM633.147 5.55273H631.147V0.552734H633.147V5.55273ZM637.148 5.55273H635.148V0.552734H637.148V5.55273ZM641.149 5.55273H639.149V0.552734H641.149V5.55273ZM645.15 5.55273H643.15V0.552734H645.15V5.55273ZM649.151 5.55273H647.151V0.552734H649.151V5.55273ZM653.152 5.55273H651.152V0.552734H653.152V5.55273ZM657.153 5.55273H655.153V0.552734H657.153V5.55273ZM661.154 5.55273H659.154V0.552734H661.154V5.55273ZM665.155 5.55273H663.154V0.552734H665.155V5.55273ZM669.156 5.55273H667.155V0.552734H669.156V5.55273ZM673.157 5.55273H671.156V0.552734H673.157V5.55273ZM677.158 5.55273H675.157V0.552734H677.158V5.55273ZM681.159 5.55273H679.158V0.552734H681.159V5.55273ZM685.16 5.55273H683.159V0.552734H685.16V5.55273ZM689.161 5.55273H687.16V0.552734H689.161V5.55273ZM693.162 5.55273H691.161V0.552734H693.162V5.55273ZM697.163 5.55273H695.162V0.552734H697.163V5.55273ZM701.164 5.55273H699.163V0.552734H701.164V5.55273ZM705.165 5.55273H703.164V0.552734H705.165V5.55273ZM709.166 5.55273H707.165V0.552734H709.166V5.55273ZM713.167 5.55273H711.166V0.552734H713.167V5.55273ZM717.168 5.55273H715.167V0.552734H717.168V5.55273ZM721.169 5.55273H719.168V0.552734H721.169V5.55273ZM725.17 5.55273H723.169V0.552734H725.17V5.55273ZM729.171 5.55273H727.17V0.552734H729.171V5.55273ZM733.172 5.55273H731.171V0.552734H733.172V5.55273ZM737.173 5.55273H735.172V0.552734H737.173V5.55273ZM741.174 5.55273H739.173V0.552734H741.174V5.55273ZM745.174 5.55273H743.174V0.552734H745.174V5.55273ZM749.175 5.55273H747.175V0.552734H749.175V5.55273ZM753.176 5.55273H751.176V0.552734H753.176V5.55273ZM757.177 5.55273H755.177V0.552734H757.177V5.55273ZM761.178 5.55273H759.178V0.552734H761.178V5.55273ZM765.179 5.55273H763.179V0.552734H765.179V5.55273ZM769.18 5.55273H767.18V0.552734H769.18V5.55273ZM773.181 5.55273H771.181V0.552734H773.181V5.55273ZM777.182 5.55273H775.182V0.552734H777.182V5.55273ZM781.183 5.55273H779.183V0.552734H781.183V5.55273ZM785.184 5.55273H783.184V0.552734H785.184V5.55273ZM789.185 5.55273H787.185V0.552734H789.185V5.55273ZM793.186 5.55273H791.186V0.552734H793.186V5.55273ZM797.187 5.55273H795.187V0.552734H797.187V5.55273ZM801.188 5.55273H799.188V0.552734H801.188V5.55273ZM805.189 5.55273H803.189V0.552734H805.189V5.55273ZM809.19 5.55273H807.19V0.552734H809.19V5.55273ZM813.191 5.55273H811.191V0.552734H813.191V5.55273ZM817.192 5.55273H815.192V0.552734H817.192V5.55273ZM821.193 5.55273H819.193V0.552734H821.193V5.55273ZM825.194 5.55273H823.194V0.552734H825.194V5.55273ZM829.195 5.55273H827.195V0.552734H829.195V5.55273ZM833.196 5.55273H831.195V0.552734H833.196V5.55273ZM837.197 5.55273H835.196V0.552734H837.197V5.55273ZM841.198 5.55273H839.197V0.552734H841.198V5.55273ZM845.199 5.55273H843.198V0.552734H845.199V5.55273ZM849.2 5.55273H847.199V0.552734H849.2V5.55273ZM853.201 5.55273H851.2V0.552734H853.201V5.55273ZM857.202 5.55273H855.201V0.552734H857.202V5.55273ZM861.203 5.55273H859.202V0.552734H861.203V5.55273ZM865.204 5.55273H863.203V0.552734H865.204V5.55273ZM869.205 5.55273H867.204V0.552734H869.205V5.55273ZM873.206 5.55273H871.205V0.552734H873.206V5.55273ZM877.207 5.55273H875.206V0.552734H877.207V5.55273ZM881.208 5.55273H879.207V0.552734H881.208V5.55273ZM885.209 5.55273H883.208V0.552734H885.209V5.55273ZM889.21 5.55273H887.209V0.552734H889.21V5.55273ZM893.211 5.55273H891.21V0.552734H893.211V5.55273ZM897.212 5.55273H895.211V0.552734H897.212V5.55273ZM901.213 5.55273H899.212V0.552734H901.213V5.55273ZM905.214 5.55273H903.213V0.552734H905.214V5.55273ZM909.214 5.55273H907.214V0.552734H909.214V5.55273ZM913.216 5.55273H911.215V0.552734H913.216V5.55273ZM917.216 5.55273H915.216V0.552734H917.216V5.55273ZM921.217 5.55273H919.217V0.552734H921.217V5.55273ZM925.218 5.55273H923.218V0.552734H925.218V5.55273ZM929.219 5.55273H927.219V0.552734H929.219V5.55273ZM933.22 5.55273H931.22V0.552734H933.22V5.55273ZM937.221 5.55273H935.221V0.552734H937.221V5.55273ZM941.222 5.55273H939.222V0.552734H941.222V5.55273ZM945.223 5.55273H943.223V0.552734H945.223V5.55273ZM949.224 5.55273H947.224V0.552734H949.224V5.55273ZM953.225 5.55273H951.225V0.552734H953.225V5.55273ZM957.226 5.55273H955.226V0.552734H957.226V5.55273ZM961.227 5.55273H959.227V0.552734H961.227V5.55273ZM965.228 5.55273H963.228V0.552734H965.228V5.55273ZM969.229 5.55273H967.229V0.552734H969.229V5.55273ZM973.23 5.55273H971.23V0.552734H973.23V5.55273ZM977.231 5.55273H975.231V0.552734H977.231V5.55273ZM981.232 5.55273H979.232V0.552734H981.232V5.55273ZM985.233 5.55273H983.233V0.552734H985.233V5.55273ZM989.234 5.55273H987.234V0.552734H989.234V5.55273ZM993.235 5.55273H991.235V0.552734H993.235V5.55273ZM997.236 5.55273H995.236V0.552734H997.236V5.55273ZM1001.24 5.55273H999.237V0.552734H1001.24V5.55273ZM1005.24 5.55273H1003.24V0.552734H1005.24V5.55273ZM1009.24 5.55273H1007.24V0.552734H1009.24V5.55273ZM1013.24 5.55273H1011.24V0.552734H1013.24V5.55273ZM1017.24 5.55273H1015.24V0.552734H1017.24V5.55273ZM1021.24 5.55273H1019.24V0.552734H1021.24V5.55273ZM1025.24 5.55273H1023.24V0.552734H1025.24V5.55273ZM1029.24 5.55273H1027.24V0.552734H1029.24V5.55273ZM1033.24 5.55273H1031.24V0.552734H1033.24V5.55273ZM1037.25 5.55273H1035.25V0.552734H1037.25V5.55273ZM1041.25 5.55273H1039.25V0.552734H1041.25V5.55273ZM1045.25 5.55273H1043.25V0.552734H1045.25V5.55273ZM1049.25 5.55273H1047.25V0.552734H1049.25V5.55273ZM1053.25 5.55273H1051.25V0.552734H1053.25V5.55273ZM1057.25 5.55273H1055.25V0.552734H1057.25V5.55273ZM1061.25 5.55273H1059.25V0.552734H1061.25V5.55273ZM1065.25 5.55273H1063.25V0.552734H1065.25V5.55273ZM1069.25 5.55273H1067.25V0.552734H1069.25V5.55273ZM1073.25 5.55273H1071.25V0.552734H1073.25V5.55273ZM1077.26 5.55273H1075.26V0.552734H1077.26V5.55273ZM1080.25 5.55273H1079.26V0.552734H1080.25V5.55273Z" fill="white"/>
</svg>
