<svg width="343" height="163" viewBox="0 0 343 163" fill="none" xmlns="http://www.w3.org/2000/svg">
<path fill-rule="evenodd" clip-rule="evenodd" d="M83.7112 1.39087C60.1367 1.39087 40.5545 8.6618 24.9275 23.1858C9.50156 37.5098 1.77051 56.8913 1.77051 81.3885C1.77051 105.885 9.50069 125.359 24.9274 139.869C40.5539 154.207 60.1361 161.386 83.7112 161.386C107.286 161.386 126.775 154.207 142.215 139.871C157.643 125.361 165.374 105.886 165.374 81.3885C165.374 56.8913 157.643 37.51 142.218 23.1859L142.215 23.1838C126.774 8.66176 107.286 1.39087 83.7112 1.39087ZM24.2467 22.4533C40.0785 7.73906 59.9124 0.390869 83.7112 0.390869C107.509 0.390869 127.251 7.73856 142.899 22.4537C158.561 36.9977 166.374 56.6622 166.374 81.3885C166.374 106.115 158.561 125.871 142.9 140.599L142.898 140.601C127.25 155.132 107.508 162.386 83.7112 162.386C59.9142 162.386 40.0811 155.132 24.249 140.603L24.2445 140.599C8.58397 125.871 0.770508 106.115 0.770508 81.3885C0.770508 56.662 8.58394 36.9974 24.2467 22.4533ZM203.764 29.2157L220.03 46.5474C235.385 32.8099 252.776 25.9281 272.185 25.9281C286.377 25.9281 297.105 28.1282 304.3 32.5958C311.535 37.0879 315.154 43.8466 315.154 52.798C315.154 62.6454 309.833 70.563 299.358 76.5487L206.899 129.699V157.5H338.026V133.24H246.116L313.855 95.3861C332.613 84.9038 341.912 70.8948 341.912 53.3531C341.912 36.0963 335.681 23.2161 323.252 14.6259L323.245 14.6211C310.959 5.81876 294.325 1.39087 273.295 1.39087C245.647 1.39087 222.481 10.6667 203.764 29.2157ZM202.714 28.8503C221.688 9.87643 245.226 0.390869 273.295 0.390869C294.455 0.390869 311.315 4.84483 323.825 13.8062C336.561 22.6109 342.912 35.822 342.912 53.3531C342.912 71.3414 333.336 85.6454 314.343 96.2591L249.955 132.24H339.026V158.5H205.899V129.12L298.86 75.6811L298.862 75.6804C309.113 69.8227 314.154 62.1959 314.154 52.798C314.154 44.1694 310.695 37.7432 303.773 33.4453C296.812 29.123 286.306 26.9281 272.185 26.9281C252.887 26.9281 235.609 33.8156 220.335 47.6174L219.971 47.9464L202.372 29.1928L202.714 28.8503ZM43.3831 39.9567C53.3035 29.8491 66.7664 24.8177 83.7112 24.8177C100.654 24.8177 114.026 29.848 123.762 39.9569C133.685 49.8816 138.617 63.7153 138.617 81.3885C138.617 99.0643 133.683 112.989 123.762 123.098C114.025 133.022 100.653 137.959 83.7112 137.959C66.7691 137.959 53.3074 133.022 43.3864 123.101L43.3798 123.094C33.6451 112.985 28.8059 99.0617 28.8059 81.3885C28.8059 63.7159 33.645 49.8821 43.3831 39.9567ZM44.0969 40.6571C34.5896 50.3473 29.8059 63.9013 29.8059 81.3885C29.8059 98.8733 34.5883 112.521 44.0969 122.398C53.7912 132.09 66.9758 136.959 83.7112 136.959C100.449 136.959 113.54 132.089 123.048 122.397C132.742 112.521 137.617 98.8727 137.617 81.3885C137.617 63.9039 132.742 50.3511 123.051 40.6605L123.045 40.6538C113.536 30.7792 100.446 25.8177 83.7112 25.8177C66.9766 25.8177 53.792 30.7792 44.0969 40.6571Z" fill="url(#paint0_linear)"/>
<defs>
<linearGradient id="paint0_linear" x1="173.161" y1="-51" x2="173.161" y2="230.915" gradientUnits="userSpaceOnUse">
<stop stop-color="white"/>
<stop offset="1" stop-color="#8533FF"/>
</linearGradient>
</defs>
</svg>
