<svg width="48" height="49" viewBox="0 0 48 49" fill="none" xmlns="http://www.w3.org/2000/svg">
<path d="M24.0295 28.0578C21.9295 28.0578 20.2295 26.3578 20.2295 24.2578C20.2295 22.1578 21.9295 20.4578 24.0295 20.4578C26.1295 20.4578 27.8295 22.1578 27.8295 24.2578C27.8295 26.3578 26.0295 28.0578 24.0295 28.0578ZM24.0295 22.0578C22.8295 22.0578 21.8295 23.0578 21.8295 24.2578C21.8295 25.4578 22.8295 26.4578 24.0295 26.4578C25.2295 26.4578 26.2295 25.4578 26.2295 24.2578C26.2295 23.0578 25.2295 22.0578 24.0295 22.0578Z" fill="white"/>
<path d="M24.0295 37.0579C17.0295 37.0579 11.2295 31.3579 11.2295 24.2579C11.2295 17.1579 16.9295 11.5579 24.0295 11.5579C26.1295 11.5579 28.1295 12.0579 30.0295 13.0579C30.4295 13.2579 30.5295 13.6579 30.3295 14.0579C30.1295 14.4579 29.7295 14.5579 29.3295 14.3579C27.7295 13.4579 25.9295 13.0579 24.0295 13.0579C17.8295 13.0579 12.8295 18.0579 12.8295 24.2579C12.8295 30.4579 17.7295 35.5579 24.0295 35.5579C30.2295 35.5579 35.2295 30.5579 35.2295 24.3579C35.2295 22.9579 35.0295 21.6579 34.5295 20.3579C34.4295 19.9579 34.6295 19.5579 34.9295 19.3579C35.3295 19.2579 35.7295 19.4579 35.9295 19.7579C36.4295 21.1579 36.7295 22.7579 36.7295 24.2579C36.7295 31.3579 31.0295 37.0579 24.0295 37.0579Z" fill="white"/>
<path d="M24.0295 46.0579C12.0295 46.0579 2.22946 36.2579 2.22946 24.3579C2.22946 12.4579 12.0295 2.55786 24.0295 2.55786C36.0295 2.55786 45.8295 12.3579 45.8295 24.3579C45.8295 36.3579 35.9295 46.0579 24.0295 46.0579ZM24.0295 4.05786C12.8295 4.05786 3.82946 13.1579 3.82946 24.2579C3.82946 35.3579 12.8295 44.5579 24.0295 44.5579C35.2295 44.5579 44.2295 35.4579 44.2295 24.3579C44.2295 13.2579 35.1295 4.05786 24.0295 4.05786Z" fill="white"/>
<path d="M24.0295 48.0578C23.6295 48.0578 23.2295 47.7578 23.2295 47.2578V43.2578C23.2295 42.8578 23.5295 42.4578 24.0295 42.4578C24.4295 42.4578 24.8295 42.7578 24.8295 43.2578V47.2578C24.7295 47.7578 24.4295 48.0578 24.0295 48.0578Z" fill="white"/>
<path d="M47.0295 25.0578H43.0295C42.6295 25.0578 42.2295 24.7578 42.2295 24.2578C42.2295 23.7578 42.5295 23.4578 43.0295 23.4578H47.0295C47.4295 23.4578 47.8295 23.7578 47.8295 24.2578C47.8295 24.7578 47.4295 25.0578 47.0295 25.0578Z" fill="white"/>
<path d="M5.02946 25.0579H1.02946C0.629462 25.0579 0.229462 24.7579 0.229462 24.2579C0.229462 23.7579 0.529462 23.5579 1.02946 23.5579H5.02946C5.42946 23.5579 5.82946 23.8579 5.82946 24.3579C5.82946 24.8579 5.42946 25.0579 5.02946 25.0579Z" fill="white"/>
<path d="M24.0295 6.05786C23.6295 6.05786 23.2295 5.75786 23.2295 5.25786V1.25786C23.2295 0.857861 23.5295 0.557861 24.0295 0.557861C24.4295 0.557861 24.8295 0.857861 24.8295 1.35786V5.35786C24.7295 5.75786 24.4295 6.05786 24.0295 6.05786Z" fill="white"/>
<path d="M47.0295 48.0579H44.0295C43.6295 48.0579 43.2295 47.7579 43.2295 47.2579C43.2295 46.7579 43.5295 46.4579 44.0295 46.4579H46.2295V44.2579C46.2295 43.8579 46.5295 43.4579 47.0295 43.4579C47.4295 43.4579 47.8295 43.7579 47.8295 44.2579V47.2579C47.7295 47.7579 47.4295 48.0579 47.0295 48.0579ZM4.02946 48.0579H1.02946C0.629462 48.0579 0.229462 47.7579 0.229462 47.2579V44.2579C0.229462 43.8579 0.529462 43.5579 1.02946 43.5579C1.42946 43.5579 1.82946 43.8579 1.82946 44.3579V46.5579H4.02946C4.42946 46.5579 4.82946 46.8579 4.82946 47.3579C4.82946 47.8579 4.42946 48.0579 4.02946 48.0579ZM47.0295 5.05786C46.6295 5.05786 46.2295 4.75786 46.2295 4.25786V2.05786H44.0295C43.6295 2.05786 43.2295 1.75786 43.2295 1.25786C43.2295 0.757861 43.5295 0.557861 44.0295 0.557861H47.0295C47.4295 0.557861 47.8295 0.857861 47.8295 1.35786V4.35786C47.7295 4.75786 47.4295 5.05786 47.0295 5.05786ZM1.02946 5.05786C0.529462 5.05786 0.229462 4.75786 0.229462 4.35786V1.35786C0.229462 0.857861 0.529462 0.557861 1.02946 0.557861H4.02946C4.42946 0.557861 4.82946 0.857861 4.82946 1.35786C4.82946 1.85786 4.42946 2.05786 4.02946 2.05786H1.72946V4.25786C1.72946 4.75786 1.42946 5.05786 1.02946 5.05786Z" fill="#7A22FF"/>
<path d="M33.0295 20.0578C32.6295 20.0578 32.2295 19.7578 32.2295 19.2578V17.0578H30.0295C29.6295 17.0578 29.2295 16.7578 29.2295 16.2578C29.2295 15.8578 29.5295 15.4578 30.0295 15.4578H32.2295V13.2578C32.2295 12.8578 32.5295 12.4578 33.0295 12.4578C33.4295 12.4578 33.8295 12.7578 33.8295 13.2578V15.5578H36.0295C36.4295 15.5578 36.8295 15.8578 36.8295 16.3578C36.8295 16.7578 36.5295 17.1578 36.0295 17.1578H33.8295V19.3578C33.7295 19.7578 33.4295 20.0578 33.0295 20.0578Z" fill="#7A22FF"/>
</svg>
