<svg width="53" height="38" viewBox="0 0 53 38" fill="none" xmlns="http://www.w3.org/2000/svg">
<path d="M26.3 24.658C23.4 24.658 20.6 22.958 19.4 20.058C19.2 19.658 19.4 19.158 19.8 19.058C20.2 18.858 20.7 19.058 20.8 19.458C22 22.458 25.5 23.858 28.5 22.658C29.9 22.058 31.1 20.958 31.7 19.458C31.9 19.058 32.3 18.858 32.7 19.058C33.1 19.258 33.3 19.658 33.1 20.058C32.3 21.858 30.9 23.358 29.1 24.058C28.3 24.458 27.3 24.658 26.3 24.658Z" fill="#7A22FF"/>
<path d="M26.4 30.8578C21.8 30.8578 17.5 28.1578 15.7 23.6578C15.5 23.2578 15.7 22.7578 16.1 22.6578C16.5 22.4578 17 22.6578 17.1 23.0578C19.2 28.1578 25.1 30.5578 30.2 28.4578C32.7 27.4578 34.6 25.4578 35.6 23.0578C35.8 22.6578 36.2 22.4578 36.6 22.6578C37 22.8578 37.2 23.2578 37 23.6578C35.8 26.5578 33.6 28.7578 30.7 29.9578C29.3 30.5578 27.8 30.8578 26.4 30.8578Z" fill="#7A22FF"/>
<path d="M26.4 37.2578C20 37.2578 13.8 33.4578 11.2 27.1578C11 26.7578 11.2 26.2578 11.6 26.1578C12 25.9578 12.5 26.1578 12.6 26.5578C15.7 34.1578 24.4 37.7578 32 34.5578C35.7 33.0578 38.5 30.1578 40 26.5578C40.2 26.1578 40.6 25.9578 41 26.1578C41.4 26.3578 41.6 26.7578 41.4 27.1578C39.7 31.2578 36.6 34.3578 32.5 36.0578C30.6 36.8578 28.5 37.2578 26.4 37.2578Z" fill="#7A22FF"/>
<path d="M26.3 17.1578C21.9 17.1578 19.3 14.1578 18.9 11.5578L0.7 10.5578C0.3 10.4578 0 10.1578 0 9.75781V6.35781C0 5.95781 0.4 5.55781 0.8 5.55781H17.9C18.2 4.05781 19.2 2.25781 21.9 2.25781H30.8C33.5 2.25781 34.6 4.15781 34.8 5.55781H51.9C52.3 5.55781 52.7 5.95781 52.7 6.35781V9.65781C52.7 10.0578 52.4 10.4578 52 10.4578L33.8 11.5578C33.3 14.1578 30.8 17.1578 26.3 17.1578ZM1.6 8.95781L19.7 10.0578C20.1 10.0578 20.4 10.4578 20.4 10.8578C20.4 12.5578 22.1 15.6578 26.3 15.6578C30.4 15.6578 32.2 12.5578 32.2 10.8578C32.2 10.4578 32.5 10.0578 32.9 10.0578L51 8.95781V7.15781H34C33.6 7.15781 33.2 6.75781 33.2 6.35781C33.2 5.95781 33.1 3.85781 30.7 3.85781H21.8C19.4 3.85781 19.3 5.95781 19.3 6.35781C19.3 6.75781 18.9 7.15781 18.5 7.15781H1.5V8.95781H1.6Z" fill="white"/>
<path d="M29.7 8.25796H23C22.6 8.25796 22.2 7.85796 22.2 7.45796C22.2 7.05796 22.6 6.65796 23 6.65796H29.7C30.1 6.65796 30.5 7.05796 30.5 7.45796C30.5 7.95796 30.1 8.25796 29.7 8.25796Z" fill="white"/>
<path d="M6.3 12.7579C5.9 12.7579 5.5 12.3579 5.5 11.9579V10.8579C5.5 10.4579 5.9 10.0579 6.3 10.0579C6.7 10.0579 7.1 10.4579 7.1 10.8579V11.9579C7.1 12.3579 6.8 12.7579 6.3 12.7579Z" fill="white"/>
<path d="M6.3 7.15786C5.9 7.15786 5.5 6.75786 5.5 6.35786V2.75786H0.8C0.4 2.75786 0 2.35786 0 1.95786C0 1.55786 0.4 1.15786 0.8 1.15786H5.6V0.857861C5.6 0.457861 5.9 0.0578613 6.3 0.0578613C6.7 0.0578613 7.1 0.457861 7.1 0.857861V1.15786H11.9C12.3 1.15786 12.7 1.55786 12.7 1.95786C12.7 2.35786 12.3 2.75786 11.9 2.75786H7.1V6.45786C7.1 6.85786 6.8 7.15786 6.3 7.15786Z" fill="white"/>
<path d="M46.3 12.7579C45.9 12.7579 45.5 12.3579 45.5 11.9579V10.8579C45.5 10.4579 45.9 10.0579 46.3 10.0579C46.7 10.0579 47.1 10.4579 47.1 10.8579V11.9579C47.1 12.3579 46.8 12.7579 46.3 12.7579Z" fill="white"/>
<path d="M46.3 7.15786C45.9 7.15786 45.5 6.75786 45.5 6.35786V2.75786H40.7C40.3 2.75786 39.9 2.35786 39.9 1.95786C39.9 1.55786 40.3 1.15786 40.7 1.15786H45.5V0.857861C45.5 0.457861 45.9 0.0578613 46.3 0.0578613C46.7 0.0578613 47.1 0.457861 47.1 0.857861V1.15786H51.9C52.3 1.15786 52.7 1.55786 52.7 1.95786C52.7 2.35786 52.3 2.75786 51.9 2.75786H47.1V6.45786C47.1 6.85786 46.8 7.15786 46.3 7.15786Z" fill="white"/>
</svg>
