<svg width="1921" height="135" viewBox="0 0 1921 135" fill="none" xmlns="http://www.w3.org/2000/svg">
<g clip-path="url(#clip0)">
<path opacity="0.3" d="M2.01734 4.76786V3.74024H0.985352V4.76786H2.01734ZM131.803 4.76786H132.835V3.74024H131.803V4.76786ZM131.803 25.6438V26.6758H132.835V25.6438H131.803ZM78.4806 25.6438V24.6118H77.4486V25.6438H78.4806ZM78.4806 130.246V131.278H79.5126V130.246H78.4806ZM55.3396 130.246H54.3076V131.278H55.3396V130.246ZM55.3396 25.6438H56.3672V24.6118H55.3396V25.6438ZM2.01734 25.6438H0.985352V26.6758H2.01734V25.6438ZM2.01734 5.79985H131.803V3.74024H2.01734V5.79985ZM130.771 4.76786V25.6438H132.835V4.76786H130.771ZM131.803 24.6118H78.4806V26.6758H131.803V24.6118ZM77.4486 25.6438V130.246H79.5126V25.6438H77.4486ZM78.4806 129.215H55.3396V131.278H78.4806V129.215ZM56.3672 130.246V25.6438H54.3076V130.246H56.3672ZM55.3396 24.6118H2.01734V26.6758H55.3396V24.6118ZM3.04933 25.6438V4.76786H0.985352V25.6438H3.04933ZM199.381 4.76786V3.74024H198.349V4.76786H199.381ZM311.697 4.76786H312.729V3.74024H311.697V4.76786ZM311.697 25.6438V26.6758H312.729V25.6438H311.697ZM222.526 25.6438V24.6118H221.494V25.6438H222.526ZM222.526 55.8164H221.494V56.8484H222.526V55.8164ZM302.846 55.8164H303.878V54.7844H302.846V55.8164ZM302.846 76.4649V77.4969H303.878V76.4649H302.846ZM222.526 76.4649V75.433H221.494V76.4649H222.526ZM222.526 109.139H221.494V110.171H222.526V109.139ZM315.099 109.139H316.131V108.107H315.099V109.139ZM315.099 130.242V131.274H316.131V130.242H315.099ZM199.381 130.242H198.349V131.274H199.381V130.242ZM199.381 5.79548H311.697V3.74024H199.381V5.79548ZM310.665 4.76786V25.6438H312.729V4.76786H310.665ZM311.697 24.6118H222.526V26.6758H311.697V24.6118ZM221.494 25.6438V55.8164H223.562V25.6438H221.494ZM222.526 56.8528H302.846V54.7888H222.526V56.8528ZM301.836 55.8208V76.4693H303.896V55.8208H301.836ZM302.864 75.4373H222.526V77.5013H302.846L302.864 75.4373ZM221.529 76.4693V109.143H223.562V76.4693H221.529ZM222.561 110.175H315.134V108.111H222.526L222.561 110.175ZM314.08 109.143V130.246H316.14V109.143H314.08ZM315.108 129.215H199.381V131.278H315.099L315.108 129.215ZM200.421 130.246V4.76786H198.357V130.268L200.421 130.246ZM383.94 4.76786V3.74024H381.951L383.096 5.36256L383.94 4.76786ZM410.282 4.76786L411.135 4.18627L410.824 3.74899H410.282V4.76786ZM444.998 55.3704L444.15 55.952L444.456 56.3892H444.998V55.3704ZM455.663 55.3704V56.398H456.197L456.503 55.9607L455.663 55.3704ZM490.357 4.76786V3.74024H489.815L489.505 4.17753L490.357 4.76786ZM516.678 4.76786L517.517 5.36694L518.676 3.74024H516.678V4.76786ZM474.475 64.2385L473.631 63.6438L473.216 64.2297L473.627 64.8244L474.475 64.2385ZM520.08 130.268V131.3H522.047L520.928 129.682L520.08 130.268ZM493.305 130.268L492.456 130.85L492.763 131.287H493.305V130.268ZM456.324 76.2638L457.172 75.6822L456.866 75.2449H456.324V76.2638ZM444.298 76.2638V75.2318H443.756L443.446 75.6691L444.298 76.2638ZM407.086 130.268V131.3H407.628L407.934 130.863L407.086 130.268ZM380.311 130.268L379.467 129.674L378.321 131.3H380.311V130.268ZM426.37 64.8988L427.214 65.4935L427.651 64.8988L427.214 64.3041L426.37 64.8988ZM383.953 5.79985H410.282V3.74024H383.94L383.953 5.79985ZM409.425 5.36256L444.141 55.9607L445.842 54.7931L411.113 4.18627L409.425 5.36256ZM444.989 56.4067H455.655V54.3471H444.989V56.4067ZM456.503 55.9694L491.219 5.37131L489.518 4.20376L454.802 54.8019L456.503 55.9694ZM490.371 5.81734H516.691V3.74024H490.371V5.81734ZM515.851 4.19064L473.645 63.6613L475.328 64.855L517.53 5.40629L515.851 4.19064ZM473.64 64.8201L519.244 130.85L520.941 129.678L475.337 63.6481L473.64 64.8201ZM520.093 129.232H493.318V131.296H520.093V129.232ZM494.171 129.669L457.185 75.6691L455.484 76.8366L492.47 130.837L494.171 129.669ZM456.337 75.2187H444.312V77.2827H456.337V75.2187ZM443.459 75.656L406.25 129.661L407.947 130.832L445.16 76.8279L443.459 75.656ZM407.086 129.215H380.311V131.278H407.086V129.215ZM381.155 130.841L427.214 65.5066L425.53 64.3172L379.467 129.652L381.155 130.841ZM427.214 64.3041L384.797 4.17315L383.109 5.36256L425.526 65.4935L427.214 64.3041ZM587.22 4.76786V3.74024H586.188V4.76786H587.22ZM610.361 4.76786H611.393V3.74024H610.361V4.76786ZM610.361 54.9156H609.333V55.9476H610.361V54.9156ZM690.913 54.9156V55.9476H691.945V54.9156H690.913ZM690.913 4.76786V3.74024H689.881V4.76786H690.913ZM713.827 4.76786H714.859V3.74024H713.827V4.76786ZM713.827 130.268V131.3H714.859V130.268H713.827ZM690.913 130.268H689.881V131.3H690.913V130.268ZM690.913 75.6079H691.945V74.5759H690.913V75.6079ZM610.361 75.6079V74.5759H609.333V75.5641L610.361 75.6079ZM610.361 130.29V131.322H611.393V130.29H610.361ZM587.22 130.29H586.188V131.322H587.22V130.29ZM587.22 5.84358H610.361V3.74024H587.22V5.84358ZM609.333 4.76786V54.9156H611.393V4.76786H609.333ZM610.361 55.9301H690.913V53.8661H610.361V55.9301ZM691.945 54.8981V4.76786H689.881V54.9156L691.945 54.8981ZM690.913 5.78236H713.827V3.74024H690.913V5.78236ZM712.777 4.75037V130.251H714.837V4.76786L712.777 4.75037ZM713.805 129.197H690.891V131.261H713.805V129.197ZM691.94 130.229V75.5641H689.877V130.246L691.94 130.229ZM690.909 74.5147H610.361V76.5743H690.913L690.909 74.5147ZM609.333 75.5641V130.246H611.393V75.5641H609.333ZM610.361 129.215H587.22V131.278H610.361V129.215ZM588.256 130.246V4.76786H586.197V130.268L588.256 130.246ZM820.48 34.267L821.184 35.0235L820.48 34.267ZM820.48 101.202L819.771 101.95L820.48 101.202ZM888.101 101.202L888.792 101.963L888.101 101.202ZM888.101 34.267L887.397 35.0192L888.101 34.267ZM904.206 20.1996L903.537 20.9605L904.206 20.1996ZM904.206 115.27L904.897 116.035L904.206 115.27ZM804.375 115.27L803.675 116.035L804.375 115.27ZM804.375 20.1996L805.061 20.9649L804.375 20.1996ZM819.78 33.5105C810.759 41.9108 806.29 53.3195 806.29 67.6187H808.354C808.354 53.7874 812.661 42.9602 821.184 35.0235L819.78 33.5105ZM806.29 67.6187C806.29 81.9222 810.759 93.4184 819.771 101.95L821.193 100.454C812.661 92.3602 808.354 81.4544 808.354 67.6187H806.29ZM819.785 101.963C828.924 110.327 840.426 114.501 854.291 114.487V112.423C840.897 112.423 829.886 108.413 821.18 100.441L819.785 101.963ZM854.291 114.482C868.126 114.482 879.653 110.324 888.792 101.959L887.402 100.437C878.691 108.409 867.68 112.418 854.291 112.418V114.482ZM888.801 101.954C897.984 93.4053 902.514 81.9223 902.514 67.6143H900.45C900.45 81.4456 896.077 92.3471 887.397 100.441L888.801 101.954ZM902.514 67.6143C902.514 53.3108 897.966 41.8976 888.792 33.5062L887.402 35.0279C896.073 42.969 900.45 53.7918 900.45 67.6187L902.514 67.6143ZM888.801 33.5062C879.662 24.9879 868.131 20.7506 854.291 20.7506V22.8146C867.671 22.8146 878.707 26.8813 887.397 35.0148L888.801 33.5062ZM854.291 20.7506C840.446 20.7506 828.928 24.9879 819.78 33.5062L821.184 35.0148C829.899 26.8944 840.901 22.8146 854.291 22.8146V20.7506ZM903.516 20.9605C916.748 32.8488 923.365 48.4001 923.368 67.6143H925.428C925.428 47.8345 918.584 31.7716 904.897 19.4256L903.516 20.9605ZM923.368 67.6143C923.368 86.8548 916.751 102.485 903.516 114.504L904.897 116.03C918.599 103.562 925.442 87.4233 925.428 67.6143H923.368ZM903.537 114.504C890.285 126.416 873.876 132.378 854.312 132.389V134.453C874.357 134.453 891.226 128.314 904.919 116.035L903.537 114.504ZM854.291 132.411C834.7 132.411 818.291 126.449 805.061 114.526L803.684 116.057C817.353 128.35 834.222 134.49 854.291 134.475V132.411ZM805.066 114.531C791.833 102.488 785.214 86.8577 785.209 67.6406H783.145C783.145 87.4233 789.995 103.562 803.697 116.057L805.066 114.531ZM785.209 67.6187C785.209 48.3782 791.826 32.8269 805.061 20.9649L803.684 19.43C789.982 31.7439 783.132 47.8068 783.132 67.6187H785.209ZM805.066 20.9605C818.318 8.89436 834.726 2.85839 854.291 2.85255V0.788574C834.24 0.788574 817.368 7.00384 803.675 19.4344L805.066 20.9605ZM854.291 2.85255C873.872 2.85255 890.28 8.88853 903.516 20.9605L904.897 19.4344C891.228 7.00384 874.359 0.788574 854.291 0.788574V2.85255ZM1027.29 4.76786V3.74024H1026.41L1026.26 4.57983L1027.29 4.76786ZM1125.53 4.76786H1126.55V3.74024H1125.52L1125.53 4.76786ZM1125.53 130.268V131.3H1126.55V130.268H1125.53ZM1102.39 130.268H1101.36V131.3H1102.39V130.268ZM1102.39 25.6657H1103.42V24.6118H1102.39V25.6657ZM1046.35 25.6657V24.6118H1045.48L1045.32 25.4558L1046.35 25.6657ZM1032.5 99.1775L1031.49 98.9851L1032.5 99.1775ZM982.804 130.264H981.776V131.296H982.804V130.264ZM982.804 108.706V107.674H981.776V108.706H982.804ZM1010.03 96.2258L1011.05 96.4313L1010.03 96.2258ZM1027.29 5.79985H1125.53V3.74024H1027.29V5.79985ZM1124.49 4.76786V130.268H1126.55V4.76786H1124.49ZM1125.52 129.215H1102.38V131.278H1125.52V129.215ZM1103.42 130.246V25.6438H1101.35V130.246H1103.42ZM1102.38 24.6118H1046.34V26.6758H1102.38V24.6118ZM1045.33 25.4558L1031.49 98.9676L1033.51 99.3524L1047.35 25.8362L1045.33 25.4558ZM1031.49 98.9763C1029.62 109.174 1025.68 116.699 1019.75 121.684C1013.82 126.67 1005.76 129.215 995.516 129.215V131.278C1006.12 131.278 1014.68 128.655 1021.08 123.263C1027.48 117.871 1031.57 109.869 1033.51 99.3436L1031.49 98.9763ZM995.516 129.215H982.804V131.278H995.516V129.215ZM983.836 130.246V108.688H981.776V130.246H983.836ZM982.804 109.72H993.928V107.656H982.804V109.72ZM993.928 109.72C998.616 109.72 1002.47 108.645 1005.39 106.384C1008.31 104.123 1010.17 100.752 1011.05 96.4138L1009.02 96.0072C1008.23 99.9864 1006.57 102.864 1004.13 104.753C1001.69 106.642 998.31 107.656 993.928 107.656V109.72ZM1011.05 96.4007L1028.29 4.96026L1026.27 4.57983L1009.02 96.0203L1011.05 96.4007ZM1232.03 34.267L1232.73 35.0235L1232.03 34.267ZM1232.03 101.202L1231.32 101.95L1232.03 101.202ZM1299.64 101.202L1300.34 101.963L1299.64 101.202ZM1299.64 34.267L1298.94 35.0192L1299.64 34.267ZM1315.76 20.1996L1315.06 20.9605L1315.76 20.1996ZM1315.76 115.27L1316.44 116.035L1315.76 115.27ZM1215.91 115.27L1215.22 116.035L1215.91 115.27ZM1215.91 20.1996L1216.61 20.9649L1215.91 20.1996ZM1231.33 33.5105C1222.3 41.9108 1217.84 53.3195 1217.84 67.6187H1219.9C1219.9 53.7874 1224.2 42.9602 1232.73 35.0235L1231.33 33.5105ZM1217.84 67.6187C1217.84 81.9222 1222.3 93.4184 1231.32 101.95L1232.74 100.454C1224.2 92.3602 1219.9 81.4544 1219.9 67.6187H1217.84ZM1231.33 101.963C1240.48 110.33 1251.98 114.503 1265.84 114.482V112.418C1252.45 112.418 1241.43 108.409 1232.73 100.437L1231.33 101.963ZM1265.84 114.482C1279.67 114.482 1291.2 110.324 1300.34 101.959L1298.95 100.437C1290.24 108.409 1279.23 112.418 1265.84 112.418V114.482ZM1300.35 101.954C1309.53 93.4053 1314.06 81.9223 1314.06 67.6143H1312C1312 81.4456 1307.63 92.3471 1298.94 100.441L1300.35 101.954ZM1314.06 67.6143C1314.06 53.3108 1309.52 41.8976 1300.34 33.5062L1298.95 35.0279C1307.62 42.969 1312 53.7918 1312 67.6187L1314.06 67.6143ZM1300.35 33.5062C1291.21 24.9879 1279.68 20.7506 1265.84 20.7506V22.8146C1279.22 22.8146 1290.25 26.8813 1298.94 35.0148L1300.35 33.5062ZM1265.84 20.7506C1251.99 20.7506 1240.48 24.9879 1231.33 33.5062L1232.73 35.0148C1241.44 26.893 1252.47 22.8262 1265.84 22.8146V20.7506ZM1315.06 20.9605C1328.29 32.8488 1334.91 48.4001 1334.92 67.6143H1336.98C1336.98 47.8345 1330.13 31.7716 1316.42 19.4256L1315.06 20.9605ZM1334.92 67.6143C1334.92 86.8548 1328.3 102.485 1315.06 114.504L1316.45 116.03C1330.15 103.562 1336.99 87.4233 1336.98 67.6143H1334.92ZM1315.06 114.5C1301.81 126.412 1285.4 132.373 1265.84 132.385V134.449C1285.88 134.449 1302.75 128.309 1316.44 116.03L1315.06 114.5ZM1265.84 132.411C1246.25 132.411 1229.84 126.449 1216.61 114.526L1215.23 116.057C1228.9 128.35 1245.77 134.49 1265.84 134.475V132.411ZM1216.63 114.509C1203.4 102.466 1196.78 86.8359 1196.78 67.6187H1194.71C1194.71 87.4014 1201.56 103.54 1215.26 116.035L1216.63 114.509ZM1196.78 67.6187C1196.78 48.3782 1203.39 32.8269 1216.63 20.9649L1215.25 19.43C1201.55 31.7439 1194.7 47.8068 1194.7 67.6187H1196.78ZM1216.63 20.9605C1229.89 8.89436 1246.3 2.85839 1265.86 2.85255V0.788574C1245.81 0.788574 1228.93 7.00384 1215.24 19.4344L1216.63 20.9605ZM1265.84 2.85255C1285.42 2.85255 1301.83 8.88853 1315.06 20.9605L1316.45 19.4344C1302.78 7.00384 1285.91 0.788574 1265.84 0.788574V2.85255ZM1406.33 4.76786V3.74024H1405.29V4.76786H1406.33ZM1520.68 4.76786H1521.72V3.74024H1520.68V4.76786ZM1520.68 25.6438V26.6758H1521.72V25.6438H1520.68ZM1429.47 25.6438V24.6118H1428.44V25.6438H1429.47ZM1429.47 130.246V131.278H1430.5V130.246H1429.47ZM1406.33 130.246H1405.29V131.278H1406.33V130.246ZM1406.33 5.79985H1520.68V3.74024H1406.33V5.79985ZM1519.67 4.76786V25.6438H1521.73V4.76786H1519.67ZM1520.7 24.6118H1429.47V26.6758H1520.68L1520.7 24.6118ZM1428.43 25.6438V130.246H1430.5V25.6438H1428.43ZM1429.47 129.215H1406.33V131.278H1429.47L1429.47 129.215ZM1407.35 130.246V4.76786H1405.29V130.268L1407.35 130.246ZM1588.06 4.76786V3.74024H1587.01V4.76786H1588.06ZM1610.98 4.76786H1612.01V3.74024H1610.98V4.76786ZM1610.98 99.6148H1609.95V102.339L1611.75 100.297L1610.98 99.6148ZM1694.7 4.76786V3.74024H1694.23L1693.93 4.0857L1694.7 4.76786ZM1717.62 4.76786H1718.63V3.74024H1717.6L1717.62 4.76786ZM1717.62 130.268V131.3H1718.63V130.268H1717.62ZM1694.7 130.268H1693.67V131.3H1694.7V130.268ZM1694.7 35.8762H1695.73V33.1476L1693.93 35.1853L1694.7 35.8762ZM1611.2 130.246V131.278H1611.67L1611.97 130.929L1611.2 130.246ZM1588.06 130.246H1587.01V131.278H1588.04L1588.06 130.246ZM1588.06 5.79985H1610.98V3.74024H1588.06V5.79985ZM1609.92 4.76786V99.6148H1611.99V4.76786H1609.92ZM1611.73 100.297L1695.46 5.45002L1693.91 4.0857L1610.19 98.9326L1611.73 100.297ZM1694.68 5.79985H1717.6V3.74024H1694.68V5.79985ZM1716.56 4.76786V130.268H1718.63V4.76786H1716.56ZM1717.6 129.215H1694.68V131.278H1717.6V129.215ZM1695.73 130.246V35.8544H1693.67V130.246H1695.73ZM1693.93 35.1722L1610.41 129.56L1611.95 130.929L1695.46 36.5365L1693.93 35.1722ZM1611.2 129.215H1588.06V131.278H1611.2V129.215ZM1589.09 130.246V4.76786H1587.01V130.268L1589.09 130.246ZM1790.4 4.76786V3.74024H1789.37V4.76786H1790.4ZM1813.31 4.76786H1814.35V3.74024H1813.31V4.76786ZM1813.31 99.6148H1812.28V102.339L1814.09 100.297L1813.31 99.6148ZM1897.04 4.76786V3.74024H1896.58L1896.27 4.0857L1897.04 4.76786ZM1919.96 4.76786H1920.99V3.74024H1919.96V4.76786ZM1919.96 130.268V131.3H1920.99V130.268H1919.96ZM1897.04 130.268H1896.01V131.3H1897.04V130.268ZM1897.04 35.8762H1898.08V33.1476L1896.27 35.1853L1897.04 35.8762ZM1813.54 130.246V131.278H1814L1814.31 130.929L1813.54 130.246ZM1790.4 130.246H1789.37V131.278H1790.4V130.246ZM1790.4 5.79985H1813.31V3.74024H1790.4V5.79985ZM1812.26 4.76786V99.6148H1814.33V4.76786H1812.26ZM1814.07 100.297L1897.8 5.45002L1896.25 4.0857L1812.52 98.9326L1814.07 100.297ZM1897.04 5.79985H1919.96V3.74024H1897.04V5.79985ZM1918.91 4.76786V130.268H1920.97V4.76786H1918.91ZM1919.94 129.215H1897.04V131.278H1919.96L1919.94 129.215ZM1898.08 130.246V35.8544H1896.01V130.246H1898.08ZM1896.27 35.1722L1812.77 129.56L1814.31 130.929L1897.83 36.5365L1896.27 35.1722ZM1813.54 129.215H1790.4V131.278H1813.54V129.215ZM1791.43 130.246V4.76786H1789.37V130.268L1791.43 130.246Z" fill="url(#paint0_linear)"/>
</g>
<defs>
<linearGradient id="paint0_linear" x1="421" y1="107" x2="1334" y2="113" gradientUnits="userSpaceOnUse">
<stop stop-color="white"/>
<stop offset="1" stop-color="#7A22FF"/>
</linearGradient>
<clipPath id="clip0">
<rect width="1920" height="133.665" fill="white" transform="translate(0.985352 0.788574)"/>
</clipPath>
</defs>
</svg>
