<svg width="90" height="60" viewBox="0 0 90 60" fill="none" xmlns="http://www.w3.org/2000/svg">
<path fill-rule="evenodd" clip-rule="evenodd" d="M43.5615 43.4764C46.8091 40.1675 48.4879 35.5597 48.4879 29.5223C48.4879 23.4839 46.8088 18.9139 43.5681 15.6732L43.5614 15.6665L43.5549 15.6597C40.3731 12.3556 35.9681 10.655 30.2107 10.655C24.4541 10.655 20.0114 12.3554 16.7616 15.6666C13.583 18.9064 11.9336 23.4788 11.9336 29.5223C11.9336 35.5607 13.5804 40.1687 16.7617 43.4763C20.0098 46.7207 24.4526 48.3895 30.2107 48.3895C35.9735 48.3895 40.3809 46.7182 43.5615 43.4764ZM16.048 44.1768C12.6384 40.6361 10.9336 35.7513 10.9336 29.5223C10.9336 23.2933 12.6384 18.4412 16.048 14.9661C19.5231 11.4254 24.244 9.65504 30.2107 9.65504C36.1775 9.65504 40.8656 11.4254 44.2752 14.9661C47.7503 18.4412 49.4879 23.2933 49.4879 29.5223C49.4879 35.7513 47.7503 40.6361 44.2752 44.1768C40.8656 47.652 36.1775 49.3895 30.2107 49.3895C24.244 49.3895 19.5231 47.652 16.048 44.1768ZM51.7466 51.1015L51.742 51.1059C46.0272 56.4124 38.8241 59.0446 30.2107 59.0446C21.5973 59.0446 14.3641 56.4125 8.58551 51.1098L8.57648 51.1016C2.83637 45.7031 0 38.4724 0 29.5223C0 20.5726 2.83636 13.3717 8.58084 8.03738C14.3589 2.66721 21.5937 0 30.2107 0C38.8265 0 46.0304 2.66656 51.7442 8.03917C57.4874 13.3733 60.3231 20.5736 60.3231 29.5223C60.3231 38.4724 57.4867 45.7031 51.7466 51.1015ZM51.0615 8.76987C45.5538 3.58995 38.6035 1 30.2107 1C21.818 1 14.8349 3.58995 9.26163 8.76987C3.75387 13.8842 1 20.8017 1 29.5223C1 38.2429 3.75387 45.1931 9.26163 50.373C14.8349 55.4874 21.818 58.0446 30.2107 58.0446C38.6035 58.0446 45.5538 55.4874 51.0615 50.373C56.5693 45.1931 59.3231 38.2429 59.3231 29.5223C59.3231 20.8017 56.5693 13.8842 51.0615 8.76987ZM67.2456 1.27859H89.6046V57.6676H77.671V12.2287H67.2456V1.27859ZM78.671 11.2287V56.6676H88.6046V2.27859H68.2456V11.2287H78.671Z" fill="#7A22FF"/>
</svg>
