<svg width="97" height="45" viewBox="0 0 97 45" fill="none" xmlns="http://www.w3.org/2000/svg">
	<path fill-rule="evenodd" clip-rule="evenodd" d="M33.7647 33.0785C36.2093 30.5877 37.4727 27.1194 37.4727 22.5759C37.4727 18.0317 36.2091 14.5918 33.7696 12.1523L33.7596 12.1423C31.3645 9.65506 28.0488 8.37514 23.716 8.37514C19.3837 8.37514 16.0396 9.65485 13.5934 12.1472M39.9159 38.8082L39.9124 38.8115C35.6137 42.8031 30.1955 44.7831 23.716 44.7831C17.2364 44.7831 11.7954 42.8032 7.44874 38.8145L7.442 38.8083C3.12437 34.7476 0.990723 29.3088 0.990723 22.5759C0.990723 15.8432 3.12444 10.4267 7.4455 6.41432C11.7918 2.37497 17.2338 0.368652 23.716 0.368652C30.1972 0.368652 35.616 2.37452 39.914 6.41577C44.234 10.428 46.3672 15.844 46.3672 22.5759C46.3672 29.3088 44.2335 34.7476 39.9159 38.8082ZM13.5934 12.1472C11.2006 14.5861 9.95921 18.0279 9.95921 22.5759C9.95921 27.1202 11.1986 30.5887 13.5934 33.0786C16.0384 35.5207 19.3826 36.7767 23.716 36.7767C28.0529 36.7767 31.3704 35.5188 33.7647 33.0785M13.06 11.6239C10.4946 14.2386 9.21197 17.8892 9.21197 22.5759C9.21197 27.2626 10.4946 30.9379 13.06 33.6019C15.6746 36.2166 19.2266 37.5239 23.716 37.5239C28.2053 37.5239 31.7326 36.2166 34.298 33.6019C36.9126 30.9379 38.22 27.2626 38.22 22.5759C38.22 17.8892 36.9126 14.2386 34.298 11.6239C31.7326 8.9599 28.2053 7.6279 23.716 7.6279C19.2266 7.6279 15.6746 8.9599 13.06 11.6239ZM95.7501 4.88371L92.1212 11.9601L91.4582 11.6247C87.2776 9.51043 82.6829 8.44914 77.6614 8.44914C73.7374 8.44914 70.661 9.40476 68.3602 11.2454L68.353 11.2511C66.3537 12.8105 65.0243 15.0731 64.4089 18.1097C68.7271 16.395 73.2945 15.5387 78.1054 15.5387C83.4379 15.5387 87.885 16.6708 91.3938 18.9927C94.9947 21.3757 96.7606 25.0865 96.7606 29.9759C96.7606 34.5137 94.8646 38.1653 91.1229 40.8677L91.1173 40.8717C87.4018 43.5035 82.5238 44.7831 76.5514 44.7831C69.6495 44.7831 64.3127 42.8139 60.6773 38.763C57.0687 34.742 55.3061 29.2915 55.3061 22.5019C55.3061 16.062 57.367 10.7335 61.519 6.58152C65.6745 2.42606 71.079 0.368652 77.6614 0.368652C84.2792 0.368652 90.1061 1.74816 95.1183 4.53269L95.7501 4.88371ZM64.2557 18.9778C63.9872 19.0884 63.7198 19.2024 63.4534 19.3199C63.4914 19.0238 63.5352 18.7333 63.5848 18.4486C64.1803 15.0334 65.6165 12.4378 67.8934 10.6619C70.3601 8.68857 73.6161 7.7019 77.6614 7.7019C82.792 7.7019 87.5032 8.78718 91.7951 10.9578C91.7952 10.9578 91.795 10.9577 91.7951 10.9578L94.7554 5.1859C89.8714 2.47256 84.1734 1.1159 77.6614 1.1159C71.2481 1.1159 66.0434 3.1139 62.0474 7.1099C58.0514 11.1059 56.0534 16.2366 56.0534 22.5019C56.0534 29.1619 57.7801 34.4159 61.2334 38.2639C64.6867 42.1119 69.7927 44.0359 76.5514 44.0359C82.4221 44.0359 87.1334 42.7779 90.6854 40.2619C94.2374 37.6966 96.0134 34.2679 96.0134 29.9759C96.0134 25.2892 94.3361 21.8359 90.9814 19.6159C87.6267 17.3959 83.3347 16.2859 78.1054 16.2859C73.2262 16.2859 68.6096 17.1832 64.2557 18.9778ZM85.574 25.22L85.5675 25.2162C83.9235 24.2387 81.1108 23.6931 76.9954 23.6931C72.9173 23.6931 68.6461 24.4273 64.1785 25.9069C64.5771 29.6852 65.7452 32.3119 67.5713 33.9274C69.5423 35.6274 72.7769 36.5547 77.4394 36.5547C81.1305 36.5547 83.769 35.9432 85.4647 34.8276C87.1058 33.748 87.9401 32.1466 87.9401 29.9019C87.9401 27.5915 87.1217 26.0985 85.5806 25.2238L85.574 25.22ZM67.0794 34.4899C64.9581 32.6152 63.7247 29.5812 63.3794 25.3879C68.1154 23.7599 72.6541 22.9459 76.9954 22.9459C81.1394 22.9459 84.1241 23.4886 85.9494 24.5739C87.7747 25.6099 88.6874 27.3859 88.6874 29.9019C88.6874 34.8352 84.9381 37.3019 77.4394 37.3019C72.7034 37.3019 69.2501 36.3646 67.0794 34.4899ZM45.62 22.5759C45.62 16.0146 43.548 10.8099 39.404 6.9619C35.26 3.06456 30.0306 1.1159 23.716 1.1159C17.4013 1.1159 12.1473 3.06456 7.95397 6.9619C3.80997 10.8099 1.73797 16.0146 1.73797 22.5759C1.73797 29.1372 3.80997 34.3666 7.95397 38.2639C12.1473 42.1119 17.4013 44.0359 23.716 44.0359C30.0306 44.0359 35.26 42.1119 39.404 38.2639C43.548 34.3666 45.62 29.1372 45.62 22.5759Z" fill="#7A22FF" />
</svg>
