<svg width="129" height="61" viewBox="0 0 129 61" fill="none" xmlns="http://www.w3.org/2000/svg">
<path fill-rule="evenodd" clip-rule="evenodd" d="M43.9624 44.4476C47.21 41.1387 48.8888 36.5309 48.8888 30.4935C48.8888 24.4551 47.2097 19.8851 43.969 16.6444L43.9623 16.6377L43.9557 16.6309C40.7739 13.3268 36.3689 11.6262 30.6116 11.6262C24.855 11.6262 20.4123 13.3266 17.1625 16.6377C13.9839 19.8776 12.3345 24.45 12.3345 30.4935C12.3345 36.5319 13.9813 41.1399 17.1626 44.4475C20.4107 47.6919 24.8535 49.3607 30.6116 49.3607C36.3744 49.3607 40.7817 47.6894 43.9624 44.4476ZM16.4488 45.148C13.0393 41.6073 11.3345 36.7225 11.3345 30.4935C11.3345 24.2645 13.0393 19.4124 16.4488 15.9373C19.924 12.3966 24.6449 10.6262 30.6116 10.6262C36.5784 10.6262 41.2665 12.3966 44.6761 15.9373C48.1512 19.4124 49.8888 24.2645 49.8888 30.4935C49.8888 36.7225 48.1512 41.6073 44.6761 45.148C41.2665 48.6231 36.5784 50.3607 30.6116 50.3607C24.6449 50.3607 19.924 48.6231 16.4488 45.148ZM52.1475 52.0727L52.1429 52.077C46.428 57.3836 39.225 60.0157 30.6116 60.0157C21.9982 60.0157 14.7649 57.3837 8.98639 52.081L8.97736 52.0727C3.23725 46.6743 0.400879 39.4436 0.400879 30.4935C0.400879 21.5437 3.23724 14.3429 8.98172 9.00857C14.7597 3.6384 21.9945 0.971191 30.6116 0.971191C39.2274 0.971191 46.4312 3.63775 52.1451 9.01036C57.8883 14.3445 60.724 21.5447 60.724 30.4935C60.724 39.4436 57.8876 46.6743 52.1475 52.0727ZM51.4624 9.74106C45.9546 4.56115 39.0044 1.97119 30.6116 1.97119C22.2189 1.97119 15.2358 4.56115 9.6625 9.74106C4.15475 14.8554 1.40088 21.7729 1.40088 30.4935C1.40088 39.2141 4.15475 46.1643 9.6625 51.3442C15.2358 56.4586 22.2189 59.0157 30.6116 59.0157C39.0044 59.0157 45.9546 56.4586 51.4624 51.3442C56.9701 46.1643 59.724 39.2141 59.724 30.4935C59.724 21.7729 56.9701 14.8554 51.4624 9.74106ZM103.032 2.24978H122.784V38.9353H128.783V49.6887H122.784V58.6388H110.949V49.6887H71.0173V39.3669L103.032 2.24978ZM111.949 48.6887V57.6388H121.784V48.6887H127.783V39.9353H121.784V3.24978H103.49L72.0173 39.7386V48.6887H111.949ZM84.2131 39.9353H111.949V12.1999H107.424L84.2131 39.9353ZM86.3539 38.9353H110.949V13.1999H107.891L86.3539 38.9353Z" fill="#7A22FF"/>
</svg>
