<svg width="1388" height="6" viewBox="0 0 1388 6" fill="none" xmlns="http://www.w3.org/2000/svg">
<path fill-rule="evenodd" clip-rule="evenodd" d="M1.9949 5.24609H0.996338V0.246094H1.9949V5.24609ZM5.98916 5.24609H3.99203V0.246094H5.98916V5.24609ZM9.98342 5.24609H7.98629V0.246094H9.98342V5.24609ZM13.9777 5.24609H11.9805V0.246094H13.9777V5.24609ZM17.9719 5.24609H15.9748V0.246094H17.9719V5.24609ZM21.9662 5.24609H19.9691V0.246094H21.9662V5.24609ZM25.9604 5.24609H23.9633V0.246094H25.9604V5.24609ZM29.9547 5.24609H27.9576V0.246094H29.9547V5.24609ZM33.949 5.24609H31.9518V0.246094L33.949 0.246094V5.24609ZM37.9432 5.24609H35.9461V0.246094H37.9432V5.24609ZM41.9375 5.24609H39.9403V0.246094H41.9375V5.24609ZM45.9317 5.24609H43.9346V0.246094H45.9317V5.24609ZM49.926 5.24609H47.9289V0.246094H49.926V5.24609ZM53.9202 5.24609H51.9231V0.246094H53.9202V5.24609ZM57.9145 5.24609H55.9174V0.246094H57.9145V5.24609ZM61.9088 5.24609H59.9116V0.246094H61.9088V5.24609ZM65.903 5.24609H63.9059V0.246094H65.903V5.24609ZM69.8973 5.24609H67.9001V0.246094H69.8973V5.24609ZM73.8915 5.24609H71.8944V0.246094H73.8915V5.24609ZM77.8858 5.24609H75.8887V0.246094H77.8858V5.24609ZM81.8801 5.24609H79.8829V0.246094H81.8801V5.24609ZM85.8743 5.24609H83.8772V0.246094H85.8743V5.24609ZM89.8686 5.24609H87.8715V0.246094H89.8686V5.24609ZM93.8628 5.24609H91.8657V0.246094H93.8628V5.24609ZM97.8571 5.24609H95.86V0.246094L97.8571 0.246094V5.24609ZM101.851 5.24609H99.8542V0.246094H101.851V5.24609ZM105.846 5.24609H103.849V0.246094H105.846V5.24609ZM109.84 5.24609H107.843V0.246094H109.84V5.24609ZM113.834 5.24609H111.837V0.246094H113.834V5.24609ZM117.828 5.24609H115.831V0.246094H117.828V5.24609ZM121.823 5.24609H119.826V0.246094H121.823V5.24609ZM125.817 5.24609H123.82V0.246094H125.817V5.24609ZM129.811 5.24609H127.814V0.246094H129.811V5.24609ZM133.805 5.24609H131.808V0.246094H133.805V5.24609ZM137.8 5.24609H135.803V0.246094H137.8V5.24609ZM141.794 5.24609H139.797V0.246094H141.794V5.24609ZM145.788 5.24609H143.791V0.246094H145.788V5.24609ZM149.783 5.24609H147.785V0.246094H149.783V5.24609ZM153.777 5.24609H151.78V0.246094H153.777V5.24609ZM157.771 5.24609H155.774V0.246094H157.771V5.24609ZM161.765 5.24609H159.768V0.246094L161.765 0.246094V5.24609ZM165.76 5.24609H163.762V0.246094H165.76V5.24609ZM169.754 5.24609H167.757V0.246094H169.754V5.24609ZM173.748 5.24609H171.751V0.246094H173.748V5.24609ZM177.742 5.24609H175.745V0.246094H177.742V5.24609ZM181.737 5.24609H179.74V0.246094H181.737V5.24609ZM185.731 5.24609H183.734V0.246094H185.731V5.24609ZM189.725 5.24609H187.728V0.246094H189.725V5.24609ZM193.719 5.24609H191.722V0.246094H193.719V5.24609ZM197.714 5.24609H195.717V0.246094H197.714V5.24609ZM201.708 5.24609H199.711V0.246094H201.708V5.24609ZM205.702 5.24609H203.705V0.246094H205.702V5.24609ZM209.696 5.24609H207.699V0.246094H209.696V5.24609ZM213.691 5.24609H211.694V0.246094H213.691V5.24609ZM217.685 5.24609H215.688V0.246094H217.685V5.24609ZM221.679 5.24609H219.682V0.246094H221.679V5.24609ZM225.673 5.24609H223.676V0.246094L225.673 0.246094V5.24609ZM229.668 5.24609H227.671V0.246094H229.668V5.24609ZM233.662 5.24609H231.665V0.246094H233.662V5.24609ZM237.656 5.24609H235.659V0.246094H237.656V5.24609ZM241.651 5.24609H239.653V0.246094H241.651V5.24609ZM245.645 5.24609H243.648V0.246094H245.645V5.24609ZM249.639 5.24609H247.642V0.246094H249.639V5.24609ZM253.633 5.24609H251.636V0.246094H253.633V5.24609ZM257.628 5.24609H255.63V0.246094H257.628V5.24609ZM261.622 5.24609H259.625V0.246094H261.622V5.24609ZM265.616 5.24609H263.619V0.246094H265.616V5.24609ZM269.61 5.24609H267.613V0.246094H269.61V5.24609ZM273.605 5.24609H271.608V0.246094H273.605V5.24609ZM277.599 5.24609H275.602V0.246094H277.599V5.24609ZM281.593 5.24609H279.596V0.246094H281.593V5.24609ZM285.587 5.24609H283.59V0.246094H285.587V5.24609ZM289.582 5.24609H287.585V0.246094L289.582 0.246094V5.24609ZM293.576 5.24609H291.579V0.246094H293.576V5.24609ZM297.57 5.24609H295.573V0.246094H297.57V5.24609ZM301.564 5.24609H299.567V0.246094H301.564V5.24609ZM305.559 5.24609H303.562V0.246094H305.559V5.24609ZM309.553 5.24609H307.556V0.246094H309.553V5.24609ZM313.547 5.24609H311.55V0.246094H313.547V5.24609ZM317.542 5.24609H315.544V0.246094H317.542V5.24609ZM321.536 5.24609H319.539V0.246094H321.536V5.24609ZM325.53 5.24609H323.533V0.246094H325.53V5.24609ZM329.524 5.24609H327.527V0.246094H329.524V5.24609ZM333.519 5.24609H331.521V0.246094H333.519V5.24609ZM337.513 5.24609H335.516V0.246094H337.513V5.24609ZM341.507 5.24609H339.51V0.246094H341.507V5.24609ZM345.501 5.24609H343.504V0.246094H345.501V5.24609ZM349.496 5.24609H347.499V0.246094H349.496V5.24609ZM353.49 5.24609H351.493V0.246094L353.49 0.246094V5.24609ZM357.484 5.24609H355.487V0.246094H357.484V5.24609ZM361.478 5.24609H359.481V0.246094H361.478V5.24609ZM365.473 5.24609H363.476V0.246094H365.473V5.24609ZM369.467 5.24609H367.47V0.246094H369.467V5.24609ZM373.461 5.24609H371.464V0.246094H373.461V5.24609ZM377.455 5.24609H375.458V0.246094H377.455V5.24609ZM381.45 5.24609H379.453V0.246094H381.45V5.24609ZM385.444 5.24609H383.447V0.246094H385.444V5.24609ZM389.438 5.24609H387.441V0.246094H389.438V5.24609ZM393.433 5.24609H391.435V0.246094H393.433V5.24609ZM397.427 5.24609H395.43V0.246094H397.427V5.24609ZM401.421 5.24609H399.424V0.246094H401.421V5.24609ZM405.415 5.24609H403.418V0.246094H405.415V5.24609ZM409.41 5.24609H407.412V0.246094H409.41V5.24609ZM413.404 5.24609H411.407V0.246094H413.404V5.24609ZM417.398 5.24609H415.401V0.246094L417.398 0.246094V5.24609ZM421.392 5.24609H419.395V0.246094H421.392V5.24609ZM425.387 5.24609H423.389V0.246094H425.387V5.24609ZM429.381 5.24609H427.384V0.246094H429.381V5.24609ZM433.375 5.24609H431.378V0.246094H433.375V5.24609ZM437.369 5.24609H435.372V0.246094H437.369V5.24609ZM441.364 5.24609H439.367V0.246094H441.364V5.24609ZM445.358 5.24609H443.361V0.246094H445.358V5.24609ZM449.352 5.24609H447.355V0.246094H449.352V5.24609ZM453.346 5.24609H451.349V0.246094H453.346V5.24609ZM457.341 5.24609H455.344V0.246094H457.341V5.24609ZM461.335 5.24609H459.338V0.246094H461.335V5.24609ZM465.329 5.24609H463.332V0.246094H465.329V5.24609ZM469.324 5.24609H467.326V0.246094H469.324V5.24609ZM473.318 5.24609H471.321V0.246094H473.318V5.24609ZM477.312 5.24609H475.315V0.246094H477.312V5.24609ZM481.306 5.24609H479.309V0.246094L481.306 0.246094V5.24609ZM485.301 5.24609H483.303V0.246094H485.301V5.24609ZM489.295 5.24609H487.298V0.246094H489.295V5.24609ZM493.289 5.24609H491.292V0.246094H493.289V5.24609ZM497.283 5.24609H495.286V0.246094H497.283V5.24609ZM501.278 5.24609H499.28V0.246094H501.278V5.24609ZM505.272 5.24609H503.275V0.246094H505.272V5.24609ZM509.266 5.24609H507.269V0.246094H509.266V5.24609ZM513.26 5.24609H511.263V0.246094H513.26V5.24609ZM517.255 5.24609H515.258V0.246094H517.255V5.24609ZM521.249 5.24609H519.252V0.246094H521.249V5.24609ZM525.243 5.24609H523.246V0.246094H525.243V5.24609ZM529.237 5.24609H527.24V0.246094H529.237V5.24609ZM533.232 5.24609H531.235V0.246094H533.232V5.24609ZM537.226 5.24609H535.229V0.246094H537.226V5.24609ZM541.22 5.24609H539.223V0.246094H541.22V5.24609ZM545.214 5.24609H543.217V0.246094L545.214 0.246094V5.24609ZM549.209 5.24609H547.212V0.246094H549.209V5.24609ZM553.203 5.24609H551.206V0.246094H553.203V5.24609ZM557.197 5.24609H555.2V0.246094H557.197V5.24609ZM561.192 5.24609H559.194V0.246094H561.192V5.24609ZM565.186 5.24609H563.189V0.246094H565.186V5.24609ZM569.18 5.24609H567.183V0.246094H569.18V5.24609ZM573.174 5.24609H571.177V0.246094H573.174V5.24609ZM577.169 5.24609H575.171V0.246094H577.169V5.24609ZM581.163 5.24609H579.166V0.246094H581.163V5.24609ZM585.157 5.24609H583.16V0.246094H585.157V5.24609ZM589.151 5.24609H587.154V0.246094H589.151V5.24609ZM593.146 5.24609H591.148V0.246094H593.146V5.24609ZM597.14 5.24609H595.143V0.246094H597.14V5.24609ZM601.134 5.24609H599.137V0.246094H601.134V5.24609ZM605.128 5.24609H603.131V0.246094H605.128V5.24609ZM609.123 5.24609H607.126V0.246094L609.123 0.246094V5.24609ZM613.117 5.24609H611.12V0.246094H613.117V5.24609ZM617.111 5.24609H615.114V0.246094H617.111V5.24609ZM621.105 5.24609H619.108V0.246094H621.105V5.24609ZM625.1 5.24609H623.103V0.246094H625.1V5.24609ZM629.094 5.24609H627.097V0.246094H629.094V5.24609ZM633.088 5.24609H631.091V0.246094H633.088V5.24609ZM637.083 5.24609H635.085V0.246094H637.083V5.24609ZM641.077 5.24609H639.08V0.246094H641.077V5.24609ZM645.071 5.24609H643.074V0.246094H645.071V5.24609ZM649.065 5.24609H647.068V0.246094H649.065V5.24609ZM653.06 5.24609H651.062V0.246094H653.06V5.24609ZM657.054 5.24609H655.057V0.246094H657.054V5.24609ZM661.048 5.24609H659.051V0.246094H661.048V5.24609ZM665.042 5.24609H663.045V0.246094H665.042V5.24609ZM669.037 5.24609H667.039V0.246094H669.037V5.24609ZM673.031 5.24609H671.034V0.246094L673.031 0.246094V5.24609ZM677.025 5.24609H675.028V0.246094H677.025V5.24609ZM681.019 5.24609H679.022V0.246094H681.019V5.24609ZM685.014 5.24609H683.017V0.246094H685.014V5.24609ZM689.008 5.24609H687.011V0.246094H689.008V5.24609ZM693.002 5.24609H691.005V0.246094H693.002V5.24609ZM696.996 5.24609H694.999V0.246094H696.996V5.24609ZM700.991 5.24609H698.994V0.246094H700.991V5.24609ZM704.985 5.24609H702.988V0.246094H704.985V5.24609ZM708.979 5.24609H706.982V0.246094H708.979V5.24609ZM712.974 5.24609H710.976V0.246094H712.974V5.24609ZM716.968 5.24609H714.971V0.246094H716.968V5.24609ZM720.962 5.24609H718.965V0.246094H720.962V5.24609ZM724.956 5.24609H722.959V0.246094H724.956V5.24609ZM728.951 5.24609H726.953V0.246094H728.951V5.24609ZM732.945 5.24609H730.948V0.246094H732.945V5.24609ZM736.939 5.24609H734.942V0.246094H736.939V5.24609ZM740.933 5.24609H738.936V0.246094H740.933V5.24609ZM744.928 5.24609H742.93V0.246094H744.928V5.24609ZM748.922 5.24609H746.925V0.246094H748.922V5.24609ZM752.916 5.24609H750.919V0.246094H752.916V5.24609ZM756.91 5.24609H754.913V0.246094H756.91V5.24609ZM760.905 5.24609H758.908V0.246094H760.905V5.24609ZM764.899 5.24609H762.902V0.246094H764.899V5.24609ZM768.893 5.24609H766.896V0.246094H768.893V5.24609ZM772.887 5.24609H770.89V0.246094H772.887V5.24609ZM776.882 5.24609H774.885V0.246094H776.882V5.24609ZM780.876 5.24609H778.879V0.246094H780.876V5.24609ZM784.87 5.24609H782.873V0.246094H784.87V5.24609ZM788.865 5.24609H786.867V0.246094H788.865V5.24609ZM792.859 5.24609H790.862V0.246094H792.859V5.24609ZM796.853 5.24609H794.856V0.246094H796.853V5.24609ZM800.847 5.24609H798.85V0.246094H800.847V5.24609ZM804.842 5.24609H802.844V0.246094H804.842V5.24609ZM808.836 5.24609H806.839V0.246094H808.836V5.24609ZM812.83 5.24609H810.833V0.246094H812.83V5.24609ZM816.824 5.24609H814.827V0.246094H816.824V5.24609ZM820.819 5.24609H818.821V0.246094H820.819V5.24609ZM824.813 5.24609H822.816V0.246094H824.813V5.24609ZM828.807 5.24609H826.81V0.246094H828.807V5.24609ZM832.801 5.24609H830.804V0.246094H832.801V5.24609ZM836.796 5.24609H834.799V0.246094H836.796V5.24609ZM840.79 5.24609H838.793V0.246094H840.79V5.24609ZM844.784 5.24609H842.787V0.246094H844.784V5.24609ZM848.778 5.24609H846.781V0.246094H848.778V5.24609ZM852.773 5.24609H850.776V0.246094H852.773V5.24609ZM856.767 5.24609H854.77V0.246094H856.767V5.24609ZM860.761 5.24609H858.764V0.246094H860.761V5.24609ZM864.755 5.24609H862.758V0.246094H864.755V5.24609ZM868.75 5.24609H866.753V0.246094H868.75V5.24609ZM872.744 5.24609H870.747V0.246094H872.744V5.24609ZM876.738 5.24609H874.741V0.246094H876.738V5.24609ZM880.733 5.24609H878.735V0.246094H880.733V5.24609ZM884.727 5.24609H882.73V0.246094H884.727V5.24609ZM888.721 5.24609H886.724V0.246094H888.721V5.24609ZM892.715 5.24609H890.718V0.246094H892.715V5.24609ZM896.71 5.24609H894.712V0.246094H896.71V5.24609ZM900.704 5.24609H898.707V0.246094H900.704V5.24609ZM904.698 5.24609H902.701V0.246094H904.698V5.24609ZM908.692 5.24609H906.695V0.246094H908.692V5.24609ZM912.687 5.24609H910.69V0.246094H912.687V5.24609ZM916.681 5.24609H914.684V0.246094H916.681V5.24609ZM920.675 5.24609H918.678V0.246094H920.675V5.24609ZM924.669 5.24609H922.672V0.246094H924.669V5.24609ZM928.664 5.24609H926.667V0.246094H928.664V5.24609ZM932.658 5.24609H930.661V0.246094H932.658V5.24609ZM936.652 5.24609H934.655V0.246094H936.652V5.24609ZM940.646 5.24609H938.649V0.246094H940.646V5.24609ZM944.641 5.24609H942.644V0.246094H944.641V5.24609ZM948.635 5.24609H946.638V0.246094H948.635V5.24609ZM952.629 5.24609H950.632V0.246094H952.629V5.24609ZM956.624 5.24609H954.626V0.246094H956.624V5.24609ZM960.618 5.24609H958.621V0.246094H960.618V5.24609ZM964.612 5.24609H962.615V0.246094H964.612V5.24609ZM968.606 5.24609H966.609V0.246094H968.606V5.24609ZM972.601 5.24609H970.603V0.246094H972.601V5.24609ZM976.595 5.24609H974.598V0.246094H976.595V5.24609ZM980.589 5.24609H978.592V0.246094H980.589V5.24609ZM984.583 5.24609H982.586V0.246094H984.583V5.24609ZM988.578 5.24609H986.581V0.246094H988.578V5.24609ZM992.572 5.24609H990.575V0.246094H992.572V5.24609ZM996.566 5.24609H994.569V0.246094H996.566V5.24609ZM1000.56 5.24609H998.563V0.246094H1000.56V5.24609ZM1004.55 5.24609H1002.56V0.246094H1004.55V5.24609ZM1008.55 5.24609H1006.55V0.246094H1008.55V5.24609ZM1012.54 5.24609H1010.55V0.246094H1012.54V5.24609ZM1016.54 5.24609H1014.54V0.246094H1016.54V5.24609ZM1020.53 5.24609H1018.53V0.246094H1020.53V5.24609ZM1024.53 5.24609H1022.53V0.246094H1024.53V5.24609ZM1028.52 5.24609H1026.52V0.246094H1028.52V5.24609ZM1032.51 5.24609H1030.52V0.246094H1032.51V5.24609ZM1036.51 5.24609H1034.51V0.246094H1036.51V5.24609ZM1040.5 5.24609H1038.51V0.246094H1040.5V5.24609ZM1044.5 5.24609H1042.5V0.246094H1044.5V5.24609ZM1048.49 5.24609H1046.49V0.246094H1048.49V5.24609ZM1052.48 5.24609H1050.49V0.246094H1052.48V5.24609ZM1056.48 5.24609H1054.48V0.246094H1056.48V5.24609ZM1060.47 5.24609H1058.48V0.246094H1060.47V5.24609ZM1064.47 5.24609H1062.47V0.246094H1064.47V5.24609ZM1068.46 5.24609H1066.46V0.246094H1068.46V5.24609ZM1072.46 5.24609H1070.46V0.246094H1072.46V5.24609ZM1076.45 5.24609H1074.45V0.246094H1076.45V5.24609ZM1080.44 5.24609H1078.45V0.246094H1080.44V5.24609ZM1084.44 5.24609H1082.44V0.246094H1084.44V5.24609ZM1088.43 5.24609H1086.44V0.246094H1088.43V5.24609ZM1092.43 5.24609H1090.43V0.246094H1092.43V5.24609ZM1096.42 5.24609H1094.42V0.246094H1096.42V5.24609ZM1100.41 5.24609H1098.42V0.246094H1100.41V5.24609ZM1104.41 5.24609H1102.41V0.246094H1104.41V5.24609ZM1108.4 5.24609H1106.41V0.246094H1108.4V5.24609ZM1112.4 5.24609H1110.4V0.246094H1112.4V5.24609ZM1116.39 5.24609H1114.39V0.246094H1116.39V5.24609ZM1120.39 5.24609H1118.39V0.246094H1120.39V5.24609ZM1124.38 5.24609H1122.38V0.246094H1124.38V5.24609ZM1128.37 5.24609H1126.38V0.246094H1128.37V5.24609ZM1132.37 5.24609H1130.37V0.246094H1132.37V5.24609ZM1136.36 5.24609H1134.36V0.246094H1136.36V5.24609ZM1140.36 5.24609H1138.36V0.246094H1140.36V5.24609ZM1144.35 5.24609H1142.35V0.246094H1144.35V5.24609ZM1148.34 5.24609H1146.35V0.246094H1148.34V5.24609ZM1152.34 5.24609H1150.34V0.246094H1152.34V5.24609ZM1156.33 5.24609H1154.34V0.246094H1156.33V5.24609ZM1160.33 5.24609H1158.33V0.246094H1160.33V5.24609ZM1164.32 5.24609H1162.32V0.246094H1164.32V5.24609ZM1168.32 5.24609H1166.32V0.246094H1168.32V5.24609ZM1172.31 5.24609H1170.31V0.246094H1172.31V5.24609ZM1176.3 5.24609H1174.31V0.246094H1176.3V5.24609ZM1180.3 5.24609H1178.3V0.246094H1180.3V5.24609ZM1184.29 5.24609H1182.29V0.246094H1184.29V5.24609ZM1188.29 5.24609H1186.29V0.246094H1188.29V5.24609ZM1192.28 5.24609H1190.28V0.246094H1192.28V5.24609ZM1196.27 5.24609H1194.28V0.246094H1196.27V5.24609ZM1200.27 5.24609H1198.27V0.246094H1200.27V5.24609ZM1204.26 5.24609H1202.27V0.246094H1204.26V5.24609ZM1208.26 5.24609H1206.26V0.246094H1208.26V5.24609ZM1212.25 5.24609H1210.25V0.246094H1212.25V5.24609ZM1216.24 5.24609H1214.25V0.246094H1216.24V5.24609ZM1220.24 5.24609H1218.24V0.246094H1220.24V5.24609ZM1224.23 5.24609H1222.24V0.246094H1224.23V5.24609ZM1228.23 5.24609H1226.23V0.246094H1228.23V5.24609ZM1232.22 5.24609H1230.22V0.246094H1232.22V5.24609ZM1236.22 5.24609H1234.22V0.246094H1236.22V5.24609ZM1240.21 5.24609H1238.21V0.246094H1240.21V5.24609ZM1244.2 5.24609H1242.21V0.246094H1244.2V5.24609ZM1248.2 5.24609H1246.2V0.246094H1248.2V5.24609ZM1252.19 5.24609H1250.19V0.246094H1252.19V5.24609ZM1256.19 5.24609H1254.19V0.246094H1256.19V5.24609ZM1260.18 5.24609H1258.18V0.246094H1260.18V5.24609ZM1264.17 5.24609H1262.18V0.246094H1264.17V5.24609ZM1268.17 5.24609H1266.17V0.246094H1268.17V5.24609ZM1272.16 5.24609H1270.17V0.246094H1272.16V5.24609ZM1276.16 5.24609H1274.16V0.246094H1276.16V5.24609ZM1280.15 5.24609H1278.15V0.246094H1280.15V5.24609ZM1284.15 5.24609H1282.15V0.246094H1284.15V5.24609ZM1288.14 5.24609H1286.14V0.246094H1288.14V5.24609ZM1292.13 5.24609H1290.14V0.246094H1292.13V5.24609ZM1296.13 5.24609H1294.13V0.246094H1296.13V5.24609ZM1300.12 5.24609H1298.12V0.246094H1300.12V5.24609ZM1304.12 5.24609H1302.12V0.246094H1304.12V5.24609ZM1308.11 5.24609H1306.11V0.246094H1308.11V5.24609ZM1312.1 5.24609H1310.11V0.246094H1312.1V5.24609ZM1316.1 5.24609H1314.1V0.246094H1316.1V5.24609ZM1320.09 5.24609H1318.1V0.246094H1320.09V5.24609ZM1324.09 5.24609H1322.09V0.246094H1324.09V5.24609ZM1328.08 5.24609H1326.08V0.246094H1328.08V5.24609ZM1332.07 5.24609H1330.08V0.246094H1332.07V5.24609ZM1336.07 5.24609H1334.07V0.246094H1336.07V5.24609ZM1340.06 5.24609H1338.07V0.246094H1340.06V5.24609ZM1344.06 5.24609H1342.06V0.246094H1344.06V5.24609ZM1348.05 5.24609H1346.05V0.246094H1348.05V5.24609ZM1352.05 5.24609H1350.05V0.246094H1352.05V5.24609ZM1356.04 5.24609H1354.04V0.246094H1356.04V5.24609ZM1360.03 5.24609H1358.04V0.246094H1360.03V5.24609ZM1364.03 5.24609H1362.03V0.246094H1364.03V5.24609ZM1368.02 5.24609H1366.03V0.246094H1368.02V5.24609ZM1372.02 5.24609H1370.02V0.246094H1372.02V5.24609ZM1376.01 5.24609H1374.01V0.246094H1376.01V5.24609ZM1380 5.24609H1378.01V0.246094H1380V5.24609ZM1384 5.24609H1382V0.246094H1384V5.24609ZM1387 5.24609H1386V0.246094H1387V5.24609Z" fill="#87FDF6"/>
</svg>
