<svg width="125" height="59" viewBox="0 0 125 59" fill="none" xmlns="http://www.w3.org/2000/svg">
<path fill-rule="evenodd" clip-rule="evenodd" d="M43.5024 44.1051C46.8462 40.6981 48.5499 35.9732 48.5499 29.8547C48.5499 23.7357 46.8461 19.0465 43.5062 15.7066L43.4985 15.6989C40.2204 12.2947 35.6957 10.5646 29.8498 10.5646C24.0044 10.5646 19.4441 12.2945 16.099 15.7027C12.8226 19.0421 11.1498 23.7327 11.1498 29.8547C11.1498 35.9738 12.8212 40.6989 16.099 44.1051C19.4431 47.447 24.0035 49.1449 29.8498 49.1449C35.6989 49.1449 40.225 47.4455 43.5024 44.1051ZM15.6871 44.5093C12.2775 40.9686 10.5727 36.0837 10.5727 29.8547C10.5727 23.6257 12.2775 18.7737 15.6871 15.2985C19.1622 11.7578 23.8831 9.98749 29.8498 9.98749C35.8166 9.98749 40.5047 11.7578 43.9143 15.2985C47.3894 18.7737 49.127 23.6257 49.127 29.8547C49.127 36.0837 47.3894 40.9686 43.9143 44.5093C40.5047 47.9844 35.8166 49.722 29.8498 49.722C23.8831 49.722 19.1622 47.9844 15.6871 44.5093ZM51.096 51.1259L51.0933 51.1284C45.466 56.3537 38.3699 58.9541 29.8498 58.9541C21.3297 58.9541 14.2023 56.3537 8.51054 51.1307L8.50533 51.1259C2.86352 45.8199 0.0620117 38.7078 0.0620117 29.8547C0.0620117 21.0018 2.86355 13.9207 8.50804 8.67944C14.1995 3.38985 21.3277 0.755371 29.8498 0.755371C38.3712 0.755371 45.4678 3.38949 51.0945 8.68054C56.7382 13.9217 59.5393 21.0024 59.5393 29.8547C59.5393 38.7078 56.7378 45.8199 51.096 51.1259ZM8.90072 9.10232C3.39297 14.2167 0.639093 21.1341 0.639093 29.8547C0.639093 38.5753 3.39297 45.5256 8.90072 50.7055C14.474 55.8198 21.4571 58.377 29.8498 58.377C38.2426 58.377 45.1929 55.8198 50.7006 50.7055C56.2084 45.5256 58.9622 38.5753 58.9622 29.8547C58.9622 21.1341 56.2084 14.2167 50.7006 9.10232C45.1929 3.92241 38.2426 1.33245 29.8498 1.33245C21.4571 1.33245 14.474 3.92241 8.90072 9.10232ZM84.0406 33.1941L75.0767 32.5539L76.6078 2.03396H120.419V12.1382H86.9417L86.2494 22.5235C90.5273 21.0555 95.4332 20.3276 100.958 20.3276C108.249 20.3276 114.03 21.9509 118.23 25.2695C122.452 28.5389 124.55 33.142 124.55 39.0015C124.55 45.597 122.045 50.6083 117.013 53.9405C112.034 57.2375 105.319 58.8557 96.9256 58.8557C86.6026 58.8557 77.7015 56.4061 70.249 51.482L69.7965 51.1831L74.8805 42.3413L75.3821 42.6339C79.287 44.9118 82.8474 46.4948 86.0657 47.3959C89.2782 48.2954 93.2221 48.7515 97.9091 48.7515C103.307 48.7515 107.196 47.8373 109.675 46.1024C112.218 44.3033 113.462 41.9509 113.462 39.0015C113.462 36.0395 112.291 33.8709 109.947 32.4099C107.558 30.9205 103.9 30.1368 98.8926 30.1368C93.7906 30.1368 88.884 31.1373 84.1686 33.1398L84.0406 33.1941ZM86.2077 23.1488C86.0087 23.2187 85.8112 23.2903 85.615 23.3635L86.4019 11.5611H119.842V2.61104H77.1567L75.6814 32.0185L83.943 32.6086C88.7295 30.576 93.7127 29.5597 98.8926 29.5597C108.99 29.5597 114.039 32.707 114.039 39.0015C114.039 42.1488 112.695 44.6732 110.007 46.5747C107.384 48.4106 103.351 49.3286 97.9091 49.3286C93.1882 49.3286 89.1885 48.8696 85.9101 47.9516C82.771 47.0727 79.3312 45.5625 75.5909 43.4211C75.425 43.3261 75.2584 43.2298 75.0913 43.1323L70.5671 51.0006C77.9107 55.8526 86.6969 58.2787 96.9256 58.2787C105.253 58.2787 111.842 56.6722 116.694 53.4594C121.547 50.2465 123.973 45.4272 123.973 39.0015C123.973 33.2971 121.94 28.8712 117.875 25.7239C113.809 22.5111 108.171 20.9046 100.958 20.9046C95.383 20.9046 90.4662 21.6527 86.2077 23.1488Z" fill="white"/>
<path fill-rule="evenodd" clip-rule="evenodd" d="M43.5024 44.1051C46.8462 40.6981 48.5499 35.9732 48.5499 29.8547C48.5499 23.7357 46.8461 19.0465 43.5062 15.7066L43.4985 15.6989C40.2204 12.2947 35.6957 10.5646 29.8498 10.5646C24.0044 10.5646 19.4441 12.2945 16.099 15.7027C12.8226 19.0421 11.1498 23.7327 11.1498 29.8547C11.1498 35.9738 12.8212 40.6989 16.099 44.1051C19.4431 47.447 24.0035 49.1449 29.8498 49.1449C35.6989 49.1449 40.225 47.4455 43.5024 44.1051ZM15.6871 44.5093C12.2775 40.9686 10.5727 36.0837 10.5727 29.8547C10.5727 23.6257 12.2775 18.7737 15.6871 15.2985C19.1622 11.7578 23.8831 9.98749 29.8498 9.98749C35.8166 9.98749 40.5047 11.7578 43.9143 15.2985C47.3894 18.7737 49.127 23.6257 49.127 29.8547C49.127 36.0837 47.3894 40.9686 43.9143 44.5093C40.5047 47.9844 35.8166 49.722 29.8498 49.722C23.8831 49.722 19.1622 47.9844 15.6871 44.5093ZM51.096 51.1259L51.0933 51.1284C45.466 56.3537 38.3699 58.9541 29.8498 58.9541C21.3297 58.9541 14.2023 56.3537 8.51054 51.1307L8.50533 51.1259C2.86352 45.8199 0.0620117 38.7078 0.0620117 29.8547C0.0620117 21.0018 2.86355 13.9207 8.50804 8.67944C14.1995 3.38985 21.3277 0.755371 29.8498 0.755371C38.3712 0.755371 45.4678 3.38949 51.0945 8.68054C56.7382 13.9217 59.5393 21.0024 59.5393 29.8547C59.5393 38.7078 56.7378 45.8199 51.096 51.1259ZM8.90072 9.10232C3.39297 14.2167 0.639093 21.1341 0.639093 29.8547C0.639093 38.5753 3.39297 45.5256 8.90072 50.7055C14.474 55.8198 21.4571 58.377 29.8498 58.377C38.2426 58.377 45.1929 55.8198 50.7006 50.7055C56.2084 45.5256 58.9622 38.5753 58.9622 29.8547C58.9622 21.1341 56.2084 14.2167 50.7006 9.10232C45.1929 3.92241 38.2426 1.33245 29.8498 1.33245C21.4571 1.33245 14.474 3.92241 8.90072 9.10232ZM84.0406 33.1941L75.0767 32.5539L76.6078 2.03396H120.419V12.1382H86.9417L86.2494 22.5235C90.5273 21.0555 95.4332 20.3276 100.958 20.3276C108.249 20.3276 114.03 21.9509 118.23 25.2695C122.452 28.5389 124.55 33.142 124.55 39.0015C124.55 45.597 122.045 50.6083 117.013 53.9405C112.034 57.2375 105.319 58.8557 96.9256 58.8557C86.6026 58.8557 77.7015 56.4061 70.249 51.482L69.7965 51.1831L74.8805 42.3413L75.3821 42.6339C79.287 44.9118 82.8474 46.4948 86.0657 47.3959C89.2782 48.2954 93.2221 48.7515 97.9091 48.7515C103.307 48.7515 107.196 47.8373 109.675 46.1024C112.218 44.3033 113.462 41.9509 113.462 39.0015C113.462 36.0395 112.291 33.8709 109.947 32.4099C107.558 30.9205 103.9 30.1368 98.8926 30.1368C93.7906 30.1368 88.884 31.1373 84.1686 33.1398L84.0406 33.1941ZM86.2077 23.1488C86.0087 23.2187 85.8112 23.2903 85.615 23.3635L86.4019 11.5611H119.842V2.61104H77.1567L75.6814 32.0185L83.943 32.6086C88.7295 30.576 93.7127 29.5597 98.8926 29.5597C108.99 29.5597 114.039 32.707 114.039 39.0015C114.039 42.1488 112.695 44.6732 110.007 46.5747C107.384 48.4106 103.351 49.3286 97.9091 49.3286C93.1882 49.3286 89.1885 48.8696 85.9101 47.9516C82.771 47.0727 79.3312 45.5625 75.5909 43.4211C75.425 43.3261 75.2584 43.2298 75.0913 43.1323L70.5671 51.0006C77.9107 55.8526 86.6969 58.2787 96.9256 58.2787C105.253 58.2787 111.842 56.6722 116.694 53.4594C121.547 50.2465 123.973 45.4272 123.973 39.0015C123.973 33.2971 121.94 28.8712 117.875 25.7239C113.809 22.5111 108.171 20.9046 100.958 20.9046C95.383 20.9046 90.4662 21.6527 86.2077 23.1488Z" fill="white"/>
</svg>
