<svg width="59" height="59" viewBox="0 0 59 59" fill="none" xmlns="http://www.w3.org/2000/svg">
<mask id="path-1-inside-1" fill="white">
<path fill-rule="evenodd" clip-rule="evenodd" d="M46.3667 17.4307L41.3378 12.4018L29.2684 24.4712L17.1991 12.402L12.1702 17.4308L24.2395 29.5001L12.1703 41.5693L17.1992 46.5981L29.2684 34.529L41.3377 46.5983L46.3666 41.5694L34.2973 29.5001L46.3667 17.4307Z"/>
</mask>
<path d="M41.3378 12.4018L42.0449 11.6947L41.3378 10.9876L40.6307 11.6947L41.3378 12.4018ZM46.3667 17.4307L47.0738 18.1378L47.7809 17.4307L47.0738 16.7236L46.3667 17.4307ZM29.2684 24.4712L28.5613 25.1783L29.2684 25.8854L29.9755 25.1783L29.2684 24.4712ZM17.1991 12.402L17.9062 11.6949L17.1991 10.9877L16.492 11.6949L17.1991 12.402ZM12.1702 17.4308L11.4631 16.7237L10.756 17.4308L11.4631 18.1379L12.1702 17.4308ZM24.2395 29.5001L24.9466 30.2072L25.6537 29.5001L24.9466 28.793L24.2395 29.5001ZM12.1703 41.5693L11.4632 40.8622L10.7561 41.5693L11.4632 42.2764L12.1703 41.5693ZM17.1992 46.5981L16.4921 47.3052L17.1992 48.0124L17.9063 47.3052L17.1992 46.5981ZM29.2684 34.529L29.9755 33.8219L29.2684 33.1148L28.5613 33.8219L29.2684 34.529ZM41.3377 46.5983L40.6306 47.3054L41.3377 48.0125L42.0448 47.3054L41.3377 46.5983ZM46.3666 41.5694L47.0737 42.2765L47.7808 41.5694L47.0737 40.8623L46.3666 41.5694ZM34.2973 29.5001L33.5901 28.793L32.883 29.5001L33.5901 30.2072L34.2973 29.5001ZM40.6307 13.1089L45.6596 18.1378L47.0738 16.7236L42.0449 11.6947L40.6307 13.1089ZM29.9755 25.1783L42.0449 13.1089L40.6307 11.6947L28.5613 23.7641L29.9755 25.1783ZM16.492 13.1091L28.5613 25.1783L29.9755 23.7641L17.9062 11.6949L16.492 13.1091ZM12.8773 18.1379L17.9062 13.1091L16.492 11.6949L11.4631 16.7237L12.8773 18.1379ZM24.9466 28.793L12.8773 16.7237L11.4631 18.1379L23.5324 30.2072L24.9466 28.793ZM12.8774 42.2764L24.9466 30.2072L23.5324 28.793L11.4632 40.8622L12.8774 42.2764ZM17.9063 45.891L12.8774 40.8622L11.4632 42.2764L16.4921 47.3052L17.9063 45.891ZM28.5613 33.8219L16.4921 45.891L17.9063 47.3052L29.9755 35.2361L28.5613 33.8219ZM42.0448 45.8912L29.9755 33.8219L28.5613 35.2361L40.6306 47.3054L42.0448 45.8912ZM45.6595 40.8623L40.6306 45.8912L42.0448 47.3054L47.0737 42.2765L45.6595 40.8623ZM33.5901 30.2072L45.6595 42.2765L47.0737 40.8623L35.0044 28.793L33.5901 30.2072ZM45.6596 16.7236L33.5901 28.793L35.0044 30.2072L47.0738 18.1378L45.6596 16.7236Z" fill="white" mask="url(#path-1-inside-1)"/>
</svg>
