<svg width="37" height="37" viewBox="0 0 37 37" fill="none" xmlns="http://www.w3.org/2000/svg">
<path d="M18.4995 12.084C22.4292 12.084 25.6152 15.27 25.6152 19.2006C25.6152 23.1308 22.4292 26.3172 18.4995 26.3172C14.5694 26.3172 11.3838 23.1308 11.3838 19.2006C11.3838 15.27 14.5694 12.084 18.4995 12.084V12.084Z" stroke="black"/>
<path d="M16.5852 1.00534C17.1536 1.00445 17.7878 1.00534 18.5002 1.00534C24.1999 1.00534 24.8755 1.0258 27.1263 1.1281C29.2076 1.22328 30.3372 1.57111 31.0897 1.86334C32.0859 2.2503 32.7961 2.71288 33.5429 3.46013C34.29 4.20737 34.7525 4.91904 35.1403 5.91536C35.4325 6.66706 35.7807 7.79682 35.8755 9.87843C35.9778 12.1291 36 12.8051 36 18.5029C36 24.2006 35.9778 24.8767 35.8755 27.1273C35.7803 29.209 35.4325 30.3387 35.1403 31.0904C34.7534 32.0867 34.29 32.7962 33.5429 33.543C32.7957 34.2902 32.0864 34.7528 31.0897 35.1398C30.3381 35.4333 29.2076 35.7803 27.1263 35.8755C24.8759 35.9778 24.1999 36 18.5002 36C12.8001 36 12.1245 35.9778 9.87419 35.8755C7.79284 35.7794 6.66322 35.4316 5.91029 35.1393C4.91409 34.7524 4.20252 34.2898 3.45537 33.5425C2.70822 32.7953 2.2457 32.0854 1.85789 31.0886C1.5657 30.3369 1.21747 29.2072 1.12275 27.1256C1.02046 24.8749 1 24.1989 1 18.4976C1 12.7962 1.02046 12.1237 1.12275 9.8731C1.21792 7.79148 1.5657 6.66172 1.85789 5.90914C2.24481 4.91281 2.70822 4.20115 3.45537 3.4539C4.20252 2.70666 4.91409 2.24407 5.91029 1.85622C6.66278 1.56266 7.79284 1.21572 9.87419 1.12009C11.8435 1.03114 12.6066 1.00445 16.5852 1V1.00534Z" stroke="black"/>
<path d="M29.0617 5.69669C27.6474 5.69669 26.5 6.84291 26.5 8.25779C26.5 9.67221 27.6474 10.8198 29.0617 10.8198C30.4759 10.8198 31.6233 9.67221 31.6233 8.25779C31.6233 6.84336 30.4759 5.6958 29.0617 5.6958V5.69669Z" stroke="black"/>
</svg>
